<?xml version="1.0" encoding="UTF-8" standalone="no"?>
<svg
   xmlns:dc="http://purl.org/dc/elements/1.1/"
   xmlns:cc="http://creativecommons.org/ns#"
   xmlns:rdf="http://www.w3.org/1999/02/22-rdf-syntax-ns#"
   xmlns:svg="http://www.w3.org/2000/svg"
   xmlns="http://www.w3.org/2000/svg"
   xmlns:sodipodi="http://sodipodi.sourceforge.net/DTD/sodipodi-0.dtd"
   xmlns:inkscape="http://www.inkscape.org/namespaces/inkscape"
   viewBox="0 0 270.08301 231.521"
   version="1.1"
   id="svg240"
   sodipodi:docname="Arizona_Diamondbacks_logo.svg"
   width="270.08301"
   height="231.521"
   style="clip-rule:evenodd;fill-rule:evenodd"
   inkscape:version="0.92.4 (5da689c313, 2019-01-14)">
  <metadata
     id="metadata246">
    <rdf:RDF>
      <cc:Work
         rdf:about="">
        <dc:format>image/svg+xml</dc:format>
        <dc:type
           rdf:resource="http://purl.org/dc/dcmitype/StillImage" />
      </cc:Work>
    </rdf:RDF>
  </metadata>
  <defs
     id="defs244" />
  <sodipodi:namedview
     pagecolor="#ffffff"
     bordercolor="#666666"
     borderopacity="1"
     objecttolerance="10"
     gridtolerance="10"
     guidetolerance="10"
     inkscape:pageopacity="0"
     inkscape:pageshadow="2"
     inkscape:window-width="640"
     inkscape:window-height="480"
     id="namedview242"
     showgrid="false"
     inkscape:zoom="0.53571429"
     inkscape:cx="102.33133"
     inkscape:cy="115.798"
     inkscape:window-x="0"
     inkscape:window-y="0"
     inkscape:window-maximized="0"
     inkscape:current-layer="svg240" />
  <path
     d="M 218.321,0 146.293,0.052 0,231.516 H 115.434 L 98.89,196.731 134.542,136.88 c 0.93,3.69 2.796,11.001 3.077,12.118 -1.824,3.163 -29.396,50.866 -29.396,50.866 l 42.545,-35.163 c 0.677,0.829 30.134,36.546 30.134,36.546 0,0 -13.852,-46.247 -14.783,-49.393 0.705,-1.129 5.327,-8.515 8.261,-13.209 l 12.605,58.222 -25.193,34.654 H 270.083 L 218.317,0.012 218.323,0 Z m -59.786,96.614 h 6.724 l 8.266,38.145 h -37.719 l 22.731,-38.145 h -0.001 z"
     id="path234"
     inkscape:connector-curvature="0"
     style="fill:#e3d4ad" />
  <path
     d="m 153.976,4.392 3.092,4.73 h 53.637 L 258.212,222.38 H 181.034 L 198.273,199.064 173.524,88.354 153.062,88.35 87.033,196.954 99.357,222.293 H 22.891 l -7.508,4.653 h 92.22 L 93.008,196.857 155.629,92.43 h 13.638 l 23.644,105.477 -21.243,29.07 92.524,-0.022 L 214.713,4.431 153.991,4.391 153.975,4.394 Z M 149.016,4.928 8.33,226.858 77.287,183.451 85.278,178.387 71.058,144.569 116.356,116.177 100.786,88.266 144.598,67.117 130.467,42.218 164.193,27.227 151.868,9.116 149.017,4.919 v 0.007 z"
     id="path236"
     inkscape:connector-curvature="0" />
  <path
     d="m 157.065,9.124 13.218,20.294 -33.325,14.993 14.354,24.853 -43.79,20.95 14.652,27.162 -45.309,28.552 13.956,34.246 -67.934,42.121 h 76.464 l -12.321,-25.34 66.029,-108.604 20.462,0.006 24.752,110.71 -17.242,23.316 h 77.18 L 210.703,9.125 h -53.638 z m -17.014,130.334 c 0,0 2.131,8.378 2.614,10.246 -1.295,2.235 -17.269,29.865 -17.269,29.865 0,0 22.771,-18.824 25.999,-21.486 2.232,2.701 18.319,22.208 18.319,22.208 0,0 -7.958,-26.595 -8.718,-29.128 1.179,-1.889 7.324,-11.705 7.324,-11.705 h -28.268 z"
     id="path238"
     inkscape:connector-curvature="0"
     style="fill:#a71930" />
</svg>
