<?xml version="1.0" encoding="UTF-8" standalone="no"?>
<svg xmlns:rdf="http://www.w3.org/1999/02/22-rdf-syntax-ns#" xmlns="http://www.w3.org/2000/svg" height="67.581" width="181.43" version="1.1" xmlns:cc="http://creativecommons.org/ns#" xmlns:dc="http://purl.org/dc/elements/1.1/" viewBox="0 0 181.4287 67.581096">
 <g transform="matrix(.5 0 0 .5 .91170 1.0884)">
  <path fill="#13274f" d="m48.023 0c-13.445 0.31-21.464 7.4453-25.839 13.402-5.993 8.13-7.85 17.521-6.592 22.598l0.66211 2.668 2.7344 0.98242c1.665 0.54 3.4457 0.12625 4.7637-1.0938 3.982-3.216 6.3888-4.0952 6.9688-4.1582l0.58984-0.04102c-6.81 9.193-10.936 20.653-14.922 31.781-4.164 11.655-8.0978 22.658-14.424 28.531l-1.964 1.852 0.47656 2.692c0.527 3.03 0.91862 9.5131 0.64062 16.039-0.04 2.275 0.98308 4.1159 2.7051 5.0469s3.7542 0.7439 5.4102-0.4961c10.677-7.984 17.89-29.828 24.25-49.096 2.643-7.973 5.1719-15.584 7.5039-20.828-0.294 1.398-0.31038 2.8447 0.01563 4.3027 1.494 5.688 6.2397 8.657 11.846 7.541 0 0 0.52658-0.2413 1.1426-0.5293 1.72 2.637 2.6504 6.4438 2.6504 10.633 0 3.258-0.56003 6.7428-1.707 10.01-1.494 4.24-6.1936 14.087-17.643 13.83-2.477-0.074-5.0537-1.1597-5.5547-1.4297-2.922-1.716-5.5784-0.46478-6.7734 1.4492-1.235 1.974-1.127 4.9849 1.459 6.9609-0.265-0.238 0.15039 0.14258 0.15039 0.14258 2.49 2.235 8.3441 7.5205 19.953 7.0645 9.7-0.414 18.787-7.2693 23.736-17.529-0.012 0.125-0.04883 0.26934-0.04883 0.40234 0 1.51 0.72031 2.6275 1.0703 3.0625 1.278 1.685 3.9625 2.8944 7.3125 0.81641 1.87-1.168 4.3825-2.8344 7.1035-5.3164 4.602-4.24 9.1376-10.049 14.268-18.324 0.243-0.393 2.8582-4.632 5.4062-9.959 0.553 0.012 1.1388-0.02078 1.7188-0.05078-1.28 3.753-2.6211 8.2925-2.6211 12.605 0 4.81 1.68 9.2475 7 11.646 5.973 2.71 15.695 0.45536 24.9-9.4316 2.166 2.865 5.1553 4.7366 8.9043 5.0996 3.713 0.123 7.6737-1.6981 10.678-3.8281 2.213 1.593 5.249 3.1225 9.291 2.6895 5.926-0.63 11.821-5.2137 18.021-14.055l3.6445-5.5742c3.65-5.74 9.1129-14.261 13.379-18.729-0.31 0.828-0.66614 1.7588-1.3691 2.9258-3.584 6.05-6.9766 12.297-6.9766 17.686 0 1.27 0.18647 2.4809 0.60547 3.6289 0.947 2.648 3.0195 4.6237 5.8125 5.5547 11.437 3.796 23.537-6.018 32.783-26.207 1.168-0.32 2.3114-0.72417 3.4414-1.2012-1.314 2.855-2.168 5.5444-2.168 7.9004 0 3.972 1.6293 7.1898 3.8613 9.3398 5.704 5.524 15.72 5.2135 23.166-0.18555 3.196 1.82 6.9388 2.9375 10.926 2.9785 8.61 0.145 16.202-3.7932 20.82-10.785 4.556-6.902 5.3784-15.807 2.1934-23.801h-0.002c-1.137-2.834-4.3912-11.025 0.63477-18.006 1.928-2.337 1.031-4.8605 0.70898-5.5645-0.32-0.703-1.6509-3.0298-4.9609-2.9668h-0.18554l-0.19336 0.00977c-10.223 1.013-15.897 12.971-21.879 25.629-0.62 1.292-1.3602 2.69-2.0742 4.043-0.274-0.052-0.55412-0.15455-0.82812-0.18555-0.992-0.102-1.9224 0.01052-2.8594 0.10352-0.035-0.165-0.0242-0.31033-0.0762-0.48633-0.208-0.6-0.69428-1.0765-1.1133-1.5625 0.823-0.207 1.8457-0.47461 1.8457-0.47461 2.818-0.743 3.8374-3.6311 4.1524-4.8711 0.202-0.828 0.31054-1.6547 0.31054-2.4727 0-1.87-0.53912-3.7014-1.5781-5.2734-1.655-2.513-4.3845-4.1895-7.5195-4.6035-5.987-0.795-12.492 4.2316-15.16 11.1-2.156 2.46-4.6079 4.199-7.0059 5.377-0.61-4.892-3.6403-8.4178-8.1133-9.2148-4.852-0.858-9.82 1.8098-11.832 6.3398-0.083 0.176-0.11341 0.36231-0.19141 0.57031-0.972-1.676-2.2968-3.0726-4.0508-3.7656-12.87-5.162-22.667 10.404-31.309 24.117-3.448 5.48-6.7121 10.662-9.8301 14.18-0.253 0.31-0.38775 0.35159-0.59375 0.55859 0.072-0.9 0.29378-1.997 0.92578-3.373 0.067-0.155 11.805-28.008 11.805-28.008l-16.217 1.625s-0.19559 0.46492-0.30859 0.79492c-1.48-0.734-3.0839-1.3646-4.9609-1.6016-14.473-1.842-23.382 11.014-26.91 23.672-0.216 0.672-1.4668 3.1876-2.6348 5.2656-4.7 8.366-8.7246 10.683-10.307 10.838-0.12-0.455-0.23633-0.90028-0.23633-1.6133 0-4.438 2.1816-13.456 4.5996-19.445 0.374-1.034 0.52344-1.954 0.52344-2.75 0-2.11-1.0597-3.3917-1.6367-3.9297-1.252-1.16-3.45-1.9239-5.916-0.67188-2.762 1.645-5.5041 2.6248-8.0781 3.2148 0.036-0.394 0.14453-0.85019 0.14453-1.2422 0-1.116-0.14384-2.1395-0.46484-3.0195-1.547-4.146-4.6346-6.8761-8.4766-7.4961-3.858-0.61-7.8119 1.0447-10.336 4.3027-1.654 2.16-2.502 4.7153-2.502 7.4043 0 1.697 0.33895 3.4436 1.002 5.1816 0.636 1.634 1.7639 3.1763 3.0879 4.6133-1.473 3.05-3.1636 6.3284-4.8496 9.2754-4.935 8.706-9.4755 14.933-15.686 21.49-0.258 0.27-0.44072 0.53764-0.63672 0.80664 0.16-0.466 0.33705-0.919 0.49805-1.375 1.31-3.93 1.9297-7.8908 1.9297-11.801 0-8.16-2.8959-15.957-8.1699-22.35 8.122-6.43 13.061-15.738 13.061-25.49 0-1.944-0.22956-3.8575-0.60156-5.8125 1.185-0.362 2.3704-0.7652 3.6504-1.1582 4.52-1.16 4.1477-5.2239 4.0957-5.6699-0.067-0.464-0.70258-4.4682-5.5176-4.4062-2.38 0.04-4.6841 0.19706-6.9551 0.41406-4.776-6.4645-13.029-11.513-25.579-11.481zm-1.1719 15.611c0.53525-0.01464 1.0873-0.0107 1.6582 0.01367 1.085 0.062 2.7866 0.40292 4.5996 1.1699-6.896 3.11-12.904 7.4968-17.977 13.01l-0.03125-0.58984c-0.058-1.096-0.20992-6.8465 3.2051-10.436 1.9276-2.009 4.7982-3.0655 8.5449-3.168zm267.51 4.5352-4.4727 6.9688c-2.477 3.817-2.7871 7.5305-2.9941 9.9805 0 0-0.10353 0.97177-0.14453 1.3848-0.206 0.22-0.54883 0.56055-0.54883 0.56055l-2.1133 2.3066-0.23438 0.31055c-3.01 3.753-3.5156 6.9398-3.5156 14.592l-0.0391 0.72266c-0.21 0.26-0.47852 0.59961-0.47852 0.59961-2.528 3.268-2.6194 7.1875-2.6894 10.062 0 0-0.11314 2.3281-0.11914 2.3691-7.32 1.067-152.06 21.927-155.31 22.393-9.28 1.24-13.573 8.6044-12.889 14.859 1.18 10.828 8.8152 14.056 15.574 13.467 4.276-0.352 109.44-16.053 146.79-21.637-0.295 1.49-0.51953 3.0508-0.51953 4.7168 0 2.048 0.35328 4.2287 1.1133 6.4727-0.586 1.356-1.0664 2.8553-1.2734 4.5723-0.125 1.003-0.17578 1.964-0.17578 2.834 0 6.018 2.5541 9.35 4.8691 11.127 3.673 2.833 8.5948 3.0509 14.51 0.96289 6.15 1.148 12.916 0.50569 19.018-1.8203 5.724 1.086 11.566-2.296 14.451-4.043 0 0 0.0719-0.0527 0.0879-0.0527h0.26953l4.0117-0.10352 0.66211-0.13476c2.632-0.507 7.5504-1.4294 9.7734-6.4024 0.652-1.448 0.88476-2.8952 0.88476-4.2402 0-3.435-1.6084-6.32-2.2754-7.5 0.016-0.24612 0.0352-0.44225 0.0352-0.71875 0-0.963-0.067-2.1606-0.37696-3.5176-0.806-3.764-2.8279-6.5148-4.2969-8.5098l-1.1641-1.6973-0.52149-1.2832c-0.2-0.56-0.44672-1.2206-0.76172-1.9336 3.176-2.627 4.4685-5.533 4.9805-7.5 1.08-4.218-0.10784-8.5828-3.2148-11.676-3.083-3.05-7.6546-4.456-12.811-4.084-0.155-6.692-3.2484-10.488-4.9824-12.453-0.016-0.332-0.0176-0.68164-0.0176-0.68164-0.03-3.91-0.0765-11.16-5.8945-16.992-1.257-1.272-1.4061-1.645-1.9141-2.918 0 0-0.59353-1.4041-0.76953-1.7871-0.316-0.786-1.1695-2.6058-3.9395-4.6738l-6.5742-4.9023zm-57.84 7.229c0.144 1.447 0.79159 2.512 1.1836 2.957v0.002s0.29117 0.30961 0.45117 0.47461c-1.0034-0.2656-2.0522-0.45298-3.3711-0.01563-0.0419-0.006-0.10254-0.0291-0.17187-0.04687 0-0.062-0.0234-0.11378-0.0234-0.17578 0-1.075 0.5935-2.1815 1.3125-2.7695 0.253-0.217 0.41714-0.31078 0.61914-0.42578zm-195.12 1.809c-0.038 2.586-0.69047 8.2126-5.1055 13.684l-0.05664 0.0625c-0.16 0.206-0.3655 0.37987-0.5625 0.54687-3.955-1.954-8.124-1.7374-11.252 0.76563-0.30929 0.25741-0.59861 0.53592-0.87305 0.82422 0.06118-0.08267 0.12258-0.19446 0.16797-0.27734l0.94141-1.3125c3.004-4.167 6.5262-9.04 16.74-14.293zm219.08 4.375c0.176 0.96 0.40234 1.8795 0.40234 3.0195 0 0.434-0.0258 0.88147-0.0508 1.3555-0.378 8.036-5.103 10.726-9.457 11.594 2.958-4.52 5.4855-9.2463 7.7285-13.445 0.45499-0.827 0.91595-1.6964 1.377-2.5234zm-65.033 7.7676c0.12001 0.268 0.17079 0.55764 0.30079 0.80664 0.574 1.055 1.4808 1.7709 2.3008 2.5449-3.582 6.506-7.0206 10.712-9.1406 12.068 0.73-2.68 2.7855-6.9904 4.0625-9.6484l1.7168-3.6211c0.373-0.796 0.49676-1.4064 0.75976-2.1504zm35.316 4.8711c-0.12 0.755-0.4668 1.4909-0.4668 2.2129 0 1.583 0.30102 3.1245 0.79102 4.6445-1.07 0.373-2.0835 0.53703-2.6055 0.08203-0.337-0.3-0.49023-0.76477-0.49023-1.3848 0-0.818 0.31078-1.8925 0.92578-3.0625 0.434-0.868 1.0857-1.6952 1.8457-2.4922zm-93.146 1.2207c0.3 0 0.34595 0.07228 0.37695 0.11328 0.17 0.25 0.32617 0.8068 0.32617 1.7168 0 1.262-0.31951 3.1962-1.3535 5.9062-3.7 9.65-6.2842 11.387-6.9922 11.676-0.18 0.104-0.35652 0.17498-0.85352-0.04102-0.253-0.114-0.97717-1.9433-0.20117-5.8633 1.5-7.457 6.3383-13.508 8.6973-13.508z"/>
  <g fill="#ce1141">
   <path d="m48.045 4.9219c-22.142 0.476-29.524 23.073-27.842 29.848 0.03 0.124 0.20086 0.301 0.38086 0.125 4.133-3.36 7.5967-5.2029 9.7637-5.3789-0.336-5.978 1.733-19.556 18.373-18.789 3.745 0.164 10.125 2.2307 14.076 7.7227-9.225 2.586-19.102 7.7371-27.008 17.914-14.235 18.305-16.839 49.145-30.621 61.98 0.64 3.7 0.99689 10.658 0.71289 17.113-0.016 0.703 0.36231 0.50852 0.57031 0.35352 15.537-11.65 24.561-61.824 33.481-73.998 4.002-5.46 8.0387-12.349 24.887-19.641 0.58 1.458 1.0356 3.063 1.2676 4.873 0.41 3.33-0.17981 11.593-6.1328 18.967-1.36 1.748-3.7084 3.216-4.4004 3.082-0.868-0.714-0.75956-0.47544-1.7266-1.1484-5.16-2.76-9.0635 1.3043-8.1895 5.1113 0.672 2.533 2.7584 4.5397 6.3184 3.8457 1.09-0.216 2.9262-1.8605 3.2832-1.5605 12.348 10.217 6.1209 45.762-18.037 45.234-3.665-0.103-7.1658-1.6641-7.7598-2.0371-0.59-0.352-0.59989-0.16548-0.21289 0.10352 1.954 1.718 6.6252 6.7248 17.117 6.3008 19.56-0.84 33.564-33.531 12.301-52.074 13.581-7.366 18.354-22.413 13.814-33.727 2.52-0.88 5.187-1.8105 8.166-2.7305 0.682-0.166 1.205-0.43359 0-0.43359-2.757 0.052-5.9321 0.24912-9.3301 0.70312-3.814-6.8564-11.52-11.799-23.252-11.759zm241.8 4.6758c-7.442 0.703-12.257 10.61-18.064 22.887-1.215 2.555-2.6306 5.2544-4.1406 7.9434-2.063-1.747-8.8274-3.1118-11.65 3.6602-1.64 3.922-0.92738 7.6638 1.2656 10.633-0.58 0.57-1.1623 1.1388-1.7363 1.5938-6.873 5.555-15.88-0.22747-10.787-9.9805 2.493-4.767 8.6399-8.5095 11.004-9.4395 1.143-0.478 2.3729-2.06 0.50586-1.418-2.25 0.796-5.4591-0.46573-6.1211-2.8027-0.955-3.382 0.55897-6.8372 2.793-8.6992 5.652-4.726 8.9476-0.15508 8.3516 2.5449-0.316 1.002 0.39664 0.25833 0.68164-0.88867 0.816-3.217-1.6496-5.8145-4.7676-6.2285-4.153-0.527-9.256 3.8791-10.709 9.2461-4.814 5.627-11.47 8.7296-16.75 9.2656 0.844-2.533 1.3598-4.768 1.2578-5.957-0.606-7.156-8.8325-6.6273-10.98-1.7773-2.098 4.694-1.4369 11.757 4.4941 12.627-4.452 9.235-11.992 20.827-17.686 19.535-6.773-1.54-0.41754-12.307 3.6055-20.994 3.186-6.89 1.855-10.82-0.70898-11.832-13.315-5.336-24.789 24.481-35.902 37.035-7.093 8.005-11.4 0.18581-7.4863-8.2422l8.5059-20.199-5.2695 0.52734-1.7051 4.3945c-0.687-1.77-3.4033-4.4059-7.4883-4.9219-11.526-1.48-18.807 9.5662-21.76 20.156-0.398 1.448-2.4709 5.2534-3.0859 6.3594-6.04 10.755-12.598 14.955-17.014 12.805-5.73-2.762 0.43069-22.123 2.5547-27.387 0.382-1.044 0.16933-1.3969-0.51367-1.0449-4.986 2.99-11.324 4.7373-16.334 4.4883 1.272-3.527 1.9495-6.6075 1.3535-8.1895-3.27-8.822-14.955-3.2875-11.424 5.8125 0.755 1.986 2.3373 3.8576 4.5703 5.1816-1.97 4.282-4.4873 9.2143-6.6543 13.029-5.688 10.032-10.606 16.32-16.387 22.443-1.426 1.52-0.17967 1.0361 0.48633 0.62109 2.003-1.24 4.1157-2.6983 6.3867-4.7773 4.348-4.013 8.7179-9.7105 13.42-17.312 1.813-2.907 4.4365-7.8002 6.5215-12.535 1.902 0.413 4.0623 0.53752 6.4883 0.10352 1.353-0.237 3.9085-1.3753 4.9375-1.8613 0.274-0.113 0.35742 0.25 0.35742 0.25-0.513 4.91-10.465 22.108-0.86328 26.451 5.363 2.43 15.482-1.1662 24.33-14.156 0.63 5.15 3.16 8.9549 8 9.4199 3.593 0.114 8.6652-3.1547 10.201-5.2637 2.89 2.637 10.095 11.148 23.482-7.9004 3.222-4.582 11.485-18.834 17.85-25.307 6.687-6.785 11.765-0.76686 5.7305 9.3691-4.38 7.384-9.8202 17.406-3.1602 19.619 10.984 3.65 21.619-10.952 28.006-25.742 7.212-1.117 15.897-7.7675 18.26-10.188 0.176 1.685 1.1061 4.0006 2.6621 4.7676-3.055 2.285-6.2877 4.757-8.0977 7.125-11.045 15.68 6.5431 22.908 17.246 13.713 0.477-0.393 0.91914-0.84648 1.3691-1.2715 2.803 2.4 6.7855 3.9392 11.186 3.9922 14.842 0.245 23.933-14.212 18.518-27.812v0.0039c-1.152-2.895-5.523-13.414 1.209-22.793 0.394-0.466 0.36425-0.71264-0.34375-0.68164zm-7.4766 12.441c-0.306 3.12 3.8586 7.8288 3.2266 16.258-0.573 12.576-9.8711 15.771-14.789 16.414-3.144 0.403-6.1015-0.05217-8.4395-1.0762 9.48-11.107 15.333-27.614 20.002-31.596zm32.969 2.9043-2.6328 4.0957c-1.994 3.073-2.2428 6.1351-2.4238 8.3691l-0.2832 2.2129c-0.15 0.63-0.47084 0.99331-1.4648 1.9453l-1.7988 1.9746-0.26953 0.33984c-2.12 2.66-2.7344 4.6051-2.7344 12.371 0 1.686-0.16992 2.1184-0.16992 2.1484-0.022 0.012-0.46094 0.58008-0.46094 0.58008l-0.62109 0.77539c-1.83 2.337-1.892 5.3368-1.959 7.9648l-0.16016 2.832c-0.182 1.272-0.43059 2.0677-0.68359 2.5957-3.315 0.485-156.11 22.515-157.54 22.711-7.995 1.087-10.346 7.3214-9.9434 11.023 1.102 10.187 8.7039 10.63 11.92 10.363 4.375-0.382 122.4-17.996 151.74-22.391-0.863 2.576-1.8203 5.5846-1.8203 8.9356 0 2.152 0.3947 4.4079 1.4707 6.7539-0.797 1.5-1.4286 2.9893-1.6406 4.7363-0.092 0.86-0.15039 1.6332-0.15039 2.3672 0 4.603 1.8337 7.0744 3.5137 8.3574 4.055 3.134 9.5344 1.3963 12.439 0.19726 5.933 1.25 12.514 0.48494 18.445-1.9141 4.815 1.77 10.427-1.6221 13.354-3.4121l0.66211-0.38281c0.316-0.197 0.56955-0.208 1.6856-0.125l3.0976-0.0703 0.69532-0.14453c2.456-0.445 5.8159-1.0765 7.2949-4.3965 0.42-0.94 0.5957-1.8692 0.5957-2.7812-0.002-2.182-0.98075-4.2398-1.8438-5.7598h0.002l-0.2539-0.44532s-0.10819-0.15581-0.24219-0.25781c0.005-0.062 0.004-0.16406 0.004-0.16406 0.035-0.425 0.0879-0.97275 0.0879-1.5938 0-0.776-0.0688-1.6955-0.30078-2.7715-0.647-3-2.3323-5.2855-3.6973-7.1465l-1.4023-2.0586-0.75586-1.7891c-0.424-1.17-0.95552-2.6375-2.1035-4.2715 4.275-2.42 5.7336-5.4205 6.2246-7.3105 0.77-2.98-0.0819-6.0631-2.2949-8.2441-2.726-2.71-7.0857-3.7118-12.055-2.8848-0.222-0.32-0.4412-0.62192-0.6582-0.91992 0 0-0.89461-1.3255-1.0996-1.6465 0.02-0.217 0.0352-0.47536 0.0352-0.69336 0-5.863-2.6997-8.9242-4.3477-10.785 0 0-0.47072-0.55939-0.63672-0.77539-0.017-0.456-0.0898-2.0078-0.0898-2.0078-0.02-3.64-0.0694-9.7018-4.8594-14.51-1.763-1.78-2.1146-2.6497-2.6836-4.0957l-0.78125-1.8613c-0.192-0.393-0.64744-1.385-2.6484-3l-3.7539-3.041zm-89.605 4.7598c0.20918 0.01949 0.42409 0.07023 0.64453 0.1543 2.197 0.848 2.1986 3.2147 0.26562 8.0957-0.838-0.092-1.6309-0.25639-2.2969-0.52539-3.495-1.4438-1.7511-8.017 1.3867-7.7246zm35.883 12.332c1.558 0.03302 2.9751 1.338 3.5859 2.4551-1.748 2.752-3.5637 5.3288-5.4297 7.5508-2.16-1.85-3.0573-4.385-1.7383-7.084h0.002c1.0719-2.2037 2.3683-2.9476 3.5801-2.9219zm-103.98 0.4707c4.24 0 7.6232 4.415 3.7812 14.459-4.0378 10.529-8.5305 16.836-14.158 14.334-8.677-3.878 0.67696-28.793 10.377-28.793zm-58.014 1.3535c1.385 0.01709 2.615 1.0091 2.5449 3.3828-0.025 0.816-0.75472 2.8657-1.8867 5.5117-1.54-0.567-2.7916-1.4369-3.5566-2.7109-2.1456-3.5288 0.59006-6.2121 2.8984-6.1836z"/>
  </g>
  <g fill="#13274f">
   <path d="m350.41 109.14c-1.123-1.2-1.07-1.883-0.972-3.103 0.068-0.828 0.15-1.862-0.144-3.227-0.46-2.183-1.77-3.95-3.025-5.647l-1.66-2.493-1.02-2.337c-0.536-1.49-1.08-3.03-2.853-4.85-0.15-0.165-0.285-0.31-0.424-0.476l-1.505-1.883c4.85-1.416 8.05-3.837 8.795-6.7 0.42-1.635-0.047-3.28-1.277-4.5-1.763-1.747-5.64-2.947-11.277-1.324-0.012-0.01-0.032-0.04-0.032-0.083-0.45-0.93-1.112-1.892-1.8-2.854-0.083-0.104-0.155-0.197-0.232-0.32-0.383-0.56-0.905-1.366-1.277-1.997-0.21-0.454-0.374-0.847-0.353-1.168 0.366-5.16-1.774-7.602-3.33-9.36-0.7-0.796-1.298-1.458-1.47-2.172-0.2-0.755-0.217-1.892-0.227-3.175-0.02-3.412-0.057-8.087-3.718-11.79-2.332-2.304-2.9-3.743-3.542-5.377l-0.693-1.634c-0.238-0.622-1.21-1.386-1.62-1.687l-0.568-0.424-0.39 0.61c-1.457 2.264-1.648 4.54-1.82 6.546l-0.36 2.843c-0.44 1.758-1.45 2.75-2.524 3.805l-1.458 1.562-0.305 0.382c-1.345 1.696-1.887 2.668-1.887 9.938 0 3.392-0.55 4.043-1.515 5.222l-0.558 0.694c-1.028 1.324-1.08 3.423-1.127 5.626l-0.207 3.34c-0.062 0.425-0.135 0.828-0.202 1.18l-0.388 1.572c-0.01 0-0.01 0.02-0.01 0.02h-0.01c-0.43 1.386-0.977 2.162-1.614 2.72-0.072 0.042-0.13 0.094-0.2 0.125-0.42 0.073-4.676 0.683-11.563 1.675l-1.152 0.145c-0.02 0-0.02 0.02-0.036 0.02-4.323 0.622-9.598 1.386-15.503 2.245-0.012 0-0.017-0.01-0.017-0.01l-3.097 0.444c-33.24 4.81-84.427 12.194-110.74 15.978-0.06 0-0.104-0.032-0.16-0.032l-3.397 0.55-13.34 1.913c-5.36 0.723-6.97 4.54-6.728 6.773 0.2 1.862 0.822 7.57 7.9 6.97 0.746-0.072 4.98-0.662 11.573-1.602 0.036 0 0.057 0.01 0.093 0.01l3.527-0.548c22.85-3.32 66.748-9.846 99.893-14.79l0.305-0.02 1.784-0.27c13.6-2.057 25.224-3.784 32.578-4.88 0.047 0 0.113 0.01 0.165 0l5.125-0.786c0.016 0 0.016-0.01 0.03-0.01 0.813-0.125 1.486-0.23 1.987-0.3-0.17 1.664-0.693 3.454-1.318 5.366-0.863 2.545-1.77 5.264-1.77 8.16 0 2.152 0.57 4.375 1.967 6.68-0.056 0.146-0.185 0.456-0.185 0.456-1.262 2.058-1.8 3.37-1.986 4.892-0.084 0.673-0.12 1.313-0.12 1.903 0 2.46 0.67 4.218 2.022 5.242 1.964 1.52 5.258 1.272 9.762-0.703 6.056 1.6 13.182 0.795 19.205-2.09 3.21 2.192 8.335-0.858 11.143-2.554l0.698-0.414c1.366-0.817 2.618-0.713 3.827-0.61l2.11-0.02 0.714-0.145c2.028-0.373 3.92-0.734 4.598-2.244 0.524-1.177 0.172-2.75-1.095-5.004zm-195.43 1.292c-6.464 0.95-10.596 1.53-11.31 1.582-5.118 0.445-6.132-2.813-6.447-5.72-0.017-0.082-0.02-0.175-0.02-0.29 0-1.375 0.955-4.322 5.573-4.932l10.963-1.582c0.904 0.672 1.67 2.348 2.016 4.447 0.413 2.606 0.103 5.16-0.776 6.495zm98.27-14.51c-30.794 4.592-68.946 10.248-91.186 13.486 0.807-1.975 0.812-4.633 0.486-6.598-0.3-1.81-0.874-3.3-1.634-4.344l91.145-13.155c0.676 2.887 1.276 6.113 1.19 10.612zm6.334-5.553c-0.222-2.256-0.615-4.19-1.05-5.99l5.97-0.858-4.92 6.847zm5.202 3.825 4.002-5.636c0.166 1.488 0.254 3.153 0.218 5.004-1.376 0.207-2.778 0.414-4.22 0.63zm10.704-1.604c0.02-1.84-0.062-3.474-0.228-4.984l4.587 4.344c-1.412 0.207-2.87 0.424-4.36 0.64zm8.06-6.462c-0.677-0.62-3.474-3.196-5.03-4.624l9.06-1.313c-1.247 1.853-3.507 5.173-4.03 5.938zm9.386 3.878c-1.566 0.217-3.31 0.486-5.212 0.775l4.882-6.535c0.237 1.634 0.366 3.507 0.33 5.76zm52.455-15.058c0.647 0.63 1 1.437 1 2.285 0 0.27-0.032 0.538-0.1 0.838-0.625 2.4-3.717 4.54-8.252 5.803-0.393-0.527-0.755-1.262-1.06-2.027-0.145-0.31-0.264-0.642-0.352-0.942-0.005-0.03-0.036-0.052-0.052-0.072-0.278-0.786-0.49-1.49-0.614-1.944-0.19-0.818-0.305-1.573-0.382-2.255-0.047-0.6-0.047-1.18-0.047-1.645 0 0-0.036-0.207-0.077-0.476v-0.28c0-0.02-0.005-0.04-0.005-0.06v-0.063c0-0.053-0.02-0.105-0.026-0.166 5.07-1.457 8.473-0.485 9.967 1.004zm-11.07 2.69c0.056 0.433 0.133 0.867 0.258 1.333 0 0 0.004 0.012 0.015 0.032v0.04l0.005 0.042c0.098 0.434 0.228 0.89 0.362 1.356-0.86-0.01-1.68-0.186-2.41-0.497 0.585-0.754 1.185-1.52 1.77-2.306zm-1.697-6.37c-1.412 2.005-3.062 4.114-5.01 6.204-1.526-0.827-4.034-2.77-5.694-4.364 0.57-0.083 1.143-0.176 1.697-0.25l9.007-1.59zm-2.446 14.012c-0.806 0-1.556-0.02-2.218-0.093 0.196-0.197 0.393-0.382 0.594-0.59 0.528 0.27 1.066 0.497 1.624 0.683zm-20.492-5.358c-0.12-1.282-0.414-2.45-0.864-3.33-0.1-0.238-0.243-0.403-0.362-0.6 1.93-0.63 3.962-1.158 6.06-1.593 2.66 2.71 6.465 5.708 8.71 7.208-0.658 0.527-1.34 1.044-2.04 1.54l-1.732-0.578c-2.792-0.982-6.55-2.255-9.772-2.648zm4.23 7.147c-2.038 0.795-4.2 1.427-6.547 1.84 0.72-1.2 1.252-2.368 1.63-3.505 1.2 0.186 2.363 0.642 3.5 1.107 0.46 0.196 0.925 0.38 1.417 0.557zm-8.32-19.237c0.046-1.986 0.082-3.846 0.837-4.81l0.517-0.64c1.215-1.47 1.84-2.4 1.84-6.133 0-7.064 0.528-7.726 1.588-9.03l0.32-0.412 1.334-1.438c1.1-1.086 2.373-2.316 2.895-4.478l0.398-3.03c0.15-1.718 0.413-3.455 1.297-5.182 0.254 0.248 0.46 0.445 0.507 0.57 0.016 0.03 0.667 1.58 0.667 1.58 0.687 1.708 1.324 3.332 3.847 5.875 3.28 3.268 3.31 7.436 3.33 10.777 0.017 1.385 0.017 2.585 0.26 3.527 0.268 1.034 1.003 1.86 1.783 2.75 1.35 1.53 3.015 3.423 3.015 7.27 0 0.33 0 0.682-0.032 1.034 0.01 0.054 0.01 0.116 0.01 0.178l-6.297 1.076c1.577-3.826 0.47-8.583-1.143-11.758-0.17-0.33-0.57-0.477-0.915-0.28-0.33 0.165-0.45 0.6-0.28 0.94 1.572 3.114 2.658 7.9 0.678 11.377l-1.128 0.196c-5.315 0.787-10.77 1.615-15.513 3.187l0.2-3.144zm-5.074 21.025c-0.3 0.052-0.67 0.113-1.107 0.165 0.07-4.22-0.505-7.27-1.235-10.352l2.968-0.433c0.047 0.01 0.077 0.05 0.14 0.05 0.802 0 1.33 0.332 1.654 1.036 0.948 2.09-0.22 6.64-2.42 9.535zm49.75 24.697c-0.392 0.848-1.943 1.16-3.6 1.458l-0.728 0.145h-1.753c-1.293-0.114-2.875-0.238-4.613 0.786l-0.714 0.414c-2.435 1.49-7.523 4.57-9.964 2.48l-0.336-0.3-0.393 0.208c-2.203 1.087-10.084 4.48-18.843 2.06l-0.228-0.053-0.212 0.093c-4.09 1.84-7.074 2.16-8.64 0.962-1.258-0.972-1.708-2.927-1.357-5.864 0.15-1.282 0.636-2.44 1.774-4.292l0.56-1.53-0.218-0.124c-3.21-4.974-1.7-9.525-0.217-13.93 9.525-0.425 16.185-2.524 21.697-6.3 5.678 1.45 13.058 1.222 17.95-0.526 1.018 1.282 1.463 2.41 1.88 3.568l1.108 2.576 1.77 2.617c1.163 1.582 2.356 3.236 2.776 5.12 0.134 0.61 0.17 1.147 0.17 1.633 0 0.424-0.03 0.806-0.056 1.18-0.025 0.33-0.056 0.64-0.056 0.982 0 0.962 0.222 1.934 1.324 3.06 0.662 1.242 1.028 2.256 1.028 2.98 0 0.235-0.03 0.42-0.107 0.597z"/>
   <path d="m314.38 56.654c0.15 0.36 0.012 0.775-0.34 0.93-1.386 0.683-2.544 2.317-2.89 4.086-0.342 1.717 0.097 3.36 1.225 4.685 0.253 0.29 0.237 0.734-0.036 0.992-0.28 0.25-0.704 0.238-0.968-0.05-1.433-1.656-1.986-3.735-1.557-5.907 0.43-2.203 1.87-4.2 3.656-5.067 0.337-0.166 0.746-0.01 0.91 0.33zm21.642 34.872c0.372 0.02 0.662 0.33 0.64 0.724-0.05 0.868 1.046 1.758 2.308 2.77 2.23 1.81 5.275 4.293 4.002 8.833-0.113 0.382-0.486 0.6-0.842 0.486-0.362-0.105-0.57-0.508-0.466-0.86 1.024-3.64-1.293-5.543-3.527-7.342-1.5-1.23-2.91-2.368-2.83-3.97 0.023-0.373 0.337-0.683 0.715-0.642zm7.088 15.244c-0.206 0.92-0.51 1.128-0.743 1.2l-1.412-0.03-1.525-0.073c-0.963 0.104-1.92 0.517-2.642 1.117l-2.384 1.903-0.543 0.227c-0.997 0.238-1.985 0.145-3.014-0.237-0.352-0.134-0.734 0.04-0.868 0.403-0.134 0.372 0.047 0.765 0.403 0.9 1.278 0.485 2.52 0.578 3.77 0.29l1.08-0.487 2.39-1.892c0.533-0.454 1.267-0.754 1.95-0.827l1.184 0.062 2-0.02c1.262-0.383 1.573-1.76 1.666-2.213 0.088-0.383-0.14-0.744-0.497-0.838-0.36-0.084-0.733 0.155-0.812 0.517zm-6.322 2.214zm-12.96-14.765c1.474 2.4 1.587 5.48 0.305 8.46-0.27 0.63 0.004 1.273 0.992 2.35 0 0 0.352 0.308 0.3 0.62-0.068 0.31-0.077 0.57-0.393 0.6-0.223 0.02-0.586 0.03-0.865-0.25-0.657-0.693-2.016-2.162-1.277-3.878 1.097-2.565 1.03-5.15-0.212-7.146-0.196-0.32-0.108-0.764 0.212-0.96 0.316-0.208 0.735-0.105 0.936 0.205zm-14.117 2.183c1.313 1.334 0.874 3.3-0.248 4.58l-1.682 1.43c-1.49 1.115-2.394 1.88-1.996 3.298 0.11 0.362-0.104 0.744-0.465 0.838-0.352 0.113-0.73-0.083-0.838-0.465-0.673-2.422 1.09-3.735 2.496-4.79l1.494-1.26c0.378-0.435 1.173-1.75 0.285-2.65-0.264-0.257-0.274-0.702 0-0.97 0.26-0.28 0.69-0.28 0.952-0.012zm-3.257 16.112c0.605 1.635 2.27 2.575 3.785 2.152l1.934-0.89 2.026-0.9c0.802-0.28 1.53-0.03 2.167 0.197 0.518 0.155 0.967 0.33 1.334 0.185l0.558-0.176-0.03 0.02c0.03-0.02 0.93-0.353 1.172-0.125 0.652 0.62-0.305 1.045-0.02 0.87l-1.07 0.692-0.15 0.03c-0.818 0.31-1.557 0.053-2.213-0.175-0.518-0.176-0.967-0.32-1.36-0.196l-1.774 0.827-2.224 0.992c-2.187 0.61-4.556-0.723-5.4-3-0.132-0.35 0.038-0.774 0.39-0.91 0.352-0.122 0.74 0.054 0.874 0.406zm12.36-71.194c0.345 0.156 0.49 0.57 0.345 0.92-0.646 1.51-0.595 3.537 0.134 5.336 0.557 1.356 1.43 2.358 2.383 2.73 0.357 0.135 0.527 0.538 0.41 0.89-0.135 0.362-0.524 0.55-0.87 0.414-1.333-0.517-2.456-1.747-3.175-3.496-0.863-2.13-0.91-4.6-0.13-6.432 0.156-0.362 0.56-0.517 0.9-0.362z"/>
  </g>
  <g fill="#eaaa00">
   <path d="m322.61 68.92c0.005-0.012 0.015-0.012 0.03-0.012 2.43-0.424 6.998-1.2 7.67-1.313 0.015 0.04 0.067 0.093 0.082 0.144 0.33 0.745 0.823 1.5 1.392 2.285l-8.362 1.448c-1.602 0.248-3.206 0.486-4.804 0.765-2.316 0.353-3.578 0.59-4.043 0.735-2.426 0.506-4.794 1.086-7.013 1.862-0.75-0.735-1.63-1.2-2.59-1.356 0.067-0.31 0.144-0.63 0.212-0.963 4.767-1.665 10.423-2.524 15.93-3.35 0 0 0.594-0.104 1.494-0.248zm16.79 19.142c-4.318 1.376-10.29 1.613-15.342 0.59 0.15-0.093 0.294-0.228 0.434-0.362 0.207-0.145 0.382-0.28 0.58-0.434 0.594-0.486 1.2-0.993 1.674-1.458 2.684 0.578 8.056 0.165 10.704-0.787 0.538 0.797 1.16 1.574 1.867 2.37 0.037 0.03 0.07 0.07 0.084 0.082zm-49.13-8.262c0.47-0.053 1.007-0.114 1.395-0.177 0.1 0.425 0.337 1.396 0.502 2.09 0.036 0.227 0.077 0.453 0.124 0.68-0.464 0.622-6.173 8.244-6.483 8.657-0.45 0.063-3.718 0.538-4.246 0.63-0.428-0.402-6.152-5.822-6.597-6.256-0.202-1.138-0.44-2.213-0.678-3.28 0.812-0.103 2.104-0.32 2.508-0.38l6.432 5.935c0.14 0.123 0.33 0.185 0.527 0.175 0.18-0.02 0.367-0.155 0.477-0.3 0 0 4.92-7.25 5.2-7.654l0.84-0.12zm-17.375 2.512 0.657 3.072c0.346 1.934 0.594 4.013 0.594 6.526 0 0.28 0 0.58-0.01 0.868-0.74 0.113-2.787 0.424-3.765 0.59 0-0.238 0.016-0.477 0.016-0.703 0-2.224-0.196-4.127-0.475-5.896h0.006c-0.036-0.28-0.113-0.745-0.217-1.294-0.078-0.36-0.14-0.723-0.218-1.086-0.124-0.57-0.238-1.107-0.34-1.54 0.324-0.053 0.81-0.114 1.312-0.187l2.44-0.35zm-19.48 2.844c0.926-0.134 2.958-0.434 3.765-0.55 0.615 2.566 1.168 5.38 1.225 9.03v1.52c-0.75 0.083-2.823 0.373-3.796 0.507 0.01-0.238 0.01-0.497 0.01-0.714 0-4.075-0.564-7.085-1.205-9.794zm6.355 9.794c0.012-0.63 0.012-1.252-0.01-1.83v-0.663c0.253-0.34 6.298-8.75 6.624-9.204 0.3-0.04 0.848-0.104 1.396-0.176 0.156 0.766 0.61 2.978 0.724 3.505-0.373 0.527-5.264 7.447-5.58 7.87-0.248 0.053-1.116 0.187-1.964 0.322-0.393 0.04-0.786 0.113-1.19 0.176zm34.523-5.16c0.005-0.21 0.02-0.435 0.02-0.643 0-2.648-0.258-4.757-0.61-6.598 0.02-0.042 0.025-0.105 0-0.166-0.294-1.48-0.502-2.37-0.662-2.938 0.952-0.124 2.98-0.434 3.786-0.538 0.694 2.855 1.262 5.688 1.262 9.494 0 0.258-0.016 0.558-0.02 0.827-1.04 0.166-2.308 0.342-3.775 0.56zm35.747-6.795c0.077-0.093 0.155-0.197 0.248-0.29 0.512-0.58 1.148-1.324 1.437-1.654 1.128 0.54 2.384 0.828 3.724 0.776 0.16 0.393 0.34 0.807 0.52 1.23 0.16 0.322 0.322 0.643 0.498 0.932 0.015 0.052 0.047 0.104 0.077 0.145 0.016 0.052 0.03 0.083 0.04 0.113-2.037 0.362-4.647 0.29-6.975-0.765 0.062-0.072 0.217-0.268 0.43-0.485zm-14.1 3.205c-0.952-0.165-1.924-0.55-2.953-0.972-1.137-0.476-2.327-0.9-3.613-1.127 0.232-0.95 0.33-1.882 0.346-2.76 3.04 0.403 6.62 1.613 9.297 2.553l0.693 0.228c-1.163 0.745-2.4 1.43-3.702 2.05-0.014 0-0.046 0.03-0.066 0.03zm8.386-5.533c-1.897-1.22-5.44-3.99-8.16-6.598 0.71-0.135 1.438-0.26 2.136-0.374 0.595-0.103 1.236-0.196 1.975-0.31 1.444 1.573 4.304 3.88 6.32 5.078-0.703 0.694-1.87 1.85-1.87 1.85l-0.31 0.27c-0.022 0.032-0.058 0.052-0.09 0.083zm-19.8-5.791c0.958 0.103 1.816 0.548 2.473 1.376l0.037 0.04c0.212 0.27 0.402 0.57 0.574 0.91 0.486 1.004 0.754 2.256 0.765 3.703 0.004 0.04 0.004 0.083 0.004 0.113-0.005 0.55-0.052 1.128-0.15 1.727-0.004 0.083-0.02 0.156-0.036 0.238-0.34 1.934-1.173 4.054-2.626 6.154-0.295 0.03-0.585 0.092-0.895 0.103-0.047 0-0.088 0.01-0.145 0.01-0.718 0.073-1.478 0.105-2.228 0.125l-0.005-0.786h-0.022c1.345-2.184 2.348-5.007 2.348-7.386 0-0.92-0.144-1.778-0.46-2.472-0.274-0.59-0.667-1.034-1.143-1.355 0.62-0.65 1.115-1.457 1.508-2.5z"/>
   <path d="m301.69 93.17c0.228-0.785 0.404-1.56 0.506-2.356 0.005-0.01 0.01-0.02 0.01-0.032 0.953 0 2.772-0.072 3.916-0.3 0.046-0.01 0.06-0.04 0.097-0.062 3.698-0.476 7.018-1.478 9.97-2.833 0.942-0.27 3.895-1.883 5.493-3.092 0 0 0.005-0.01 0.01-0.032 1.076-0.744 2.084-1.53 3.047-2.337 0.04-0.03 0.103-0.05 0.134-0.06l0.765-0.725 0.06-0.05c3.135-2.844 5.658-5.937 7.71-8.77 0.223 0.31 0.435 0.702 0.564 1.086 0.068 0.196 0.125 0.402 0.134 0.59v1.403c-0.03 0.042-0.06 0.094-0.06 0.094-8.534 11.82-16.078 18.005-32.75 18.906 0.13-0.436 0.275-0.922 0.394-1.43zm-142.48 5.472c0.9 0.693 1.67 2.327 2.006 4.416 0.13 0.775 0.192 1.572 0.192 2.317 0 1.8-0.377 3.34-1.02 4.27-0.46 0.073-2.56 0.394-3.913 0.6 0.502-1.21 0.816-2.606 0.816-4.033 0-0.88-0.07-1.748-0.2-2.504-0.31-1.954-1.003-3.36-1.846-4.426 1.33-0.216 3.496-0.558 3.966-0.64z"/>
  </g>
 </g>
</svg>
