<?xml version="1.0" encoding="UTF-8" standalone="no"?>
<svg xmlns:rdf="http://www.w3.org/1999/02/22-rdf-syntax-ns#" xmlns="http://www.w3.org/2000/svg" height="189.74" width="200" version="1.1" xmlns:cc="http://creativecommons.org/ns#" xmlns:dc="http://purl.org/dc/elements/1.1/" viewBox="0 0 200 189.73689">
 <g transform="matrix(1.5645 0 0 1.5645 1.0349 .96506)">
  <path fill="#df4601" d="m53.803 119.2c-14.1 0-27.3-5.1-36.2-14.1-8-8-12.2-18.8-12.3-31.2l-4 0.7-0.2-0.7c-0.1-0.5-2.9-12.7 10.5-23.5-3.6-8.4-7-23.8 7-35.7 1.5-1.5 2.5-2.1 3.2-2.7 0.4-0.3 0.7-0.5 1-0.7 0.8-2.2 2.4-4.2 3.2-5 4.4-4.6 10-5.3 10.2-5.4 0.8-0.1 1.6-0.2 2.4-0.2 4.3 0 6.8 1.8 7.9 2.6 0.1 0.1 0.1 0.1 0.2 0.1 0.5 0.1 1.1 0.2 1.9 0.2s1.9 0.1 3.3 0.2c7.9 1 14.6 4.7 20 10.8 1.8-0.2 9-1.2 12.6-2 1.8-0.4 3.7-0.8 5.5-1.2 8.8-1.9 17.1-3.7 23.1-3.7 0.9 0 1.7 0 2.4 0.1h0.1c4.3 0.8 7.6 3.1 9 6.5 3 7.2 1.1 12.8-6.5 18.9-9.1 7.3-22.1 11.1-29.5 12.8 0.1 0.6 0.3 1.7 0.8 3.5 1.8-0.2 3.7-0.2 5.5-0.2 14.8 0 24.3 5.4 24.9 10.7 0.1 1.8-1.2 3.9-4.3 4.8-13.3 3.5-16 10-19.5 25.2-2.1 9-7.4 16.5-15.6 21.7-7.3 4.9-16.8 7.5-26.6 7.5"/>
  <path fill="#fff" d="m38.603 1.5c4.4 0 6.9 2.1 7.8 2.7 1.2 0.4 2.5 0.1 5.4 0.5 5 0.7 12.9 2.8 19.8 10.9 0 0 8.9-1.2 13.1-2 10.6-2.2 21.3-4.8 28.4-4.8 0.8 0 1.6 0 2.3 0.1 4.5 0.8 7.3 3.3 8.4 6.1 3.1 7.4 0.6 12.5-6.2 18-8.5 6.8-20.9 10.8-29.8 12.9 0 0 0.1 1.4 1.1 4.9 2.1-0.2 4.1-0.3 6-0.3 14.4 0 23.6 5.2 24.1 10 0.1 1.4-1 3.2-3.8 4-13.7 3.6-16.6 10.5-20.1 25.8-4.3 18.8-22.5 28.4-41.4 28.4-23.5 0-47.9-14.8-47.8-45.4l-4.2 0.7s-3-12.4 10.7-23.1c-2.5-5.6-8.7-22.4 6.5-35.3 2.4-2.3 3.3-2.6 4.4-3.5 0.7-2.1 2.2-4.1 3.1-4.9 4.3-4.4 9.7-5.1 9.7-5.1 1-0.5 1.8-0.6 2.5-0.6m0-1.5c-0.8 0-1.7 0.1-2.5 0.2-0.5 0.1-6.1 0.9-10.6 5.6-0.8 0.8-2.4 2.8-3.3 5.1-0.2 0.2-0.5 0.4-0.8 0.6-0.8 0.5-1.7 1.2-3.3 2.7-6.9 5.8-10.4 13-10.4 21.5 0 4.6 1 9.5 3 14.5-6.8 5.6-9.3 11.5-10.2 15.7-1 4.7-0.2 8.1-0.2 8.2l0.3 1.4 1.4-0.2 2.5-0.4c0.3 12.2 4.6 22.8 12.6 30.8 9.1 9.1 22.5 14.3 36.7 14.3 9.9 0 19.5-2.6 27-7.4 8.3-5.3 13.8-13 15.9-22.2 3.5-15.2 6-21.3 18.9-24.6 3.6-1 5.1-3.5 4.9-5.6-0.3-3-3.2-5.9-7.8-8-3.3-1.5-9.2-3.3-17.9-3.3-1.6 0-3.2 0.1-4.9 0.2-0.2-0.9-0.4-1.5-0.5-2.1 7.6-1.8 20.1-5.7 29-12.8 7.9-6.3 9.9-12.2 6.7-19.8-1.5-3.6-5-6.2-9.6-7h-0.2c-0.8-0.1-1.6-0.1-2.5-0.1-6.1 0-14.4 1.8-23.2 3.7-1.8 0.4-3.7 0.8-5.5 1.2-3.4 0.7-9.9 1.6-12.1 1.9-5.2-6.3-12-9.9-20-11-1.4-0.2-2.5-0.2-3.4-0.2-0.7 0-1.2 0-1.6-0.1 0 0-0.1 0-0.1-0.1-1.1-0.8-3.8-2.7-8.3-2.7"/>
  <path style="" d="m101.3 60.3c-14.8 8.2-13.8 18.8-30.4 23.2-18.8 4.9-34-7.7-23-10.2 2.6-0.5 2.9-2.1 0.1-1.6-6.6 0.4-15.1 3.8-7.1 17 0 0 1.1 0.5 1.6 0 0 0-3-6.7-0.7-8.6 10.6 10.1 34.2 11.9 49-7.8 5-6.6 10.8-10.4 16.4-12.7-9-2.2-19.2-2.4-24.8-0.7-0.7-8.9-1.2-11.4-2.9-15.2-0.8-1.7-0.9-2.7 3-3.8 2.4-0.7 12.4-3 21-6.9 6.1-2.8 10.3-5.9 11.4-7 0.9-0.8 4.1-4.4 2.9-7.3s-4.1-3.1-7.6-2.8c-3 0.3-4.4 0.4-23.1 4.5-9.8 2-15.4 2.1-18.9 3.2 0 0-4.6-11.2-19.9-11.7-2 0-5.2-0.4-6.8-2-1.7-1.3-4.7-1.1-7.2 0.3-1.9 1-3.5 2.6-3.8 4.1-0.7 2.6-1.6 2.4-5.2 5.4-4.5 3.7-14.8 11.9-3.4 32.8-10.4 6-11.9 13-11.9 13l4.8-0.3c-0.7 1.3-1.3 5.6-1.3 7.5-0.1 10.9 3.2 19.9 9.9 26.7 7.3 7.4 18.4 11.7 30.2 11.7 8.3 0 16.3-2.2 22.5-6.1 2.8-1.8 5.3-4 7.2-6.5-23.8 14.8-45.6 2.2-50-10.4-4.3-12.3 3.4-21.8 13.2-19.5 13.7 3.3 20.9 1.4 23-5.2 1.7 0.6 5.6 0.5 8-0.7 3.6-1.6 11.9-4.6 23.8-2.4"/>
  <g>
   <path fill="#fff" d="m70.357 41.873c-0.422-0.026-0.841 0.015-1.253 0.127-3.3 0.9-4.8 6.0004-3.5 11.4 1.5 5.4 5.2996 9.0992 8.5996 8.1992s4.8004-6.0004 3.4004-11.4c-1.225-4.725-4.2889-8.1471-7.2461-8.3262zm-34.054 3.127c-8.1 3.8-15.9 4.6992-15.9 4.6992l1.4004 2.9004 14.5-7.5996zm20.064 2.3984c-0.42852-0.000782-0.85117 0.06367-1.2637 0.20117-3.2 1-4.4012 6.2-2.7012 11.5s5.8 8.8012 9 7.7012c3.2-1 4.4012-6.2 2.7012-11.5-1.4875-4.6375-4.7367-7.8969-7.7363-7.9023z"/>
   <path d="m67.096 49.83c-0.206 0.027-0.405 0.082-0.592 0.17-1.6 0.8-1.9008 3.2996-0.80078 5.5996 1.1 2.4 3.3008 3.6004 4.8008 2.9004 1.6-0.8 1.8988-3.2996 0.79883-5.5996-0.9625-2.0125-2.766-3.259-4.207-3.0703zm-12.771 4.7754c-0.47188-0.025-0.92031 0.06992-1.3203 0.29492-1.6 0.9-1.9 3.6996-0.5 6.0996s3.7984 3.7008 5.3984 2.8008 1.9-3.7016 0.5-6.1016c-1.05-1.875-2.6625-3.0188-4.0781-3.0938z"/>
   <path fill="#df4601" d="m37.043 12.213c-1.4689 0.05691-3.0086 0.98164-3.8398 4.0879l7.5-2.8008s-1.7716-1.3603-3.6602-1.2871zm14.859 3.287c-1 0.1-1.8984 0.50078-2.3984 1.3008-0.6 0.8-0.80039 2-0.40039 3-0.9 2.2-0.80117 4.7988-0.20117 6.7988 0.7 2.1 1.7016 3.6008 3.1016 4.3008 0.8 0.5 1.8 0.49883 2.5 0.29883 1-0.3 1.6992-0.99961 2.1992-2.0996 1.1-2.3 0.89961-5.7 0.09961-8 0.4-0.3 0.89961-0.99961 1.0996-1.5996l-0.69922-0.19922c-0.2 0.4-0.39922 0.79961-0.69922 1.0996-1.2-3.3-2.9016-5.0004-4.6016-4.9004zm0.10156 1.5c1.2 0 2.2984 2.3008 2.8984 4.3008-0.9 0.4-1.5988 0.39961-2.2988 0.09961-0.8-0.3-1.5004-1.0008-1.9004-1.8008-0.3-0.7-0.30039-1.4996 0.09961-2.0996 0.2-0.3 0.70117-0.5 1.2012-0.5zm61.891 2.9473c-1.65-0.141-19.296 12.153-19.296 12.153 11.696-3.9 21.096-9.8 19.396-12.1-0.0188-0.03125-0.0562-0.04819-0.10938-0.05273zm-7.5918 0.35352s-19.1 4.1992-31.1 5.6992c-12.9 1.5-24.4 10.4-24.4 10.4-4.9 3.2 0.10117 3.1992 7.7012 4.1992 11.7 0.3 19.099-2.1992 29.199-8.1992 9.3-6.5 18.6-12.1 18.6-12.1zm-47.199 0.09961c-0.1 0-0.20078 0.20039-0.30078 0.40039-0.2 0.4-0.29961 0.99883-0.09961 1.2988 0 0.1 0.2 0.1 0.5 0 0.1 0 0.19922-0.09922 0.19922-0.19922 0.2-0.2 0.20156-0.60078 0.10156-0.80078-0.1-0.1-0.20039-0.09961-0.40039-0.09961 0-0.2-0.000391-0.29961 0.09961-0.59961h-0.09961zm1.7988 1l-0.806 0.599c-0.1 0.3-0.20117 0.90039-0.20117 1.4004l-0.1 1.6c-0.1 1-0.29883 1.7996-0.79883 2.0996l-0.201 0.9h0.09961c0.6-0.3 1.0008-0.90039 1.3008-1.9004l0.09961-0.90039 0.09961-0.79883v-0.20117l0.10156-0.79883c0-0.2 0.09961-0.39961 0.09961-0.59961v-0.10156l0.09961 0.10156c0.2 0.3 0.79961 0.8 1.0996 1l0.09961 0.09961h-0.09961c-1 0.4-1.2 1.1004-1 1.4004 0.1 0.2 0.30039 0.4 0.40039 0.5 0.2 0.1 0.50078 0.09844 0.80078-0.10156 0.6-0.3 0.99883-0.99922 0.79883-1.6992v-0.09961l-0.09961-0.30078c-0.1-0.3-0.2-0.49883-0.5-0.79883l-0.701-0.603-0.201-0.199c-0.2-0.1-0.29883-0.3-0.29883-0.5v-0.09961h-0.10156zm-10.406 0.599c1.5 0.9 2.8996 0.9 4.5996 0 0.3 1.1 0.59961 2.6008 0.59961 3.8008 0 1-0.09961 2.2996-0.59961 3.0996-0.3 0.5-0.59961 0.69883-1.0996 0.79883-1.6 0.3-3-2.0984-3.5-3.8984-0.3-1.2-0.3-2.6008 0-3.8008zm11.5 2h0.09961s-0.000391 0.09961 0.09961 0.09961c0 0.3 0.000391 0.60117-0.09961 0.70117-0.1 0.2-0.20039 0.29844-0.40039 0.39844s-0.4 0.00039-0.5-0.09961c-0.2-0.1-0.19961-0.3-0.09961-0.5s0.40039-0.39961 0.90039-0.59961z"/>
  </g>
 </g>
</svg>
