<?xml version="1.0" encoding="UTF-8" standalone="no"?>
<svg xmlns:rdf="http://www.w3.org/1999/02/22-rdf-syntax-ns#" xmlns="http://www.w3.org/2000/svg" xml:space="preserve" height="128" width="126.67" version="1.1" xmlns:cc="http://creativecommons.org/ns#" xmlns:dc="http://purl.org/dc/elements/1.1/" viewBox="0 0 126.66667 128"><g transform="translate(.23273 -.23273)"><path fill="#fff" d="m0 63.667c0-34.803 28.197-63 63-63 34.803-0.00033 63 28.197 63 63 0 34.802-28.197 63.003-63 63.003s-63-28.201-63-63.003z"/><path fill="#0e3386" d="m4.0984 63.469c0-32.5 26.402-58.901 58.902-58.901s58.902 26.401 58.902 58.901-26.402 58.895-58.902 58.895c-32.598 0-58.902-26.395-58.902-58.895z"/><path fill="#fff" d="m63 106.97c24 0 43.5-19.5 43.5-43.5s-19.5-43.5-43.5-43.5-43.5 19.5-43.5 43.5 19.402 43.5 43.5 43.5z"/><path d="m63.002 25.264c-21.098 0-38.197 17.1-38.197 38.205 0 21.099 17.099 38.195 38.197 38.195 12.5 0 23.5-5.9983 30.5-15.195l-11.402-10.703c-4.0984 6.3032-11.098 10.5-19.197 10.5-12.599 0-22.803-10.198-22.803-22.797 0.09893-12.605 10.303-22.803 22.902-22.803 8.3027 0 15.5 4.4016 19.5 11l11.197-10.902c-7-9.4011-18.099-15.5-30.697-15.5zm-6.8027 28.1v13.805c0 1.9016-2.8945 1.9016-2.8945 0v-13.803h-6.9023v13.604c0 4.5 1.0996 6.5996 4.4023 6.5996h7.0977c4 0 5.1973-1.2051 5.1973-6.2051v-14h-6.9004zm9.4004 0v20.205h10.803c3.7957 0 5.7969-0.70508 5.7969-5.2051 0-1.6973-0.0018-3.6965-1.8965-4.7949 1.3947-0.7043 1.8965-2 1.8965-4.5 0-4.7043-1.6985-5.7051-5.7969-5.7051h-10.803zm24 0c-3 0-4.696 1.2051-4.7949 4.7051-0.10533 3.5 0 1.9992 0 3.2949 0 1.3027-0.20505 4.2051 3.7949 4.2051h5c1.4016 0 1.0996 1.6973 1.0996 1.6973v1.0977c0 1.2043-2.3945 1.2044-2.8945 0.30274-0.40107-0.5984-0.20508-1.6973-0.20508-1.6973h-6.7949c0 1.3947-0.80284 6.6973 3.3945 6.6973 3.6053-0.0984 7.7051-0.09766 7.7051-0.09766 3.6968 0 5.5977-0.99953 5.5977-4.3027v-4.5c0-2.4011-1.6966-3.9023-4.0977-3.9023h-4.9023c-1.3027 0-1-1.8947-1-2.5 0-0.89467 2.8027-1.1972 2.8027 0.30274v0.90234h7.2949c0-4.7043-0.90033-6.2051-5.5977-6.2051h-6.4023zm-16.795 4.7051c2.099 0 2.8945-0.000808 2.8945 0.79492v1.1055c0 1-1.6972 0.89453-2.8945 0.89453v-2.7949zm1.262 8.181c1.0458-0.0085 1.2324 0.06836 1.5332 0.81836 0.09893 0.1968 0 0.79499 0 1.0977 0 1-1.4004 0.90234-2.9004 0.90234v-2.8027c0.57568 0 1.0186-0.0128 1.3672-0.01563z" transform="translate(-.0016632)" fill="#cc3433"/></g></svg>