<?xml version="1.0" encoding="UTF-8" standalone="no"?>
<svg xmlns:rdf="http://www.w3.org/1999/02/22-rdf-syntax-ns#" xmlns="http://www.w3.org/2000/svg" height="200.82" width="167" version="1.1" xmlns:cc="http://creativecommons.org/ns#" xmlns:dc="http://purl.org/dc/elements/1.1/" viewBox="0 0 167 200.822">
 <g transform="translate(121.79 -430.95)">
  <g>
   <path d="m-57.247 432.22c-18.784 0-34.819 6.8828-45.988 19.029-11.338 12.347-17.82 29.15-17.82 49.391 0 13.968 4.0471 29.751 13.285 42.303 9.2261 12.549 24.13 21.66 45.822 21.66 0.37429 0 0.73161-0.0299 1.1035-0.0371v39.465c0 14.6-3.1993 17.6-16.631 17.6v9.4043h60.629v-9.4043c-12.48 0-17.121-1.7977-17.121-16.598v-26.801h8.4805s31.254 52.813 32.105 52.811c2.2124-0.007 37.326-0.0234 37.326-0.0234v-9.3535s-7.0564 1.1587-13.617-4.5605c-6.7968-6.6848-19.204-41.799-29.455-44.111 3.7572-1.8881 27.405-7.3963 27.51-32.965-0.1049-27.643-25.704-36.6-51.309-36.6-5.4403 0-15.359 0.40161-25.441 1-12.797 0.80103-19.359 1.4006-29.107 2.1992v9.4024c13.749 0 16.631 3.199 16.631 18.199v17.887c-18.946-4.0004-31.387-25.084-31.387-54.717 0-31.374 14.741-53.436 36.273-53.436 8.1009 0 15.221 3.238 20.891 9.1074 5.674 5.8671 9.7187 14.37 11.502 24.695h7.6094l-1.4492-42.309h-6.002c-0.64368 2.0264-1.4518 2.8359-2.918 2.8359-4.0433 0-13.592-6.0742-30.922-6.0742zm23.279 80.811h7.8379c15.518 0 23.686 10.399 23.686 26.195 0 20.605-8.3151 29.606-31.523 29.205v-6.6055c0.60792-0.0215 1.2228-0.0586 1.8164-0.0586 1.9525 0 3.727 0.00053 5.1836 0.4082 1.6187 0.20025 3.2434 0.60301 4.6953 1.2109l0.49414-1.4141c4.6894-13.763 8.5809-28.744 9.873-40.287h-7.6113c-3.8693 10.373-8.6985 18.141-14.451 23.326v-31.98z" fill="#336"/>
   <path d="m-81.45 444.89s-32.873 12.884-32.904 54.773c-0.0405 42.915 31.691 51.021 31.691 51.021s-16.337-20.513-16.287-53.441c0.0596-35.453 17.5-52.354 17.5-52.354zm40.973 68.566-13.816 0.95703v107.19h13.816v-108.15zm35.436 0.94141s9.1154 5.8222 9.1035 26.408c0 20.39-9.5215 26.125-9.5215 26.125s25.757-5.3057 25.688-26.361c-0.0691-23.9-25.27-26.172-25.27-26.172zm-0.0195 60.715s-1.9447 0.76923-4.6172 1.5274c-2.93 0.84394-8.9336 1.7949-8.9336 1.7949 8.1796 11.4 25.979 43.227 25.979 43.227l19.699 0.0469s-4.1108-3.2699-9.8516-14.766c-5.328-12.75-15.3-28.33-22.275-31.84z" fill="#c4ced4"/>
  </g>
 </g>
</svg>
