<?xml version="1.0" encoding="UTF-8" standalone="no"?>
<!-- Generator: Adobe Illustrator 23.0.3, SVG Export Plug-In . SVG Version: 6.00 Build 0)  -->

<svg
   xmlns:dc="http://purl.org/dc/elements/1.1/"
   xmlns:cc="http://creativecommons.org/ns#"
   xmlns:rdf="http://www.w3.org/1999/02/22-rdf-syntax-ns#"
   xmlns:svg="http://www.w3.org/2000/svg"
   xmlns="http://www.w3.org/2000/svg"
   xmlns:sodipodi="http://sodipodi.sourceforge.net/DTD/sodipodi-0.dtd"
   xmlns:inkscape="http://www.inkscape.org/namespaces/inkscape"
   version="1.2"
   id="Layer_1"
   x="0px"
   y="0px"
   viewBox="0 0 343.00001 289.00001"
   xml:space="preserve"
   sodipodi:docname="Cleveland-Guardians-symbol.svg"
   width="343"
   height="289"
   inkscape:version="0.92.5 (2060ec1f9f, 2020-04-08)"><metadata
   id="metadata1017"><rdf:RDF><cc:Work
       rdf:about=""><dc:format>image/svg+xml</dc:format><dc:type
         rdf:resource="http://purl.org/dc/dcmitype/StillImage" /><dc:title></dc:title></cc:Work></rdf:RDF></metadata><defs
   id="defs1015"><clipPath
     id="clipPath18"
     clipPathUnits="userSpaceOnUse"><path
       id="path16"
       d="M 0,1020 H 1020 V 0 H 0 Z"
       inkscape:connector-curvature="0" /></clipPath></defs><sodipodi:namedview
   pagecolor="#ffffff"
   bordercolor="#666666"
   borderopacity="1"
   objecttolerance="10"
   gridtolerance="10"
   guidetolerance="10"
   inkscape:pageopacity="0"
   inkscape:pageshadow="2"
   inkscape:window-width="1920"
   inkscape:window-height="1017"
   id="namedview1013"
   showgrid="false"
   fit-margin-top="0"
   fit-margin-left="0"
   fit-margin-right="0"
   fit-margin-bottom="0"
   inkscape:zoom="2.9824626"
   inkscape:cx="118.8497"
   inkscape:cy="151.2127"
   inkscape:window-x="1912"
   inkscape:window-y="70"
   inkscape:window-maximized="1"
   inkscape:current-layer="Layer_1"
   inkscape:pagecheckerboard="true" />

<g
   transform="matrix(0.4036602,0,0,-0.40330065,-34.366666,350.18349)"
   inkscape:label="cleveland-guardians-2022-seeklogo.com"
   id="g10"><g
     id="g12"><g
       clip-path="url(#clipPath18)"
       id="g14"><g
         transform="translate(464.8242,192.5029)"
         id="g20"><path
           id="path22"
           style="fill:#00385d;fill-opacity:1;fill-rule:nonzero;stroke:none"
           d="M 0,0 79.817,-40.796 125,-21.722 c 26.32,-8.918 54.523,-13.753 83.856,-13.753 144.248,0 261.182,116.935 261.182,261.182 0,75.13 -31.723,142.852 -82.504,190.501 l 2.687,59.151 c 0,0 0,26.606 -19.512,31.927 l -471.812,168.505 -56.759,-10.643 c 0,0 -1.774,-39.022 26.606,-69.175 l -188.015,67.401 -60.307,-10.642 c 0,0 -5.321,-63.855 58.533,-101.103 0,0 -8.869,-54.985 51.438,-90.46 0,0 -7.095,-51.438 42.57,-79.818 0,0 -8.869,-40.795 49.664,-79.818 L -104.65,86.912 -26.606,47.891 12.416,60.307 Z"
           inkscape:connector-curvature="0" /></g><g
         transform="translate(498.5249,291.8311)"
         id="g24"><path
           id="path26"
           style="fill:#e50022;fill-opacity:1;fill-rule:nonzero;stroke:none"
           d="m 0,0 -15.963,-92.233 58.533,-28.38 58.533,258.965 -99.329,40.794 -10.643,-37.248 33.702,-30.153 -8.87,-47.891 c 0,0 -3.546,-12.416 -17.736,-14.189 l -67.402,-14.19 -53.212,150.767 99.329,147.219 145.445,-56.759 1.775,51.438 c 0,0 3.546,14.19 -14.191,21.285 L -46.117,406.184 -195.11,198.658 -125.935,-1.773 -60.307,-35.475 Z"
           inkscape:connector-curvature="0" /></g><g
         transform="translate(643.084,450.5801)"
         id="g28"><path
           id="path30"
           style="fill:#ffffff;fill-opacity:1;fill-rule:nonzero;stroke:none"
           d="m 0,0 -31.927,-8.868 -95.782,40.795 28.38,8.869 z"
           inkscape:connector-curvature="0" /></g><g
         transform="translate(432.0103,484.2812)"
         id="g32"><path
           id="path34"
           style="fill:#ffffff;fill-opacity:1;fill-rule:nonzero;stroke:none"
           d="m 0,0 -39.022,-12.416 47.891,-127.709 35.474,8.869 z"
           inkscape:connector-curvature="0" /></g><g
         transform="translate(671.4639,746.793)"
         id="g36"><path
           id="path38"
           style="fill:#ffffff;fill-opacity:1;fill-rule:nonzero;stroke:none"
           d="m 0,0 -28.38,-8.869 -308.629,111.745 31.927,7.095 z"
           inkscape:connector-curvature="0" /></g><g
         transform="translate(692.748,739.6978)"
         id="g40"><path
           id="path42"
           style="fill:#ffffff;fill-opacity:1;fill-rule:nonzero;stroke:none"
           d="M 0,0 -28.379,-7.095 104.65,-56.759 c 0,0 7.095,0 14.19,-10.642 l 27.493,9.755 c 0,0 0,7.095 -21.285,12.416 z"
           inkscape:connector-curvature="0" /></g><g
         transform="translate(632.4414,729.0557)"
         id="g44"><path
           id="path46"
           style="fill:#ffffff;fill-opacity:1;fill-rule:nonzero;stroke:none"
           d="m 0,0 -26.605,-37.249 -164.957,58.534 c 0,0 -23.059,19.51 -24.833,56.759 z"
           inkscape:connector-curvature="0" /></g><g
         transform="translate(403.6304,812.4209)"
         id="g48"><path
           id="path50"
           style="fill:#ffffff;fill-opacity:1;fill-rule:nonzero;stroke:none"
           d="m 0,0 c 0,0 1.774,-30.153 14.19,-53.212 l -51.438,17.737 c 0,0 -40.796,30.154 -44.343,63.854 z"
           inkscape:connector-curvature="0" /></g><g
         transform="translate(634.2148,642.1426)"
         id="g52"><path
           id="path54"
           style="fill:#ffffff;fill-opacity:1;fill-rule:nonzero;stroke:none"
           d="m 0,0 c 0,0 -5.32,10.643 -26.605,15.964 l -134.804,49.664 30.154,8.869 147.219,-53.212 c 0,0 12.416,-3.548 14.19,-10.642 z"
           inkscape:connector-curvature="0" /></g><g
         transform="translate(479.9009,723.7344)"
         id="g56"><path
           id="path58"
           style="fill:#ffffff;fill-opacity:1;fill-rule:nonzero;stroke:none"
           d="m 0,0 -31.927,-8.869 -335.235,120.614 37.248,7.095 z"
           inkscape:connector-curvature="0" /></g><g
         transform="translate(439.105,705.9971)"
         id="g60"><path
           id="path62"
           style="fill:#ffffff;fill-opacity:1;fill-rule:nonzero;stroke:none"
           d="m 0,0 -40.795,-54.986 -117.067,46.117 c 0,0 -78.044,24.832 -78.044,92.234 z"
           inkscape:connector-curvature="0" /></g><g
         transform="translate(189.0093,794.6836)"
         id="g64"><path
           id="path66"
           style="fill:#ffffff;fill-opacity:1;fill-rule:nonzero;stroke:none"
           d="m 0,0 -90.46,33.701 c 0,0 -3.547,-63.854 118.84,-106.424 0,0 -23.945,22.172 -28.38,72.723"
           inkscape:connector-curvature="0" /></g><g
         transform="translate(391.2144,638.5952)"
         id="g68"><path
           id="path70"
           style="fill:#ffffff;fill-opacity:1;fill-rule:nonzero;stroke:none"
           d="m 0,0 -30.153,-40.795 -58.534,21.284 c 0,0 -58.532,23.058 -60.306,78.044 z"
           inkscape:connector-curvature="0" /></g><g
         transform="translate(228.0312,702.4497)"
         id="g72"><path
           id="path74"
           style="fill:#ffffff;fill-opacity:1;fill-rule:nonzero;stroke:none"
           d="m 0,0 c 0,0 -3.547,-28.38 21.285,-60.307 0,0 -86.913,19.511 -94.008,94.008 0,0 50.552,-25.72 72.723,-33.701"
           inkscape:connector-curvature="0" /></g><g
         transform="translate(352.1924,585.3833)"
         id="g76"><path
           id="path78"
           style="fill:#ffffff;fill-opacity:1;fill-rule:nonzero;stroke:none"
           d="m 0,0 -26.606,-35.475 c 0,0 -44.343,19.512 -47.891,67.402 z"
           inkscape:connector-curvature="0" /></g><g
         transform="translate(266.1665,619.9712)"
         id="g80"><path
           id="path82"
           style="fill:#ffffff;fill-opacity:1;fill-rule:nonzero;stroke:none"
           d="m 0,0 c 0,0 -5.321,-24.832 21.285,-56.759 0,0 -76.27,21.284 -79.818,81.591 z"
           inkscape:connector-curvature="0" /></g><g
         transform="translate(293.6592,505.5654)"
         id="g84"><path
           id="path86"
           style="fill:#ffffff;fill-opacity:1;fill-rule:nonzero;stroke:none"
           d="m 0,0 24.833,30.154 c 0,0 -51.439,21.284 -67.402,30.153 0,0 0.886,-39.909 42.569,-60.307"
           inkscape:connector-curvature="0" /></g><g
         transform="translate(802.7197,645.6904)"
         id="g88"><path
           id="path90"
           style="fill:#e50022;fill-opacity:1;fill-rule:nonzero;stroke:none"
           d="m 0,0 c 3.547,19.511 -10.643,24.832 -10.643,24.832 l -147.219,54.985 -25.719,-38.134 28.38,-8.869 c 0,0 78.044,8.869 150.766,-30.153 z"
           inkscape:connector-curvature="0" /></g><g
         transform="translate(669.6875,664)"
         id="g92"><path
           id="path94"
           style="fill:#ffffff;fill-opacity:1;fill-rule:nonzero;stroke:none"
           d="m 0,0 c -1.15,0.665 2.66,0.032 3.993,0.032 135.764,0 245.822,-110.059 245.822,-245.822 0,-135.765 -110.058,-245.822 -245.822,-245.822 -26.632,0 -52.274,4.235 -76.291,12.068 l 66.092,272.332 -118.84,47.891 -56.759,-17.738 -14.19,-56.758 33.701,-31.928 -5.321,-33.7 c 0,0 -1.774,-8.869 -12.416,-8.869 l -46.117,134.803 69.175,104.65 113.519,-46.117 51.438,19.511 3.547,78.044 C 11.531,-17.423 9.754,-5.636 0,0"
           inkscape:connector-curvature="0" /></g><g
         transform="translate(862.1396,297.1523)"
         id="g96"><path
           id="path98"
           style="fill:#e50022;fill-opacity:1;fill-rule:nonzero;stroke:none"
           d="M 0,0 C 7.095,-3.547 1.773,-17.737 1.773,-17.737 H 5.321 C 10.643,-12.416 7.095,0 7.095,0 10.643,0 24.832,19.512 24.832,19.512 H 17.737 C 14.189,10.643 0,0 0,0"
           inkscape:connector-curvature="0" /></g><g
         transform="translate(864.7998,315.7764)"
         id="g100"><path
           id="path102"
           style="fill:#e50022;fill-opacity:1;fill-rule:nonzero;stroke:none"
           d="m 0,0 h -5.321 c 0,0 -3.547,-14.189 -14.19,-19.511 0,0 7.982,-7.981 2.66,-18.624 l 4.435,-0.886 c 0,0 5.321,17.737 -1.773,19.51 0,0 12.416,7.095 14.189,19.511"
           inkscape:connector-curvature="0" /></g><g
         transform="translate(838.2959,314.4395)"
         id="g104"><path
           id="path106"
           style="fill:#e50022;fill-opacity:1;fill-rule:nonzero;stroke:none"
           d="m 0,0 c 0,0 -3.2,-16 -12.8,-22.4 0,0 11.199,-8 5.6,-18.4 l 4.8,1.6 c 0,0 1.2,15.6 -4.4,17.2 0,0 11.199,12 12,21.6 z"
           inkscape:connector-curvature="0" /></g><g
         transform="translate(820.6953,308.8398)"
         id="g108"><path
           id="path110"
           style="fill:#e50022;fill-opacity:1;fill-rule:nonzero;stroke:none"
           d="m 0,0 h -5.6 c -0.799,-14.4 -8.799,-23.2 -8.799,-23.2 7.2,-2.401 8.799,-17.601 8.799,-17.601 h 4 c 2.401,8 -7.2,18.401 -7.2,18.401 C -5.6,-20 0,0 0,0"
           inkscape:connector-curvature="0" /></g><g
         transform="translate(791.8955,277.6396)"
         id="g112"><path
           id="path114"
           style="fill:#e50022;fill-opacity:1;fill-rule:nonzero;stroke:none"
           d="M 0,0 C 0,0 9.601,20.8 5.601,24 L 0,22.399 c 0,0 -0.8,-20.799 -6.399,-24.799 0,0 16.799,-8.8 12,-16 L 11.2,-16 c 0,0 -2,9.2 -11.2,16"
           inkscape:connector-curvature="0" /></g><g
         transform="translate(770.6953,266.0391)"
         id="g116"><path
           id="path118"
           style="fill:#e50022;fill-opacity:1;fill-rule:nonzero;stroke:none"
           d="M 0,0 C 0,0 8,17.601 5.2,26 L -1.199,22.801 C -1.199,22.801 -2,1.2 -6,-2 -6,-2 10.801,-8.399 9.2,-16.399 l 4.401,2 c 0,0 -3.201,12 -13.601,14.399"
           inkscape:connector-curvature="0" /></g><g
         transform="translate(750.6953,255.6396)"
         id="g120"><path
           id="path122"
           style="fill:#e50022;fill-opacity:1;fill-rule:nonzero;stroke:none"
           d="M 0,0 C 0,0 8,17.6 5.2,26 L -1.199,22.8 C -1.199,22.8 -2,1.2 -6,-2 -6,-2 10.801,-8.4 9.2,-16.4 l 4.401,2 c 0,0 -3.201,12 -13.601,14.4"
           inkscape:connector-curvature="0" /></g><g
         transform="translate(731.8955,245.6396)"
         id="g124"><path
           id="path126"
           style="fill:#e50022;fill-opacity:1;fill-rule:nonzero;stroke:none"
           d="m 0,0 c 3.2,6.399 0.8,24 0.8,24 l -6.4,-3.2 c 4,-8.8 -1.6,-23.2 -1.6,-23.2 6.801,-2 18,-13.201 18,-13.201 l 6,2.801 C 14.4,-5.601 0,0 0,0"
           inkscape:connector-curvature="0" /></g><g
         transform="translate(711.4961,237.2393)"
         id="g128"><path
           id="path130"
           style="fill:#e50022;fill-opacity:1;fill-rule:nonzero;stroke:none"
           d="M 0,0 C 0,0 1.6,20.8 -0.801,21.601 L -6,18.8 c 0,0 4,-10.4 -0.801,-21.6 0,0 16.801,-5.599 20,-14.4 l 4,2.4 C 17.199,-14.8 8,-1.6 0,0"
           inkscape:connector-curvature="0" /></g><g
         transform="translate(690.6953,226.8398)"
         id="g132"><path
           id="path134"
           style="fill:#e50022;fill-opacity:1;fill-rule:nonzero;stroke:none"
           d="m 0,0 c 0,0 4,19.199 0,24 l -5.199,-2.801 c 0,0 4.8,-16.8 -1.601,-23.199 0,0 16,-4 20.8,-13.601 l 6,2.8 C 20,-12.801 8.801,0.8 0,0"
           inkscape:connector-curvature="0" /></g><g
         transform="translate(673.8955,219.6396)"
         id="g136"><path
           id="path138"
           style="fill:#e50022;fill-opacity:1;fill-rule:nonzero;stroke:none"
           d="M 0,0 C 0,0 1.601,20.8 -0.8,21.6 L -6,18.8 c 0,0 4,-10.401 -0.8,-21.6 0,0 16.8,-5.6 20,-14.4 l 4,2.4 C 17.2,-14.8 8,-1.601 0,0"
           inkscape:connector-curvature="0" /></g><g
         transform="translate(655.0957,211.2393)"
         id="g140"><path
           id="path142"
           style="fill:#e50022;fill-opacity:1;fill-rule:nonzero;stroke:none"
           d="M 0,0 C 3.2,8 -2.4,23.2 -2.4,23.2 L -7.2,20 C -1.6,16.8 -5.6,-1.6 -5.6,-1.6 0,-3.2 13.6,-15.2 13.6,-15.2 l 4.8,1.6 C 16,-4.8 0,0 0,0"
           inkscape:connector-curvature="0" /></g><g
         transform="translate(637.4961,206.4395)"
         id="g144"><path
           id="path146"
           style="fill:#e50022;fill-opacity:1;fill-rule:nonzero;stroke:none"
           d="M 0,0 C 0.8,6.4 -1.601,22.4 -1.601,22.4 L -7.2,19.2 C -2.4,16.8 -4.801,-1.6 -4.801,-1.6 0,-2.4 13.6,-14.4 13.6,-14.4 l 4,1.6 C 13.6,-6.4 0,0 0,0"
           inkscape:connector-curvature="0" /></g><g
         transform="translate(619.8955,202.4395)"
         id="g148"><path
           id="path150"
           style="fill:#e50022;fill-opacity:1;fill-rule:nonzero;stroke:none"
           d="m 0,0 c 3.2,4.8 -1.6,21.6 -1.6,21.6 l -5.6,-3.2 c 5.6,-4.8 1.6,-20 1.6,-20 5.6,0 18.4,-12.8 18.4,-12.8 l 4.801,1.6 C 14.4,-5.6 0,0 0,0"
           inkscape:connector-curvature="0" /></g><g
         transform="translate(880.6953,522.4395)"
         id="g152"><path
           id="path154"
           style="fill:#e50022;fill-opacity:1;fill-rule:nonzero;stroke:none"
           d="m 0,0 c 0,0 -0.8,-21.6 3.2,-25.6 l 4,2.4 c 0,0 -5.2,15.6 -4,28 0,0 -8.8,-0.8 -13.599,8 L -13.6,9.6 c 0,0 5.6,-12 13.6,-9.6"
           inkscape:connector-curvature="0" /></g><g
         transform="translate(869.4961,505.6396)"
         id="g156"><path
           id="path158"
           style="fill:#e50022;fill-opacity:1;fill-rule:nonzero;stroke:none"
           d="M 0,0 C 0,0 -2.4,-22.4 -0.801,-25.601 L 4,-22.4 c 0,0 -1.2,20.4 0,28 0,0 -12.801,0.8 -16,10.4 l -3.2,-4 C -15.2,12 -4.801,0.8 0,0"
           inkscape:connector-curvature="0" /></g><g
         transform="translate(853.4961,492.8398)"
         id="g160"><path
           id="path162"
           style="fill:#e50022;fill-opacity:1;fill-rule:nonzero;stroke:none"
           d="m 0,0 c 0,0 -5.601,-18.4 -2.4,-24 l 5.599,2.399 c 0,0 -2,12.401 2.401,25.601 0,0 -13.6,4 -16.8,14.399 l -4.8,-3.2 c 0,0 9.6,-12.8 16,-15.199"
           inkscape:connector-curvature="0" /></g><g
         transform="translate(829.4961,461.6396)"
         id="g164"><path
           id="path166"
           style="fill:#e50022;fill-opacity:1;fill-rule:nonzero;stroke:none"
           d="M 0,0 5.6,0.8 C 4,10.399 12,26.399 12,26.399 -2,28.399 -4.801,44 -4.801,44 L -11.2,41.6 C -10.4,31.2 4.8,23.2 4.8,23.2 0.8,14.399 0,0 0,0"
           inkscape:connector-curvature="0" /></g><g
         transform="translate(804.2959,501.6396)"
         id="g168"><path
           id="path170"
           style="fill:#e50022;fill-opacity:1;fill-rule:nonzero;stroke:none"
           d="M 0,0 H -7.601 C -8.4,-12 7.6,-21.601 7.6,-21.601 c -8,-4 -8,-21.599 -8,-21.599 h 7.2 c -1.6,8.8 9.599,24 9.599,24 C 2.399,-18 0,0 0,0"
           inkscape:connector-curvature="0" /></g><g
         transform="translate(775.8955,457.6396)"
         id="g172"><path
           id="path174"
           style="fill:#e50022;fill-opacity:1;fill-rule:nonzero;stroke:none"
           d="M 0,0 H 8 C 7.2,8.8 20,21.6 20,21.6 9.2,27.6 5.601,44 5.601,44 H 0.8 c -4,-5.601 12,-22.4 12,-22.4 C 7.2,19.2 0,0 0,0"
           inkscape:connector-curvature="0" /></g><g
         transform="translate(749.8955,459.6396)"
         id="g176"><path
           id="path178"
           style="fill:#e50022;fill-opacity:1;fill-rule:nonzero;stroke:none"
           d="m 0,0 h 7.2 c 0,0 6.401,16 14,19.6 0,0 -12,11.2 -11.2,24.799 L 2,46 C 2,46 6,26 12.4,20.399 12.4,20.399 -0.8,7.2 0,0"
           inkscape:connector-curvature="0" /></g><g
         transform="translate(720.6953,464.0391)"
         id="g180"><path
           id="path182"
           style="fill:#e50022;fill-opacity:1;fill-rule:nonzero;stroke:none"
           d="m 0,0 8,-0.8 c 0,0 4.4,15.601 16.801,19.2 0,0 -12,16 -9.601,26.401 L 7.2,46.4 C 7.2,46.4 11.2,24 16,20 16,20 1.601,8 0,0"
           inkscape:connector-curvature="0" /></g><g
         transform="translate(719.0957,487.2393)"
         id="g184"><path
           id="path186"
           style="fill:#e50022;fill-opacity:1;fill-rule:nonzero;stroke:none"
           d="m 0,0 c 0,0 -12,12.8 -8.8,28.8 l -8.8,2.4 c 0,0 2.4,-25.599 8.8,-28.8 0,0 -16,-10.4 -16.8,-19.2 L -18,-18 c 0,0 4.8,13.601 18,18"
           inkscape:connector-curvature="0" /></g><g
         transform="translate(667.8955,480.0391)"
         id="g188"><path
           id="path190"
           style="fill:#e50022;fill-opacity:1;fill-rule:nonzero;stroke:none"
           d="m 0,0 7.2,-2.399 c 0,0 10,15.599 17.6,16 0,0 -9.6,19.199 -7.199,30.399 L 10.4,45.601 c 0,0 0.8,-20.8 6.4,-28 0,0 -13.6,-8 -16.8,-17.601"
           inkscape:connector-curvature="0" /></g><g
         transform="translate(642.2959,488.8398)"
         id="g192"><path
           id="path194"
           style="fill:#e50022;fill-opacity:1;fill-rule:nonzero;stroke:none"
           d="m 0,0 7.6,-2.801 c 0,0 8.799,15.2 18.799,16.401 0,0 -8,14.4 -6.399,29.6 l -6.4,2.4 c 0,0 -0.8,-23.201 4,-28 C 17.6,17.6 4.8,10.399 0,0"
           inkscape:connector-curvature="0" /></g><g
         transform="translate(617.4961,497.6396)"
         id="g196"><path
           id="path198"
           style="fill:#e50022;fill-opacity:1;fill-rule:nonzero;stroke:none"
           d="m 0,0 6.399,-3.2 c 0,0 8.401,15.6 19.201,17.6 0,0 -8,18.4 -4.8,28 l -7.2,2.4 c 0,0 1.599,-24 4.799,-27.2 0,0 -15.2,-8 -18.399,-17.6"
           inkscape:connector-curvature="0" /></g><g
         transform="translate(614.2959,547.2393)"
         id="g200"><path
           id="path202"
           style="fill:#e50022;fill-opacity:1;fill-rule:nonzero;stroke:none"
           d="m 0,0 -7.2,1.6 c 0,0 0,-21.6 4,-25.6 0,0 -14.401,-8 -17.6,-18.399 L -14.4,-44 c 0,0 7.6,15.6 19.2,16.8 0,0 -8,22.4 -4.8,27.2"
           inkscape:connector-curvature="0" /></g><g
         transform="translate(590.2959,553.6396)"
         id="g204"><path
           id="path206"
           style="fill:#e50022;fill-opacity:1;fill-rule:nonzero;stroke:none"
           d="m 0,0 -7.2,0.8 c 0,0 -2.401,-18.4 3.2,-24 0,0 -16.8,-12.8 -16.8,-20 l 6.8,-1.2 c 0,0 8.8,17.6 18.8,18.8 0,0 -8,11.2 -4.8,25.6"
           inkscape:connector-curvature="0" /></g><g
         transform="translate(567.0957,558.4395)"
         id="g208"><path
           id="path210"
           style="fill:#e50022;fill-opacity:1;fill-rule:nonzero;stroke:none"
           d="m 0,0 h -8 c 0,0 -2.4,-18.4 3.2,-22.4 0,0 -16.8,-12 -19.2,-20.8 l 7.2,-0.8 c 0,0 10.8,16.4 20,19.2 0,0 -7.2,18.4 -3.2,24.8"
           inkscape:connector-curvature="0" /></g><g
         transform="translate(544.6953,559.2393)"
         id="g212"><path
           id="path214"
           style="fill:#e50022;fill-opacity:1;fill-rule:nonzero;stroke:none"
           d="m 0,0 -7.199,0.8 c 0,0 -2.401,-16.8 1.599,-21.6 0,0 -14.4,-11.2 -17.599,-21.6 l 6,-0.4 c 0,0 8.8,18.4 18.8,20.4 0,0 -7.201,13.6 -1.601,22.4"
           inkscape:connector-curvature="0" /></g><g
         transform="translate(523.8955,560.0396)"
         id="g216"><path
           id="path218"
           style="fill:#e50022;fill-opacity:1;fill-rule:nonzero;stroke:none"
           d="m 0,0 h -6.399 c 0,0 -3.201,-17.6 0,-22.4 0,0 -13.601,-10.4 -15.201,-19.2 h 5.201 c 0,0 7.199,15.6 16.399,19.2 0,0 -5.6,14.4 0,22.4"
           inkscape:connector-curvature="0" /></g><g
         transform="translate(504.6958,557.6396)"
         id="g220"><path
           id="path222"
           style="fill:#e50022;fill-opacity:1;fill-rule:nonzero;stroke:none"
           d="m 0,0 h -6.4 c 0,0 -3.2,-16.8 0.8,-21.6 0,0 -11.2,-10.4 -13.6,-19.2 h 5.2 c 0,0 6.4,15.6 14,20 0,0 -6.4,12.8 0,20.8"
           inkscape:connector-curvature="0" /></g></g></g></g></svg>