<?xml version="1.0" encoding="UTF-8" standalone="no"?>
<svg xmlns:rdf="http://www.w3.org/1999/02/22-rdf-syntax-ns#" xmlns="http://www.w3.org/2000/svg" height="203" width="202.6" version="1.1" xmlns:cc="http://creativecommons.org/ns#" xmlns:dc="http://purl.org/dc/elements/1.1/" viewBox="0 0 236.13855 237.07861">
 <g transform="translate(1.4907 1.7794)">
  <g>
   <path fill="#002d62" d="m116.55 0c-64.367 0-116.55 52.29-116.55 116.8 0 64.475 52.182 116.78 116.55 116.78 64.376 0 116.56-52.3 116.56-116.78 0-64.51-52.18-116.8-116.56-116.8"/>
   <path fill="#eb6e1f" d="m116.55 5.386c-61.525 0-111.4 49.875-111.4 111.4 0 61.527 49.875 111.39 111.4 111.39 61.522 0 111.4-49.863 111.4-111.39 0-61.529-49.88-111.4-111.4-111.4"/>
   <path fill="#002d62" d="m223.54 116.79v0.01c0 59.08-47.907 106.99-106.99 106.99-59.086 0-106.99-47.91-106.99-107 0-59.092 47.9-106.99 106.98-106.99 52.624 0 96.368 38 105.3 88.047 1.11 6.147 1.683 12.477 1.683 18.946"/>
   <path fill="#eb6e1f" d="m116.55 45.316c-39.475 0-71.472 32.002-71.472 71.483 0 39.467 31.997 71.45 71.472 71.45 39.485 0 71.47-31.983 71.47-71.45 0-39.48-31.985-71.484-71.47-71.484"/>
   <path fill="#002d62" d="m156.63 170-4.817-14.815h-18.468l21.842 15.857c-10.9 7.788-24.23 12.37-38.643 12.37-14.398 0-27.738-4.582-38.622-12.37l21.843-15.857h-11.485l-12.697 17.573 0.896-2.758c-16.124-12.166-26.55-31.454-26.55-53.2 0-6.986 1.07-13.7 3.067-20.02l34.92 25.393v-4.42l-26.665-19.396-10.986-3.54h3.385c8.97-25.653 33.166-44.137 61.752-44.62l1.143-3.55v65.29h13.973v-13.891l-9.038-3.23v-11.456h7.006l-10.782-33.16c28.59 0.492 52.783 18.966 61.736 44.617h3.406l-10.975 3.55h-26.66v23.786l34.9-25.352c1.99 6.31 3.067 13.015 3.067 20 0 21.734-10.43 41.034-26.548 53.2"/>
  </g>
  <path fill="#eb6e1f" d="m130.52 140.5v-13.893h-21.597l-6.335 8.776v5.117l9.022 3.24v2.82l4.94-3.592 4.93 3.593v-2.82"/>
  <path d="m99.998 39.941-0.98242 3.041-9.2324 28.393 5.9883 0.002v9.8105l-7.7305 2.7637v11.889h11.957v-55.898zm-56.762 41.247l9.4004 3.0312 22.842 16.609v-16.877l-7.7363-2.7637h-24.506zm89.027 0-7.7266 2.7637v0.27539h22.83l9.3965-3.0391h-24.5zm-44.223 27.227v7.5059l5.4199-7.5059h-5.4199zm-12.561 11.889-1.7969 0.625v0.008l1.7969-0.63282zm-5.668 12.574-4.1191 12.688-0.77734 2.3594 10.883-15.047h-5.9863z" transform="matrix(1.1679 0 0 1.1679 -.23350 0)" fill="#f4871e"/>
  <path d="m96.803 14.119-2.3008 2.2871v6.623l2.3008 2.2773h5.1094l0.48047 0.48828v4.0605l-0.48047 0.47656h-4.3789l-0.67969-1.791h-2.3516v4.8789h8.6953l2.2871-2.2969v-6.6055l-2.2891-2.3047h-5.1133l-0.47266-0.4707v-4.0508l0.47266-0.47656h4.3789l0.6875 1.7832h2.3379v-4.8789h-8.6836zm-15.945 1.8828-5.4336 1.6992 0.73047 2.3223 1.416 0.17578 3.8008 12.125-0.32227 0.60742-3.752 1.1641-0.61523-0.29297-3.7949-12.125 1.0664-0.94531-0.74023-2.334-5.4277 1.707 0.72461 2.3066 1.4355 0.19531 4.1758 13.348 2.8691 1.4883 6.2207-1.9316 1.498-2.8828-4.1777-13.35 1.0566-0.95312-0.73047-2.3242zm38.51 0.09375-1.584 5.0977 2.2012 0.67969 1.3535-1.9277 1.8106 0.57031-3.9219 12.594-1.4316 0.18945-0.71484 2.3066 5.4336 1.6914 0.72266-2.3242-1.0586-0.95703 3.9277-12.574 1.8066 0.56836 0.0215 2.3516 2.2031 0.68945 1.5957-5.1074-12.365-3.8477zm26.842 11.424-3.1934 0.58984-8.3808 12.09 0.58789 3.2051 5.3457 3.7031v-0.002l3.2012-0.58789 8.373-12.088-0.57422-3.1895-5.3594-3.7207zm-92.52 0.06641-5.3438 3.7012-0.58984 3.1973 8.4004 12.098 3.1973 0.58984 5.3555-3.7305 0.56445-3.168-8.3867-12.107-3.1973-0.58008zm91.81 3.225l3.2578 2.2402 0.11133 0.67188-6.9199 9.9941-0.66406 0.11914-3.248-2.252-0.11523-0.66016 6.9219-9.9941 0.65625-0.11914zm-91.098 0.05469 0.67969 0.11914 6.918 9.9766-0.11523 0.67969-3.2422 2.2441-0.66602-0.10352-6.9355-9.9746 0.12305-0.68945v-0.002l3.2383-2.25zm109.04 10.83-1.9141 1.4883 0.33008 1.3867-10.455 8.1484-1.2676-0.65234-1.9238 1.498 3.5137 4.5 1.9199-1.498-0.34179-1.4043 7.1289-5.5488-6.6406 11.09 2.2266 2.8555 12.834-10.014 1.2676 0.66992 1.9238-1.5078-3.5137-4.4883-1.9004 1.5059 0.32031 1.3887-7.1289 5.5469 6.6562-11.088-3.0352-3.877zm-127.08 0.23047-3.4941 4.4922 1.9102 1.4883 1.2734-0.65039 4.0137 3.1016-2.9395 3.7949-4.0137-3.125 0.33008-1.3848-1.9102-1.498-3.5137 4.502 1.9238 1.4883 1.2715-0.64453 10.465 8.1211l-0.327 1.389 1.9141 1.4863 3.5-4.5-1.9141-1.4785-1.2734 0.65039-4.0098-3.1152 2.9395-3.7832 4.0059 3.123-0.33008 1.3965 1.9238 1.4883 3.5-4.502-1.9082-1.4883-1.2871 0.66406-10.459-8.1309 0.32617-1.3965-1.916-1.4883zm31.381 29.449v9.8105l2.4824-1.7715 7.7441 2.7715-2.4883 1.7637v36.35l-7.7383 2.7773v9.8008l2.4824-2.5078h23.051v-5.5586l2.498-1.7344-7.7305-2.7754-2.498 1.7461v-16.141h28.914l-2.5 2.5v11.895l-7.7324 2.7754v9.8008l2.4961-2.5078h23.045v-5.5586l2.4922-1.7344-7.7246-2.7754-2.502 1.7461v-39.859l7.7344-2.7734v-5.541l2.4922-2.4961h-28.035v9.8105l2.4961-1.7734 7.7363 2.7734-2.5 1.7637v11.887h-23.916l-2.498 2.498v-16.148l7.7305-2.7734v-5.541l2.498-2.498h-28.029zm122.42 12.402c0.71238 3.9444 1.1666 7.9836 1.3496 12.092-0.18258-4.1083-0.63613-8.1449-1.3496-12.092zm-39.521 59.775-6.1816 6.082-0.0215 3.2598 4.6387 4.7051 3.252 0.0273 3.6367-3.5742h0.67187l2.8496 2.8672v0.67969l-3.1191 3.0762-1.75-0.7793-1.668 1.625 3.4258 3.4902 6.1914-6.0977 0.0234-3.2617-4.6445-4.6836-3.2402-0.0488-3.6426 3.5996h-0.68554l-2.8438-2.8945 0.01-0.6875 3.1289-3.0586 1.7402 0.78906 1.6621-1.6445-3.4336-3.4707zm-99.57 1.6602v0.002l-13.328 9.7266-1.3359-0.47657-1.7012 1.7266 4.0781 4.0059 1.6914-1.7363-0.5-1.332 1.6973-1.2305 3.5332 3.4707-1.2031 1.7168-1.332-0.4668-1.6895 1.7266 4.0684 3.9863 1.6992-1.7266-0.5-1.3242 9.4785-13.512-4.6562-4.5566zm-0.29883 4.0352 0.9082 0.89843-4.6738 6.6699-2.7969-2.7656 6.5625-4.8027zm82.129 8.707-5.8203 2.9297-1.0039 3.0957 6.6211 13.135 3.0859 1.002 5.8203-2.9297 1.0098-3.0762-6.627-13.137-3.0859-1.0195zm-65.635 0.11133-3.0625 1.0195-2.9688 5.9141 1.0195 3.0879 4.5723 2.2695 0.20898 0.66016-1.8086 3.6113-0.64844 0.21093-3.9121-1.9668 0.17383-1.9004-2.0801-1.0566-2.1953 4.3809 7.7617 3.9062 3.0859-1.0293 2.9668-5.9258-1.0254-3.0684-4.5625-2.2969-0.21484-0.64258 1.8164-3.627 0.64062-0.20312 3.918 1.957-0.18164 1.9102 2.0742 1.0488 2.1953-4.373-7.7734-3.8867zm65.887 3.2324 0.64258 0.21094 5.4805 10.857-0.2207 0.64453-3.5215 1.7715-0.63868-0.20898-5.4805-10.842 0.21093-0.65039 3.5274-1.7832zm-49.801 3.4902-0.81836 5.2656 2.2734 0.36523 1.0566-2.1211 1.873 0.3125-2.0254 13.018-1.3691 0.40234-0.38086 2.3887 5.6406 0.88086 0.36719-2.3965-1.1895-0.7793 2.0215-13.047 1.875 0.28516 0.36133 2.3242 2.2949 0.36914 0.81055-5.2832-12.791-1.9844zm30.287 0.45117-9.8711 1.5606 0.37695 2.3984 1.3789 0.39258 2.0664 13.082-1.1895 0.80078 0.38086 2.3965 5.623-0.89843-0.37305-2.3887-1.373-0.38476-0.79297-5.0176 2.7832-0.43164 2.1856 4.5566-0.99219 0.68945 0.38477 2.3867 5.627-0.89062-0.37695-2.3887-1.5176-0.44141-2.2832-4.7578 1.6035-2.2227-1.0234-6.541-2.6172-1.9004zm-0.79101 3.2617 0.54492 0.4043 0.63477 3.9961-0.39063 0.55078-4.2617 0.65235-0.78125-4.9316 4.2539-0.67188z" transform="matrix(1.1679 0 0 1.1679 -.23350 0)" fill="#fff"/>
  <path fill="#e7e9ea" d="m154.23 94.817v-11.457l-2.912 2.927v6.46l-9.033 3.238v46.55l2.928-2.038v-42.452m9.017 45.692-2.912 2.028v6.49h-26.912l-2.923 2.93h32.748m-51.641-28.57h27.93l2.92-2.93h-33.768v18.86l2.918-2.048v-5.117m9.028 11.178v-2.82l-2.912 2.027v6.49h-26.924l-2.906 2.93h32.742m-20.792-59.2-9.043-3.24-2.896 2.072 9.034 3.228m36.485-5.299-2.923 2.07 9.034 3.23 2.924-2.06m-21.823-1.169v-11.457l-2.912 2.927v6.46l-9.034 3.238v18.86l2.918-2.906v-13.895"/>
 </g>
</svg>
