<?xml version="1.0" encoding="UTF-8" standalone="no"?>
<svg xmlns:rdf="http://www.w3.org/1999/02/22-rdf-syntax-ns#" xmlns="http://www.w3.org/2000/svg" xml:space="preserve" height="148.07" viewBox="0 0 128.3578 148.06836" width="128.36" version="1.1" xmlns:cc="http://creativecommons.org/ns#" xmlns:xlink="http://www.w3.org/1999/xlink" xmlns:dc="http://purl.org/dc/elements/1.1/"><g transform="matrix(1.25 0 0 -1.25 -4.8149 763.02)"><g transform="translate(.86149 .86149)"><path d="m30.677 589.08v-40.464l21.37-12.508 21.369 12.508v40.464h-42.739zm50.216-39.639c-1.5737-0.0513-3.0681-1.6264-3.0406-4.3687 0 0-0.0087-15.278 0.0016-16.759 0.0086-1.485-0.001-2.0117 0.04375-2.3391 0.02756-0.21362 0.07412-0.4069 0.11719-0.60157-0.3187-0.29802-0.64048-0.59543-0.97812-0.87969-2.4101-2.0293-2.8092-1.3154-3.0297 0.51407l0.0078 11.447-3.9-0.99687s-0.02564-0.36576-0.01875-0.85156c-0.51509 0.4858-1.5197 0.60035-2.2828 0.57969-4.6082-0.1137-8.1255-7.7992-6.8766-13.672-0.80622-0.92164-1.9492-1.9728-3.2344-3.1219l0.01406 13.575-3.9547-1.1-0.036-10.272c-0.0052-0.18088-0.01202-0.57281-0.01718-1.1172-0.52198-1.9518-2.0844-3.0114-2.9078-2.8891-0.83724 0.12404-1.0783 1.5582-1.0594 2.2266l0.0031 10.972-3.7547-0.95312c0.0913-4.3843-1.6463-6.2729-3.6188-6.9844-0.63568 2.4824-2.1169 4.4555-4.4719 4.8328-1.1611 0.18432-2.1496-0.12273-2.8594-0.70156-5.1888-1.6848-6.1908-10.223-3.9875-13.775 1.2955-2.1603 2.9801-2.6307 3.9-2.7203 5.4127-0.52544 8.0389 5.1596 7.7547 10.147 1.3627 0.44101 2.4943 1.2333 3.1609 2.2531l-0.07344-3.25c0.01206-2.1723 0.29619-5.3525 2.7734-5.3594 1.8829-0.003 3.6954 1.3714 5.2063 3.0906-0.0017-0.50475-0.0062-1.0339-0.0062-1.5766-2.5858-2.4928-5.018-5.2674-6.0172-8.1719-0.06374-0.18604-0.12003-0.38016-0.17344-0.57656-4.3619-1.18-8.031-2.1315-10.269-2.6328-13.592-3.0492-17.479-6.7925-18.106-11.444 4.7409 5.3094 10.304 3.2458 11.877 2.3 0.379 0.82173 2.3484 3.6578 7.1203 5.4891 2.8924 1.1111 5.9154 2.2033 8.9922 3.2766-0.01034-3.9381 1.7733-8.0141 5.5219-7.375 2.889 0.49097 5.016 2.4177 4.9781 10.091l0.0016 0.42969c16.137 5.2215 32.232 9.6816 43.402 13.542 5.7917 2.0052 4.5743 8.9093-0.55938 10.927 0.33765 1.4471 0.28224 3.0478-0.14844 4.6172-1.4746 5.3576-0.36919 7.2109 0.64375 8.1188-11.947 1.5677-11.987-16.517-17.516-18.405-0.93543-0.3187-1.8418 0.48069-1.9297 1.6797 7.747 9.2544 6.4145 22.12-0.37813 22.775-0.10519 0.0102-0.20915 0.0144-0.31406 0.0109zm1.675-3.2172c0.67593-0.0509 1.5623-0.91644 2.0594-2.6781 1.1198-3.976-0.014-9.1987-2.9719-13.783 0.0052 4.4222 0.01551 13.98 0 15.139-0.01206 0.90894 0.38678 1.3615 0.9125 1.3219zm13.917-5.4406c-1.454-1.4074-0.02792-5.4164 0.15469-8.7016 0.0056-0.10681 0.0008-0.20914 0.0048-0.3125-1.149 0.17227-2.3801 0.183-4.0391-0.0203-1.3299-0.16021-2.2831-0.61553-2.9188-1.2047 1.5969 3.9915 4.0559 9.7912 6.7984 10.239zm-77.195-6.1297c-0.38254 0.004-0.77258-0.006-1.1672-0.0328-13.08-0.86-16.855-12.65-12.607-13.68 3.2335-0.77694 4.8678 2.28 5.1297 4.4781-0.81139-0.75625-2.627-1.3164-2.3031 1.2797 0.30492 2.4721 4.4761 5.6488 9.7734 6.0484 3.6986 0.26358 6.7069-2.938 6.8844-6.5953 0.1516-3.218-1.9079-6.1889-4.9141-7.4344-1.2989 0.35487-2.7906 0.32955-4.5719-0.15625-0.09475 6.7461 0.67831 10.515 2.7094 12.694-1.1766-0.39966-2.4644-1.1149-3.5531-2.3828-3.8399-4.6013-2.5224-17.95-3.4578-22.436-0.42378-2.417-3.0787-3.6944-4.3156-1.5531-2.7219-4.0277 1.8457-7.403 5.4375-5.4891 1.7055 0.90615 4.1756 3.313 3.7156 9.1375-0.25668 3.2559-0.42889 6.0829-0.50469 8.5516 1.0956 0.25324 2.8996 0.1936 4.2141-2.2578 1.4901-2.777 5.1769-15.027 13.961-10.641 2.0173 1.0061 2.5812 2.461 2.8672 3.9391 0.11025 0.55471-0.22305 0.58721-0.59688 0.17031-2.1275-1.9846-6.3018-2.4056-9.0047 2.8969-1.3971 2.7425-2.7655 4.923-4.4641 6.2719 4.336 1.5746 7.2965 5.2761 7.0656 9.2125-0.26648 4.4753-4.5604 7.9107-10.298 7.975zm48.92-1.3891c0.99066 0.076 1.8863-0.56207 2.0859-1.4109 0.01551-2.7374-0.05674-5.2776-0.05156-6.1234 0.0155-2.2378-1.6345-4.9518-3.4141-4.8484-2.6099 0.14988-2.7687 6.9214-0.82031 10.673 0.60144 1.1584 1.4295 1.6502 2.2 1.7094zm27.025-3.1906c0.18433 0.009 0.3702 0.009 0.55625-0.002h0.02496c0.1895-0.007 0.38282-0.0301 0.58438-0.0594 0.0072-0.002 0.01344-0.002 0.02032-0.003 0.0224-0.003 0.04936-0.009 0.07344-0.0125-0.29803-1.3695-1.0673-2.3991-2.5953-2.7109-3.392-0.69252-3.2705 2.2347-0.66406 2.5672 0.51854 0.0655 0.9561 0.1288 1.3609 0.17187 0.01376 0 0.02696 0.003 0.03904 0.003 0.19638 0.0207 0.3841 0.0369 0.57187 0.0438 0.0086 0 0.01776 0.002 0.02816 0.002zm4.625-1.2359c0.18778-0.0844 0.38546-0.17401 0.59218-0.26875 4.0518-1.864 3.0954-6.2951 0.0531-7.2047-8.1105-2.4238-26.687-7.8036-42.809-12.284l0.0062 6.9422c1.4178 1.2524 2.8448 2.4463 4.1109 3.5781 0.47202-1.3351 5.3562-3.9618 8.4484 1.7094 1.4264-4.4239 6.4312 0.86216 7.5906 1.7562 0.28769 0.22052 0.5575 0.45229 0.82969 0.67969 1.628-2.379 5.2095-1.7459 7.2578 0.22656 1.0681 1.0285 2.1306 2.7662 2.8438 4.3563 0.17054-1.6969 2.067-3.3034 5.4797-2.9313 2.7718 0.30492 4.6029 1.6335 5.5969 3.4406zm-62.538-4.3406c0.17906-0.006 0.36702-0.044 0.55781-0.11718 0.96988-0.37039 1.6829-1.4988 2.1016-2.9062-1.4074 0.0155-2.5997 0.3833-2.9391 0.57969-1.7862 1.0205-0.97376 2.4858 0.27969 2.4437zm-2.7344-2.9109c0.33248-0.43585 0.7783-0.84264 1.3813-1.1906 1.4402-0.82689 2.9728-1.1755 4.4078-1.1531 0.21362-3.0044-0.75244-6.1853-3.2297-6.1922-3.7176-0.009-3.6636 6.3567-2.5594 8.5359zm19.173-9.3203c-0.0052-1.5418-0.0077-3.0414-0.0094-4.2766-1.249-0.34454-2.4791-0.6805-3.6781-1.0078 0.0224 0.05 0.03714 0.10161 0.05782 0.15157 0.78039 1.7709 2.0896 3.4876 3.6297 5.1328zm-0.0125-7.3859c-0.0052-4.8098-0.20289-6.244-1.5328-6.5938-1.6848-0.44101-2.7167 2.3141-2.7391 5.1531 1.4212 0.48753 2.8438 0.96688 4.2719 1.4406z" fill="#004687"/><path d="m31.545 608.82c-1.4023 0-2.5375-1.1352-2.5375-2.5375 0-1.4006 1.1352-2.5375 2.5375-2.5375s2.5375 1.1369 2.5375 2.5375c0 1.4023-1.1352 2.5375-2.5375 2.5375zm13.802 0c-1.4023 0-2.5375-1.1352-2.5375-2.5375 0-1.4006 1.1352-2.5375 2.5375-2.5375s2.5375 1.1369 2.5375 2.5375c0 1.4023-1.1352 2.5375-2.5375 2.5375zm13.645 0c-1.4006 0-2.5391-1.1352-2.5391-2.5375 0-1.4006 1.1385-2.5375 2.5391-2.5375s2.5375 1.1369 2.5375 2.5375c0 1.4023-1.1369 2.5375-2.5375 2.5375zm13.622 0c-1.4006 0-2.5375-1.1352-2.5375-2.5375 0-1.4006 1.1369-2.5375 2.5375-2.5375 1.4023 0 2.5375 1.1369 2.5375 2.5375 0 1.4023-1.1352 2.5375-2.5375 2.5375zm-41.97-6.7062v-11.888h42.789v11.859h-1.0703-0.525c0-3.3386-2.7069-6.0547-6.0437-6.0547-3.3386 0-6.025 2.7176-6.025 6.0562h-1.6094c0-3.3386-2.705-6.0562-6.0453-6.0562-3.3369 0-6.0219 2.7302-6.0219 6.0688l-1.6234-0.0156c0-3.3386-2.7034-6.0531-6.0438-6.0531-3.3386 0-6.0312 2.7256-6.0312 6.0625l-1.75 0.0203z" fill="#c09a5b"/><path d="m53.185 581.61v-0.35781h-0.56875c-0.87686 0-1.9672 0.00096-3.4125-1.7906-1.8554-2.2895-5.5359-7.8406-5.5359-7.8406 0.44446-0.0327 0.85955-0.1252 1.2609-0.24062 1.0061 1.4988 3.6468 5.4002 5.1266 7.2297 1.4488 1.7899 2.5355 1.7906 3.4141 1.7906h0.56875v1.2094h-0.85312zm-9.7734-0.006v-0.37032c-1.3041-0.0982-2.6344-0.89149-2.6344-3.0328l-0.0031-7.2078 0.63125 0.35781c0.06719 0.093 0.14279 0.20085 0.22031 0.30938l0.0047 5.6859c0 2.143 1.3303 2.9364 2.6344 3.0328v1.225h-0.85312zm2.5609-0.37344v-0.82969c0.40828 0 0.81295-0.008 1.1609-0.0625 0.0534 0.64601-0.46841 0.84051-1.1609 0.89219zm-10.811-0.0109v-0.81718l0.46094-0.0125c0.56332 0.005 1.1485-0.12088 1.6516-0.41719-0.48236 0.80278-1.2908 1.1694-2.1125 1.2469zm34.158-6.5031v-8.2516h-0.47656c0.04996-0.33765 0.08138-0.63262 0.09688-0.85313h1.2328v9.1047h-0.85312zm-7.1703-1.3062c-5.1388 0.15677-6.1011-5.7854-6.1734-9.8406-0.10164-5.9812 1.5002-9.4969 3.5812-11.261-1.6486 1.9536-2.8143 5.274-2.7281 10.409 0.07235 4.0535 1.0348 9.9974 6.1719 9.8406 1.4385-0.0431 2.5229-0.50708 3.3516-1.1703-0.88375 1.106-2.2065 1.9599-4.2031 2.0219zm-18.797-3.6594c-1.185 0.0553-2.0902-0.61374-2.5641-1.075l-0.0375-2.3688 0.02187-4.2094c0-1.3799 0.55768-2.1924 1.2984-2.6266-0.27046 0.44788-0.44531 1.0206-0.44531 1.7734l-0.02187 4.2094 0.03906 2.3672c0.7511 0.73216 2.5905 1.9951 4.9109 0.0484-1.1893 1.3566-2.2799 1.8382-3.2016 1.8813zm5.2125-0.82968c2.193-2.4755 3.3895-5.8394 4.3094-6.5078-0.0155 0.10336-0.01763 0.21055-0.02969 0.31563-0.94921 1.6056-2.2383 4.3558-4.2797 6.1922zm-4.3766-10.697v-0.38437h-4.9406-4.0859v-0.85313h4.9391 4.9391v1.2l-0.45938 0.0156c-0.1292-0.002-0.26126 0.01-0.39219 0.0219zm25.527-1.7594c0.01206-0.0189 0.02544-0.0324 0.0375-0.0531 0.66841-1.1818-0.53345-6.7906-6.7938-6.7906-2.758 0-4.9632 1.0966-6.7875 2.7625 1.9828-2.1344 4.4381-3.6125 7.6406-3.6125 6.2586 0 7.4608 5.6073 6.7906 6.7891-0.26874 0.47374-0.57741 0.75825-0.8875 0.90468zm-1.756-1.55c0.05168-0.14471 0.13863-0.2861 0.26094-0.41875-0.0034 0.21017-0.09556 0.33089-0.26094 0.41875z"/><path d="m69.75 556.41c-0.01034 0.019-0.02412 0.0327-0.03445 0.0517-1.4712 2.4755-4.0484-0.42895-1.7933-1.5246 0.01378-0.007 0.0224-0.0172 0.03618-0.0241 0.16538-0.0896 0.25841-0.21017 0.26185-0.42034 0.0034-0.14815-0.02929-0.33076-0.13954-0.60984-1.1508-2.9096-5.3834-4.2361-8.5239-1.578-2.081 1.764-3.6831 5.2801-3.5815 11.261 0.07235 4.0552 1.0336 9.9986 6.1724 9.8418 1.9966-0.062 3.3196-0.91821 4.2034-2.0225 1.3523-1.6917 1.6693-3.9708 1.733-4.9252h0.75799 0.47719v8.2518 0.85274h-1.4298c-0.25668-1.0508-0.42895-2.0001-2.3429-1.4712-1.9156 0.52543-2.746 0.44274-3.4144 0.47202-5.8865 0.25841-9.9193-6.3688-9.2888-11.838 0.01378-0.1068 0.0155-0.21361 0.03101-0.3187-0.92165 0.67014-2.1172 4.0346-4.3119 6.5084-0.98539 1.1129-2.1775 2.0345-3.6349 2.46-0.40139 0.11542-0.81656 0.20845-1.261 0.24118 0 0 3.6814 5.5523 5.5368 7.8417 1.4453 1.7899 2.5358 1.7899 3.4127 1.7899h0.56849v0.3566 0.85446h-8.0674v-1.2111c0.29286 0 0.584-0.003 0.85446-0.0224 0.69253-0.0517 1.2145-0.24635 1.1611-0.89236-0.01895-0.22051-0.08441-0.48064-0.26013-0.82346-0.6753-1.3385-3.8072-5.8176-5.2474-7.8538-0.07752-0.11025-0.15332-0.21706-0.22051-0.31009l-0.63223-0.35832 0.0034 7.2078c0 2.1413 1.3299 2.9355 2.634 3.0337v0.37038 0.85274h-3.8451-5.2577v-1.2007l0.46168-0.0138c0.1292 0.002 0.26013-0.0103 0.39105-0.0224 0.82173-0.0792 1.6314-0.44446 2.1155-1.2472 0.27046-0.4479 0.44618-1.0198 0.44618-1.7727v-16.104c0-2.3153-1.5573-3.0578-2.9527-3.0423l-0.46168-0.0155v-1.199h0.85274 4.088 4.939v0.38416 0.81484l-0.46168 0.0155c-0.56332-0.007-1.149 0.12059-1.6538 0.4169-0.74248 0.43412-1.2989 1.2472-1.2989 2.6254l-0.02412 4.2103 0.0379 2.3687c0.84412 0.82001 3.0492 2.2946 5.7659-0.80622 0.07408-0.0827 0.14643-0.15677 0.22051-0.24807 2.5927-3.1646 4.7874-11.029 9.3973-15.237 1.8261-1.6676 4.0294-2.7615 6.7892-2.7615 6.2586 0 7.461 5.6074 6.7909 6.7909" fill="#fff"/></g></g></svg>
