<?xml version="1.0" encoding="UTF-8" standalone="no"?>
<svg xmlns:rdf="http://www.w3.org/1999/02/22-rdf-syntax-ns#" xmlns="http://www.w3.org/2000/svg" height="171.00513" width="164.99994" version="1.1" xmlns:cc="http://creativecommons.org/ns#" xmlns:dc="http://purl.org/dc/elements/1.1/" viewBox="0 0 164.99994 171.00513"><path d="M152.557,72.12008c-4.73755,7.17921-17.784,12.20831-55.72087,26.02008.328-2.40523.9475-6.7419,1.42126-9.6573.83818-1.49416,1.85857-3.09764,2.95186-4.70112l.29154-.43731a31.45273,31.45273,0,0,1,2.69676-3.38917c.87462,1.45771,2.223,3.42561,5.02909,3.35272,9.40221-.25509,13.52024-17.85691,14.97795-24.74457a10.3019,10.3019,0,0,0,2.29588.25509c-.656,2.223-5.90371,14.13976,1.05684,16.14411,6.92412,2.04079,11.1879-17.12806,12.42695-21.28253,4.22736,4.88333,3.17052,10.02174,1.02039,11.07858-1.09327.54665-2.33233-1.12972-3.57137.03645-1.82214,1.74924-.61952,4.62821,1.895,5.06553,3.60783.58308,5.9766-1.85858,8.34537-4.37313.7653-.76529,3.57139-2.4781,5.2842-1.23905C155.58169,66.03416,153.68667,70.40728,152.557,72.12008ZM90.38572,86.58783c-3.82647.72885-2.58741-14.21264,3.09764-14.90505,1.09329-.10934,2.223,1.2026,2.00435,3.38916A33.38168,33.38168,0,0,1,94.358,81.085C93.62913,83.34443,92.42652,86.22341,90.38572,86.58783ZM112.65221,63.301c2.84252,1.42126-2.11367,7.39786-4.37312,9.83952C108.64353,67.63764,111.37673,62.645,112.65221,63.301ZM92.24431,99.67075s-1.31193.58309-1.93146.80175c.87462-1.2755,2.44166-4.22735,2.76964-4.774C92.93672,96.68246,92.24431,99.67075,92.24431,99.67075Zm-6.37747,17.784c-2.51455.4373-1.23906-5.94017.72885-9.00135,2.551-.984,4.7011-2.00435,4.7011-2.00435C89.98486,112.75368,88.85514,116.90815,85.86684,117.45479ZM76.02731,83.01645c-.03644.656-.7653,6.341-.9475,6.96055-.69242,2.879-2.15013,4.95621-4.19091,4.84687-3.4985-.10933-1.93147-14.86861,3.06118-14.35841A2.16711,2.16711,0,0,1,76.02731,83.01645Zm-22.84956,20.335c-2.84253-.58308-2.7332-8.1996-.7653-11.55232,1.27549,2.33233,4.66466,2.58742,6.70545,2.29588C59.26367,97.41131,56.71269,104.04388,53.17775,103.35146Zm5.83083-12.82782a5.34131,5.34131,0,0,1-1.82214.14576c-1.42126-.14576-2.4781-.83817-2.58743-1.42126C53.9066,86.00474,58.8628,86.47851,59.00858,90.52364Zm98.2495-26.421c-1.67639-4.774-8.05386-3.82648-9.65733-2.33233,0-6.26815-3.17052-7.98095-6.4868-11.84387-.72886-2.69676,1.42127-3.60783,1.7128-5.90372.58308-4.7011-6.77833-3.35274-4.70109,6.26814-.87464,4.48246-5.61218,18.22134-8.09029,18.58577-1.42126.18222-1.53059-2.11367-.76529-4.84687.72884-2.7332,4.66466-7.68941,2.223-10.204-1.42128-1.4577-4.04514.72886-6.41392-.58307,0,0,.07289-1.96791-.54665-2.69676a1.69556,1.69556,0,0,0-2.33233,0c-1.78568,1.38482-1.85857,5.17485-.91107,7.06988-.72884,4.7011-1.31193,6.59612-3.60781,12.9007-2.33233,6.52325-7.90807,9.62087-9.18357,5.64862,11.15147-10.71415,8.67337-14.83217,6.92411-16.28988-2.879-2.36877-11.771,1.895-12.20829,15.41525a12.71959,12.71959,0,0,0,.18221,1.93147c-.87463,1.05683-2.40522,2.95186-4.37312,5.64861.91107-5.9766,2.18656-14.6864,2.62387-17.89335a12.4713,12.4713,0,0,1-4.7011,1.74925l-.328,2.223c-2.36877-3.57138-13.44735-.21865-13.04648,17.27384-.54664,5.39352-3.42561,5.9766-3.53495,4.7011-.36442-6.37747,3.60784-25.21833,4.95621-32.03312A12.50976,12.50976,0,0,1,80.364,60.38554s-3.4256,17.34672-3.49848,17.34672a4.50145,4.50145,0,0,0-4.37313-.91107c-4.15446.98395-7.39786,6.85122-7.61652,10.56838a9.70186,9.70186,0,0,1-2.44166,1.82214c-.5102-2.223-1.5306-4.2638-3.82648-4.95621-7.54364-2.2959-13.73889,8.892-11.73455,19.424a8.86794,8.86794,0,0,0,3.57139,4.81042c5.32063,2.62388,12.24474-4.55533,12.31762-15.74323a6.98294,6.98294,0,0,0,1.96791-2.04078c-.47376,3.38916.58308,9.73019,4.40956,10.27683,4.118.61952,6.41392-4.30023,7.03344-6.37747a3.4783,3.4783,0,0,0,3.27984,2.29589c3.53494-.14577,4.62822-4.62822,5.28419-6.55969,3.09764,4.95621,8.12673.40088,9.25645-2.51454l-.40087,2.40522c-2.84254,3.42561-8.12671,11.91676-8.12671,11.91676-9.83954,3.57138-28.97195,10.64126-36.84357,22.44869a27.41566,27.41566,0,0,1,11.91676.36443c1.27549-3.46206,9.07423-10.42261,20.55368-14.2491-2.80609,5.68507-2.25945,14.06688,2.551,13.994,8.30893-.18221,11.04213-14.46775,12.20829-19.89771,7.39787-3.1705,20.59013-8.27249,34.4019-14.1762C143.04541,85.13012,161.41252,75.91012,157.25808,64.10269ZM7.07775,124.92554c-.54664-1.34838,3.13407-4.55533,6.41391-4.70112C12.21617,122.411,7.588,126.27391,7.07775,124.92554ZM.15364,93.62127c-.58308,5.35708.40087,8.9649,4.55533,10.67771,3.06119,1.27549,6.59613-1.42126,7.58008-2.95186a11.94825,11.94825,0,0,0,1.895-5.13842s-5.79438,5.57572-9.14711.47376C3.1055,93.73059,4.12589,84.98435,15.496,78.7891c11.37012-6.15882,17.01874-1.12973,17.01874-1.12973,6.85122,3.86293,7.14276,15.34236,5.13841,24.23439-1.53059,6.63257-4.66466,13.59312-11.80743,14.90506-2.66032.47375-3.68071.18221-6.12237.10933A38.715,38.715,0,0,0,22.821,104.08032c1.7128-20.9181,3.97225-22.92245,6.04949-26.05652C13.41878,85.89542,17.86479,112.60791,14.84,117.01747,3.50637,118.69384.91894,127.95027,3.17838,129.408c1.71281,1.09327,9.40221-.984,14.65-9.47511,3.79-.07288,15.92545,3.27984,23.32332-10.204,4.99265-9.11067,6.59613-25.03612-1.4577-32.90774C28.14162,65.45107,1.97577,77.07629.15364,93.62127Z" fill="#005a9c"/><path d="M112.87087,27.4778a13.64174,13.64174,0,0,0,5.90372-7.47076,13.43387,13.43387,0,0,0-.47376-9.548A13.62315,13.62315,0,0,0,112.87087,27.4778Z" fill="#fff"/><path d="M101.61008,28.78972a12.63765,12.63765,0,0,0,4.1909.69242,13.60189,13.60189,0,0,0,5.13842-1.02039A15.75214,15.75214,0,0,1,117.31687,8.564,13.62676,13.62676,0,0,0,105.801,2.18656a14.21,14.21,0,0,0-5.28419,1.0204,15.5063,15.5063,0,0,1,.54664,11.07857,15.6184,15.6184,0,0,1-6.88766,8.70981A13.54151,13.54151,0,0,0,101.61008,28.78972Z" fill="#fff"/><path d="M99.02265,13.62957a13.57579,13.57579,0,0,0-.40087-9.43866,13.63531,13.63531,0,0,0-5.43,16.873A13.46623,13.46623,0,0,0,99.02265,13.62957Z" fill="#fff"/><path d="M116.66091,29.91945a1.05286,1.05286,0,0,0-1.23906.87463l-4.118,22.41225a1.08289,1.08289,0,0,0,.83817,1.27549h.21867a1.08865,1.08865,0,0,0,1.05683-.87462l4.118-22.41225A1.10762,1.10762,0,0,0,116.66091,29.91945Zm-8.96491,5.102a1.08291,1.08291,0,0,0-1.27548.83819l-5.0291,22.41225a1.10181,1.10181,0,0,0,.83818,1.2755c.07289,0,.14578.03644.21866.03644a1.08864,1.08864,0,0,0,1.05683-.87462l4.99265-22.37582A1.08644,1.08644,0,0,0,107.696,35.02142Zm-5.06553,72.66673a1.1275,1.1275,0,0,0-1.27549.87462l-4.0087,20.80877a1.07127,1.07127,0,0,0,.87464,1.239.46205.46205,0,0,0,.21864.03645A1.08845,1.08845,0,0,0,99.46,129.736l4.04513-20.77233A1.10759,1.10759,0,0,0,102.63047,107.68815ZM86.88724,128.24182a1.14009,1.14009,0,0,0-1.31194.83819l-3.17052,14.24908a1.08647,1.08647,0,0,0,.80174,1.31194h.2551a1.04607,1.04607,0,0,0,1.0204-.83818L87.689,129.51732A1.04956,1.04956,0,0,0,86.88724,128.24182Zm13.30157-93.87636a1.11113,1.11113,0,0,0-1.34838.72885L90.34929,62.5721a1.03462,1.03462,0,0,0,.69241,1.34838.54155.54155,0,0,0,.328.07289,1.08215,1.08215,0,0,0,1.0204-.76531l8.49115-27.47777A1.117,1.117,0,0,0,100.18881,34.36546ZM74.38739,117.89209a1.0769,1.0769,0,0,0-1.34837.69242l-2.0408,6.59612a1.117,1.117,0,0,0,.69242,1.38484c.10933,0,.21865.03642.328.03642a1.04967,1.04967,0,0,0,1.0204-.76528l2.04079-6.59614A1.07691,1.07691,0,0,0,74.38739,117.89209Zm-3.97225,12.86427a1.06848,1.06848,0,0,0-1.34837.72886L57.58731,168.58389a1.07687,1.07687,0,0,0,.69242,1.34836,1.06348,1.06348,0,0,0,.328.07288,1.179,1.179,0,0,0,1.05684-.76528l11.443-37.13511A1.07689,1.07689,0,0,0,70.41514,130.75636ZM85.0651,51.53a.9704.9704,0,0,0,.43731.10933,1.07034,1.07034,0,0,0,.984-.656l8.01739-18.29423a1.07676,1.07676,0,0,0-1.96791-.87462L84.51846,50.1087A1.11788,1.11788,0,0,0,85.0651,51.53ZM51.57427,128.1325a1.06607,1.06607,0,0,0-1.42127.54664l-5.79438,13.22869a1.05482,1.05482,0,0,0,.54664,1.42126.97027.97027,0,0,0,.43731.10933,1.10957,1.10957,0,0,0,.984-.656l5.79439-13.22868A1.05482,1.05482,0,0,0,51.57427,128.1325ZM88.96446,22.1936a1.07262,1.07262,0,0,0-1.4577.40087L76.31885,42.71083a1.1065,1.1065,0,0,0,.40087,1.49415,1.46243,1.46243,0,0,0,.54665.10932,1.00208,1.00208,0,0,0,.91107-.54662L89.36533,23.65131A1.0726,1.0726,0,0,0,88.96446,22.1936ZM58.4255,79.19,74.934,49.67138a1.085,1.085,0,0,0-.43731-1.4577,1.07258,1.07258,0,0,0-1.4577.40087l-16.50855,29.555a1.054,1.054,0,0,0,.43732,1.4577.83668.83668,0,0,0,.5102.14578A1.09217,1.09217,0,0,0,58.4255,79.19ZM33.02494,122.8483a1.1281,1.1281,0,0,0-1.49415.43732l-8.564,15.41525a1.085,1.085,0,0,0,.43731,1.45771,1.28594,1.28594,0,0,0,.5102.10932,1.0183,1.0183,0,0,0,.94751-.54663l8.564-15.41526A1.07261,1.07261,0,0,0,33.02494,122.8483Zm68.0385-108.56276A15.50628,15.50628,0,0,0,100.51679,3.207a14.21008,14.21008,0,0,1,5.28419-1.0204A13.62676,13.62676,0,0,1,117.31687,8.564a15.75218,15.75218,0,0,0-6.37747,19.89771,13.60178,13.60178,0,0,1-5.13842,1.02039,12.63774,12.63774,0,0,1-4.1909-.69242,13.54152,13.54152,0,0,1-7.4343-5.79438A15.61845,15.61845,0,0,0,101.06344,14.28554Zm-8.2725-2.66031a13.6957,13.6957,0,0,1,5.83084-7.43432,13.56686,13.56686,0,0,1,.40087,9.43866,13.46623,13.46623,0,0,1-5.83083,7.43432A13.73624,13.73624,0,0,1,92.79094,11.62523ZM118.77459,20.007a13.64174,13.64174,0,0,1-5.90372,7.47076,13.62315,13.62315,0,0,1,5.43-17.01875A13.43377,13.43377,0,0,1,118.77459,20.007Zm1.05683-11.40656A15.79758,15.79758,0,1,0,100.95412,30.867,15.75506,15.75506,0,0,0,120.81538,20.663,15.61721,15.61721,0,0,0,119.83142,8.60048Z" fill="#ef3e42"/><path d="M161.74051,74.37953h-.69242V73.76h.58308c.25511,0,.58309,0,.58309.29155C162.21426,74.30664,162.03206,74.37953,161.74051,74.37953Zm.984-.29154c0-.69241-.40089-.80175-.984-.80175h-1.23906v2.58744h.54664v-1.0204h.43733l.58308,1.0204h.58308l-.61952-1.0204A.67158.67158,0,0,0,162.72448,74.088Z" fill="#005a9c"/><path d="M161.52184,76.52964a1.93181,1.93181,0,0,1,0-3.86292,1.93146,1.93146,0,1,1,0,3.86292Zm0-4.40956a2.46,2.46,0,1,0,2.4781,2.4781A2.45764,2.45764,0,0,0,161.52184,72.12008Z" fill="#005a9c"/></svg>