<svg xmlns="http://www.w3.org/2000/svg" height="230.436" width="235.729" viewBox="0 0 235.729 230.436"><path d="M94.171 111.86a49.937 49.937 0 0 0-2.787 3.34c-1.217 1.476-3.033 4.41-4.053 6.43 0 0-.33.65-.375.745a46.306 46.306 0 0 0-3.34 9.422 31.502 31.502 0 0 0 .094 6.774 42.646 42.646 0 0 1 4.633-15.243c.118-.226.243-.447.366-.669a38.553 38.553 0 0 1 3.107-4.758 43.797 43.797 0 0 1 2.835-3.326l.008-.009c.099-.45.207-.901.319-1.351.261-1.061.569-2.11.924-3.143l-.001.001c-.593.58-1.17 1.176-1.73 1.787z" fill="#fff"/><path d="M168.5 47.198l-.165-.005a70.018 70.018 0 0 0-2.15-.033c-3.98 0-7.273.327-8.882.523l-.446.054-.408-.187c-5.278-2.498-10.781-3.335-10.781-3.335l-.328-.68c-4.973-10.309-13.725-25.668-27.185-40.309-1.469-1.479-2.324-2.291-3.246-3.089a81.14 81.14 0 0 0-1.132 3.768c-1.046 3.519-1.787 8.116-1.642 15.928.062 3.361-.424 12.285-4.379 19.36-2.369 4.238-6.115 7.738-12.093 11.786l-.054.035c-.459.284-2.294 1.433-2.755 1.703-2.826 1.665-6.676 3.973-9.712 6.241-9.43 7.044-16.033 15.257-20.381 23.899-9.154 2.442-18.662 5.879-28.028 10.629l.035-.007c23.75-7.726 48.639-8.654 67.153-7.846 5.05-2.924 10.349-5.342 15.57-7.261-7.325-1.034-19.629-1.453-34.217.444-1.957.255-3.954.55-5.986.892-3.711.62-7.398 1.374-11.054 2.261l-.136.035a63.544 63.544 0 0 1 7.932-11.282c4.349-4.981 9.665-9.533 16.093-13.534l.005-.005a136.24 136.24 0 0 1 5.295-3.296c2.282-1.371 6.085-3.425 10.681-8.318a21.228 21.228 0 0 0 2.073-2.578c2.384-3.501 2.777-4.691 3.119-5.317 2.97-6.888 3.346-13.427 3.325-19.301l-.002-.974c-.002-.971-.002-1.933.019-2.895.069-3.207.369-6.422 1.58-10.005.777.845 1.539 1.693 2.284 2.543 2.984 3.4 5.72 6.834 8.217 10.219a167.644 167.644 0 0 1 6.123 8.886c.268.417.518.823.779 1.236.388.61.745 1.176.945 1.499a175.43 175.43 0 0 1 9.431 17.389c1.137.208 2.17.424 3.127.644 5.312 1.22 7.986 2.553 9.351 3.236l.003.001s5.445-.856 12.193-.609l1.927-.347 6.564-1.182 39.253-7.083 8.651-2.215 2.073-2.023L168.5 47.198zM59.164 102.3c.249-1.571.552-3.137.92-4.692a62.332 62.332 0 0 1 2.051-6.85l-.025.001c-.922.036-1.829.076-2.715.12-6.985 20.461-2.763 42.025 5.748 55.58-9.414-16.659-7.436-35.974-5.979-44.159z" fill="#00a3e0"/><path d="M216.532 40.924c.001 0-39.536 14.473-48.233 17.761-8.697 3.288-8.49 11.471-8.49 11.471l.661-.04 16.328-.991a55.394 55.394 0 0 1 6.365-.055c.032.002.069.002.101.003.415.023.797.057 1.185.089.194.016.405.026.593.045 1.582.154 2.917.383 4.052.642.076.017.162.033.236.05 3.544.84 4.933 1.968 4.933 1.968l-30.669 3.282-9.687 9.419-.045.044h-.041c-21.229-.151-62.013 13.218-69.33 42.287a30.725 30.725 0 0 0-.766 3.967c-.007.051-.06.385-.114.957l.007-.026a46.306 46.306 0 0 1 3.34-9.422c.092-.188.186-.374.282-.56l.047-.092-.047.092-.078.155.172-.34c1.019-2.02 2.835-4.954 4.053-6.43a48.323 48.323 0 0 1 2.787-3.34 47.836 47.836 0 0 1 1.73-1.788l.001-.001c6.864-6.773 15.564-11.37 21.558-14.148 6.408-2.97 13.348-5.328 19.996-6.883 5.743-1.344 11.268-2.091 16.033-2.091h.009l1.308.01 10.433-10.2 34.085-3.667c-3.193-2.39-9.239-5.667-18.541-5.852-1.232-.022-2.538.037-4.119.136l-13.905.849.756-2.234c.876-2.588 2.973-4.728 5.61-5.725 8.257-3.121 50.372-18.612 54.475-20.121l1.463-1.428-8.651 2.215.117-.008z" fill="#41748d"/><path d="M120.441 187.427c-.268-1.799-.535-3.35-.797-4.71-.386.05-.816.156-1.273.306l.011.064.122.786c.219 1.4.707 4.523 1.332 8.747l.912-3.057c-.099-.712-.202-1.424-.307-2.136z" fill="#00a3e0"/><path d="M87.285 121.721l-.047.092-.083.164-.058.116.063-.125.078-.155.047-.092z" fill="#fff100"/><path d="M131.464 205.903c.04 1.207.121 2.412.243 3.613.16 1.529.386 3.051.677 4.561.763 3.93 1.817 6.908 2.532 8.649.415 1.058 1.137 2.399 1.137 2.399l.012.022c1.676 1.678 3.525 3.176 5.475 4.614l.094.027-3.222-5.808-.885-1.658c-.146-.287-3.371-6.74-3.874-16.543-.67.079-1.33.134-1.966.134-.075-.002-.148-.009-.223-.01zm36.593-68.809l.001.001.001.001-.65.259-.037.016-.313.123-.062.025c-.074.031-.214.09-.412.18l-.341.157c-1.446.682-4.67 2.366-8.475 5.389-.526.42-1.044.85-1.553 1.29-2.893 2.591-6.626 6.763-6.944 7.107-6.215 6.701-13.638 16.168-13.725 16.289-.525.727-.729 1.207-.863 1.852-.035.2-.061.402-.078.605-.019.337-.051.878-.109 1.497h2.089c.081-.742.133-1.475.172-2.142l.005-.086c.078-.432.189-.604.63-1.173 1.062-1.374 3.622-4.583 5.834-7.3 3.638-4.093 6.73-7.661 9.614-10.864 7.108-7.893 14.716-11.475 14.785-11.504l5.329-2.302.83-.277-.009-.003c-1.688.161-3.926.378-5.663.848a.505.505 0 0 0-.056.012zm-8.66-75.635c-9.79 3.253-11.329 9.415-11.329 9.415l7.413-.453c.838-7.19 3.916-8.962 3.916-8.962z" fill="#41748d"/><path d="M120.189 18.36c.008.479.007.963.02 1.146.96 13.755-3.899 23.825-8.139 29.541 6.451-2.753 14.585-5.017 23.909-5.078-2.989-5.842-8.394-15.584-15.79-25.609zM94.058 135.676c3.861 20.725 18.686 27.587 19.863 28.048 5.21 2.204 8.969.551 9.906-.131 1.391-.866 2.887-2.046 4.283-3.282l8.409-7.429 6.349-5.516 1.184-1.027a69.118 69.118 0 0 1 2.714-2.237 52.969 52.969 0 0 1 4.947-3.451c.257-.157.51-.309.761-.455 4.261-2.487 7.638-3.451 10.052-3.75 3.578-.475 5.525.644 5.53.647l.057-.014c1.736-.47 3.975-.687 5.663-.848l-.305-.113c-.82-.302-1.641-.601-2.464-.896-2.423-.827-4.803-1.282-6.702-1.282-6.594 0-14.031 3.55-22.105 10.551-3.198 2.774-13.278 12.169-13.379 12.264l-.452.419c-1.974 1.843-5.649 5.274-9.109 5.295-2.285 0-6.08-1.005-9.018-3.212-8.335-6.259-13.126-15.085-15.286-28.622-.532-3.061-1.198-6.712-1.162-10.773-.08.697-.152 1.432-.211 2.21-.341 3.729-.403 8.49.475 13.604z" fill="#00a3e0"/><path d="M190.531 123.42l.023-.027.011-.034c.264-.811.298-1.371.331-1.912.012-.192.21-2.1.21-2.1l-.518 1.432c-.438 1.21-.972 1.88-1.632 2.048a1.298 1.298 0 0 1-.322.047l-.211.003.032.208c.017.108.381 2.658-2.313 4.372l-.078.05-.006.092c-.027.416-.076.87-.153 1.429l-.053.383.329-.203c.482-.296.931-.619 1.334-.959 1.492-1.256 2.291-2.693 2.317-4.163.132-.098.403-.318.699-.666zm-1.938 7.348l.05-.035.019-.058c.366-1.148.667-2.243.962-3.352l.481-1.732-.727 1.555c-.524 1.034-1.644 2.831-2.86 3.264l-.121.043v.129c0 .037-.011.919-.855 1.602-.112.09-.212.161-.316.223l-.062.037-.02.07c-.18.624-.378 1.243-.594 1.855l-.163.465.427-.247c1.029-.595 2.755-1.801 2.93-3.27.146-.084.464-.276.849-.549zm-2.328 6.408l.026-.061c.4-.953.962-2.609 1.386-3.811-.469.833-1.576 2.065-3.769 2.913l-.073.028-.03.072c-.291.701-.576 1.34-.871 1.955l-.195.407.423-.157c.177-.066 1.768-.661 3.044-1.315l.059-.031zm-12.026 15.411l.05-.006.04-.031a50.003 50.003 0 0 0 3.094-2.612l.43-.395-.578.08c-.643.089-1.256.136-1.824.14l-.076.001-.053.055a43.846 43.846 0 0 1-2.741 2.592l-.407.353.537-.033c.472-.031.986-.079 1.528-.144zm5.242-4.672l.036-.038c.936-.99 1.8-2.011 2.569-3.036l.372-.496-.582.215c-.965.357-1.909.628-2.803.806l-.073.015-.042.06a34.228 34.228 0 0 1-2.081 2.673l-.313.364.476-.065a20.035 20.035 0 0 0 2.39-.485l.051-.013zm-7.846 6.084c-.314 0-.608-.009-.875-.028l-.07-.005-.055.043-.07.054-.062.048c-2.705 2.097-7.266 4.904-10.755 6.704 1.174-.474 7.053-2.921 12.163-6.485l.485-.339-.592.006-.169.002zm12.101-11.597l.027-.046c.59-.98 1.111-1.999 1.56-3.051l.216-.51-.477.281-.001.001-3.632 2.096-.116.067s-.05.139-.105.273c-.29.678-.623 1.336-.997 1.971l-.233.404.445-.138a21.811 21.811 0 0 0 3.266-1.325l.047-.023zm-83.187-21.907c-.17-3.261-.606-5.234-.61-5.252l-.048-.201-.193.073-2.089.785-.151.057.038.157c.003.015.391 2.193.486 5.106l.012.338.002.061.038.048.202.25c.022.027 2.13 2.662 3.196 6.374l.055.192 2.485-.957-.046-.161c-1-3.475-2.797-6.085-3.377-6.87zm3.82-.046c.021.018 2.185 1.887 3.211 5.379l.057.193 2.446-.99-.047-.159c-.958-3.254-2.741-5.316-3.518-6.099-.048-1.955-.531-4.267-.931-5.872l-.051-.207-.197.083-2.103.882-.144.06.038.152c.399 1.62.867 3.913.83 5.639l-.011.495-.002.087.067.056.355.301zm9.23 3.005l.055.2 2.407-1.003-.045-.156c-.952-3.308-2.824-5.335-3.652-6.104.127-3.045-.893-5.624-1.101-6.114l-.072-.169-.169.073-2.207 1.004.071.158c.012.026 1.174 2.655.888 5.586l-.056.611-.009.102.082.061.468.351c.023.016 2.352 1.814 3.34 5.4zm6.284-2.532l.057.197 2.234-.93.154-.064-.049-.159c-.964-3.116-2.745-4.986-3.771-5.854.31-3.404-1.072-6.345-1.132-6.47l-.079-.165-.164.078-1.992.949-.164.078.077.164c.013.028 1.304 2.826.816 5.72l-.122.721-.02.119.102.065.617.393c.025.017 2.404 1.588 3.436 5.158zm5.943-2.498l.04.178 2.428-.907-.039-.155c-.804-3.196-2.561-5.061-3.595-5.923.66-3.49-.705-6.645-.764-6.779l-.074-.167-.167.074-2.019.89-.166.073.072.167c.013.03 1.278 3.004.436 5.915l-.24.827-.039.137.123.072.744.433c.024.015 2.429 1.47 3.26 5.165zm5.916-2.337l.031.18 2.453-.874-.032-.153c-.664-3.197-2.363-5.02-3.382-5.859 1.01-3.59-.342-6.947-.4-7.09l-.07-.169-.169.069-2.041.839-.169.069.069.169c.013.031 1.264 3.16.062 6.121l-.382.918-.064.154.147.078.881.467c.098.053 2.424 1.371 3.066 5.081zm5.919-2.261l.022.181.181-.023s1.56-.475 2.166-.682l.145-.05-.024-.152c-.515-3.249-2.172-5.058-3.186-5.886 1.358-3.683.018-7.249-.04-7.401l-.066-.17-.17.066-2.06.792-.17.065.065.17c.013.033 1.246 3.35-.306 6.346l-.524 1.011-.087.167.17.081 1.028.491c.024.014 2.387 1.219 2.856 4.994zm5.923-1.933l.018.229.219-.069c.718-.227 1.434-.447 2.146-.659l.147-.044-.018-.153c-.391-3.254-1.991-5.071-2.985-5.906 1.648-3.622.486-7.273.347-7.682l-.057-.166-2.272.75-.17.061.06.171c.013.035 1.215 3.576-.673 6.589l-.673 1.053-.112.176.189.088 1.133.527c.093.047 2.399 1.223 2.701 5.035zm5.885-1.704l.021.214.207-.054c.726-.19 1.451-.371 2.154-.539l.159-.038-.02-.162c-.385-3.082-1.876-5.02-2.8-5.95 1.782-3.207 1.21-6.496.877-7.773l-.045-.171-.172.039c-.689.155-1.413.328-2.151.513l-.18.045.048.179c.238.884.863 3.976-1.096 6.655l-.687.939-.114.155.161.105.974.636c.024.015 2.314 1.574 2.664 5.207zm5.816-1.198s1.749-.243 2.428-.349l.154-.024v-.156c.006-3.187-1.243-5.06-2.342-6.091 2.014-3.204 1.521-6.682 1.319-7.682l-.034-.166-.168.021c-.7.088-1.439.195-2.196.317l-.193.031.044.19c.091.396.82 3.947-1.542 6.727l-.936 1.102-.155.182.217.101 1.31.612c.021.01 2.251 1.134 2.101 5.002l-.007.183zm6.278-.713l.22-.017c.744-.056 1.49-.094 2.217-.111l.165-.004.013-.164c.252-3.181-.949-5.287-1.754-6.317 1.999-2.578 1.892-5.636 1.646-7.244l-.023-.151-.153-.004a40.08 40.08 0 0 0-2.247 0l-.217.005.043.213c.186.923.614 4.101-1.68 6.263l-.951.882-.159.147.172.132 1.029.789c.084.067 2.105 1.724 1.704 5.362l-.025.219zm8.879-13.103l-.019-.124-.122-.027a31.614 31.614 0 0 0-2.367-.425l-.276-.039.075.269c.241.862.84 3.821-1.594 5.7l-.9.695-.149.115.119.145.721.879c.018.022 1.834 2.306 1.439 5.667l-.022.189.189.015c.737.057 1.47.141 2.178.252l.187.029.022-.188c.355-3.01-.646-5.365-1.326-6.567 2.214-2.363 2.03-5.384 1.845-6.585zm1.176 13.682l.198.049c.731.182 1.436.397 2.096.638l.173.063.062-.173c.82-2.293.838-4.796.052-7.101.82-1.032 1.844-2.672 1.674-5.149l-.013-.161-.004-.054-.009-.108-.1-.044c-.755-.33-1.544-.63-2.345-.89l-.284-.092.047.295c.07.438.118.865.145 1.268.089 1.365-.504 2.876-1.443 3.674l-.657.566-.108.093.063.127.386.773c.056.112 1.35 2.767.137 6.035l-.07.191zm4.175 1.495l.161.083c.655.336 1.286.714 1.876 1.124l.17.118.096-.183a10.785 10.785 0 0 0 1.058-6.938 5.153 5.153 0 0 0 1.902-2.778c.113-.406.182-.846.205-1.307l.004-.09-.069-.058a23.77 23.77 0 0 0-2.398-1.792l-.387-.253.11.45c.223.91.241 1.706.056 2.367-.21.747-.698 1.316-1.492 1.739l-.825.445-.135.073.049.146.299.886c.038.113.914 2.82-.598 5.807l-.082.161zm8.32-7.096l-.158-.183-.251-.291-.067.378c-.03.169-.072.335-.127.497-.29.846-.925 1.477-1.942 1.931l-.785.351-.142.063.04.15.22.831c.007.026.675 2.773-1.392 5.704l-.092.131.117.109c.482.446.954.942 1.401 1.475l.147.175.138-.182c2.153-2.834 2.276-5.612 2.141-7.074 1.661-1.421 1.731-2.125 1.777-2.593l.01-.089.008-.071-.042-.058c-.31-.436-.644-.855-1.001-1.254zm2.77 3.884l-.14-.228-.282-.461-.055.538c-.169 1.651-.34 2.372-1.754 2.978l-1.095.358.067.179s.279.59.338.899c.059.31.736 2.153-1.753 4.453l-.113.104.084.129c.332.512.646 1.053.933 1.607l.106.204.175-.15c2.749-2.351 2.98-4.786 2.847-6.101.913-.56 1.418-1.495 1.541-2.853l.005-.052-.024-.047c-.375-.735-.534-.992-.88-1.557z" fill="#ef3340"/><path d="M189.031 111.307l-.197-.431-.288-.637-.06.696c-.094 1.09-.393 2.431-1.283 2.627l-.758.167-.151.033.008.154.038.776c.001.021.055 2.324-2.327 4.682l-.086.085.045.113c.234.582.457 1.212.663 1.874l.083.266.211-.182c2.687-2.323 3.388-4.789 3.562-6.111.561-.322 1.174-1.154 1.174-2.538v-.033l-.012-.031a16.52 16.52 0 0 0-.622-1.51zm-.279 6.868l-.806-.01-.006.143-.031.785c-.044.322-.14 2.214-2.693 4.016l-.101.071.029.12c.143.597.263 1.163.367 1.729l.048.262.227-.139c2.826-1.731 3.729-3.946 4.017-5.171.261-.13.611-.465.859-.975.332-.682.584-1.872-.099-3.666l-.265-.696-.087.74c-.141 1.194-.411 2.05-.781 2.476-.159.182-.47.312-.678.315z" fill="#ef3340"/><path d="M120.749 189.564L122.41 184c-.02-.411-.259-.766-.679-1.004-.465-.263-1.175-.396-2.087-.279.262 1.36.53 2.912.797 4.71.101.678.203 1.395.308 2.137zm-36.26-62.666c7.318-29.069 48.101-42.438 69.33-42.287h.041l.045-.044 9.687-9.419 30.669-3.282c-.001-.001-1.391-1.128-4.933-1.968-.074-.017-.161-.033-.236-.05a32.256 32.256 0 0 0-4.052-.642c-.188-.018-.399-.029-.593-.045-.388-.032-.77-.067-1.185-.089-.032-.002-.069-.002-.101-.003a55.394 55.394 0 0 0-6.365.055l-16.328.991-.661.04s-.208-8.183 8.49-11.471c8.697-3.288 48.227-17.759 48.234-17.761l-39.373 7.09-6.564 1.182-1.927.347c-6.747-.247-12.193.609-12.193.609-1.364-.683-4.038-2.017-9.353-3.237-.957-.22-1.99-.436-3.127-.644a175.43 175.43 0 0 0-9.431-17.389c-.305-.493-.629-.999-.945-1.499-.26-.413-.511-.819-.779-1.236a167.234 167.234 0 0 0-6.123-8.886 155.314 155.314 0 0 0-8.217-10.219c-.746-.85-1.507-1.698-2.284-2.543-1.212 3.583-1.511 6.797-1.58 10.005-.021.962-.021 1.924-.019 2.895l.002.974c.021 5.874-.355 12.413-3.325 19.301-.342.626-.734 1.817-3.119 5.317a21.228 21.228 0 0 1-2.073 2.578c-4.596 4.894-8.399 6.947-10.681 8.318a136.24 136.24 0 0 0-5.295 3.296l-.005.005-.086.056-.018.012c-6.329 3.952-11.634 8.501-15.989 13.467a63.544 63.544 0 0 0-7.932 11.282l.136-.035c3.817-.928 7.422-1.65 11.054-2.261a57.134 57.134 0 0 1 5.528-6.407 58.07 58.07 0 0 1 5.213-4.443c11.432-8.631 27.38-13.28 44.598-13.816.39-.012.785-.017 1.177-.025-20.236 2.574-38.455 10.34-50.53 23.798 14.588-1.898 26.892-1.478 34.217-.444-5.221 1.919-10.519 4.337-15.57 7.261a83.993 83.993 0 0 0-8.925 5.938 224.486 224.486 0 0 0-17.888-.967c-5.236 10.078-7.77 22.334-6.654 36.884a60.719 60.719 0 0 1-1.85-12.365c-.383-8.639 1.099-16.889 4.402-24.546-3.102.007-6.064.075-8.871.183a62.55 62.55 0 0 0-2.051 6.85 62.897 62.897 0 0 0-.92 4.692c-1.457 8.185-3.435 27.5 5.979 44.159a47.64 47.64 0 0 0 5.255 7.492c.53-.344 1.07-.672 1.624-.989l.002-.001a28.456 28.456 0 0 1 6.331-2.58c2.09-.559 2.56-.616 2.579-.618l.629-.071a29.694 29.694 0 0 1 6.855-.818c3.982.007 5.701.229 5.701.229-1.602 1.31-2.412 1.933-3.953 3.347-3.11 2.696-5.504 6.479-7.148 11.528a69.689 69.689 0 0 0 5.592 3.02 5.898 5.898 0 0 1 2.295-6.467c.04-.035.078-.073.118-.108.305-.431.661-.83 1.076-1.177a6.158 6.158 0 0 1 3.943-1.432 6.16 6.16 0 0 1 6.153 6.153 6.144 6.144 0 0 1-3.626 5.601c-.102.082-.208.16-.316.236a5.951 5.951 0 0 1-1.003.725c4.573 1.541 9.728 2.803 15.498 3.577.064-.039.125-.083.189-.122.88-.532 1.778-.991 2.67-1.365 4.19-1.759 8.368-1.816 11.765-.158.413.201.819.433 1.209.688.938-.805 2.1-1.264 3.219-1.266h2.697c.058-.619.09-1.16.109-1.497.016-.203.042-.405.078-.605.134-.645.338-1.125.863-1.852.087-.121 7.51-9.589 13.725-16.289.318-.343 4.051-4.515 6.944-7.107.558-.5 1.088-.947 1.553-1.29 3.805-3.023 7.029-4.707 8.475-5.389.128-.06.241-.113.341-.157.198-.09.338-.149.412-.18l.062-.025.35-.139.65-.259-.001-.001-.001-.001c-.005-.003-1.952-1.122-5.53-.647-2.415.299-5.791 1.264-10.052 3.75-.251.146-.505.298-.761.455a53.159 53.159 0 0 0-4.947 3.451 69.118 69.118 0 0 0-2.714 2.237l-1.184 1.027c-1.146.994-5.659 4.915-6.349 5.516l-8.409 7.429c-1.397 1.235-2.893 2.416-4.283 3.282-.937.681-4.696 2.335-9.906.131-1.177-.46-16.002-7.323-19.863-28.048-.878-5.114-.816-9.875-.477-13.602.059-.778.131-1.513.211-2.21.261-2.29.607-4.118.86-5.291a44.027 44.027 0 0 0-2.835 3.326 38.744 38.744 0 0 0-3.107 4.758c-.123.223-.248.444-.366.669a42.606 42.606 0 0 0-4.633 15.243c-.346-3.071-.221-5.487-.102-6.748.054-.572.107-.906.114-.957.166-1.296.415-2.619.768-3.966zm74.908-65.439s-3.078 1.772-3.916 8.962l-7.413.453c.001 0 1.54-6.162 11.329-9.415zm-47.326-12.413c4.24-5.716 9.099-15.786 8.139-29.541-.013-.183-.012-.667-.02-1.146 7.396 10.025 12.801 19.767 15.791 25.609-9.326.061-17.46 2.326-23.91 5.078zm23.982 176.078s-.722-1.34-1.137-2.399c-.715-1.741-1.769-4.719-2.532-8.649a51.16 51.16 0 0 1-.92-8.174c-2.143-.044-4.067-.709-5.625-1.614a10.56 10.56 0 0 1-2.911-2.475l-.258.16c2.038 10.863 5.58 21.957 13.395 23.173l-.012-.022z"/><path d="M210.79 204.314c-2.835-.019-5.408-.76-7.441-2.144a10.444 10.444 0 0 1-1.471-1.208c-3.463 2.22-7.349 3.393-11.253 3.393s-7.142-1.46-9.118-4.11c-2.084-2.796-2.547-6.637-1.303-10.815l1.484-4.757c.471-1.406.448-2.482-.061-2.958-.56-.522-1.799-.536-3.015-.034-.575.238-1.182.62-1.756 1.104-.043.036-.078.079-.121.116.112-.053.205-.093.266-.119.969-.412 1.888-.401 2.342.025.45.422.512 1.361.166 2.511l-1.254 4.117c-1.385 4.649-.84 8.953 1.534 12.118.672.896 1.482 1.859 3.316 2.904 1.691.963 3.693 1.452 5.95 1.452 3.443 0 7.284-1.128 11.419-3.353 2.313 2.259 5.574 3.563 9 3.587h7.37l1.935-1.831h-7.989v.002zm-53.215-1.325l5.709-18.769c.382-1.235.317-2.238-.173-2.685-.502-.458-1.521-.467-2.597-.021a7.5 7.5 0 0 0-1.684.99c-.11.084-.215.174-.32.262.953-.373 1.84-.376 2.286.043.45.422.512 1.361.166 2.512l-5.917 19.559h12.012l2.33-1.902-11.812.011zm-17.878-.003c-4.98 1.735-9.373 1.663-12.704-.21a10.228 10.228 0 0 1-2.517-1.989 22.95 22.95 0 0 1-.815.573c-.247.166-.488.302-.733.454a10.56 10.56 0 0 0 2.911 2.475c1.558.906 3.482 1.57 5.625 1.614.075.002.148.008.224.008.636 0 1.296-.055 1.966-.134a21.773 21.773 0 0 0 4.084-.899h10.804l2.511-1.902-11.356.01zm-41.128-33.417c-.04.018-.076.043-.117.06a6.16 6.16 0 0 1-8.564-5.662c0-1.286.407-2.516 1.135-3.543-.041.034-.079.072-.118.108a5.92 5.92 0 0 0-2.524 4.85c0 .561.083 1.102.229 1.617a5.931 5.931 0 0 0 5.702 4.314 5.903 5.903 0 0 0 3.941-1.508c.108-.075.214-.153.316-.236zm114.888.546a6.159 6.159 0 0 1-6.154-6.152c0-1.308.42-2.558 1.172-3.597-.064.053-.124.111-.186.166a5.919 5.919 0 0 0-2.525 4.85 5.93 5.93 0 0 0 5.929 5.931h.002a5.903 5.903 0 0 0 3.941-1.508c.093-.065.184-.133.272-.204-.015.006-.028.016-.042.022a6.1 6.1 0 0 1-2.409.492z" fill="#ef3340"/><path d="M199.867 188.817l4.012-13.284c.043-.141.093-.279.149-.415l.036-.081c.062-.138.105-.23.153-.32l.055-.101c.066-.116.114-.197.166-.278l.06-.093a5.533 5.533 0 0 1 1.916-1.743c-1.546.276-2.614.966-3.358 1.769-1.096 1.054-1.483 2.428-1.736 3.266l-4.013 13.284c-.268.878-.807 1.755-1.55 2.575.031-.017.063-.029.093-.046 1.962-1.109 3.501-2.846 4.017-4.533zm-56.406.271l4.145-13.557c.041-.133.089-.267.147-.41l.038-.085c.047-.106.096-.21.149-.313l.059-.106c.065-.115.113-.196.164-.276l.085-.128c.251-.36.544-.69.872-.981a5.75 5.75 0 0 0-1.023.541c-1.631.966-2.713 2.659-3.046 3.757l-4.225 13.559c-.376 1.123-1.07 2.236-1.953 3.199.087-.043.175-.077.262-.124 1.977-1.066 3.635-3.011 4.326-5.076zm-21.548 13.326c-2.69 1.458-5.513 2.235-8.188 2.236-2.283 0-4.363-.547-6.181-1.625a10.786 10.786 0 0 1-3.073-2.718c-.319.21-.656.418-1.003.621-.298.172-.6.337-.906.495a10.687 10.687 0 0 0 3.206 2.93c1.807 1.07 3.871 1.613 6.137 1.613h.003c3.245 0 6.402-1.058 9.394-3.122.129-.089.259-.168.387-.261l.224-.169zm-28.24 1.279l-.057-.001c-4.252-.027-7.901-1.69-10.011-4.561-1.983-2.698-2.473-6.156-1.377-9.736l4.236-13.864c.038-.127.087-.263.149-.413l.035-.077c.062-.141.107-.233.155-.324l.056-.101c.054-.097.11-.192.17-.285l.065-.098c.24-.356.525-.679.847-.963a8.088 8.088 0 0 0-2.595 1.86c-.785.792-1.251 1.662-1.477 2.408l-3.562 11.655c-1.234 4.038-.652 7.959 1.614 11.04 2.491 3.39 7.117 5.164 10.399 5.164 2.523 0 4.595-.458 6.546-1.495 1.197-.573 2.345-1.356 3.507-2.38-2.796 1.419-5.802 2.171-8.7 2.171zm6.648-11.585a9.73 9.73 0 0 0 1.716-1.578c.326-3.147 1.517-6.363 3.446-9.306a23.701 23.701 0 0 1 6.521-6.638 22.274 22.274 0 0 0-3.114 2.124c-2.882 2.198-4.922 4.867-6.428 7.58-1.463 2.633-2.402 5.466-2.74 8.22.203-.127.403-.26.599-.402zm19.322-9.391c.912-.117 1.622.016 2.087.279.42.238.66.593.679 1.004l-1.661 5.564-.912 3.057-.073.244c.199-.156.398-.312.592-.486a13.253 13.253 0 0 0 2.342-2.772l1.791-5.879c-.12-1.35-.698-2.143-1.765-2.426a3.223 3.223 0 0 0-.824-.101c-1.13 0-2.471.507-3.776 1.427-.202.143-.399.292-.591.448-.209.168-.391.325-.593.51-.032.03-.061.065-.093.095.542-.284 1.05-.501 1.524-.656.414-.143.84-.246 1.273-.308z" fill="#ef3340"/><path d="M219.61 163.963a6.16 6.16 0 0 0-6.153-6.154 6.157 6.157 0 0 0-3.943 1.433c-.391.33-.74.708-1.039 1.124a6.131 6.131 0 0 0-1.172 3.597 6.159 6.159 0 0 0 8.563 5.661c.015-.006.028-.016.042-.022a6.15 6.15 0 0 0 3.702-5.639zm-6.153 4.259c-2.349 0-4.26-1.911-4.26-4.26s1.911-4.26 4.26-4.26c2.348 0 4.259 1.911 4.259 4.26s-1.911 4.26-4.259 4.26zm-87.056 15.731c-.086-2.335-1.249-3.968-3.194-4.482a5.088 5.088 0 0 0-1.306-.164c-3.516 0-7.761 3.265-9.833 7.806-1.123 2.46-1.371 4.93-.679 6.776.41 1.095 1.133 1.904 2.091 2.338 2.868 1.301 7.391-.824 10.297-4.839.227-.314.443-.638.66-.991l1.964-6.444zm-12.139 10.549c-.497-.226-.867-.656-1.1-1.278-.509-1.357-.273-3.348.629-5.325.698-1.532 1.783-3.022 3.056-4.219.032-.03.061-.065.093-.095.202-.185.384-.342.593-.51.202-.163.401-.314.591-.448 1.305-.92 2.646-1.427 3.776-1.427.293 0 .571.034.824.101 1.067.282 1.645 1.076 1.765 2.426l-1.791 5.879a13.365 13.365 0 0 1-2.342 2.772c-.194.174-.393.33-.592.486-1.987 1.563-4.176 2.239-5.502 1.638z" fill="#00a3e0"/><path d="M131.8 171.885c-1.118.002-2.281.461-3.219 1.266a10.845 10.845 0 0 0-1.209-.688c-3.397-1.658-7.575-1.602-11.765.158-.892.374-1.79.834-2.67 1.365-.064.039-.125.083-.189.122-.251.155-.499.314-.744.479a23.701 23.701 0 0 0-6.521 6.638c-1.929 2.942-3.12 6.158-3.446 9.306a10.106 10.106 0 0 1-2.315 1.98c-1.365.849-2.851 1.328-4.165 1.328-.907 0-1.593-.251-1.93-.708-.322-.434-.367-1.104-.127-1.889l5.878-19.355-8.102.001c-1.178.001-2.39.519-3.336 1.381a5.045 5.045 0 0 0-.847.963l-.065.098c-.06.093-.116.188-.17.285l-.056.101a5.35 5.35 0 0 0-.155.324l-.035.077c-.062.15-.11.286-.149.413l-4.236 13.864c-1.095 3.581-.606 7.038 1.377 9.736 2.11 2.872 5.759 4.534 10.011 4.561l.057.001c2.897 0 5.904-.752 8.7-2.172.023-.012.047-.022.07-.033.041-.021.077-.043.118-.064.656-.337 1.293-.71 1.909-1.116a10.8 10.8 0 0 0 3.073 2.718c1.818 1.078 3.898 1.625 6.181 1.625 2.676-.001 5.499-.777 8.188-2.236l-.225.169c-.128.093-.259.172-.387.261 1.265 8.915 3.195 14.807 6.24 19.049 2.714 3.78 5.667 5.11 6.232 5.338.03.014.736.352 1.711.681 2.353.795 4.86 1.514 6.056 1.849-1.95-1.438-3.798-2.937-5.475-4.614-7.816-1.216-11.358-12.31-13.395-23.173.086-.051.172-.107.258-.16.245-.151.486-.288.733-.454.291-.196.559-.384.815-.573a10.228 10.228 0 0 0 2.517 1.989c3.331 1.873 7.724 1.945 12.704.21l11.355-.01 5.211-17.074c.271-1.017 1.121-2.19 2.248-3.137.105-.088.21-.178.32-.262a7.5 7.5 0 0 1 1.684-.99c1.075-.445 2.095-.436 2.597.021.49.447.555 1.45.173 2.685l-5.709 18.769 11.812-.013 5.089-16.712.016-.057c.296-1.108 1.134-2.33 2.244-3.306.042-.037.078-.08.121-.116.574-.484 1.181-.866 1.756-1.104 1.216-.502 2.455-.488 3.015.034.509.476.532 1.552.061 2.958l-1.484 4.757c-1.244 4.178-.781 8.019 1.303 10.815 1.976 2.65 5.214 4.11 9.118 4.11s7.79-1.172 11.253-3.393c.451.445.945.85 1.471 1.208 2.033 1.384 4.606 2.125 7.441 2.144h7.991l3.007-9.854h-9.009c-.907 0-1.592-.252-1.931-.709-.322-.434-.367-1.105-.126-1.89l6.071-19.988-8.1.009c-.774.001-1.561.225-2.28.621a5.56 5.56 0 0 0-1.916 1.743l-.06.093c-.052.081-.1.162-.166.278l-.055.101c-.048.09-.09.182-.153.32l-.036.081c-.06.146-.109.281-.149.415l-4.012 13.284c-.516 1.687-2.055 3.424-4.016 4.533-.031.017-.063.029-.093.046-1.239.683-2.55 1.063-3.703 1.063-.23 0-.641-.036-.819-.275-.266-.36-.232-1.266.088-2.307l1.541-5.034c1.851-6.107.625-11.264-3.281-13.794-2.243-1.454-5.088-1.856-8.227-1.163-2.423.535-4.988 1.753-7.432 3.528-1.266-1.66-3.149-2.887-5.33-3.469-2.57-.685-5.481-.501-8.252.515l.173-.576-8.096.001c-1.165.001-2.36.505-3.299 1.347a5.46 5.46 0 0 0-.872.981l-.085.128c-.057.09-.112.182-.164.276l-.059.106a5.974 5.974 0 0 0-.149.313l-.038.085a4.873 4.873 0 0 0-.147.41l-4.145 13.557c-.691 2.065-2.349 4.01-4.326 5.075-.087.047-.175.081-.262.124-.834.408-1.665.633-2.419.633-.889 0-1.579-.306-1.996-.884-.609-.846-.673-2.184-.172-3.679l5.614-18.473h-5.403l-2.697.001zm5.545 1.888l-4.848 15.992c-.696 2.079-.541 4.038.424 5.378.776 1.078 2.03 1.671 3.532 1.671 3.531 0 7.474-3.198 8.789-7.129l4.174-13.602c.384-1.269 1.732-2.303 3.004-2.305l5.544-.006-.779 2.556c3.348-2.546 7.551-3.509 11.064-2.514 2.474.701 4.284 2.278 5.119 4.45 5.44-4.663 11.385-6.088 15.184-3.627 3.157 2.045 4.091 6.402 2.499 11.655l-1.539 5.03c-.527 1.718-.458 3.096.2 3.986.497.673 1.329 1.044 2.341 1.044 3.989 0 8.486-3.263 9.623-6.983l4.014-13.29c.385-1.27 1.733-2.304 3.004-2.305h5.542l-5.326 17.535c-.42 1.371-.272 2.639.416 3.568.704.951 1.93 1.475 3.452 1.475h6.413l-1.813 6.067h-6.579c-3.739-.024-6.86-1.479-8.591-3.997-2.449 1.862-6.416 4.037-11.584 4.037-3.291 0-5.99-1.189-7.6-3.348-1.718-2.305-2.076-5.552-1.007-9.142l1.466-4.703c.726-2.166.525-3.918-.566-4.937-1.118-1.044-3.093-1.201-5.03-.4-2.359.975-4.607 3.463-5.227 5.788l-4.678 15.365-7.852.008 4.965-16.321c.62-2.007.369-3.654-.709-4.636-1.074-.979-2.792-1.118-4.596-.372-2.466 1.019-4.768 3.448-5.355 5.649l-.106.4-.017-.045-4.664 15.318-7.852.008.359-1.179c-4.036 1.951-7.786 2.753-10.863 2.32-2.858-.402-5.095-1.837-6.477-4.151-3.438 3.058-7.434 4.685-11.053 4.685-1.9 0-3.696-.448-5.254-1.372-1.524-.903-2.705-2.188-3.511-3.821-3.3 2.69-7.413 4.224-11.325 4.225h-.095c-3.614-.023-6.693-1.404-8.446-3.789-1.62-2.204-2.008-5.067-1.093-8.061l4.235-13.862c.384-1.269 1.732-2.304 3.004-2.305h5.542l-5.132 16.908c-.419 1.372-.271 2.639.416 3.568.704.951 1.93 1.475 3.453 1.475 2.937 0 6.354-1.841 8.323-4.48.212-3.024 1.314-6.131 3.187-8.989 2.334-3.56 5.627-6.365 9.274-7.897 3.678-1.546 7.301-1.617 10.201-.201a9.082 9.082 0 0 1 2.353 1.651c.482-1.155 1.72-2.035 2.906-2.037l5.545-.006zm-47.456-9.805a6.159 6.159 0 0 0 8.564 5.662c.041-.017.076-.042.117-.06a6.144 6.144 0 0 0 3.626-5.601 6.16 6.16 0 0 0-6.153-6.153 6.164 6.164 0 0 0-3.943 1.432c-.408.344-.77.74-1.076 1.177a6.124 6.124 0 0 0-1.135 3.543zm6.153-4.259a4.264 4.264 0 0 1 4.259 4.259c0 2.349-1.911 4.26-4.259 4.26s-4.26-1.911-4.26-4.26a4.265 4.265 0 0 1 4.26-4.259z" fill="#00a3e0"/><path d="M217.716 163.963a4.265 4.265 0 0 0-4.259-4.26c-2.349 0-4.26 1.911-4.26 4.26s1.911 4.26 4.26 4.26a4.265 4.265 0 0 0 4.259-4.26zm-121.674 4.265a4.265 4.265 0 0 0 4.259-4.26c0-2.348-1.911-4.259-4.259-4.259s-4.26 1.911-4.26 4.259a4.265 4.265 0 0 0 4.26 4.26zm35.76 5.55c-1.187.002-2.424.882-2.906 2.037a9.082 9.082 0 0 0-2.353-1.651c-2.901-1.415-6.524-1.344-10.201.201-3.647 1.532-6.94 4.337-9.274 7.897-1.873 2.858-2.975 5.965-3.187 8.989-1.969 2.639-5.386 4.48-8.323 4.48-1.523 0-2.749-.524-3.453-1.475-.688-.93-.836-2.197-.416-3.568l5.132-16.908h-5.542c-1.272.002-2.62 1.036-3.004 2.305l-4.235 13.862c-.916 2.994-.527 5.857 1.093 8.061 1.753 2.385 4.831 3.766 8.446 3.789h.095c3.912 0 8.025-1.535 11.325-4.225.806 1.633 1.986 2.918 3.511 3.821 1.559.924 3.354 1.372 5.254 1.372 3.619 0 7.615-1.627 11.053-4.685 1.382 2.315 3.618 3.749 6.477 4.151 3.077.433 6.828-.369 10.863-2.32l-.359 1.179 7.852-.008 4.664-15.318.017.045.106-.4c.587-2.201 2.889-4.63 5.355-5.649 1.804-.746 3.522-.607 4.596.372 1.077.982 1.329 2.628.709 4.636l-4.965 16.321 7.852-.008 4.678-15.365c.62-2.325 2.868-4.813 5.227-5.788 1.938-.801 3.912-.644 5.03.4 1.091 1.019 1.292 2.771.566 4.937l-1.466 4.703c-1.069 3.591-.712 6.837 1.007 9.142 1.61 2.159 4.309 3.348 7.6 3.348 5.168 0 9.135-2.175 11.584-4.037 1.731 2.518 4.852 3.973 8.591 3.997h6.579l1.813-6.067h-6.413c-1.522 0-2.749-.524-3.452-1.475-.688-.929-.836-2.197-.416-3.568l5.326-17.535h-5.542c-1.271.001-2.619 1.035-3.004 2.305l-4.014 13.29c-1.137 3.72-5.634 6.983-9.623 6.983-1.012 0-1.844-.371-2.341-1.044-.658-.89-.727-2.268-.2-3.986l1.539-5.03c1.592-5.253.658-9.61-2.499-11.655-3.799-2.462-9.744-1.036-15.184 3.627-.834-2.173-2.645-3.749-5.119-4.45-3.513-.996-7.716-.032-11.064 2.514l.779-2.556-5.544.006c-1.272.002-2.62 1.036-3.004 2.305l-4.174 13.602c-1.315 3.931-5.258 7.129-8.789 7.129-1.502 0-2.756-.594-3.532-1.671-.965-1.34-1.12-3.299-.424-5.378l4.848-15.992-5.545.006zm-7.365 16.618c-.217.353-.433.678-.66.991-2.906 4.015-7.429 6.14-10.297 4.839-.958-.435-1.681-1.243-2.091-2.338-.691-1.846-.444-4.316.679-6.776 2.072-4.54 6.318-7.806 9.833-7.806.449 0 .887.053 1.306.164 1.944.514 3.107 2.147 3.194 4.482l-1.964 6.444z"/><path d="M53.607 175.167l.25-.338c2.218-2.996 5.254-7.099 8.13-10.839l.052-.064c5.176-6.156 8.473-9.18 12.629-11.558a26.687 26.687 0 0 1 6.896-2.676l-.629.071c-.019.002-.489.059-2.579.618a28.456 28.456 0 0 0-6.331 2.58l-.002.001c-.554.317-1.094.645-1.624.989-3.642 2.359-6.859 5.466-11.543 11.032-.028.033-.055.068-.082.102l-5.696 7.57.529 2.512zm-23.582 30.096c-2.255 1.888-5.888 3.27-10.486 3.924-2.264.322-4.694.559-6.372.565 1.44-1.128 3.217-2.679 4.773-4.509 1.134-1.241 2.534-3.218 3.538-6.126.732-2.121 10.982-35.324 12.148-39.103l.045-.145c.148-.496.272-.951.379-1.389.075-.308.135-.585.188-.847.342-1.712.301-2.511.301-2.566.022-1.231-.156-2.313-.466-3.179-.072-.2-.16-.431-.274-.611l-.054-.088-.001.001-.002-.006-1.821 1.826.051.09c.107.185.181.422.24.628.386 1.34.298 3.093-.287 5.292l-12.381 39.808c-2.123 6.614-10.727 11.931-10.814 11.984l-.667.407.778.074c.023.002 1.303.12 3.255.12 1.694 0 3.895-.089 6.221-.42 6.666-.948 11.177-3.361 13.49-7.217.31-.5.909-1.511 1.322-2.244-.515.826-1.1 1.607-1.748 2.333-.273.304-.705.808-1.356 1.398zm27.021-.255l8.074-26.054-3.347 4.494-.518 1.67-.001.001-6.688 21.555-.102.326h16.367l1.91-1.905-.078-.05-.029.036-.328-.041.033-.033-15.293.001zm-15.48-28.086l-1.144 3.736 5.025 23.748 1.659-1.261-5.54-26.223z" fill="#ef3340"/><path d="M90.166 152.451c1.541-1.414 2.351-2.037 3.953-3.347 0 0-1.718-.222-5.701-.229-1.736 0-4.154.169-6.855.818a26.658 26.658 0 0 0-6.896 2.676c-4.156 2.378-7.453 5.402-12.629 11.558l-.052.064c-2.876 3.739-5.913 7.843-8.13 10.839l-.25.338-.529-2.511-4.52-21.476-14.817.004.002.006.001-.001.054.088c.114.18.202.411.274.611.311.865.488 1.948.466 3.179 0 .055.041.854-.301 2.566-.057.284-.119.566-.188.847-.107.438-.231.893-.379 1.389l-.045.145c-1.166 3.779-11.417 36.983-12.148 39.103-1.004 2.909-2.404 4.886-3.538 6.126-1.556 1.829-3.333 3.381-4.773 4.509 1.678-.006 4.109-.243 6.372-.565 4.597-.654 8.231-2.036 10.486-3.924.651-.59 1.083-1.094 1.356-1.397a17.346 17.346 0 0 0 1.748-2.333c1.876-2.967 2.808-6.154 3.163-7.376l4.131-13.499 1.143-3.736 5.54 26.223 14.667-19.697 3.347-4.494-8.074 26.054 15.293-.001h.402c-.3-1.017-.497-1.731-.665-2.511-.198-1.148-.184-1.596-.04-2.675.091-.683.287-1.428.571-2.404l10.269-33.019c.045-.144.097-.276.143-.419 1.645-5.049 4.04-8.833 7.149-11.529zm-9.105 11.381l-10.27 33.022c-.315 1.083-.533 1.916-.639 2.715-.179 1.345-.148 2.418.098 3.378l.042.162H59.623l.052-.169 10.539-34.008-22.119 29.703-6.192-29.309-7.433 24.289c-.423 1.455-1.711 5.885-4.502 8.98-.872.968-3.525 3.914-11.049 4.699l-.368.038.263-.26c1.337-1.325 3.196-3.673 4.46-7.34.769-2.228 12.098-38.938 12.213-39.308.431-1.449.675-2.552.843-3.806.176-1.326.144-2.431-.099-3.378l-.042-.162 10.827-.003 5.586 26.595s8.04-10.831 10.882-14.525c5.016-5.965 8.189-8.877 12.13-11.132 4.793-2.679 9.609-3.241 12.806-3.241.146 0 .291.002.435.005l.34.009-.259.22c-3.543 3.015-6.118 7.209-7.875 12.826z" fill="#00a3e0"/><path d="M88.853 150.778c-.145-.004-.29-.005-.435-.005-3.196 0-8.012.562-12.806 3.241-3.941 2.255-7.114 5.167-12.13 11.132-2.843 3.694-10.882 14.525-10.882 14.525l-5.586-26.595-10.827.003.042.162c.243.947.275 2.052.099 3.378-.168 1.254-.412 2.356-.843 3.806-.114.37-11.444 37.079-12.213 39.308-1.265 3.667-3.124 6.015-4.46 7.34l-.263.26.368-.038c7.524-.786 10.177-3.731 11.049-4.699 2.791-3.095 4.079-7.524 4.502-8.98l7.433-24.289 6.192 29.309 22.119-29.703-10.539 34.008-.052.169H70.29l-.042-.162c-.247-.96-.278-2.033-.098-3.378.106-.799.324-1.632.639-2.715l10.27-33.022c1.756-5.617 4.332-9.812 7.873-12.824l.259-.22-.338-.011z"/><path d="M66.605 115.121a60.65 60.65 0 0 0 1.85 12.365c-1.115-14.55 1.419-26.805 6.654-36.884-1.39-.021-2.76-.031-4.102-.028-3.303 7.658-4.785 15.908-4.402 24.547zm67.199-60.103c-.393.008-.787.013-1.177.025-17.218.536-33.166 5.185-44.598 13.816a58.07 58.07 0 0 0-5.213 4.443 57.134 57.134 0 0 0-5.528 6.407c2.033-.342 4.029-.637 5.986-.892 12.075-13.459 30.294-21.225 50.53-23.799z" fill="#ef3340"/><path d="M62.136 90.758c4.322-.168 8.648-.22 12.973-.155 5.637.085 11.644.373 17.888.967a83.993 83.993 0 0 1 8.925-5.938c-18.514-.808-43.404.119-67.153 7.846.608-.117 10.196-1.878 24.627-2.599.913-.045 1.826-.086 2.74-.121z" fill="#41748d"/><path d="M223.896 205.089h-.01l-.439-1.376h-.671v2.105h.386v-1.677h.011l.531 1.675h.37l.55-1.675h.009v1.675h.387v-2.103h-.666l-.458 1.376zm-2.996-1h.57v1.729h.386v-1.729h.575v-.376H220.9v.376z"/></svg>