<?xml version="1.0" encoding="utf-8"?>
<!-- Generator: Adobe Illustrator 24.0.2, SVG Export Plug-In . SVG Version: 6.00 Build 0)  -->
<svg version="1.1" id="Layer_1" xmlns="http://www.w3.org/2000/svg" xmlns:xlink="http://www.w3.org/1999/xlink" x="0px" y="0px"
	 viewBox="0 0 86.4 86.4" style="enable-background:new 0 0 86.4 86.4;" xml:space="preserve" width="300" height="300">
<style type="text/css">
	.st0{fill:#12284B;}
	.st1{fill:#FFC52F;}
	.st2{fill:#003EA0;}
	.st3{fill:#FFFFFF;}
</style>
<path class="st0" d="M43.2,2C20.5,2,2,20.5,2,43.2s18.5,41.2,41.2,41.2c22.7,0,41.2-18.5,41.2-41.2S65.9,2,43.2,2"/>
<path class="st1" d="M43.2,0C19.4,0,0,19.4,0,43.2C0,67,19.4,86.4,43.2,86.4C67,86.4,86.4,67,86.4,43.2C86.4,19.4,67,0,43.2,0
	 M2,43.2C2,20.5,20.5,2,43.2,2s41.2,18.5,41.2,41.2c0,22.7-18.5,41.2-41.2,41.2S2,65.9,2,43.2"/>
<path class="st2" d="M43.2,82.5c-21.7,0-39.3-17.6-39.3-39.3c0-21.7,17.6-39.3,39.3-39.3c21.7,0,39.3,17.6,39.3,39.3
	C82.5,64.9,64.9,82.5,43.2,82.5 M43.2,4.9C22.1,4.9,4.9,22.1,4.9,43.2c0,21.1,17.2,38.3,38.3,38.3s38.3-17.2,38.3-38.3
	C81.5,22.1,64.3,4.9,43.2,4.9"/>
<path class="st1" d="M62.6,34.6v5.8c0,4.8-0.8,7.7-4.6,15.8c-4,8.4-8.9,10.9-14.8,10.9c-3.9,0-7.5-1.3-10.4-3.6l0,0l-0.7-0.6
	L32,62.8c-0.8-0.7-1.5-1.5-2.2-2.4c-0.1-0.1-0.1-0.1-0.2-0.2c0,0,0,0,0,0c0-0.1-0.1-0.1-0.1-0.2c-0.4-0.5-0.7-1-1-1.5
	c0-0.1-0.1-0.1-0.1-0.2c-1-1.7-1.6-3.5-2.1-4.9c-0.2-0.4-0.3-0.8-0.4-1.2c-1.1-2.9-3.3-8.4-4.3-11.2C20.5,38,20.3,36,21,34
	c0.7-2.1,2.4-3.7,4.7-5.6c2.3-1.9,4.2-3.4,6.9-5.3c1.7-1.2,3.5-1.9,5.2-1.9c0.7,0,1.4,0.1,2.1,0.3c0.1,0,0.2,0.1,0.4,0.2
	c0.6,0.2,1.1,0.5,1.5,0.9c0,0,0.1-0.1,0.1-0.1c1.2-0.7,2.6-1.1,4-1.1c1.1,0,2.2,0.2,3.1,0.7c0.2,0.1,0.3,0.2,0.5,0.2
	c0.1,0,0.1,0.1,0.2,0.1c0.7,0.4,1.4,0.9,1.9,1.4c0.8-0.3,1.6-0.4,2.4-0.4c1.2,0,2.2,0.3,3.2,0.9l0.2,0.1c0.4,0.3,0.7,0.4,1,0.7
	C61.2,27.1,62.6,29.1,62.6,34.6"/>
<path class="st0" d="M57.5,26.7c-0.4-0.3-0.6-0.4-1.2-0.8c-1.2-0.8-2.7-1-4.9,0C51.3,25.9,51.2,26,51,26c-0.5-1-1.3-1.6-2-2
	c-0.3-0.2-0.4-0.2-0.7-0.3c-1.5-0.7-3.6-0.8-5.5,0.4c-0.4,0.2-0.9,0.5-1.4,0.8c-0.5-0.8-1.1-1.2-1.8-1.5c-0.2-0.1-0.3-0.1-0.4-0.1
	c-1.4-0.5-3.6-0.2-5.7,1.3c-2.5,1.8-4.4,3.3-6.8,5.3c-4.4,3.6-5.4,5.7-3.6,10.6c1,2.7,3.1,8.1,4.3,11.2c0.7,1.8,1.4,4.1,2.7,6.3v0
	c0.1,0.2,0.2,0.4,0.4,0.6c0,0.1,0.1,0.1,0.1,0.2c0.6,0.9,1.3,1.8,2.1,2.6c0.1,0.1,0.1,0.1,0.2,0.2c0,0,0.1,0.1,0.1,0.1c0,0,0,0,0,0
	c2.7,2.4,6.2,3.9,10.1,3.9c7.2,0,13.1-5.9,13.1-13.1v0c0-6.9-5.6-12.5-12.5-12.5c-3.7,0-7.5,2.2-9.7,5.6c-0.9-2.3-3-7.3-4.5-11
	c-0.8-2-0.6-3,0.6-4.2c0.6-0.6,1.4-1.2,2.3-1.8c0.9-0.6,1.9-0.2,1.9,0.9v12.3c2-2,4.5-3.4,7.6-3.9l0-10.2c0.2-0.1,0.4-0.3,0.6-0.4
	c0.8-0.5,1.4,0.1,1.4,0.8v9.5c0.1,0,0.1,0,0.2,0c2.7,0,5.2,0.7,7.3,2V28.9c0.2-0.1,0.4-0.2,0.5-0.2c0.8-0.3,1.4,0.2,1.4,0.9
	s-0.1,11.3-0.1,11.3c3,2.4,4.9,6.1,5.2,10.1c1.4-3,2.4-5.8,2.4-10.6v-5.8C60.9,29.8,59.8,28.3,57.5,26.7 M43.7,44.9
	c4.2,0,7.5,3.4,7.5,7.5c0,4.2-3.4,7.5-7.5,7.5c-4.2,0-7.5-3.4-7.5-7.5C36.2,48.3,39.6,44.9,43.7,44.9"/>
<path class="st3" d="M38,52.4c0-1.4,0.5-2.6,1.3-3.6c1.6,2.1,1.6,5.1,0,7.2C38.5,55.1,38,53.8,38,52.4 M40.3,57
	c2.1-2.7,2.1-6.5,0-9.1c1-0.7,2.1-1.1,3.4-1.1c1.3,0,2.5,0.4,3.4,1.1c-2.1,2.7-2.1,6.5,0,9.1c-1,0.7-2.1,1.2-3.4,1.2
	C42.4,58.2,41.2,57.7,40.3,57 M48.2,56.1c-1.6-2.1-1.6-5.1,0-7.2c0.8,1,1.3,2.2,1.3,3.6C49.4,53.8,49,55.1,48.2,56.1"/>
<polygon class="st3" points="15.6,31.2 13.4,31.2 16.5,32.6 15.9,33.9 15,33.5 15.2,33.2 11.1,31.3 11,31.6 10.1,31.2 10.6,30 
	11.1,30.2 14.3,30.2 12.2,27.8 11.8,27.5 12.3,26.3 13.2,26.7 13.1,27 17.1,28.8 17.3,28.5 18.2,28.9 17.6,30.2 14.5,28.8 16,30.5 
	"/>
<polygon class="st3" points="17.1,19.7 17.9,20.4 17.7,20.6 21,23.5 21.3,23.3 22,23.9 20.8,25.3 20.1,24.6 20.3,24.3 17,21.4 
	16.7,21.7 16,21.1 "/>
<polygon class="st3" points="26.6,18.2 27.5,17.6 28.3,18.7 25.3,20.8 24.7,20 25,19.8 22.5,16.1 22.2,16.3 21.6,15.5 23.1,14.5 
	23.7,15.3 23.4,15.5 25.9,19.2 26.8,18.5 "/>
<polygon class="st3" points="35.4,8.9 35.7,9.8 35.4,9.9 36,14.9 36.1,15.4 35.1,15.7 35,15.3 33.2,12.4 33.5,15.7 33.6,16.2 
	32.6,16.5 32.5,16.1 30,11.7 29.7,11.8 29.4,10.8 30.6,10.4 30.8,10.9 32.4,13.8 32.1,10.5 33,10.2 34.7,13 34.3,9.8 34.2,9.3 "/>
<path class="st3" d="M45.4,13.6l0.3,0l0,1l-1.4,0l0-1.7l-1.6,0l0,1.7l-1.4,0l0-1l0.3,0l0.1-3.4l1-2l1.9,0l0.9,2L45.4,13.6z
	 M44.3,10.4l-0.5-1.2l-0.6,0l-0.6,1.2l0,1.5l1.7,0L44.3,10.4z"/>
<polygon class="st3" points="56,10.5 55.7,11.4 55.3,11.3 54.1,15.2 53.1,16.3 50.8,15.6 50.6,14.1 51.8,10.2 51.5,10.1 51.8,9.1 
	53.1,9.6 51.7,14.2 51.8,14.8 52.7,15.1 53.1,14.7 54.6,10 "/>
<polygon class="st3" points="64,15 64.8,15.5 64.3,16.3 64,16.1 61.9,17.4 61.5,19.8 61.8,20 61.2,20.8 60.4,20.3 60.9,17.3 
	60.5,17 59,19.3 57.8,18.5 58.3,17.6 58.6,17.8 61.1,14.2 60.9,14 61.4,13.2 62.6,14 61.1,16.2 61.5,16.5 "/>
<polygon class="st3" points="69.9,22.5 70.2,22.3 69.5,21.5 68.1,22.5 69.2,23.8 68.4,24.4 67.4,23.2 66,24.3 66.7,25.1 67,24.9 
	67.7,25.7 66.6,26.6 64.4,23.8 65.1,23.1 65.3,23.4 68.8,20.6 68.6,20.3 69.3,19.7 71.6,22.5 70.6,23.4 "/>
<polygon class="st3" points="74.5,30.5 74.9,30.4 74.4,29.4 72.8,30.1 73.5,31.6 72.6,32 71.9,30.5 70.3,31.2 70.8,32.2 71.1,32 
	71.5,33 70.3,33.5 68.9,30.2 69.8,29.8 69.9,30.2 74,28.4 73.8,28.1 74.8,27.7 76.2,31 75,31.5 "/>
<path class="st3" d="M16.4,66.1l-2.2-2.8l0.8-0.6l0.2,0.3l3.5-2.7L18.5,60l0.8-0.6l2.2,2.8l-0.5,1L19.9,64L19,64.2L18.6,65l-1.1,0.9
	L16.4,66.1z M18,64.1l0.2-0.3l-0.9-1.1l-1.4,1.1l0.8,1.1l0.4-0.1L18,64.1z M19.4,61.1L18,62.2l0.9,1.1l0.3-0.1l0.9-0.7l0.2-0.3
	L19.4,61.1z"/>
<path class="st3" d="M25.1,72.4l0.3,0.2l-0.6,0.8l-0.8-0.6l0.5-2.6L24,69.8l-1.4,2l-1.2-0.8l0.6-0.8l0.3,0.2l2.5-3.7l-0.3-0.2
	l0.6-0.8l2.8,2l-0.3,1.4l-0.8,1.1l-1.2,0.7l-0.2-0.1L25.1,72.4z M24.5,69l1.1,0.8l0.3-0.2l0.8-1.1l0.1-0.4l-1.1-0.8L24.5,69z"/>
<polygon class="st3" points="34.6,72.1 34.7,71.8 33.7,71.5 33.1,73.1 34.7,73.6 34.4,74.5 32.8,74 32.3,75.7 33.3,76 33.5,75.7 
	34.5,76 34.1,77.3 30.6,76.2 30.9,75.2 31.3,75.3 32.7,71.1 32.3,71 32.6,70.1 36.1,71.2 35.6,72.5 "/>
<polygon class="st3" points="46.6,72 46.6,73 46.3,73 45.4,77.9 45.4,78.4 44.3,78.4 44.3,77.9 43.5,74.7 42.8,78 42.8,78.5 
	41.7,78.5 41.7,78 40.7,73.1 40.3,73.1 40.3,72.1 41.6,72.1 41.6,72.5 42.3,75.7 43,72.5 43.9,72.5 44.7,75.7 45.3,72.5 45.3,72 "/>
<polygon class="st3" points="53.7,71.5 53.6,71.2 52.6,71.5 53.1,73.2 54.7,72.6 55,73.6 53.4,74.1 54,75.7 55,75.4 54.9,75 
	56,74.7 56.4,75.9 53,77.1 52.7,76.2 53,76.1 51.5,71.9 51.2,72 50.9,71.1 54.3,69.9 54.7,71.1 "/>
<path class="st3" d="M64.7,70l0.3-0.2l0.6,0.8l-0.8,0.6l-2.3-1.3l-0.6,0.4l1.4,2L62.1,73l-0.6-0.8l0.3-0.2l-2.6-3.6l-0.3,0.2
	l-0.6-0.8l2.8-2l1.3,0.7l0.8,1.1l0.3,1.4l-0.2,0.1L64.7,70z M61.2,69.4l1.1-0.8l-0.1-0.3l-0.8-1.1L61.2,67l-1.1,0.8L61.2,69.4z"/>
<polygon class="st3" points="72.1,63.4 70.4,65.6 69.3,65.4 68.8,65 69.4,64.1 69.7,64.3 70.1,64.4 70.8,63.4 70.7,63.1 70,62.6 
	67.1,63.7 65.8,62.7 65.3,61.7 67,59.5 68,59.8 68.6,60.2 67.9,61 67.6,60.8 67.3,60.7 66.5,61.7 66.7,62 67.3,62.5 70.3,61.5 
	71.6,62.4 "/>
<polygon class="st1" points="72.6,77.3 73.5,77.3 73.5,79.7 74.1,79.7 74.1,77.3 75,77.3 75,76.8 72.6,76.8 "/>
<polygon class="st1" points="77.2,78.7 77.2,78.7 76.5,76.8 75.5,76.8 75.5,79.7 76.1,79.7 76.1,77.4 76.1,77.4 76.9,79.7 
	77.5,79.7 78.3,77.4 78.4,77.4 78.4,79.7 79,79.7 79,76.8 77.9,76.8 "/>
</svg>
