<?xml version="1.0" encoding="UTF-8" standalone="no"?>
<svg xmlns:rdf="http://www.w3.org/1999/02/22-rdf-syntax-ns#" xmlns="http://www.w3.org/2000/svg" xml:space="preserve" height="150" viewBox="0 0 150 149.99792" width="150" version="1.1" xmlns:cc="http://creativecommons.org/ns#" xmlns:xlink="http://www.w3.org/1999/xlink" xmlns:dc="http://purl.org/dc/elements/1.1/"><g transform="matrix(1.25 0 0 -1.25 -1.0414 761.6)"><g><path d="m60.688 490.16c32.694 0 59.2 26.506 59.2 59.2s-26.506 59.198-59.2 59.198c-32.695 0-59.2-26.505-59.2-59.198 0-32.694 26.505-59.2 59.2-59.2" fill="#fff"/><path d="m60.688 604.9c-30.63 0-55.546-24.918-55.546-55.546s24.917-55.545 55.546-55.545c30.626 0 55.546 24.917 55.546 55.545s-24.92 55.546-55.546 55.546" fill="#ff5910"/><path d="m108.29 527.41c-0.12942-0.28041-0.2605-0.56082-0.39324-0.83957-0.74998-1.5464-1.5746-3.0514-2.469-4.5098-0.75495-1.2361-1.563-2.4358-2.4175-3.6022-0.89267-1.2228-1.8384-2.4059-2.834-3.5458-0.72343-0.82796-1.4734-1.6344-2.2466-2.4158-5.142-5.1951-11.359-9.3233-18.288-12.02 0.66038 0.32687 1.0271 0.51934 2.0392 1.6144l-0.71016 0.1792c-0.8794-0.88106-1.8202-1.719-3.4695-2.3777l0.99057 0.15265c-0.76491-0.2771-1.5348-0.5376-2.3163-0.77985l0.99554 0.95738-0.818 0.32024c-0.39324-0.58737-1.0022-1.1913-2.2367-1.8666-4.2875-1.1382-8.789-1.7472-13.43-1.7472-14.605 0-27.829 6.0048-37.344 15.67-0.76989 0.78482-1.5215 1.5912-2.2416 2.4225-0.90429 1.0387-1.7638 2.1155-2.5851 3.2239-0.85285 1.1532-1.6592 2.3428-2.4175 3.5674-0.84621 1.3639-1.631 2.7709-2.3511 4.2145-0.13274 0.26382-0.26382 0.5293-0.39158 0.79644-1.6095 3.3682-2.8705 6.9323-3.7349 10.649-0.06471 0.27875-0.12444 0.56082-0.18418 0.84289-0.02157 0.0913-0.04314 0.18252-0.061392 0.27543-0.72675 3.4744-1.1117 7.075-1.1117 10.762 0 7.007 1.3838 13.694 3.8876 19.806-0.16426-0.78648-0.1261-1.4552 0.06471-2.2201-0.8794-0.8794-1.4966-1.8866-1.8683-3.2969l0.71845-0.4397c0.22898 1.1498 1.1499 2.6382 1.9197 3.5159-0.54921 1.8683 0.27875 2.9269 0.60894 4.246l-0.59567 0.15265c3.5292 7.7038 8.8703 14.409 15.477 19.569-0.32521-0.5741-0.70186-1.3042-0.87442-1.8733l0.76989 0.49279s0.89599 1.49 1.7605 2.6199c1.6825 1.2112 3.4396 2.3246 5.2614 3.3334l-1.4352-0.82796c-1.417-1.6708-1.6045-2.7444-2.1222-3.9706l1.6576 0.41979c0.29534 1.0503 1.0901 3.2073 2.5834 4.7504 7.3421 3.9191 15.72 6.1458 24.61 6.1458 19.969 0 37.364-11.223 46.211-27.693 0.0747-0.51934 0.30198-1.8351-0.073-2.0226 0.12776-1.0337-0.45795-2.1869-0.85617-2.8688l0.4397-1.4834c0.68361 0.82465 1.198 2.3246 1.125 3.1542 0.47787 0.35342 0.25553 1.0154 0.25221 1.4933 0.40153-0.818 0.78316-1.646 1.1416-2.4855-0.0581-0.30032-0.24889-1.1548-0.60563-1.5978 0.20243-0.95904-0.24059-1.938-0.6471-2.6531l0.54755-1.3738c0.24723 0.16427 0.95738 2.0044 0.94577 3.0198 0.26381 0.34844 0.3335 0.72674 0.39323 1.0503 0.31858-0.82299 0.6189-1.6559 0.89931-2.4988-0.0498-0.41813-0.18417-1.2229-0.51104-1.5315 0.20408-0.92087-0.24059-1.5779-0.51769-2.1836l0.49612-1.3738s0.82464 1.8401 0.80307 2.5021c0.13606 0.30696 0.26216 0.48781 0.30696 0.7284 0.28539-0.98558 0.54423-1.9828 0.77486-2.9916-0.18417-0.85949-0.67033-1.6709-1.0602-2.5469l0.10785-0.8263s0.65872 0.82298 1.2444 1.9961c0.12444-0.62222 0.23561-1.2494 0.33682-1.8783-0.10619-0.31858-0.57409-1.6808-0.86446-1.8749l0.10785-0.60397s0.58239 0.78151 0.92752 1.3324c0.32687-2.3578 0.49777-4.7653 0.49777-7.2127 0-3.5026-0.34678-6.924-1.0055-10.236-0.81303-4.0933-2.1039-8.0158-3.8146-11.708" fill="#fff"/><path d="m60.011 599.99-0.32407-2.5718-0.71036-0.76739v-5.3562l-1.7526-1.317v-3.85l-1.1381-0.7674v-7.8088h-4.9596v6.0925h-7.254v-5.9344l-1.5374-0.65851v-10.772h-5.2785v9.0143l-0.54962 0.54703v4.7262h-0.54703l-1.2963 4.9725c0.0448 0.23727 0.07518 0.53853 0.07518 0.87369 0 0.74998-0.1428 1.0422-0.3137 1.0422s-0.30851-0.29223-0.30851-1.0422c0-0.37001 0.0334-0.70497 0.08815-0.94888l-1.3222-4.8973h-0.54962v-4.7262l-0.55222-0.54703v-9.8051h-5.8229v0.64555c-0.33185-1.3174-1.1997-3.5192-0.76999-5.3277l-0.14 0.0907 0.46666-0.33444c-1.2079-0.33018-3.1873-1.9767-3.627-3.1862l-1.0967 0.87887c0.54589 1.636 1.9399 1.9972 3.5725 3.0774l-0.38629 0.2437c-0.06637 1.6045-0.05848 3.392 0.81925 5.2603l1.1615-0.70258v6.6032c0 0.99057-1.4311 1.0163-1.4311 1.0163v1.7655l-1.2107 0.33185-0.10889 0.75962-0.32666 0.11147-0.33185-0.11147-0.10888-0.75962-1.2107-0.33185v-1.7655s-1.4285 0.0844-1.4285-1.1252v-9.4473l-2.3074-1.5192v-5.6051l-0.87888-0.49518v-4.2855l-0.82444-0.49518v-7.9669h-0.16592-1.4829v7.9125h-0.3837l-0.99036 8.6125-0.49259 0.0156-1.0474-8.628h-0.60407v-6.3181h-1.2652s-0.78648-0.66722-0.74666-1.0007c0.18252-1.6294 0.43794-3.2357 0.76481-4.817 0.018252-0.0929 0.040651-0.18356 0.062221-0.27481 0.059733-0.28207 0.11936-0.56643 0.18407-0.84518 0.86446-3.7167 2.1248-7.2794 3.7359-10.648 1.1399 0.77321 2.2811 1.8343 2.2944 1.8459l0.12963 0.11925h3.1344l0.12444-0.10111c9.7248-8.1203 27.774-11.579 39.163-12.128l-0.81147 0.37074c1.0984 0.76822 2.5271 2.4588 2.6366 2.8985l0.81925-0.99036c-0.50441-0.80639-1.3256-1.7333-2.0507-2.3074 0.70518-0.0282 1.3871-0.0452 2.0326-0.0518 12.756-0.11448 32.549 5.1144 41.683 13.082l0.12185 0.10888h3.1448 0.17889l0.41221-0.41481 1.9211-1.8459c1.7107 3.6918 3.0006 7.6147 3.8137 11.708l-0.52629 1.2211h-2.4189v5.2785h-2.6392v-3.08h-2.1959v28.14h-6.1573v-14.29h-4.6148v16.709l-0.8374 0.71813v1.9807l-1.8044 0.81666v2.4085h-3.0048v-2.4085l-1.8044-0.81666v-1.9807l-0.83221-0.71813v-3.3003h-4.4696v9.6728h-3.7359v4.6174h-2.4163v2.4163h-5.4962v-2.4163h-1.9807v-7.6947h-2.9789v8.9703l-1.1407 0.7674v3.85l-1.7526 1.317v5.3562l-0.65332 0.76739-0.26963 2.5718h-0.36555zm42.933-71.202c-1.0536-0.90263-2.2446-1.7707-3.5388-2.6003v-11.275h0.77259c0.99554 1.1399 1.9419 2.3228 2.8363 3.544v10.331h-0.07zm2.4863 0v-6.7277c0.89433 1.4568 1.7181 2.9621 2.4681 4.5085l-2.1518 2.0689-0.15037 0.15037h-0.16592zm-86.913-0.87888v-9.6651c0.82132-1.1084 1.6805-2.1839 2.5848-3.2226l1.1485-0.003v10.318c-1.2959 0.80141-2.5153 1.6543-3.627 2.5718h-0.1063zm-2.4189-0.0233c-0.31028-0.28041-1.3052-1.1686-2.3489-1.8589 0.72011-1.4435 1.5026-2.8516 2.3489-4.2155v6.0744zm82.428-2.2478c-1.042-0.63217-2.1429-1.2376-3.2977-1.82v-8.9003l3.2977-0.003v10.723zm-75.397-0.83222v-9.7895l3.2977-0.005v8.0603c-1.1399 0.54423-2.2441 1.1205-3.2977 1.7344zm71.22-1.4233c-1.0636-0.51271-2.1645-1.003-3.2977-1.4726v-6.987l3.2977-0.005v8.4647zm-67.041-0.72073v-7.6506l3.2951-0.003v6.2714c-1.1233 0.4314-2.2233 0.89402-3.2951 1.3818zm62.864-1.1096c-1.0768-0.4314-2.1811-0.83802-3.2977-1.2263v-5.3977l3.2977-0.005v6.6292zm-58.69-0.60147v-5.9448l3.3003-0.005v4.8274c-1.1133 0.34844-2.2152 0.7227-3.3003 1.1226zm54.511-0.92814c-1.0851-0.36503-2.1851-0.70736-3.2951-1.0292v-4.0574l3.2951-0.005v5.0918zm-50.332-0.46666v-4.5551l3.2951-0.005v3.64c-1.1051 0.28539-2.2034 0.59017-3.2951 0.92036zm46.158-0.81407c-1.0951-0.30696-2.196-0.59266-3.2977-0.85813v-2.9426l3.2977-0.005v3.8059zm-41.981-0.32925v-3.4196l3.2977-0.005v2.6729c-1.0968 0.22898-2.1977 0.47807-3.2977 0.75185zm37.805-0.73629c-1.1034-0.25386-2.2043-0.48667-3.2977-0.6974v-2.03l3.2977-0.005v2.7326zm-33.631-0.19963v-2.4889l3.3003-0.005v1.89c-1.0885 0.17919-2.1886 0.38006-3.3003 0.60406zm29.451-0.6611c-4.5231-0.81966-8.8832-1.2508-12.641-1.2159-3.4927 0.0299-7.9005 0.38536-12.631 1.1304v-1.7474l25.272-0.0363v1.8692zm-50.119-4.2181c9.5141-9.6651 22.74-15.669 37.343-15.669 4.6409 0 9.142 0.61081 13.429 1.7474 1.2345 0.67531 1.8425 1.2793 2.2374 1.8666l0.81666-0.31888-0.99554-0.95666c0.7815 0.24059 1.5545 0.50068 2.3177 0.77777l-0.99036-0.15296c1.6476 0.66038 2.5894 1.498 3.4688 2.3774l0.71036-0.17889c-1.0105-1.0951-1.3774-1.284-2.0378-1.6126 6.9273 2.6979 13.144 6.8224 18.288 12.019l-31.606 0.0441 0.33703-0.35c-0.76989-1.2096-2.5678-2.9009-3.7774-3.5596l-0.87888 0.7674c1.1897 0.54921 2.6132 2.0779 3.3781 3.1448l-42.041 0.0544z" fill="#002d72"/><path d="m67.196 542.75c0.7367 0.43804 1.3291 0.33517 1.5165 0.12279 0.0531-0.0614 0.07964-0.1427 0.07964-0.23893 0-0.19579-0.11283-0.44966-0.33019-0.71845-0.88935-1.1167-2.6382-1.8102-3.8129-2.0326 0.45629 0.95738 1.3705 2.1686 2.5469 2.8672m2.1537-1.5448c0.41813 0.521 0.58073 1.0105 0.58073 1.4286 0 0.40319-0.15099 0.74168-0.36172 0.98558-0.62885 0.72343-1.8434 0.76823-2.9534 0.10785-1.7389-1.032-3.0795-3.0414-3.3749-4.3887l-0.14104-0.64545 0.66204-0.0415c1.3772-0.0879 4.2377 0.86281 5.5883 2.5536m21.944 18.909-7.6159-0.0631s-2.5552-5.4158-2.8273-5.9898c-0.61558-0.01-5.4373-0.0913-5.4373-0.0913l-2.7062-5.5153s4.2559 0.16593 5.5369 0.2157c-0.62221-1.3556-3.3898-7.362-3.3898-7.362-1.3622-2.6282-5.1171-7.5811-9.5108-7.3454-0.74334 0.0398-1.11 0.47786-1.3224 1.2079 5.434 0.65042 7.8947 2.7709 8.8421 4.0386 0.96568 1.2959 1.4552 2.6398 1.4552 3.8826 0 0.92917-0.27377 1.8019-0.8263 2.5586-1.4717 2.011-4.5513 2.6365-7.6607 1.5564-5.0109-1.7405-8.8338-7.0103-8.8338-11.907 0-0.2605 0.02489-0.51934 0.04812-0.77984-0.24391-0.19413-0.52598-0.37001-0.68029-0.35508-0.01162 0.002-0.03484 0.003-0.07633 0.0664-2.0492 3.3998 7.752 21.285 11.442 28.02l0.46127 0.84123h-8.8769l-0.16758-0.16758c-2.9617-2.9783-6.6386-9.0943-9.5954-14.007 0 0-0.71015-1.1615-1.3987-2.2898 0.3584 1.4485 0.73836 2.98 0.73836 2.98 1.0735 4.548 2.4109 10.208 3.7449 12.7l0.44965 0.84289-0.95738-0.007-7.3073-0.0548-0.16758-0.20243c-1.7206-2.0724-3.7963-6.8726-5.9915-11.955-3.0132-6.9655-7.1347-16.506-9.6369-15.786-0.11283 0.0332-0.20077 0.0896-0.25884 0.25719-0.37499 1.0503 0.92586 4.032 2.3312 6.0512l1.0138 1.4601-6.1823-2.2201-0.09458-0.10619c-2.0591-2.2682-3.9075-6.5175-3.3035-9.4295 0.28539-1.3705 1.0868-2.3876 2.3163-2.9435 1.6476-0.745 3.3633-0.7815 5.0988-0.10785 4.5712 1.7721 8.1834 7.976 10.123 12.003-0.95904-4.5231-2.4806-9.31-3.569-11.019l-0.5575-0.87442h7.0269l0.1709 0.224c0.8628 1.1283 2.1437 3.2438 3.6271 5.6945 1.0055 1.6576 2.079 3.3965 3.1476 5.064-0.57078-1.631-0.9607-3.2969-0.9607-4.85 0-1.3091 0.2157-2.5171 0.66536-3.4927 0.72177-1.5597 1.9878-2.5088 3.6619-2.7394 2.5237-0.28539 4.6658 1.2876 5.6265 2.2333 0.40651-0.4314 0.80307-0.86446 1.3539-1.2079l0.01659-0.01c2.0359-1.1913 7.7503-1.6344 11.991 2.4855 0.58239-1.5082 1.8252-2.6216 3.5043-3.0082 2.1106-0.4845 4.548 0.28373 6.3947 1.8633 1.0271-0.71348 2.1852-1.4236 3.3533-1.6327 6.5523-1.1681 9.7895 3.8942 10.259 6.3831 0.1709 0.9076 0.24225 1.7289 0.24225 2.4822 0 1.8915-0.44136 3.3367-0.81966 4.5662-0.27212 0.89267-0.49777 1.6244-0.49777 2.3279 0 0.63383 0.18418 1.2444 0.67697 1.9247l0.39158 0.53593s-2.5868 1.329-3.3965 1.7455c1.5978 0.0249 3.9341 0.0614 3.9341 0.0614l2.2317 5.4406s-8.5766-0.13274-10.093-0.15597c0.58737 1.2278 2.8423 5.9616 2.8423 5.9616m-0.65872-11.334c-1.1664-0.84953-3.2123-3.272-7.4948-8.6911-1.1548-1.4634-2.3876-3.0182-3.1824-3.9506 0.08462 0.23727 0.17422 0.48284 0.32189 0.77154 0 0 5.5302 11.749 5.5518 11.797 0.33019 0.005 2.4026 0.0365 4.8035 0.073m-4.1595-11.66c1.0072 1.5746 1.8866 2.678 2.7228 3.6852 0.01991-0.21239 0.05144-0.5293 0.05144-0.5293 0.10785-0.86944 0.21238-1.704 0.21238-2.6448 0-0.46624-0.02655-0.95904-0.0896-1.495-0.08462-0.71016-0.58737-1.7621-1.3506-2.3097-0.48118-0.34513-1.0204-0.45795-1.5995-0.33517-0.18418 0.0382-0.40983 0.21404-0.49943 0.51768-0.02821 0.0913-0.04314 0.18916-0.04314 0.29037 0 0.49445 0.32189 1.0901 0.91092 1.6808l0.38826 0.38992s-0.54091 0.57576-0.70352 0.74998m-1.641-3.4363c0.19413-0.66038 0.72675-1.1731 1.3523-1.3058 0.89267-0.18749 1.7571-0.008 2.5005 0.52432 1.0851 0.7815 1.7007 2.1554 1.8135 3.1011 0.2074 1.7505 0.03816 3.1028-0.12112 4.4119l-0.32521 3.1974-0.8711-1.032-0.75827-0.92253c-0.96236-1.1582-1.9579-2.3545-3.1575-4.2958l-0.23229-0.37001s0.45961-0.49113 0.62221-0.66369c-0.63383-0.79312-0.91092-1.5099-0.91092-2.0259 0-0.24889 0.03816-0.45795 0.08794-0.6189" fill="#fff"/><path d="m54.312 598.76-1.9211-0.27481c-0.38494-0.76989-1.4292-1.9224-1.9237-2.3074 0.521-0.21902 0.93394-0.7141 0.82444-4.2881l1.7292 0.10889c-0.10951 3.9589-0.84974 3.9588-1.1252 3.9588 0.60396 0.38494 2.4163 2.8026 2.4163 2.8026zm3.4637-0.16592c-0.27543-0.65872-2.3081-1.9224-2.8026-2.3074 0.09458-0.078 0.41398-0.17858 0.68444-0.39926 0.48948-0.3949 1.1785-1.5348 1.1304-4.0236l1.5348-0.10889c-0.0813 2.8572-0.7955 3.7714-1.0759 4.0003-0.20243 0.224-0.63943 0.25895-0.84518 0.3137 1.1615 0.45961 2.9659 2.3618 2.9659 2.3618l-1.5918 0.16333zm-8.7395-0.0544-1.6463-0.16333c-0.16758-0.8794-0.66183-1.9795-1.1563-2.3644 0.54921-0.99056 0.55014-2.4175-0.32926-4.2311l1.6489 0.10889c0.8794 2.1985 0.65872 3.2995 0.16592 4.0677 0.60396 0.38494 1.317 2.5822 1.317 2.5822zm-4.3944-0.54703-1.8148-0.49777c-0.21902-0.98891-0.6609-1.6476-1.1537-2.0326 0.52432-0.17588 0.26776-0.8124-0.06741-1.6437-0.29534-0.7367-0.67407-1.2964-1.0889-2.1492l1.6489 0.11148c1.1017 1.87 1.9248 3.6828 1.1018 3.9018 0.60396 0.38495 1.3741 2.31 1.3741 2.31zm20.165-0.057c-1.1515-1.3191-2.1983-1.8136-2.6911-2.1985 0.87774-0.4397 1.5931-1.9234 1.3741-4.1766l1.7603-0.43815c-0.11117 2.8572-0.77144 3.9576-1.5944 4.1766 0.60396 0.38494 2.9659 2.4733 2.9659 2.4733l-1.8148 0.16333zm-24.37-0.94369-1.6463-0.30851c-0.29037-0.79976-0.71835-1.4286-1.2626-1.8252 0.14104-0.85782-0.15576-1.6249-1.4052-3.5181l1.5478 0.19963c1.5082 1.9413 1.3751 2.8537 1.3585 3.5207 0.65042 0.39656 1.4078 1.9315 1.4078 1.9315zm29.099-0.0467c-0.65872-0.76989-1.9235-1.3719-2.4163-1.7552 0.54589-0.99056 1.9768-2.5845 1.7578-4.8377l1.5374-0.22036c-0.4397 3.6271-1.0964 4.1763-1.9211 4.397 0.60396 0.38494 2.857 2.144 2.857 2.144l-1.8148 0.27222zm5.1644-1.317c-0.38494-0.76989-1.3731-1.155-1.8692-1.54 0.55087-0.9889 1.5412-2.6389 1.3222-4.8922l1.7033-0.49259c-0.33019 3.2969-0.71534 4.725-1.54 4.944 0.60396 0.38494 2.0896 1.7059 2.0896 1.7059l-1.7059 0.27482zm4.8377-1.7033c-0.38494-0.76988-1.3748-1.155-1.8692-1.54 0.55087-0.98891 1.4297-2.1982 1.2107-4.4514l1.6463-0.65851c-0.33019 3.4081-0.65737 4.2852-1.4804 4.5059 0.98891 0.54921 2.1985 1.7033 2.1985 1.7033l-1.7059 0.44073zm5.1644-1.9263c-0.38494-0.76823-1.3738-0.93208-1.8666-1.317 0.54755-0.98891 1.5386-2.473 1.3196-4.7262l1.7578-0.87888c-0.11117 2.7477-0.76978 4.6161-1.5944 4.8351 1.0984 0.49445 2.0352 1.54 2.0352 1.54l-1.6515 0.54703zm4.3425-2.087c-0.38494-0.54921-1.3705-0.93467-1.8666-1.3196 0.54921-0.9889 1.5931-2.2526 1.3741-4.5059l1.7552-0.98776c-0.10785 2.8572-0.76719 4.6706-1.5918 4.8896 0.82464 0.38494 1.8148 1.374 1.8148 1.374l-1.4855 0.54963zm4.1222-2.4163c-0.38494-0.76989-0.87795-0.71689-1.3741-1.1018 0.55087-0.9889 1.5931-3.021 1.3741-5.2759l1.5374-1.0966c-0.22068 3.5176-0.60386 5.4389-1.4285 5.6596 0.60396 0.38494 1.2081 1.0448 1.2081 1.0448l-1.317 0.76999zm4.3996-2.8052c-0.16592-0.60397-0.82941-0.82319-1.3222-1.2081 0.54921-0.9889 0.98901-3.1859 0.76999-5.4392l1.5374-1.1018c0.11117 3.4081-0.38577 4.7818-0.93332 5.8255 0.60396 0.38494 0.93332 0.93591 0.93332 0.93591l-0.98517 0.98777zm3.8992-3.3496c-0.16592-0.60562-0.65758-0.82578-1.1537-1.2107 0.27377-1.2096 0.82371-2.9674 0.49518-4.7262l1.2055-1.2626c0.27709 1.9778 0.11242 4.0663-0.21778 5.1099 0.38495 0.27544 0.76999 0.87888 0.76999 0.87888l-1.0992 1.2107zm3.0229-3.8474c0-0.23395 0.0258-1.7487-0.41222-1.9678 0.12942-1.0337-0.18158-2.188-0.57814-2.87l1.0448-1.2652c0.51768 1.0453 0.75817 2.6574 0.68184 3.487 0.12942 0.43307 0.26776 0.37603 0.30593 0.85555l-1.0422 1.7604zm-89.415-6.7044c-0.8794-1.8683-0.6611-3.6275-0.32926-4.9466-0.88106-0.8794-1.5802-1.4099-2.1311-3.0592l0.8711-0.54963c0.10951 1.2079 1.0404 2.3976 2.1389 3.277-0.54921 1.8683 0.2298 3.6457 0.55999 4.9648l-1.1096 0.3137zm2.7481-0.77258c-0.59069-1.9977-0.65944-3.8436-0.32926-5.1644-0.88106-0.8794-2.1289-1.511-2.6781-3.1603l1.0889-0.5574c0.4397 1.2079 1.5894 2.8379 2.7974 3.1681-0.55087 1.87 0.06129 3.9075 0.39148 5.2266l-1.2704 0.4874zm3.4585-1.3585c-0.66038-1.8683-0.37976-3.29-0.16074-5.4884l0.19703-0.0959c-0.88603-0.86447-2.6196-1.3108-3.1655-2.9452l1.0992-0.88147c0.43804 1.2096 2.3102 2.7488 3.5181 3.0774l-0.32925 0.18666c-0.55087 1.8683-0.21964 4.1771 0.10889 5.4962l-1.2678 0.65073zm3.5155-1.82c-0.87774-1.87-0.88562-3.6532-0.81925-5.2577l0.38629-0.2463c-1.6327-1.0802-3.0283-1.4388-3.5725-3.0748l1.0992-0.88147c0.4397 1.2096 2.4174 2.8587 3.627 3.1888l-0.47185 0.33184 0.14259-0.0882c-0.4314 1.8086 0.43814 4.006 0.76999 5.3251l-1.1615 0.70259zm3.7981-2.6366c-0.76989-1.782-1.7583-4.8452-1.1278-5.2318l0.31888-0.39666c-1.4369-0.54755-4.0313-1.2053-4.3399-2.4863l1.0396-0.93851c0.20409 0.85285 2.1275 1.7919 4.2181 2.3411l-0.36037 0.44592c-0.0531 1.8052 0.9747 4.0734 1.4078 5.2681l-1.1563 0.99814zm22.685-2.2011c-1.261-0.01-5.4089-0.0408-5.8851-0.0441-1.5978-2.0342-3.5808-6.6041-5.6881-11.477-4.5496-10.526-7.7719-17.356-10.992-16.426-0.48948 0.14104-0.84206 0.4759-1.0163 0.96703-0.0896 0.24723-0.12703 0.5267-0.12703 0.82703 0 1.4552 0.91455 3.4162 1.7292 4.8481-1.2245-0.43804-2.5078-0.90159-2.6937-0.96962-1.6144-1.8235-3.054-4.9488-3.054-7.3447 0-0.34844 0.02862-0.68008 0.09333-0.99036 0.21404-1.0287 0.762-1.7274 1.6696-2.1389 1.3805-0.62387 2.7596-0.65301 4.2181-0.0856 5.1768 2.0077 9.2898 10.778 10.425 13.419 0.6189 1.4352 0.85171 1.976 1.4441 1.8018 0.32853-0.0946 0.43555-0.30696 0.43555-0.6637 0-0.24888-0.05195-0.56901-0.11666-0.97221 0 0-0.08555-0.53189-0.08555-0.54184-0.72011-4.2427-2.2994-10.008-3.7048-12.857h4.4644c0.82464 1.1266 2.0202 3.0854 3.404 5.3718 1.6161 2.6697 3.4489 5.6976 5.0866 8.0006 1.5315 2.1587 1.7278 2.4337 2.2737 2.1052 0.54091-0.32687 0.38982-0.62243-0.81147-2.9918-2.1338-3.3301-2.8753-7.9474-1.6955-10.508 0.55916-1.2079 1.4981-1.9111 2.774-2.087 2.4275-0.27378 4.5752 1.6932 5.0166 2.2374l0.4537 0.55999 0.43814-0.57295c0.40651-0.53096 0.89485-0.96195 1.527-1.3585 1.5929-0.92585 6.9697-1.5092 10.871 2.5278l0.06221 0.0856 0.66629 0.39666 0.32407 0.14777 0.2437-0.61962s0.12246-0.3055 0.17889-0.41999c0.61724-1.6825 1.8766-2.2922 2.8207-2.5096 1.8899-0.43306 4.1442 0.28487 5.7503 1.8329l0.33962 0.32666 0.3837-0.27222c0.99554-0.70683 2.158-1.4555 3.22-1.6463 6.2935-1.1216 8.6888 4.1156 8.9443 5.4729 0.15929 0.83626 0.22296 1.5877 0.22296 2.2763 0 1.714-0.4033 3.0305-0.76999 4.2285-0.28539 0.93249-0.55222 1.7996-0.55222 2.6807 0 0.64212 0.21539 1.306 0.5937 1.9963-0.82796 0.42808-2.3887 1.2273-2.6807 1.3766-1.0005-0.45795-5.0184-5.5344-7.4458-8.6073-4.2576-5.3909-4.3053-5.3678-4.8844-5.084l-0.47962 0.56c-0.24557 0.73504 0.26942 1.9219 0.59629 2.564 0 0 5.5408 11.77 5.5325 11.747l0.26963 0.6611s9.7848 0.15078 10.482 0.16074c0.18915 0.46956 0.89952 2.2002 1.2911 3.1526-1.4435-0.0232-10.202-0.15814-10.202-0.15814s2.2626 4.7546 2.8466 5.9758c-1.2477-0.0116-4.5438-0.0391-5.0814-0.0441-0.27543-0.57741-2.8285-5.981-2.8285-5.981s-4.8397-0.0834-5.447-0.0933c-0.21072-0.42476-1.0672-2.173-1.5633-3.1785 1.3058 0.0514 5.4859 0.21259 5.4859 0.21259s-4.1641-9.0456-4.174-9.0688c-1.5995-3.0895-5.633-8.248-10.596-7.9825-1.032 0.0564-2.3137 0.57254-2.5692 2.7196l-0.06741 0.58074 0.58073 0.0518c5.5502 0.48781 7.8488 2.5352 8.7266 3.71 1.3954 1.87 1.6211 3.7253 0.62222 5.0892-1.1731 1.6061-3.7341 2.0679-6.3673 1.1537-4.84-1.6792-8.5844-7.1953-8.0136-11.801l0.0337-0.27481-0.19444-0.19444c-0.15265-0.15265-0.95313-0.90999-1.7811-0.82703-0.37333 0.0382-0.689 0.23437-0.92295 0.5911-0.28041 0.46293-0.41222 1.0888-0.41222 1.8537 0 4.8682 5.3319 15.43 11.363 26.475h-6.4658c-2.8423-2.9319-6.4078-8.8387-9.2866-13.624 0 0-2.5118-4.1079-2.5848-4.2207-0.62553-0.94908-0.83646-1.2679-1.3326-1.0422-0.24723 0.11117-0.3474 0.2604-0.3474 0.51592 0 0.26714 0.11035 0.64959 0.26963 1.2237l1.2522 5.0607c1.047 4.4351 2.2304 9.3075 3.4948 12.133zm-19.548-0.37592c-0.99057-2.8572-1.4874-4.358-1.1589-5.7866l0.30852-0.33444c-0.89765-0.33184-3.3775-1.0255-4.3581-2.5537l0.86073-1.177c0.76989 1.0984 3.0792 2.3071 4.6174 2.5277l-0.33185 0.36815c-0.20409 2.0807 0.77528 4.5853 1.2133 5.7866l-1.1511 1.1692zm4.3451-4.7781c-1.1996-1.7322-2.4247-3.9749-2.3152-5.294l0.30333-0.33444c-2.2367-0.48948-3.4342-0.42964-4.9673-1.6359l0.98258-1.4363c0.76823 1.0984 3.5718 1.6502 5.1099 1.8692l-0.33185 0.36296c-0.0896 1.7522 1.2266 3.9378 2.2089 5.0296l-0.99036 1.4389zm-1.107-10.35c-0.76989-0.21902-1.979-0.55004-3.0774-1.0992l-0.23852-0.11925 0.48481-1.1537c0.71845 0.48947 1.744 0.84808 2.7196 1.0007l0.11147 1.3715zm33.304-2.3074c0.521-0.0191 0.98186-0.21125 1.2963-0.57296 0.21072-0.24391 0.36036-0.58198 0.36036-0.98517 0-0.41813-0.1626-0.9075-0.58073-1.4285-1.3506-1.6908-4.2098-2.6433-5.587-2.5537l-0.6611 0.0415 0.14 0.64555c0.29534 1.3473 1.6366 3.3572 3.3755 4.3892 0.55502 0.33019 1.1356 0.48315 1.6566 0.46407zm21.78-0.57815 0.32666-3.1966c0.15929-1.3091 0.32926-2.662 0.12186-4.4125-0.11283-0.94577-0.72965-2.3192-1.8148-3.1007-0.74334-0.53261-1.6066-0.71378-2.4992-0.52629-0.62553 0.13274-1.1592 0.64628-1.3533 1.3066-0.04812 0.16095-0.08815 0.37074-0.08815 0.61963 0 0.51602 0.27616 1.2317 0.90999 2.0248-0.1626 0.17256-0.62222 0.66369-0.62222 0.66369l0.23333 0.37074c1.1996 1.9413 2.1954 3.1377 3.1577 4.2959l0.75703 0.92295 0.8711 1.0318zm-41.786-13.02c-0.33185-0.88105-0.66141-1.3174-0.44074-2.1985l0.52629-0.65592c-1.3058 0.2157-2.183 0.16136-3.4922 0.0519l-0.88147-1.1563c0.8794 0 3.9554 0.11241 5.0555-0.21778l-0.62222 1.2444 0.29296-0.36555s-0.000934 1.3197 0.32926 2.0896l-0.7674 1.2081zm4.6744-3.6788c-1.032-1.1333-2.2662-2.7397-2.2529-3.4714l0.37851-0.46666c-0.91258 0.20906-3.6662 0.054-5.727-0.16334l0.79851-1.2678c1.0968 0.10951 5.0641 0.16883 6.1625-0.0518l-0.43555 0.53666c-0.20575 0.58572-0.05714 1.3388 0.45888 2.0274 0.53593 0.71347 1.4966 1.7401 2.4474 2.8103-0.71181-0.17754-1.8304 0.0467-1.8304 0.0467zm4.0185-2.9063c-0.44136-0.66037-3.5877-3.7053-3.0385-5.0244l0.77518-0.26185s0.71876-0.43306-0.05445 0c-0.7898 0.44136-4.7959 0.65976-6.8832 0.44074l1.0396-1.4881c1.0984 0.10951 5.7426 0.27771 6.8444 0.057-0.06139 0.0531-0.90211 0.84071-0.67147 1.2107 0.38826 0.6272 0.91901 1.6912 2.8985 3.7022l-0.90999 1.3637zm3.067-4.1455c-0.10951-0.4397-1.5408-2.1303-2.6392-2.8985l0.81666-0.37074c0.19745-0.01 0.39532-0.0202 0.5911-0.0285 0.72675 0.57409 1.5463 1.5052 2.0507 2.31l-0.81925 0.98777zm5.3588-7.2877c-0.76491-1.0652-2.191-2.5904-3.3807-3.1396l0.87888-0.76999c1.2096 0.66037 3.0075 2.3491 3.7774 3.557l-0.33703 0.35259h-0.93851zm-5.0296-1.0526c-2.4175-0.32853-5.2936-0.43845-6.611-0.21778l1.0059-1.1563c2.0873-0.10951 4.5058 0.10992 6.2662 0.54962l-0.6611 0.82444zm8.4258-1.2315c-0.42974-0.6919-2.2865-3.1014-3.7151-3.7618l0.98777-0.65851c1.2096 0.65871 2.7275 2.2634 3.4974 3.5311l-0.76999 0.88925zm-5.9525-1.68c-0.76989-0.33019-1.7041-0.60458-6.4114-0.5548l1.1122-1.0992c3.5176 0.10951 4.4737 0.33454 6.2325 0.77258l-0.93332 0.88147zm8.6177-0.85036c-0.54755-0.98724-2.0791-2.5094-3.5077-3.1681l0.87888-0.54962c1.2096 0.65872 2.7404 1.7408 3.5103 2.9503l-0.88147 0.76739zm-5.504-1.89c-1.7588-0.60397-4.7667-1.0477-6.5255-0.82703l1.4285-0.99036c1.9778-0.10951 4.4374 0.6077 6.1962 1.0474l-1.0992 0.76999zm8.1329-0.0959c-0.54755-0.98891-1.9625-2.0557-3.3911-2.7144l0.53407-0.30073c-0.4397-0.55253-1.1032-1.5232-4.6822-2.2815l1.2807-0.43295c3.4048 0.65871 4.6276 2.3016 3.8577 2.4111l-0.25666 0.19185 0.25666-0.14259c1.2096 0.65871 2.5123 1.452 3.2822 2.66l-0.88147 0.60926zm2.4863-1.4933c-1.0968-1.3191-1.6994-1.9131-3.347-2.5718l0.63518-0.27222-0.08555 0.0285c-0.56746-0.74997-1.5017-1.5991-4.0885-2.1881l1.4985-0.32407c1.8849 0.22068 3.9072 2.0728 3.2485 2.2918l-0.30074 0.1011c1.1913 0.65043 2.0116 1.078 3.2096 2.4966l-0.77 0.43816zm-8.0188-0.12185c-1.4286-1.2096-3.0748-1.7082-5.2733-1.9289l1.2729-0.76481c2.3063 0.11117 5.2641 1.7591 4.7133 2.31l-0.71295 0.3837zm10.28-1.0215c-0.76989-0.98891-1.4284-1.6522-2.857-2.3126l0.7648-0.32407c1.2096 0.65872 1.5414 0.98766 2.8622 2.4163l-0.76999 0.22037z" fill="#ff5910"/><path d="m68.162 543.06c-0.2634-0.003-0.59608-0.0861-0.96443-0.30592-1.1764-0.69688-2.0905-1.91-2.5485-2.8674 1.1764 0.22234 2.9226 0.91756 3.8137 2.0326 0.2157 0.27045 0.32926 0.52494 0.32926 0.72073 0 0.0946-0.02562 0.17546-0.08037 0.23851-0.09292 0.1062-0.28622 0.18418-0.54962 0.18148zm21.036-2.2503c-0.8346-1.0055-1.715-2.1094-2.7222-3.684 0.1626-0.17588 0.70258-0.74925 0.70258-0.74925l-0.38629-0.39148c-0.58903-0.59234-0.91258-1.1855-0.91258-1.68 0-0.10121 0.01586-0.20004 0.04407-0.29295 0.0896-0.30365 0.31619-0.47942 0.50036-0.51592 0.57908-0.12279 1.1184-0.0106 1.5996 0.33444 0.76325 0.54754 1.2635 1.5998 1.3481 2.31 0.06305 0.53427 0.09074 1.028 0.09074 1.4959 0 0.94078-0.10567 1.775-0.21518 2.6444 0 0-0.02769 0.31816-0.04926 0.52888z" fill="#002d72"/></g></g></svg>
