<?xml version="1.0" encoding="UTF-8" standalone="no"?>
<svg xmlns:rdf="http://www.w3.org/1999/02/22-rdf-syntax-ns#" xmlns="http://www.w3.org/2000/svg" viewBox="0 0 302 334.0698" height="334.07" width="302" version="1.1" xmlns:cc="http://creativecommons.org/ns#" xmlns:dc="http://purl.org/dc/elements/1.1/">
 <g style="">
  <g style="" transform="matrix(6.58 0 0 -6.58 151 .99535)">
   <path d="m0 0c-12.57 0-22.797-10.226-22.797-22.796 0-8.739 4.865-16.56 12.696-20.437-0.033-0.065-0.108-0.211-0.108-0.211-0.364-0.71-1.121-2.188-1.352-2.295l-0.428-0.134c-0.211-0.051-0.429-0.103-0.621-0.252-0.207-0.158-0.524-0.761-0.524-1.071l-0.016-0.106c-0.017-0.093-0.042-0.223-0.042-0.382 0-0.504 0.25-1.303 1.767-2.142 0.003-0.002 0.308-0.162 0.308-0.162 2.066-0.974 2.788-0.209 3.059 0.077l0.077 0.075c0.251 0.182 0.554 0.791 0.562 1.052 0.001 0.01 0.001 0.02 0.001 0.029 0 0.231-0.082 0.429-0.161 0.621l-0.142 0.426c-0.001 0.006-0.001 0.013-0.001 0.02 0 0.29 0.793 1.816 1.181 2.56 0 0 0.169 0.327 0.221 0.428 2.046-0.589 4.17-0.893 6.32-0.893 12.57 0 22.796 10.227 22.796 22.797s-10.226 22.796-22.796 22.796" fill="#fff"/>
  </g>
  <g style="" transform="matrix(6.58 0 0 -6.58 94.087 195.32)">
   <path d="m0 0c-0.047-0.056-0.037-0.138 0.019-0.184l0.319-0.262c0.056-0.045 0.138-0.037 0.185 0.019 0.045 0.056 0.036 0.139-0.019 0.183l-0.32 0.263c-0.056 0.045-0.138 0.037-0.184-0.019" fill="#e3002b"/>
  </g>
  <g style="" transform="matrix(6.58 0 0 -6.58 103.15 202.97)">
   <path d="m0 0c0.061-0.039 0.142-0.021 0.18 0.04 0.039 0.061 0.021 0.142-0.038 0.181l-0.291 0.185c-0.059 0.039-0.141 0.021-0.18-0.04-0.039-0.06-0.021-0.141 0.04-0.18l0.289-0.186z" fill="#e3002b"/>
  </g>
  <g style="" transform="matrix(6.58 0 0 -6.58 99.789 212.69)">
   <path d="m0 0c0.048 0.054 0.044 0.136-0.009 0.185l-0.61 0.552c-0.054 0.048-0.137 0.044-0.186-0.009-0.048-0.054-0.043-0.137 0.011-0.186l0.61-0.551c0.053-0.048 0.135-0.044 0.184 0.009" fill="#e3002b"/>
  </g>
  <g style="" transform="matrix(6.58 0 0 -6.58 211.26 204.17)">
   <path d="m0 0c-0.072-0.007-0.124-0.071-0.117-0.143 0.008-0.073 0.071-0.124 0.143-0.117l0.582 0.058c0.071 0.007 0.123 0.071 0.116 0.143s-0.071 0.124-0.144 0.117l-0.58-0.058z" fill="#e3002b"/>
  </g>
  <g style="" transform="matrix(6.58 0 0 -6.58 201.53 163.86)">
   <path d="m0 0c0.683 1.299-0.952 3.102-3.372 4.29-2.419 1.188-4.735 1.427-5.477 0.011-0.4-0.761 0.464-1.817 1.935-2.799 0.055 0.158 0.107 0.31 0.158 0.458 0.037 0.111 0.059 0.23 0.108 0.333 0.025 0.077 0.055 0.161 0.079 0.237 0.017 0.057 0.106 0.199 0.181 0.308 0.297 0.443 1.293 0.535 2.221 0.097 0.93-0.438 1.593-1.469 1.334-2.145 0-0.003 0-0.004-0.001-0.007-0.049-0.124-0.145-0.29-0.181-0.337-0.15-0.198-0.306-0.411-0.468-0.636 1.691-0.564 3.078-0.58 3.483 0.19" fill="#142448"/>
  </g>
  <g style="" transform="matrix(6.58 0 0 -6.58 174.61 170.97)">
   <path d="m0 0h-0.019c-0.071-0.103-0.142-0.207-0.215-0.313 0.003-0.005 0.005-0.009 0.006-0.009 0.875-0.304 2.482-1.41 3.013-1.972 0.015-0.017 0.039-0.039 0.053-0.053 0.005-0.003 0.012-0.004 0.016-0.006 0.134 0.082 0.27 0.161 0.408 0.233 0.082 0.042 0.164 0.083 0.247 0.121l-0.017 0.018c-0.349 0.32-2.562 1.604-3.492 1.981" fill="#142448"/>
  </g>
  <g style="" transform="matrix(6.58 0 0 -6.58 152.52 163.65)">
   <path d="m0 0c0.052 0.135 0.104 0.27 0.154 0.404-0.877 0.46-2.418 0.987-3.212 1.296-0.115 0.045-0.241 0.104-0.373 0.173-0.211 0.112-0.437 0.254-0.663 0.424-0.911 0.684-1.812 1.813-1.637 3.209 0.156 1.238 1.139 1.848 2.521 2.018 0.221 0.027 0.45 0.043 0.689 0.048 2.195 0.05 5.099-0.783 7.365-1.922 1.759-0.88 4.112-2.591 5.269-3.707 0.285-0.275 0.511-0.506 0.705-0.72 0.163-0.181 0.301-0.352 0.412-0.512 0.366-0.533 0.476-1.014 0.528-1.83 0.004-0.827-0.225-1.571-0.507-2.161-0.004-0.009-0.005-0.016-0.009-0.024 0.248 0.149 0.508 0.281 0.767 0.391 0.002 0.01 0.005 0.017 0.005 0.018 0.017 0.075 0.027 0.223 0.027 0.223 0.368 1.723 0.031 3.243-0.501 4.349-0.131 0.273-0.273 0.518-0.42 0.736-0.202 0.302-0.412 0.554-0.611 0.74-0.907 0.85-0.475 0.215-0.174-0.175 0.214-0.276 0.316-0.439 0.407-0.61 0.159-0.304 0.234-0.483 0.245-0.575-0.005-0.022-0.011-0.045-0.016-0.066-0.066-0.023-0.28 0.161-0.607 0.496-1.234 1.262-3.385 2.861-5.36 3.85-2.429 1.215-5.345 1.852-7.238 1.926-0.21 0.008-0.41 0.011-0.591 0.006 0.315 0.145 0.57 0.234 0.817 0.297 0.346 0.088 0.677 0.121 1.129 0.167 0.687 0.07 0.417 0.206 0 0.174-0.251-0.019-0.557-0.037-0.891-0.065-0.254-0.022-0.524-0.05-0.803-0.091-1.498-0.216-3.206-0.779-3.565-2.574-0.36-1.809 0.799-3.395 2.184-4.265 0.226-0.143 0.459-0.264 0.693-0.367 0.058-0.024 0.116-0.052 0.175-0.075 1.472-0.574 3.025-1.255 3.062-1.272h0.003l0.021 0.066z" fill="#142448"/>
  </g>
  <g style="" transform="matrix(6.58 0 0 -6.58 159.51 98.155)">
   <path d="m0 0 0.149 0.462 0.296-0.408 0.494-0.02-0.312-0.377 0.143-0.486-0.48 0.181-0.403-0.3 0.017 0.508-0.389 0.289 0.485 0.151zm2.825 0.047 0.377 0.634 0.3-0.701 0.723-0.197-0.588-0.452 0.048-0.765-0.646 0.428-0.696-0.309 0.193 0.746-0.478 0.554 0.767 0.062zm2.988-0.844 0.783-0.453 0.787 0.359-0.179-0.878 0.566-0.672-0.868-0.045-0.466-0.77-0.337 0.846l-0.878 0.167 0.684 0.59-0.092 0.856zm2.812-3.601 0.168 0.49 0.311-0.446 0.521-0.004-0.32-0.434 0.138-0.511-0.486 0.197-0.451-0.303 0.032 0.548-0.436 0.314 0.523 0.149zm-3.793 1.542c1.047-0.522 2.412-1.539 3.922-3.252l1.345 0.769 0.253 0.145c-0.435 2.731-1.96 4.601-4.067 5.737-2.86 1.543-6.057 0.757-7.379-0.16l0.023-0.302 0.094-1.251c2.324-0.117 4.764-1.163 5.809-1.686" fill="#142448"/>
  </g>
  <g style="" transform="matrix(6.58 0 0 -6.58 246.92 220.25)">
   <path d="m0 0v0.939h0.345v0.204h-0.924v-0.204h0.345v-0.939h0.234z" fill="#142448"/>
  </g>
  <g style="" transform="matrix(6.58 0 0 -6.58 259.48 220.25)">
   <path d="m0 0v1.143h-0.401l-0.277-0.747h-0.007l-0.265 0.747h-0.406v-1.143h0.235v0.909h0.005l0.32-0.909h0.226l0.331 0.909h0.007v-0.909h0.232z" fill="#142448"/>
  </g>
  <g style="" transform="matrix(6.58 0 0 -6.58 158.43 195.62)">
   <path d="m0 0-0.024 0.002c0.182 0.287 0.364 0.573 0.547 0.856 0.055 0.086 0.109 0.169 0.164 0.254l0.029 0.009c0.145 0.059 0.316 0.108 0.49 0.144 0.432 0.088 0.882 0.085 0.982-0.136 0.003-0.01 0.003-0.019 0.007-0.029 0.062-0.177-0.038-0.366-0.242-0.54-0.405-0.346-1.216-0.618-1.953-0.56m-7.679-12.23c-0.031 0.012-0.062 0.021-0.094 0.032 1.642 2.974 4.969 8.811 7.645 13.294 0.1 0.167 0.197 0.329 0.294 0.493 0.44 0.731 0.86 1.424 1.247 2.053 0.828 1.285 1.78 2.822 1.865 2.959 0.051-0.043 0.147-0.195 0.138-0.326-0.009-0.117-1.712-2.652-1.819-2.814-0.394-0.6-0.812-1.253-1.243-1.942-0.1-0.161-0.202-0.323-0.305-0.488-2.764-4.453-6.022-10.203-7.728-13.261m5.015 9.957c0.157 0.305 1.057 1.842 2.086 3.575 0.096 0.16 0.193 0.323 0.29 0.486 1.285 2.157 2.677 4.464 3.044 5.018 0.032 0.168-0.171 0.283-0.171 0.283-0.264-0.456-1.552-2.654-3.054-5.214-0.094-0.162-0.189-0.324-0.285-0.488-2.351-4.012-5.086-8.686-5.238-8.977 0.331 0.606 2.534 5.053 3.35 6.625 0.269 0.521 0.729 1.551 1.235 2.727 0.074 0.172 0.149 0.348 0.224 0.524 1.05 2.464 2.202 5.317 2.243 5.51 0.772 0.025 1.619-0.323 2.072-0.945 0.009 0.017-0.172-0.283-0.172-0.283-0.147-0.226-2.216-3.564-3.02-4.889-0.142-0.233-0.245-0.405-0.291-0.486-0.003-0.006-0.009-0.017-0.012-0.022-0.264-0.472-6.939-11.844-6.939-11.844 1.649 3.203 4.276 7.691 4.638 8.4m1.033 4.178c0.079 0.182 0.155 0.359 0.228 0.534 1.144 2.704 1.732 4.586 1.821 4.915l0.166 0.036c-0.512-1.551-1.229-3.339-1.941-4.986-0.078-0.177-0.154-0.355-0.232-0.53-1.016-2.306-1.977-4.231-2.279-4.645 0.89 1.693 1.633 3.28 2.237 4.676m-6.564-13.845c-0.002-0.005-0.017-0.036-0.041-0.079-0.006 0.003-0.014 0.005-0.02 0.008 0.023 0.046 0.045 0.09 0.06 0.121 0.133 0.228 0.017 0.001 0.001-0.05m-0.632-2.372-0.022-0.038v-0.025c-0.011 0.01-0.004-0.019-0.016-0.009 0.005-0.015-0.001-0.032-0.009-0.041-0.02-0.017-0.021-0.03-0.031-0.053 0 0 0.008-0.008 0.003-0.012-0.015-0.013-0.012-0.037-0.026-0.055-0.019-0.024-0.076-0.042-0.092-0.073 0.039 0.079 0.078 0.155 0.12 0.211 0.032 0.042 0.003 0.014 0.024 0.056 0.011 0.03 0.091 0.25 0.105 0.282 0.031 0.072 0.106 0.222 0.215 0.429 0.026-0.009 0.054-0.018 0.08-0.027-0.178-0.324-0.301-0.55-0.351-0.645m-0.228-0.528c-0.002-0.004-0.056-0.007-0.059-0.021-0.005-0.016 0.004-0.036-0.005-0.048-0.045-0.066-0.041-0.129-0.065-0.203-0.003-0.009-0.027-0.012-0.027-0.018 0.005-0.071-0.079-0.119-0.095-0.183-0.029-0.116-0.079-0.207-0.125-0.321-0.003-0.009-0.025-0.011-0.026-0.019-0.007-0.046-0.056-0.063-0.069-0.102-0.004-0.009 0.002-0.026-0.004-0.03-0.028-0.02-0.039-0.05-0.061-0.073-0.008-0.009 0.001-0.031-0.004-0.047-0.011-0.031-0.038-0.055-0.044-0.086-0.026-0.139-0.071-0.269-0.126-0.39-0.014-0.03-0.036-0.072-0.024-0.114-0.039 0.001 0.011-0.055-0.033-0.051 0-0.033 0.009-0.069-0.004-0.098-0.034-0.089-0.044-0.177-0.064-0.27-0.004-0.016-0.027-0.033-0.027-0.051 0.005-0.072-0.075-0.13-0.075-0.203 0-0.062-0.037-0.101-0.064-0.165-0.016-0.037-0.046-0.071-0.072-0.107-0.039-0.056-0.103-0.11-0.134-0.168-0.009-0.018 0.035-0.052 0.013-0.063-0.013-0.005-0.025-0.007-0.032-0.02-0.022-0.046 0.027-0.111-0.033-0.134-0.036-0.125-0.171-0.233-0.21-0.357-0.013-0.04 0.041-0.092 0.025-0.129-0.043-0.091-0.046-0.158-0.078-0.254-0.005-0.014-0.018-0.026-0.03-0.016-0.014 0.01-0.017 0.028-0.02 0.047-0.004 0.013-0.037 0.014-0.033 0.051 0.015 0.126 0.093 0.178 0.123 0.295 0.042 0.157 0.068 0.296 0.096 0.444 0.008 0.04 0.024 0.076 0.028 0.119 0.001 0.013-0.007 0.022-0.007 0.034 0.006 0.048 0.048 0.084 0.036 0.134 0.071 0.089 0.052 0.211 0.127 0.307 0.012 0.014 0.048 0.044 0.057 0.062 0.055 0.104 0.041 0.207 0.104 0.31 0.007 0.01 0.014 0.006 0.02 0.019 0.011 0.024 0.071 0.066 0.078 0.094 0.005 0.019-0.025 0.044-0.01 0.069 0.005 0.008-0.001 0.021 0.003 0.031 0.018 0.047 0.057 0.084 0.072 0.133 0.019 0.059 0.039 0.121 0.081 0.167 0.01 0.01 0.024 0.023 0.024 0.039 0.002 0.016-0.014 0.033 0.036 0.051-0.004 0.065 0.058 0.102 0.074 0.166 0.006 0.028 0.041 0.058 0.054 0.088 0.013 0.037 0.029 0.074 0.038 0.116 0.003 0.013 0.016 0.022 0.031 0.017 0 0.017-0.004 0.035 0.003 0.049 0.051 0.099 0.134 0.173 0.165 0.287 0.003 0.009 0.024 0.01 0.029 0.019 0.007 0.014-0.004 0.037 0.004 0.048 0.061 0.074 0.076 0.157 0.127 0.239 0.008 0.013-0.001 0.034 0.004 0.049 0.016 0.041 0.044 0.078 0.062 0.119 0.006 0.014-0.004 0.036 0.005 0.048 0.019 0.031 0.039 0.059 0.058 0.089 0.037 0.058 0.073 0.135 0.113 0.213-0.018-0.062 0.009-0.154-0.03-0.212m-1.874-2.781c-0.049-0.137-0.083-0.239-0.097-0.287-0.065-0.226-0.145-0.563-0.21-0.858-0.04-0.182-0.137-0.22-0.237-0.182-0.064 0.023-0.128 0.067-0.182 0.112-0.031 0.024-0.073 0.032-0.122 0.057-0.015 0.008-0.03-0.017-0.046-0.007-0.024 0.017-0.051 0.069-0.078 0.082-0.041 0.017-0.101 0.054-0.144 0.077-0.039 0.018-0.07 0.066-0.103 0.081-0.025 0.011-0.048-0.012-0.075 0.002-0.066 0.033-0.112 0.082-0.165 0.112-0.035 0.02-0.095 0.054-0.114 0.071-0.043 0.036-0.036 0.066-0.021 0.09 0.023 0.033 0.099 0.052 0.132 0.057 0.038 0.006 0.166-0.042 0.31-0.11 0.115-0.056 0.242-0.132 0.339-0.16 0.082-0.025 0.18-0.003 0.225 0.041 0.033 0.033 0.015 0.076 0.017 0.12 0.004 0.058 0.053 0.119 0.023 0.159-0.038 0.053-0.076 0.068-0.114 0.091-0.046 0.028-0.093 0.057-0.14 0.076-0.083 0.032-0.118 0.165-0.017 0.183 0 0 0.09 0.035 0.146 0.089 0.032 0.031 0.019 0.067 0.057 0.11 0.018 0.018 0.063 0.038 0.076 0.058 0.011 0.016-0.013 0.031 0.002 0.049 0.017 0.015 0.008 0.038 0.035 0.066 0.022 0.024 0.08 0.052 0.102 0.084 0.022 0.025 0.045 0.053 0.068 0.082 0.458 0.593 1.217 1.919 1.87 3.118-0.3-0.561-0.571-1.08-0.692-1.341-0.253-0.55-0.653-1.502-0.849-2.04-0.009-0.028 0.014-0.055 0.004-0.082m-1.167 0.132c0.241 0.062 0.699 0.643 0.724 0.694s0.092 0.102 0.059-0.007c-0.05-0.253-0.226-0.499-0.37-0.659-0.087-0.096-0.141-0.161-0.209-0.177-0.172-0.041-0.235 0.022-0.254 0.073 0 0.083 0.016 0.067 0.05 0.076m-2.689 9.593c0.002 0.001 0.004 0.003 0.007 0.004 0.006-0.009 0.01-0.017 0.015-0.026-0.006 0.007-0.014 0.015-0.022 0.022m-0.203 0.187c-0.054 0.053-0.108 0.102-0.163 0.155 0.104-0.04 0.19-0.074 0.213-0.083 0.003-0.003 0.01-0.014 0.013-0.02-0.021-0.018-0.041-0.035-0.063-0.052m-6.244 14.348c-0.158 2.257 0.495 3.702 1.027 4.682 0.548 1.008 1.713 2.338 2.747 2.136 1.601-0.315 0.571-2.406-0.789-4.777-1.329-2.319-2.94-4.753-1.643-6.154 1.049-1.134 3.197-0.877 4.51 0.428l-3.227-6.058c-1.657 2.877-2.625 6.196-2.625 9.743m7.778-8.019c-0.594 0.66 1.718 2.937 2.26 2.254 0.41-0.659-1.596-2.989-2.26-2.254m19.563 2.562c0.249 0.2 0.506 0.334 0.706 0.354 0.14 0.015 0.252-0.025 0.304-0.144 0.164-0.371-0.811-1.181-1.784-1.308 0.096 0.403 0.423 0.814 0.774 1.098m6.126 0.476c0.286-0.398-0.709-1.282-1.817-1.326 0.077 0.69 1.461 1.823 1.817 1.326m1.748-2.081c0.039-0.039 0.805-0.01 0.81 0.732 0.239 0.165 0.493 0.361 0.722 0.582 0.007-0.065 0.014-0.129 0.03-0.192 0.146-0.536 0.162-1.976-0.934-1.922-0.659 0.032-0.761 0.656-0.628 0.8m-1.909 21.762c0.112 0.135 0.223 0.263 0.324 0.377 0.276-0.249 0.544-0.505 0.806-0.769-0.283 0.098-0.846 0.293-1.13 0.392m-11.399-23.48c0.431-0.33 1.728 0.074 2.947 1.162l0.113 0.09c0.016-0.095 0.043-0.19 0.086-0.283 0.535-1.174 3.059-0.744 4.975 0.632 0.014-0.139 0.053-0.279 0.124-0.417 0.523-1.017 2.664-0.734 4.39 0.303 0.039-0.127 0.092-0.259 0.176-0.394 0.201-0.328 0.691-0.619 1.128-0.693 0.683-0.115 1.507-0.027 1.986 0.623 0.126 0.169 0.201 0.351 0.255 0.535 0.681 0.581 2.343 2.397 3.397 4.567 0.302 0.626 0.388 2.24 0.377 2.801l-0.013 0.037c0 11.996-9.728 21.723-21.725 21.723-10.689 0-19.574-7.719-21.386-17.888l2.106 2.233c0.963 2.994 2.606 5.683 4.744 7.887 0.063-0.051 0.124-0.103 0.185-0.155l-0.501-1.53c-0.022-0.07 0.015-0.143 0.084-0.166 0.07-0.022 0.142 0.015 0.165 0.084 0 0 0.351 1.072 0.467 1.429 0.198-0.173 0.39-0.352 0.579-0.532l-0.623-1.473c-0.028-0.067 0.003-0.143 0.07-0.172 0.066-0.029 0.142 0.003 0.171 0.07l0.584 1.382c0.184-0.179 0.361-0.363 0.537-0.549l-0.608-1.489c-0.026-0.066 0.006-0.143 0.072-0.17 0.067-0.028 0.144 0.005 0.171 0.072l0.561 1.378c0.089-0.098 0.179-0.196 0.266-0.296 0-0.003-0.002-0.005-0.002-0.008 0.007-0.048 0.045-0.078 0.087-0.094 0.012-0.013 0.023-0.026 0.035-0.04l-0.777-1.469c-0.034-0.064-0.009-0.143 0.055-0.177s0.143-0.009 0.176 0.055l0.727 1.376c0.115-0.139 0.232-0.277 0.344-0.419 0.019-0.024 0.036-0.049 0.054-0.074 0.035-0.043 0.066-0.087 0.1-0.131l-0.897-1.345c-0.04-0.06-0.023-0.141 0.036-0.181 0.061-0.04 0.142-0.023 0.181 0.035l0.846 1.27c0.197-0.266 0.385-0.535 0.566-0.809-0.005-0.004-0.014-0.003-0.018-0.009l-1.046-1.132c-0.05-0.053-0.047-0.136 0.006-0.185s0.136-0.045 0.186 0.008l1.017 1.102c0.226-0.353 0.444-0.711 0.646-1.077l-1.156-1.212c-0.051-0.052-0.049-0.135 0.004-0.185 0.052-0.05 0.134-0.047 0.185 0.005 0 0 0.819 0.858 1.094 1.146 0.177-0.332 0.343-0.67 0.5-1.013l-1.229-1.199c-0.051-0.051-0.053-0.133-0.002-0.185 0.051-0.051 0.134-0.052 0.184-0.002 0 0 0.884 0.863 1.16 1.133 0.187-0.425 0.363-0.855 0.518-1.293l-1.309-1.31c-0.05-0.051-0.05-0.133 0-0.185 0.051-0.051 0.135-0.051 0.185 0l1.215 1.215c0.143-0.422 0.268-0.851 0.379-1.285l-0.5-0.501c-0.051-0.05-0.051-0.134 0-0.184 0.051-0.052 0.134-0.052 0.184 0l0.392 0.392c0.116-0.481 0.213-0.968 0.292-1.459l-1.304-1.305c-0.052-0.051-0.052-0.134-0.001-0.184 0.052-0.052 0.135-0.052 0.186 0l1.164 1.163c0.089-0.624 0.148-1.255 0.173-1.892l-1.511-1.198c-0.057-0.045-0.066-0.127-0.021-0.183 0.044-0.057 0.126-0.066 0.184-0.021 0 0 1 0.792 1.357 1.075 0.004-0.149 0.013-0.299 0.013-0.45 0-0.428-0.016-0.84-0.043-1.248l-1.452-0.968c-0.06-0.04-0.077-0.121-0.036-0.18 0.04-0.061 0.121-0.077 0.181-0.037 0 0 0.912 0.608 1.277 0.851-0.047-0.54-0.114-1.076-0.211-1.616l-1.624-0.661c-0.066-0.027-0.098-0.104-0.072-0.17 0.028-0.068 0.104-0.099 0.171-0.072 0 0 1.025 0.417 1.468 0.598-0.065-0.328-0.136-0.658-0.221-0.997-0.002-0.008 0.004-0.015 0.004-0.023-0.001-0.017 0.001-0.03 0.006-0.046 0.006-0.016 0.012-0.03 0.023-0.044 0.005-0.006 0.005-0.014 0.01-0.019l0.9-0.755c0.056-0.047 0.139-0.039 0.185 0.015 0.046 0.056 0.039 0.138-0.017 0.184l-0.839 0.705c0.086 0.347 0.163 0.688 0.227 1.024 0.349-0.146 1.669-0.699 1.669-0.699 0.067-0.029 0.143 0.003 0.172 0.069 0.027 0.066-0.004 0.143-0.07 0.172l-1.726 0.722c0.098 0.557 0.167 1.107 0.212 1.664 0.399-0.162 1.618-0.652 1.618-0.652 0.065-0.028 0.142 0.004 0.169 0.071 0.027 0.068-0.005 0.143-0.072 0.17l-1.69 0.682c0.026 0.411 0.042 0.828 0.042 1.26 0 0.163-0.009 0.324-0.013 0.487 0.436-0.185 1.706-0.724 1.706-0.724 0.067-0.028 0.144 0.003 0.172 0.07 0.028 0.066-0.003 0.143-0.069 0.171l-1.817 0.77c-0.025 0.626-0.081 1.246-0.165 1.859l1.568-0.549c0.069-0.024 0.142 0.012 0.166 0.081 0.024 0.067-0.011 0.143-0.081 0.166l-1.694 0.594c0 0.003-0.001 0.005-0.001 0.009 0.007 0.031 0.003 0.061-0.013 0.09-0.078 0.487-0.172 0.968-0.286 1.445l1.686-0.442c0.07-0.018 0.142 0.024 0.16 0.095 0.018 0.07-0.024 0.14-0.094 0.158l-1.826 0.478c-0.116 0.451-0.244 0.898-0.391 1.338 0.496-0.042 1.854-0.155 1.854-0.155 0.072-0.006 0.135 0.048 0.142 0.119 0.005 0.072-0.048 0.137-0.12 0.142l-1.964 0.163c-0.155 0.442-0.332 0.876-0.519 1.305 0.472-0.028 1.708-0.102 1.708-0.102 0.074-0.005 0.135 0.051 0.139 0.122 0.004 0.073-0.051 0.134-0.123 0.139l-1.845 0.11c-0.158 0.348-0.326 0.691-0.505 1.03 0.468 0.013 1.824 0.052 1.824 0.052 0.071 0.002 0.127 0.059 0.127 0.13 0 0.002 0 0.002-0.002 0.003-0.001 0.073-0.061 0.13-0.134 0.127l-1.949-0.054c-0.203 0.369-0.421 0.73-0.648 1.084l1.857 0.162c0.072 0.007 0.126 0.07 0.119 0.142-0.006 0.072-0.069 0.125-0.141 0.119l-2.001-0.174c-0.231 0.349-0.474 0.69-0.729 1.024l1.597 0.228c0.071 0.01 0.121 0.077 0.11 0.148-0.01 0.072-0.076 0.121-0.147 0.111l-1.739-0.249c-0.14 0.178-0.286 0.35-0.432 0.523l1.6 0.25c0.071 0.012 0.121 0.078 0.109 0.15-0.011 0.071-0.078 0.12-0.15 0.108l-1.756-0.274c-0.144 0.164-0.293 0.324-0.443 0.485l1.272 0.408c0.069 0.021 0.107 0.096 0.085 0.164s-0.095 0.107-0.164 0.084l-1.393-0.445c-0.099 0.103-0.196 0.208-0.299 0.309l1.255 0.471c0.067 0.025 0.101 0.1 0.076 0.167-0.025 0.069-0.101 0.103-0.168 0.077l-1.373-0.515c-0.207 0.199-0.416 0.396-0.634 0.587 0.399 0.147 1.343 0.497 1.343 0.497 0.053 0.019 0.085 0.069 0.085 0.122 0 0.015-0.002 0.031-0.008 0.046-0.025 0.067-0.101 0.102-0.168 0.077l-1.481-0.549c-0.063 0.054-0.126 0.108-0.19 0.162 3.66 3.677 8.725 5.954 14.323 5.954 5.113 0 9.779-1.903 13.339-5.032-0.112-0.125-0.231-0.265-0.353-0.411-0.179 0.258-0.735 1.05-0.735 1.05-0.042 0.059-0.124 0.073-0.183 0.032-0.058-0.041-0.073-0.123-0.031-0.183l0.776-1.107c-0.154-0.185-0.303-0.373-0.443-0.55-0.225 0.232-1.005 1.012-1.005 1.012-0.052 0.051-0.135 0.051-0.187 0-0.05-0.052-0.05-0.133 0-0.185l1.031-1.031c-0.099-0.126-0.191-0.246-0.265-0.339-1.706 1.172-3.747 1.874-5.929 1.874-2.263 0-4.361-0.715-6.078-1.931-0.024-0.017 0.188-3.424 0.261-4.584 0.311 0.17 0.638 0.313 0.971 0.442l-0.08 4.165c0.421 0.335 0.995 0.611 1.439 0.77l-0.095-4.559c0.516 0.105 1.049 0.161 1.595 0.161 0.169 0 0.332-0.016 0.497-0.026l0.834 5.02c1.076 0.101 2.15-0.015 3.096-0.32l-1.952-5.07c0.897-0.293 1.723-0.741 2.451-1.311l3.457 4.401c0.748-0.653 1.342-1.282 1.925-2.198l-4.035-3.542c0.423-0.534 0.781-1.121 1.058-1.752l4.158 2.878c0.084-0.162 0.323-1.162 0.284-1.455l-4.036-2.606c0.07-0.266 0.125-0.536 0.168-0.81 1.009 0.572 4.685 2.661 4.687 2.692-0.315 3.092-2.018 5.846-4.461 7.611 0.072 0.092 0.165 0.211 0.268 0.343 0.327-0.159 1.113-0.533 1.113-0.533 0.064-0.031 0.143-0.004 0.175 0.061 0.007 0.019 0.012 0.038 0.012 0.057 0 0.048-0.028 0.095-0.075 0.118 0 0-0.734 0.35-1.061 0.505 0.139 0.176 0.289 0.363 0.442 0.549l1.393-0.483c0.058-0.02 0.117 0.01 0.148 0.062 3.491-3.633 5.64-8.563 5.64-13.999l0.011-0.016c-0.13-3.74-0.857-5.362-2.187-6.341-0.059 0.376-0.184 0.707-0.282 0.909-0.203 0.418-0.111 0.44 0.028 0.576 0.749 0.645 0.902 1.303 0.625 1.5-0.405 0.289-1.549-0.631-1.695-1.514-0.019-0.132-0.041-0.272-0.058-0.414-0.246-0.29-0.567-0.556-0.87-0.77-0.427 0.389-1.332-0.05-1.391-0.85-0.833-0.464-1.504-0.716-2.123-0.721-0.755-0.008-0.954 0.44-0.813 0.848 0.002 0.003 0.002 0.005 0.001 0.006 0.001-0.002 0.009-0.009 0.049-0.006 1.477 0.116 3.218 0.964 2.936 1.957-0.165 0.583-1.174 0.507-2.196 0.077-0.259-0.109-0.519-0.241-0.767-0.391-0.674-0.407-1.254-0.946-1.467-1.519-1.035-0.882-2.111-1.181-2.842-1.188-0.755-0.007-0.954 0.441-0.814 0.848 0.008 0.018-0.016 0 0.051 0.002 1.611 0.014 3.566 0.956 3.152 2.009-0.104 0.269-0.353 0.407-0.683 0.446-0.423 0.048-0.982-0.072-1.549-0.306-0.075-0.031-0.15-0.063-0.224-0.099-0.083-0.038-0.165-0.078-0.247-0.121-0.138-0.072-0.274-0.15-0.408-0.232-0.35-0.22-0.677-0.475-0.941-0.751-0.235-0.245-0.418-0.505-0.532-0.771-0.522-0.693-1.466-1.367-1.796-1.322-0.758 0.099-0.026 0.922-0.765 1.059 0.569 0.093 1.284 0.431 1.72 0.896 0.168 0.178 0.295 0.373 0.357 0.582 0.052 0.178 0.057 0.364 0.001 0.555-0.21 0.718-1.464 0.506-2.232 0.113l-0.031-0.017c0.388 0.593 0.768 1.163 1.131 1.695 0.073 0.106 0.144 0.21 0.215 0.313 0.213 0.309 0.42 0.603 0.618 0.879 0.002 0.004 0.006 0.008 0.008 0.011 0.162 0.225 0.318 0.438 0.468 0.636 0.036 0.047 0.132 0.214 0.181 0.337 0.001 0.003 0.001 0.005 0.001 0.007 0.259 0.677-0.404 1.707-1.334 2.146-0.928 0.438-1.924 0.345-2.221-0.097-0.075-0.11-0.164-0.251-0.181-0.309-0.024-0.076-0.054-0.159-0.079-0.237-0.033-0.109-0.071-0.222-0.108-0.333-0.053-0.162-0.1-0.317-0.159-0.484-0.117-0.338-0.244-0.686-0.378-1.039-0.051-0.134-0.102-0.269-0.154-0.404l-0.021-0.067-0.004 0.001c-0.263-0.68-0.547-1.378-0.846-2.081-0.075-0.178-0.151-0.354-0.228-0.534-0.462-1.067-0.943-2.126-1.41-3.126-0.215-0.146-0.616-0.39-0.778-0.286-0.398 0.254 1.407 2.069 0.814 2.685-0.488 0.506-1.995-0.212-2.71-0.957 0.083 0.219 0.104 0.622-0.21 0.929-1.007 0.99-3.969-3.55-4.484-3.179-0.296 0.213 0.857 1.568 1.415 3.065l-1.226-0.009-0.181-0.288c0.007 0.076-0.031 0.169-0.138 0.268-1.354 1.245-4.712-2.351-3.475-3.422 0.577-0.5 1.946 0.101 2.51 0.845-0.379-0.809-0.096-1.131 0.011-1.208 1.258-0.92 3.937 3.41 4.394 3.011 0.321-0.282-1.334-2.706-1.258-2.764l1.242 0.011c0.527 0.937 0.915 1.679 0.915 1.679 0.697 0.803 1.552 1.446 1.759 1.199 0.344-0.409-1.475-1.877-0.88-2.801 0.286-0.445 1.403 0.099 1.946 0.514-1.092-2.305-2.045-4.173-2.344-4.779-0.559-1.14-1.673-3.239-2.805-5.319-1.904 0.82-3.677 1.934-5.255 3.285 0.001 0.026 0.002 0.053-0.013 0.077l-0.421 0.675c0.003 0.004 0.007 0.006 0.011 0.011 0.203 0.185 0.389 0.386 0.582 0.581 0.25-0.284 0.665-0.754 0.665-0.754 0.048-0.054 0.13-0.059 0.185-0.012 0.053 0.048 0.058 0.131 0.01 0.185l-0.674 0.765c0.161 0.167 0.321 0.332 0.476 0.504 0.283-0.299 0.761-0.806 0.761-0.806 0.05-0.053 0.133-0.055 0.185-0.005 0.053 0.049 0.055 0.132 0.005 0.184l-0.782 0.828c0.234 0.268 0.469 0.535 0.687 0.817 0.263-0.372 0.707-0.996 0.707-0.996 0.042-0.059 0.124-0.074 0.182-0.031 0.059 0.042 0.073 0.123 0.031 0.182l-0.761 1.07c0.215 0.286 0.426 0.575 0.624 0.875 0.241-0.305 0.859-1.086 0.859-1.086 0.045-0.057 0.127-0.068 0.183-0.023 0.057 0.046 0.066 0.127 0.022 0.184l-0.914 1.157c0.195 0.304 0.378 0.618 0.555 0.935l0.981-0.903c0.053-0.049 0.137-0.045 0.185 0.008 0.049 0.053 0.046 0.135-0.008 0.185l-1.021 0.94c0.006 0.011 0.014 0.023 0.02 0.034 0.034 0.064 0.011 0.143-0.053 0.178-0.063 0.033-0.143 0.009-0.177-0.053-0.017-0.031-0.036-0.059-0.052-0.088-0.002-0.002-0.004-0.001-0.005-0.003-0.003-0.003-0.002-0.011-0.006-0.015-0.015-0.029-0.035-0.058-0.051-0.086l-1.229 0.114c-0.072 0.007-0.136-0.046-0.143-0.118-0.006-0.072 0.047-0.136 0.119-0.143l1.105-0.103c-0.142-0.247-0.283-0.494-0.435-0.734l-1.428 0.168c-0.071 0.009-0.137-0.043-0.144-0.115-0.002-0.005-0.002-0.01-0.002-0.016 0-0.064 0.05-0.121 0.117-0.129 0 0 0.946-0.11 1.298-0.152-0.178-0.269-0.368-0.528-0.559-0.787l-0.009 0.013c-0.022 0.031-0.056 0.05-0.093 0.055l-1.396 0.145c-0.07 0.008-0.136-0.045-0.143-0.117-0.001-0.004-0.001-0.009-0.001-0.014 0-0.066 0.051-0.122 0.118-0.129 0 0 1.228-0.128 1.336-0.139 0.003-0.006 0.018-0.026 0.027-0.038-0.224-0.293-0.465-0.573-0.705-0.852l-0.026 0.029c-0.016 0.016-0.035 0.028-0.058 0.035l-1.336 0.406c-0.069 0.021-0.143-0.018-0.163-0.087-0.004-0.012-0.006-0.026-0.006-0.038 0-0.056 0.036-0.108 0.093-0.125 0 0 1.24-0.377 1.303-0.397l0.022-0.022c-0.151-0.17-0.31-0.335-0.469-0.5l-0.024 0.027c-0.015 0.018-0.037 0.031-0.06 0.039l-1.191 0.348c-0.069 0.021-0.143-0.019-0.162-0.088-0.004-0.013-0.005-0.026-0.005-0.037 0-0.056 0.037-0.109 0.094-0.126 0 0 1.086-0.317 1.155-0.338 0.001-0.001 0.006-0.007 0.007-0.01-0.185-0.187-0.366-0.381-0.561-0.56l-0.018 0.028c-0.015 0.024-0.038 0.043-0.064 0.053l-0.754 0.29c-0.008 0.003-0.014-0.001-0.021 0-0.742 0.768-1.429 1.591-2.046 2.469l7.815 14.754-1.811-0.051-3.2-5.954c-1.032-0.965-2.707-1.853-3.665-1.191-1.899 1.312 5.543 8.42 2.804 10.733-2.188 1.845-4.564-0.912-5.317-2.218-0.613-1.065-1.763-2.697-1.805-4.709 0.02-8.922 5.418-16.579 13.125-19.904-0.728-1.32-1.413-2.533-1.905-3.364-0.345-0.586-0.57-0.852-0.983-0.821-0.079 0.007-0.25-0.016-0.303-0.036-0.205-0.08-0.287-0.441-0.28-0.594 0.016-0.315 0.274-0.889 1.302-1.359 1.026-0.471 1.598-0.426 1.864-0.254 0.128 0.085 0.372 0.362 0.315 0.576-0.013 0.055-0.096 0.207-0.148 0.268-0.268 0.314-0.204 0.596 0.066 1.219 0.384 0.889 1.049 2.246 1.797 3.71 2.16-0.721 4.47-1.117 6.872-1.117 10.231 0 18.809 7.07 21.117 16.591 0.086 0.349 0.179 0.775 0.179 0.775-0.611-0.958-2.222-2.387-2.222-2.387-0.856-2.468-2.178-4.691-3.86-6.582l0.302 0.602c0.032 0.065 0.005 0.144-0.06 0.176-0.063 0.032-0.143 0.006-0.175-0.059 0 0-0.343-0.685-0.386-0.772-0.187 0.12-0.39 0.271-0.6 0.445 0.244 0.294 0.682 0.825 0.682 0.825 0.045 0.056 0.038 0.138-0.017 0.184-0.058 0.046-0.14 0.038-0.185-0.017 0 0-0.447-0.542-0.678-0.823-0.099 0.086-0.199 0.175-0.299 0.269l0.834 1.149c0.043 0.057 0.03 0.139-0.028 0.183-0.058 0.041-0.141 0.029-0.184-0.03l-0.813-1.119c-0.163 0.158-0.327 0.322-0.491 0.494 0.246 0.297 0.757 0.931 0.757 0.931 0.046 0.056 0.037 0.139-0.02 0.184-0.055 0.046-0.138 0.036-0.184-0.02 0 0-0.504-0.627-0.73-0.907-0.179 0.192-0.357 0.387-0.532 0.586l0.767 0.91c0.048 0.056 0.04 0.138-0.015 0.184-0.055 0.048-0.138 0.04-0.185-0.015 0 0-0.479-0.569-0.741-0.879-0.212 0.248-0.418 0.494-0.613 0.735l0.798 0.903c0.047 0.054 0.043 0.136-0.013 0.184-0.054 0.048-0.136 0.043-0.184-0.012l-0.766-0.868c-0.247 0.313-0.471 0.609-0.66 0.874l0.338 0.338c0.05 0.053 0.05 0.134 0 0.186-0.05 0.051-0.134 0.051-0.185 0 0 0-0.175-0.176-0.305-0.306-0.153 0.223-0.277 0.416-0.36 0.567-0.034 0.063-0.114 0.086-0.178 0.051-0.062-0.034-0.086-0.114-0.05-0.177 0.085-0.155 0.214-0.357 0.372-0.587-0.281-0.051-1.153-0.209-1.153-0.209-0.063-0.012-0.107-0.067-0.107-0.129 0-0.007 0-0.016 0.002-0.023 0.013-0.072 0.081-0.119 0.152-0.106l1.272 0.232c0.209-0.293 0.461-0.623 0.736-0.968l-1.513-0.051c-0.072-0.002-0.128-0.063-0.126-0.135 0.003-0.072 0.063-0.128 0.135-0.125l1.71 0.057c0.169-0.207 0.347-0.418 0.529-0.628-0.093-0.027-1.351-0.394-1.351-0.394-0.056-0.017-0.093-0.068-0.093-0.125 0-0.012 0.001-0.025 0.004-0.037 0.021-0.07 0.094-0.109 0.163-0.089l1.394 0.407c0.023 0.006 0.042 0.021 0.056 0.038 0.167-0.189 0.338-0.375 0.509-0.559-0.31-0.13-1.412-0.629-1.412-0.629-0.064-0.03-0.093-0.107-0.064-0.173 0.03-0.066 0.107-0.095 0.173-0.065l1.486 0.673c0.126-0.131 0.251-0.259 0.376-0.383h-0.006l-1.278-0.756c-0.063-0.037-0.084-0.117-0.047-0.178 0.037-0.062 0.117-0.084 0.178-0.047l1.278 0.756c0.023 0.013 0.032 0.035 0.043 0.055 0-0.042 0.011-0.08 0.047-0.107 0.03-0.021 0.065-0.029 0.098-0.023 0.102-0.097 0.204-0.188 0.306-0.275-0.186-0.118-1.155-0.766-1.155-0.766-0.059-0.04-0.077-0.12-0.036-0.181 0.04-0.06 0.121-0.076 0.182-0.036l1.211 0.807c0.189-0.158 0.371-0.295 0.542-0.412-0.315-0.216-0.855-0.585-0.855-0.585-0.036-0.025-0.056-0.066-0.056-0.108 0-0.025 0.006-0.051 0.023-0.073 0.041-0.06 0.122-0.075 0.182-0.035l0.81 0.555c-3.692-3.891-8.951-6.274-14.8-6.324-2.092-0.018-4.145 0.322-6.093 0.959 1.063 2.039 2.156 4.056 2.773 5.133 0.813 1.421 2.425 4.122 4.108 6.791l0.015 0.003c0.277 0.019 0.445-0.003 0.546-0.089 0.371-0.311-0.293-1.033 0.435-1.589" fill="#e3002b"/>
  </g>
 </g>
</svg>
