<svg xmlns="http://www.w3.org/2000/svg" height="250" width="250" viewBox="0 0 250 250.0003"><g transform="matrix(1.6757 0 0 1.6757 -.92605 -.43002)"><path fill="#fff" d="m75.091 148.91c40.868 0 74-33.132 74-73.999 0-40.87-33.132-74.002-74-74.002s-74 33.132-74 74.002c0 40.866 33.132 73.999 74 73.999"/><path d="m75.092 3.7754c-39.222 0-71.133 31.911-71.133 71.135 0 39.22 31.91 71.133 71.133 71.133s71.133-31.913 71.133-71.133c0-39.225-31.91-71.135-71.133-71.135zm0 30.846c22.218 0 40.289 18.075 40.289 40.291s-18.071 40.291-40.289 40.291-40.291-18.075-40.291-40.291 18.074-40.291 40.291-40.291zm-2.4805 9.1133c-0.754 0.006-1.5017 0.08981-2.2227 0.25781-8.062 1.881-7.3469 8.3022-7.3379 8.3672l0.27734 2.2129 1.3125-1.8008c1.34-1.836 2.9821-1.483 3.6641-1.041 0.511 0.317 0.88281 0.54386 0.88281 1.1309 0 0.257-0.07142 0.58072-0.23242 1.0117 0 0-0.60511 1.5905-0.91211 2.3945-0.882-0.151-1.7716-0.21845-2.6816-0.06445-2.115 0.361-3.6393 1.2579-4.5273 2.6699-1.352 2.155-0.65105 4.6664-0.62305 4.7734l0.471 1.629 1.068-1.314c1.164-1.434 2.2085-1.085 2.7305-0.74805 0.423 0.274 0.65203 0.42486 0.33203 1.6309 0.005-0.02-7.41 24.811-8.416 28.182-6.068 2.236-6.7773 6.3402-6.7773 8.0352 0 0.47 0.05073 0.74953 0.05273 0.76953l0.2793 1.4609 1.1543-0.95118c0.027-0.02 2.7058-2.1899 7.1348-2.6289 0.96-0.094 2.3312 0.25584 3.6602 0.58984 1.313 0.34 2.6715 0.68039 3.8145 0.65039 1.608-0.04 2.9284-0.58087 3.8184-1.5469 0.903-0.981 1.3322-2.3426 1.2402-3.9336l-0.0293-0.48438-5.0391-2.8164-0.21484 1.2266c-0.028 0.156-0.10469 0.43388-0.30469 0.54688-0.072 0.042-0.1722 0.05355-0.2832 0.06055 0.41-1.415 2.2783-7.9398 2.5723-8.9648h10.611c0.283 1.097 1.918 7.5098 1.918 7.5098 1.691 6.895 6.9599 9.1713 11.422 8.3613 4.657-0.83 7.8916-5.6154 8.4336-12.482l0.07617-0.95508h-0.95898c-0.464 0-0.67555 0.27634-1.0605 0.77734-0.888 1.156-2.4619 2.2696-3.6309 2.0566-0.74-0.135-1.3103-0.84628-1.6973-2.1133 0.013 0.044-8.1523-33.777-8.1523-33.777-0.54-3.626-2.4167-6.7291-5.2637-8.6641-1.961-1.33-4.2975-2.0336-6.5605-2.0176zm17.385 12.473c-0.789 0.058-1.5071 0.3803-1.9531 0.9043-0.723 0.849-0.90422 2.0342-0.44922 2.9512 0.368 0.74 1.0878 1.1554 1.9238 1.1094 0.024 0 0.09053-0.002 0.14453-0.002-0.017 0.057-0.04102 0.12891-0.04102 0.12891-0.383 0.953-0.54175 1.0287-0.96875 1.2227l-0.73633 0.33203 0.29297 0.74023 0.88086 1.2773 0.44531-0.09961c0.666-0.153 1.8385-0.88575 2.2305-1.2188 1.345-1.16 2.2665-3.3423 1.3105-5.6133-0.387-0.916-1.2154-1.5362-2.2754-1.6992-0.271-0.042-0.54169-0.0522-0.80469-0.0332zm9.666 1.5371c-3.585 0-6.0879 2.4454-6.0879 5.9434 0 3.737 2.5183 4.4481 4.7363 5.0801 0.783 0.222 1.9785 0.56362 1.9785 1.1406 0 0.882-1.1599 0.9082-1.2949 0.9082-1.016 0-2.0568-0.47698-3.1758-1.459l-0.64062-0.56055-2.4258 4.5703 0.49024 0.3418c1.754 1.234 3.8504 1.9121 5.8984 1.9121 1.909 0 3.6487-0.58067 4.8887-1.6387 1.24-1.051 1.8613-2.6442 1.8613-4.7402 0-3.271-2.4816-4.3836-4.3516-4.9336l-1.04-0.312c-0.49-0.161-1.3281-0.42856-1.3281-0.85156 0-0.393 0.62612-0.63476 1.0781-0.63476 0.78 0 1.5795 0.31376 2.2695 0.88476l0.64063 0.53516 2.3105-4.4883-0.56054-0.31836c-1.48-0.838-3.54-1.3809-5.2481-1.3809zm-26.295 7.75c0.858 3.75 2.2237 9.7093 2.5547 11.152h-5.7832c0.435-1.501 2.1535-7.4433 3.2285-11.152z" fill="#efb21e" transform="translate(0 -.00054169)"/><path d="m75.092 5.875c-38.065 0-69.031 30.97-69.031 69.035 0 38.066 30.968 69.033 69.031 69.033 38.065 0 69.033-30.967 69.033-69.033 0-38.067-30.96-69.037-69.028-69.037zm0 26.775c23.306 0 42.264 18.959 42.264 42.266 0 23.304-18.957 42.264-42.264 42.264-23.305 0-42.266-18.96-42.266-42.264 0-23.305 18.959-42.266 42.266-42.266z" fill="#003831" transform="translate(0 -.00054169)"/><path d="m73.629 12.463-3.2949 0.08789 0.39844 15.154 6.7461-0.17773-0.07422-2.8145-3.4492 0.08984-0.32617-12.34zm-12.119 1.252-3.2148 0.97852-0.65234 7.2793-0.04492 0.0098-1.9688-6.4785-3.1523 0.95703 4.4082 14.504 3.1504-0.95703-2.2461-7.3867 0.04492-0.01563 5.1426 6.5078 3.3203-1.0098-5.6953-6.7988 0.9082-7.5898zm26.916 0.1875-7.4473 13.758 3.1758 0.79883 1.1992-2.332 3.2383 0.81445-0.02148 2.625 3.4121 0.85742-0.18945-15.676-3.3672-0.8457zm0.59375 4.1719 0.03906 0.0098-0.1875 2.3145-0.17383 4.125-2.252-0.56641 1.6719-3.748 0.90234-2.1348zm14.752 1.1816-8.0312 12.855 2.7969 1.7461 3.6836-5.8984 0.31446-0.54102 0.67578-1.377 0.0586-0.01172-1.3965 9.9141 2.6484 1.6504 8.0293-12.854-2.793-1.7461-3.6094 5.7793c-0.4182 0.66903-0.77874 1.3668-0.99219 2.0859l-0.0586 0.0098 1.3555-9.9375-2.6816-1.6758zm-62.492 2.9863-2.8789 1.9414 5.2676 14.732 2.7148-1.8301-0.93164-2.4512 2.7676-1.8652 1.9395 1.7695 2.916-1.9668-11.795-10.33zm0.6582 4.2598 1.5938 1.6914 2.957 2.8809l-1.925 1.297-1.673-3.746-0.989-2.1 0.038-0.023zm77.977 4.7363-11.611 9.7422 1.8887 2.2539c3.3408 3.9808 6.9243 3.3709 10.232 0.59375 6.4858-5.4392 1.4633-10.234 1.0976-10.676l-1.6074-1.9141zm-89.687 2.0195c-1.6576 0.06226-2.9964 0.8606-3.9277 2-1.863 2.2745-2.0594 5.8845 2.3457 9.4844 4.4009 3.6021 7.9009 2.6907 9.7617 0.41406 1.863-2.2788 2.0613-5.886-2.3438-9.4883-2.2014-1.8-4.1784-2.4725-5.8359-2.4102zm89.742 2.2344v0.002c1.7464 2.0834-0.16667 4.5571-1.6445 5.7949-1.4474 1.2138-4.2269 2.5939-5.8418 0.48438l7.4863-6.2812zm-90.242 0.90039c1.4669-0.04999 3.3296 1.3582 4.1113 1.998 0.93152 0.76178 3.8083 3.3143 2.4219 5.0078-1.3864 1.6955-4.4569-0.6152-5.3906-1.377-1.0425-0.8532-3.8102-3.3141-2.4238-5.0098 0.34661-0.42332 0.79228-0.60247 1.2812-0.61914zm86.34 63.127c-0.91176 0.47464-1.6654 1.1133-2.2617 1.9883-1.5955 2.3377-0.74334 4.7676 1.2285 6.1172 1.8282 1.245 3.4159 0.91413 5.4531 0 1.0208-0.42663 1.96-1.0167 2.9219-0.35938 0.83139 0.56589 0.8878 1.6209 0.28711 2.498-0.54629 0.8053-1.2387 1.2457-2.0723 1.6113l2.3574 1.6074c0.84011-0.33737 1.7021-1.1382 2.2266-1.9043 1.749-2.5597 1.0307-5.1078-1.1953-6.627-3.3848-2.3137-6.3299 1.7518-8.3867 0.34571-0.76823-0.52019-0.86929-1.3667-0.29688-2.207 0.51143-0.74858 1.341-1.1754 2.1465-1.4277l-2.4082-1.6426zm-80.482 1.8281-14.562 5.7226 1.9141 2.6543 2.4219-1.0078 1.9512 2.7109-1.709 1.9961 2.0527 2.8496 9.9609-12.105-2.0293-2.8203zm-2.2344 3.5742 0.02539 0.0371-1.6406 1.6426-2.7871 3.0449-1.3535-1.8867 3.6895-1.7852 2.0664-1.0527zm76.311 2.6758c-0.53321 0.23078-1.0167 0.52314-1.4434 0.90625-3.3648 2.9729-2.8594 7.6777-0.36719 10.494 2.6377 2.9819 7.1914 4.1612 10.752 1.0098 0.39838-0.3526 0.72307-0.74809 0.9668-1.2051l-1.875-2.125c-0.23502 0.36786-0.48517 0.7212-0.80078 1.002-2.1502 1.9044-4.9349 0.66134-6.4258-1.0254-1.5452-1.7456-2.1877-4.373-0.0176-6.2949 0.3154-0.27634 0.65419-0.49481 1.0352-0.69727l-1.8242-2.0644zm-68.639 0.73046-1.8262 2.1387 1.9688 1.6797-8.0156 9.3887 2.5078 2.1406 8.0137-9.3906 1.9863 1.6953 1.8242-2.1406-6.459-5.5117zm58.732 7.623-2.8809 1.6074 7.3926 13.25 2.877-1.6055-7.3887-13.252zm-48.988 0.0879-6.2871 13.795 2.9961 1.3652 2.6621-5.8359 3.0391 1.3848-2.6602 5.8359 2.9961 1.3672 6.2891-13.791-3-1.3672-2.457 5.3965-3.0391-1.3867 2.4609-5.3945-3-1.3691zm45.73 1.1426 0.90039 1.6113c-0.19292-0.34754-0.89709-1.6065-0.89844-1.6113h-0.002zm-3.8047 1.918-8.123 2.4727 0.82031 2.6914 2.4746-0.75 3.5938 11.805 3.1523-0.95703-3.5977-11.811 2.498-0.75976-0.81836-2.6914zm-28.201 2.2012v0.0117h-0.0039l-0.01367 0.0996c-0.19152 1.1209-2.4219 14.859-2.4219 14.859 0.0087 0.0112 6.666 1.0898 6.666 1.0898l0.002-0.006 0.0059-0.0371c0.04788-0.22853 0.45312-2.7422 0.45312-2.7422h-0.01172-0.0039c-0.09577-0.0261-3.3945-0.5625-3.3945-0.5625 0.0065 0 1.9785-12.172 1.9785-12.172l0.0039-0.01-3.2598-0.53125zm16.291 0.84375-6.625 0.3418 0.78711 15.139 6.668-0.3457-0.14648-2.8106-3.3809 0.17578-0.17578-3.416 2.9375-0.1504-0.14258-2.8125-2.9414 0.1543-0.16992-3.293 3.3359-0.17187-0.14648-2.8106zm-11.617 12.439h0.002l-0.0039 0.0234 0.002-0.0234z" fill="#fff" transform="translate(0 -.00054169)"/><path d="m72.652 45.502c-0.633 0.003-1.258 0.072-1.861 0.213-3.77 0.879-5.165 2.837-5.686 4.369 1.581-0.788 3.246-0.437 4.297 0.244 0.673 0.414 2.246 1.385 1.207 4.166l-1.451 3.818-0.781-0.226c-0.875-0.25-1.792-0.298-2.719-0.139-1.593 0.272-2.707 0.896-3.316 1.856-0.383 0.603-0.499 1.255-0.531 1.834 1.325-0.745 2.668-0.535 3.63 0.09 0.682 0.441 1.28 1.027 1.28 2.226 0 0.388-0.064 0.84-0.207 1.371l-8.676 29.049-0.432 0.143c-4.435 1.488-5.629 3.938-5.927 5.504 1.351-0.771 3.53-1.764 6.585-2.071 1.269-0.124 2.798 0.265 4.274 0.639 1.197 0.302 2.433 0.615 3.332 0.594 1.132-0.031 1.995-0.357 2.559-0.975 0.589-0.638 0.746-1.469 0.765-2.172-0.503-0.281-1.399-0.781-2.211-1.236-0.196 0.283-0.436 0.52-0.73 0.685-0.481 0.275-1.325 0.498-2.58 0.01l-0.752-0.295 3.422-11.929h12.627l0.683-0.018 2.268 8.873c1.519 6.179 6.01 7.658 9.392 7.049 3.219-0.579 5.532-3.707 6.5-8.238-1.11 0.798-2.412 1.337-3.646 1.109-0.993-0.179-2.331-0.906-3.084-3.387 0 0-8.167-33.826-8.182-33.904-0.618-4.111-2.801-6.37-4.525-7.539-1.657-1.126-3.625-1.722-5.524-1.713zm17.491 12.053c-0.447 0.025-0.862 0.184-1.071 0.433-0.431 0.51-0.444 1.118-0.267 1.471 0.124 0.259 0.342 0.379 0.716 0.359 0.407-0.024 1.021-0.06 1.375 0.432 0.142 0.2 0.194 0.422 0.194 0.648 0 0.325-0.111 0.654-0.215 0.911-0.235 0.579-0.452 0.893-0.674 1.168 0.268-0.161 0.547-0.334 0.684-0.452 0.648-0.559 1.238-1.511 1.238-2.656 0-0.444-0.086-0.914-0.291-1.404-0.276-0.651-0.894-0.839-1.238-0.891-0.15-0.023-0.303-0.028-0.451-0.019zm-16.577 0.884 4.579 19.977h-10.36l4.832-16.697 0.949-3.28zm26.098 0.659c-2.834 0-4.736 1.843-4.736 4.588 0 2.468 1.083 3.025 3.884 3.82 0.995 0.281 2.838 0.802 2.838 2.402 0 1.328-1.09 2.258-2.656 2.258-1.129 0-2.241-0.507-3.371-1.33-0.344 0.644-0.754 1.422-1.078 2.031 1.421 0.866 3.011 1.403 4.596 1.403 1.589 0 3.019-0.468 4.019-1.317 0.91-0.781 1.38-2.031 1.38-3.711 0-1.85-1.01-2.938-3.39-3.638 0 0-1.04-0.314-1.06-0.319-0.791-0.257-2.268-0.733-2.268-2.139 0-1.244 1.232-1.986 2.418-1.986 0.84 0 1.66 0.314 2.43 0.776 0.31-0.599 0.65-1.26 0.96-1.875-1.22-0.566-2.68-0.963-3.966-0.963z" fill="#003831"/></g></svg>
