<svg version="1.2" xmlns="http://www.w3.org/2000/svg" viewBox="0 0 250 222" width="250" height="222">
	<title>1200px-philadelphia_phillies</title>
	<style>
		.s0 { fill: #c81e3b } 
		.s1 { fill: #013b73 } 
	</style>
	<g id="Background">
		<path id="Path 0" fill-rule="evenodd" class="s0" d="m110.7 5.3c1.1 0 1.5 0 1.1 0.1-0.5 0-1.3 0-1.9 0-0.6-0.1-0.2-0.1 0.8-0.1zm50.4 0c0.8 0 1.1 0 0.7 0.1-0.5 0-1.1 0-1.5 0-0.3-0.1 0-0.1 0.8-0.1zm-63.1 45.2c0.8 0 1.1 0 0.6 0-0.4 0.1-1.1 0.1-1.4 0-0.4 0 0 0 0.8 0zm20.9 4.9c0.5 0 0.5 0 0.4 3.6l-0.1-1.7c0-1.4-0.1-1.7-0.4-1.8q-0.4-0.1 0.1-0.1zm-84.3 11.4c1.3 0 3.6 0.3 5 0.5 1.4 0.2 3.7 0.8 5 1.2 1.3 0.4 3.1 1.1 3.9 1.6 0.9 0.4 2.2 1.1 2.9 1.6 0.6 0.5 1.8 1.5 2.6 2.2 0.8 0.8 1.9 1.9 2.4 2.6 0.5 0.7 1.2 1.9 1.5 2.7 0.4 0.8 0.8 2.1 1.1 3 0.4 1.4 0.4 2.1 0.4 4.7 0 2.7-0.1 3.5-0.5 5.1-0.3 1.1-0.7 2.5-1 3.2-0.2 0.6-0.8 1.8-1.3 2.7-0.6 1-1.8 2.5-2.9 3.7-1.3 1.3-2.7 2.5-4 3.4-1.2 0.8-3.3 2-4.8 2.7-1.5 0.8-4.2 2-5.9 2.7-1.8 0.7-3.3 1.3-3.4 1.4-0.1 0.1-0.2 6.3-0.3 13.8-0.1 10.6-0.2 13.8-0.4 14.6-0.1 0.5-0.4 1.2-0.5 1.5-0.2 0.4-0.7 1.2-1.1 1.8-0.4 0.6-1.3 1.6-2 2.2-0.6 0.6-1.9 1.5-2.8 1.9-0.8 0.5-2.3 1-3.2 1.2-1.2 0.3-2.1 0.3-3.3 0.2-1 0-2.1-0.3-2.6-0.5-0.5-0.3-1.3-0.8-1.8-1.2-0.4-0.4-0.9-1.1-1.1-1.4-0.1-0.3-0.4-1.1-0.5-1.7-0.1-0.9-0.1-1.6 0-2.7 0.2-0.8 0.6-2.1 0.9-2.9 0.3-0.8 1-2.1 1.4-2.8 0.5-0.8 1.5-2.2 3.8-5v-50l-1.3 0.7c-0.8 0.4-2 1.3-2.9 2.2-0.9 0.9-1.8 2-2.1 2.6-0.3 0.6-0.6 1.4-0.7 1.8q-0.1 0.7 0.2 1.5c0.3 0.6 0.5 0.8 1.3 1.1 0.6 0.2 1.1 0.4 1.3 0.4q0.2 0.1 0.1 0.8c-0.1 0.4-0.4 1.3-0.6 2.1-0.3 0.8-0.8 2-1.1 2.5-0.4 0.6-1.1 1.6-1.6 2.2-0.7 0.7-1.5 1.3-2.3 1.7-0.8 0.4-1.7 0.7-2.5 0.7q-1.3 0.2-2.6-0.2c-0.8-0.2-1.8-0.5-2.4-0.8-0.6-0.3-1.5-0.9-2.1-1.4-0.5-0.5-1.2-1.5-1.6-2.3-0.4-0.7-0.8-2-1-2.9-0.2-1-0.2-2.2-0.1-3.2 0-0.9 0.3-2.3 0.5-3 0.2-0.8 0.6-2 0.9-2.7 0.3-0.7 1-2 1.5-2.9 0.6-0.9 1.4-2.2 2-2.9 0.5-0.7 1.6-1.9 2.4-2.7 0.8-0.8 2.3-2.1 3.2-2.8 1-0.7 3-1.9 4.5-2.6 1.5-0.7 3.8-1.7 5.1-2.1 1.3-0.4 3.4-0.9 4.6-1.1 1.2-0.3 3.4-0.5 4.8-0.6 1.4-0.1 3.7-0.2 5-0.1zm1.2 11.7c-0.1 3.5-0.1 8.3-0.1 13l-0.1 8.5c1.9-0.2 3.2-0.5 4.2-0.8 1-0.3 2.4-0.9 3.4-1.5 0.9-0.5 2.1-1.5 2.7-2.1 0.6-0.7 1.4-1.8 1.7-2.5 0.4-0.8 0.8-1.9 0.9-2.5 0.1-0.6 0.3-1.5 0.3-2.1 0-0.6-0.2-1.7-0.4-2.5-0.2-0.9-0.5-2-0.7-2.5-0.2-0.5-0.7-1.3-1-1.7-0.3-0.5-1.1-1.2-1.7-1.7-0.6-0.4-1.7-0.9-2.4-1.2-0.7-0.2-2.1-0.4-3.2-0.4-1.1-0.1-2.4-0.1-2.8-0.1zm27.8 0.6c0.2 0 1 0.2 1.6 0.4 0.7 0.2 1.4 0.6 2 1.2 0.6 0.4 1.2 1.2 1.4 1.7 0.3 0.7 0.4 1.7 0.4 10.9 0 5.6 0.1 11.5 0.2 16.2l1.4-0.7c0.9-0.4 2.2-0.8 3.3-1.1 1.6-0.3 2.1-0.3 3.6 0 1.2 0.2 2.3 0.5 3.4 1.1q1.6 0.7 2.9 2.1c0.8 0.7 1.6 1.8 2 2.4 0.3 0.6 0.8 1.8 1.1 2.6 0.3 1.3 0.4 2.3 0.6 20l0.5 0.9c0.4 0.5 0.9 1.1 1.5 1.4 0.6 0.3 1.4 0.6 1.8 0.7 0.4 0 1.2-0.1 1.7-0.3 0.6-0.2 1.4-0.6 1.7-1 0.4-0.4 0.9-1 1-1.4 0.3-0.7 0.4-1.7 0.4-5 0-2.4 0-6.6 0.2-14.7l0.7-0.9c0.3-0.5 1.1-1.2 1.6-1.6 0.9-0.5 1.3-0.6 2.5-0.6 1.1 0 1.7 0.1 2.2 0.4 0.4 0.2 1 0.6 1.4 0.9 0.3 0.3 0.8 1 1 1.4 0.4 0.8 0.5 1.1 0.7 19.8l0.7 1c0.4 0.7 0.9 1.1 1.7 1.5 0.6 0.3 1.4 0.5 1.7 0.5 0.4 0 1-0.1 1.5-0.3 0.4-0.1 1.1-0.5 1.5-0.8 0.4-0.4 0.9-0.9 1.1-1.3 0.3-0.5 0.3-3.1 0.4-24.7 0.1-18.9 0.2-24.2 0.4-24.8 0.2-0.5 0.6-1.4 0.9-2.1 0.4-0.7 1.2-1.8 1.9-2.5 0.8-0.9 1.8-1.6 2.9-2.1 1.1-0.5 2-0.8 3.2-1 1.2-0.1 2-0.1 3 0 0.7 0.2 1.9 0.6 2.6 0.9 0.7 0.3 1.7 1 2.3 1.5 0.6 0.5 1.4 1.5 1.9 2.1 0.4 0.7 1 1.8 1.2 2.4 0.3 0.7 0.7 1.9 0.8 2.7 0.2 0.9 0.5 3 0.6 4.8 0.2 2.5 0.2 4 0 6.4-0.2 1.7-0.4 4.1-0.7 5.3-0.2 1.2-0.7 3.3-1.1 4.7-0.4 1.3-1.2 3.6-1.8 5.1-0.6 1.4-1.6 3.5-2.3 4.6-0.6 1-1.7 2.7-2.4 3.6-0.6 0.9-1.6 2.2-3.2 4v2.1c0 1.2 0.1 2.6 0.3 3.2 0.1 0.6 0.4 1.4 0.6 1.8 0.2 0.4 0.8 1.2 1.3 1.8 0.6 0.6 1.6 1.3 2.2 1.6 1 0.4 1.4 0.5 3 0.5 1.6 0 2.1-0.1 3-0.6 0.7-0.3 1.6-0.9 2.1-1.5 0.5-0.6 1.1-1.5 1.3-2 0.2-0.5 0.5-1.7 0.6-2.6 0.1-0.9 0.2-11 0.2-22.5 0-18.2 0-20.9 0.3-22 0.2-0.7 0.6-1.8 0.9-2.3 0.3-0.6 1.2-1.7 1.9-2.5 1-1 1.8-1.5 2.9-2.1 0.9-0.4 2.3-0.8 3.1-1 1.1-0.2 1.8-0.2 2.9 0 0.8 0.1 2.1 0.5 2.9 1 1 0.5 1.9 1.1 2.8 2.1 1 1 1.7 1.9 2.2 3 0.4 0.9 0.9 2.1 1 2.8 0.2 0.7 0.4 2.2 0.6 3.4 0.1 1.2 0.2 3.6 0.2 5.3 0 1.8-0.1 4.1-0.2 5.2-0.2 1-0.5 3.1-0.8 4.5-0.3 1.4-0.9 3.7-1.3 5.1-0.5 1.4-1.5 3.8-2.2 5.2-0.7 1.5-2 3.7-2.8 4.9-0.8 1.2-2 3-4.2 5.6v1.8c0 1.1 0.1 2.4 0.3 2.9 0.1 0.6 0.5 1.5 0.8 2 0.2 0.5 0.9 1.4 1.5 2 0.6 0.6 1.7 1.3 2.4 1.6 1 0.5 1.8 0.7 2.9 0.8 1.2 0 1.9 0 3-0.4 0.9-0.2 1.9-0.7 2.5-1.1 0.5-0.5 1.3-1.1 1.6-1.5 0.3-0.3 0.9-1.3 2-3.4l0.1-7.6c0.1-6.2 0.2-7.7 0.5-8.2 0.1-0.3 0.5-0.9 0.9-1.3 0.3-0.4 1-0.9 1.6-1.2 0.7-0.3 1.4-0.5 2.1-0.5 0.6 0 1.4 0.2 2 0.4 0.5 0.3 1.2 0.7 1.5 1 0.3 0.3 0.8 1 1.6 2.6v18.4l0.6 0.9c0.3 0.5 0.8 1.2 1.2 1.4 0.3 0.3 1.1 0.6 1.6 0.7 0.9 0.2 1.3 0.2 2 0 0.5-0.1 1.3-0.5 1.6-0.7 0.4-0.3 0.9-0.8 1.1-1.2 0.3-0.4 0.4-1 0.4-1.4 0-0.4-0.1-1.5-0.3-2.4-0.3-1.3-0.3-2.4-0.2-4.9 0.1-2.5 0.2-3.6 0.5-4.8 0.3-0.9 0.8-2.3 1.3-3.2 0.4-1 1.2-2.3 1.7-3.1 0.5-0.7 1.6-2 2.4-2.8 0.8-0.8 2.2-2 3.1-2.6 0.9-0.6 2.4-1.3 3.3-1.6 0.9-0.4 2.4-0.8 3.4-1 1-0.1 2.3-0.3 3-0.3 0.6 0 1.8 0.2 2.6 0.3 0.8 0.2 2 0.6 2.8 1 0.8 0.4 1.8 1.2 2.5 1.8 0.7 0.7 1.4 1.7 1.8 2.5 0.4 0.8 0.7 1.9 0.9 2.5 0.1 0.6 0.2 1.8 0.2 2.7 0 0.9-0.2 2.4-0.4 3.3-0.2 1-0.7 2.4-1.1 3.1-0.3 0.8-1 2.1-1.5 2.8-0.5 0.8-1.3 1.8-1.8 2.3-0.5 0.6-1.5 1.5-2.3 2.1-0.7 0.6-1.9 1.5-2.7 2-0.7 0.4-2.2 1.2-3.3 1.7-1.1 0.5-2 0.9-2.1 1-0.1 0 0.5 0.3 1.1 0.6 1.2 0.6 1.5 0.6 3.8 0.6 2 0 2.8-0.1 4.1-0.5 0.8-0.2 2.2-0.8 3.1-1.3 0.8-0.4 2.2-1.3 3-2 0.8-0.7 1.9-1.7 2.4-2.3 0.5-0.7 1.4-1.8 1.9-2.6 0.5-0.8 1.2-2 1.5-2.6 0.3-0.6 0.8-1.9 1.2-2.9 0.3-1 0.7-2.8 0.9-4 0.3-1.6 0.3-2.9 0.1-7.6l0.7-0.7c0.4-0.3 1.8-1.4 3.1-2.3 1.3-0.9 2.5-1.7 2.7-1.7 0.2 0 0.6 0.3 0.9 0.6 0.2 0.3 0.9 1 1.5 1.7 0.5 0.6 2.3 2 3.8 3.1 1.6 1.1 3.7 2.9 4.8 3.8 1.1 1 2.7 2.6 3.6 3.6 0.8 1 1.9 2.4 2.4 3.1 0.5 0.7 1.3 2 1.7 2.9 0.5 0.8 1.1 2.3 1.4 3.2 0.4 1.2 0.6 2.2 0.7 3.9 0 1.8 0 2.7-0.3 3.7-0.2 0.7-0.6 2-1 2.8-0.4 0.8-1.3 2.1-1.9 2.8-0.6 0.7-1.6 1.8-2.3 2.3-0.7 0.5-1.9 1.2-2.6 1.6-0.8 0.4-2.1 0.9-3 1.1-1.3 0.4-2.3 0.5-4.1 0.5-1.7 0-2.7-0.1-3.6-0.4-0.7-0.2-1.9-0.7-2.6-1.1-1-0.5-2.1-1.4-3.7-3.1-1.3-1.3-2.4-2.4-2.4-2.6 0-0.1 0.4-0.7 1-1.4 0.5-0.6 1.6-2.2 4-5.9l1.9 1.8c1.1 1.1 2.3 2 3.1 2.4 0.9 0.4 1.4 0.5 2.7 0.5 1.2 0 1.8-0.1 2.4-0.4 0.5-0.3 1.1-0.7 1.3-1 0.3-0.2 0.7-0.9 0.9-1.4 0.3-0.6 0.4-1.4 0.4-2.3 0-0.7-0.1-1.9-0.3-2.6-0.2-0.7-0.6-1.8-1-2.5-0.3-0.7-0.9-1.7-1.4-2.2-0.4-0.6-1.3-1.6-2-2.2-0.7-0.6-1.9-1.5-2.8-2-0.8-0.6-1.6-0.9-1.7-0.9-0.1 0-0.5 0.9-0.8 2-0.3 1.1-0.9 2.8-1.2 3.9-0.4 1-1.3 3.1-2 4.6-0.7 1.4-2.1 3.8-3 5.2-1 1.5-2.3 3.2-3.5 4.3-1 1.1-2.6 2.4-3.4 3-0.9 0.6-2.5 1.5-3.5 2-1.1 0.5-2.9 1.2-3.9 1.5-1.3 0.4-2.6 0.6-4.3 0.7-1.5 0-3 0-4-0.2-1-0.1-2.5-0.5-3.4-0.8-0.9-0.4-2.3-1.1-3.2-1.6-0.9-0.5-2.4-1.6-5.1-4.2l-0.6 1.1c-0.4 0.5-1.1 1.5-1.7 2.1-0.6 0.6-1.8 1.5-2.5 1.9-0.8 0.5-2 1-2.6 1.2-0.6 0.2-1.8 0.4-2.7 0.4-0.9 0.1-2.2 0.1-3-0.1-0.8-0.1-2-0.5-2.7-0.8-0.7-0.3-1.8-1-2.4-1.4-0.6-0.5-1.5-1.5-2.9-3.4l-0.9 1c-0.5 0.5-1.4 1.3-2.1 1.8-0.6 0.5-1.6 1.1-2.2 1.4-0.5 0.3-1.7 0.8-2.6 1-1.3 0.5-1.9 0.5-4.6 0.5-2.8 0-3.3-0.1-4.8-0.6-1-0.3-2.3-0.9-3-1.3-0.8-0.4-2-1.4-2.7-2-0.7-0.7-1.5-1.6-2.3-2.7l-1 1.4c-0.6 0.7-1.6 1.7-2.2 2.2-0.6 0.5-1.9 1.3-2.8 1.7-1 0.5-2.4 0.9-3.4 1.1-1.3 0.3-2.4 0.3-4.1 0.3-1.5-0.1-2.8-0.3-3.7-0.6-0.8-0.3-2.1-0.8-2.9-1.2-0.7-0.4-1.8-1.2-2.5-1.7-0.6-0.6-1.4-1.4-1.8-2-0.4-0.5-0.8-0.9-0.9-0.9-0.1 0-0.4 0.4-0.7 1-0.3 0.5-1.2 1.5-1.9 2.2-0.7 0.7-1.8 1.5-2.6 1.9-0.7 0.4-2 0.9-2.9 1-1.1 0.3-2.1 0.3-3.2 0.3-1-0.1-2.3-0.4-3.1-0.7-0.8-0.3-2-0.9-2.6-1.3-0.6-0.4-1.6-1.3-3-2.9l-0.9 1.1c-0.5 0.5-1.4 1.4-2.1 1.9-0.7 0.4-1.9 1-2.7 1.3-1.2 0.4-1.9 0.5-3.7 0.5-1.7 0-2.6-0.1-3.5-0.4-0.6-0.2-1.6-0.7-2.3-1-0.6-0.4-1.7-1.3-2.4-2-1-0.9-1.5-1.7-2.1-3-0.5-0.9-0.9-2-1-2.4 0-0.4-0.1-4.9-0.2-9.9-0.1-7.6-0.2-9.3-0.5-9.8-0.1-0.4-0.5-0.9-0.7-1.1-0.3-0.3-0.7-0.7-1.1-0.8-0.3-0.2-1.1-0.4-1.8-0.4-0.6 0-1.4 0.2-1.7 0.4-0.4 0.1-0.9 0.5-1.1 0.8-0.2 0.2-0.6 0.7-0.8 1.1-0.2 0.5-0.3 2.4-0.4 12.6-0.2 11.9-0.2 12-0.6 13-0.3 0.6-0.9 1.3-1.3 1.7-0.5 0.4-1.3 0.8-1.9 1-0.6 0.2-1.4 0.3-2.1 0.3-0.5-0.1-1.5-0.3-2-0.6-0.6-0.3-1.4-0.9-1.8-1.4-0.3-0.5-0.8-1.2-0.9-1.7-0.2-0.6-0.3-6.5-0.4-47.2l0.8-1.8c0.4-0.9 1-2.6 1.3-3.7 0.3-1.4 0.5-2.9 0.6-4.7 0.1-2.2 0-3.2-0.3-5.1-0.3-2-0.4-2.3-0.1-2.6 0.2-0.2 0.9-0.5 1.5-0.7 0.6-0.3 1.4-0.4 1.7-0.5zm61.8 11.1c-0.1 0.5-0.2 5.9-0.2 12.1 0 6.1 0.1 11.3 0.2 11.5 0.1 0.3 0.3-0.1 1-1.5 0.5-1 1.1-2.7 1.4-3.7 0.3-1 0.8-2.9 1-4.2 0.3-1.8 0.4-3.4 0.5-8q0.1-5.7-0.1-6.5c-0.1-0.4-0.5-1-0.8-1.2-0.3-0.2-0.8-0.4-1.1-0.4-0.3 0-0.8 0.2-1.1 0.5-0.4 0.3-0.7 0.8-0.8 1.4zm25-0.9c-0.4 0.5-0.4 1.6-0.4 12.9v12.2c1.3-2.4 1.9-3.9 2.3-5 0.3-1 0.8-2.8 1-4 0.2-1.2 0.5-3.4 0.7-4.8 0.1-1.4 0.2-4.4 0.1-6.6 0-3.5-0.1-4-0.4-4.6-0.3-0.4-0.7-0.8-0.9-0.9-0.3-0.1-0.7-0.2-1-0.2-0.2 0-0.6 0.1-0.8 0.3-0.1 0.1-0.4 0.5-0.6 0.7zm49.4 30.1c-0.5 0.3-1.5 1.1-2.1 1.8-0.9 0.9-1.5 1.9-1.9 2.9-0.6 1.4-0.7 1.9-0.8 3.9v2.3c1.3-0.3 2.5-0.6 3.4-1 0.9-0.4 2.4-1.1 3.2-1.6 0.8-0.6 1.8-1.4 2.2-1.9 0.5-0.5 1.1-1.5 1.4-2.2 0.4-0.7 0.7-1.8 0.8-2.5 0.2-1.3 0.2-1.3-0.6-2-0.7-0.7-0.9-0.8-1.9-0.8-0.6 0-1.5 0.1-1.9 0.3-0.5 0.1-1.3 0.5-1.8 0.8zm-58.2 99.6c0.1 0.4 0.1 1.2 0 1.8 0 0.5-0.1 0.1-0.1-0.9 0-0.9 0.1-1.4 0.1-0.9z"/>
		<path id="Path 1" class="s1" d="m121.6 0h29l9.5 5.5h23.1c12.7-0.1 23.6 0 24.2 0.1 1 0.1 1.2 0.3 8.9 7.6v32.4l4 0.1 0.1 24.1-28.8-0.1-6.3-19-2.2-0.1c-1.2-0.1-6.9-0.2-23.3-0.2l-0.3 1c-0.2 0.5-0.7 1.4-1.1 1.9-0.5 0.6-1.2 1.1-1.9 1.4-0.6 0.3-1.6 0.6-3.3 0.8l-0.1 8.9 3.4-0.1c2.4 0 3.8 0.1 4.6 0.4 0.7 0.1 2.3 0.8 3.6 1.4 1.3 0.6 3.2 1.8 4.4 2.7 1.1 0.8 2.9 2.5 4 3.6 1.1 1.2 2.6 2.9 3.3 3.9 0.7 1.1 1.8 2.6 2.3 3.6 0.5 0.9 1.2 2.6 1.7 3.7 0.5 1.2 1.1 2.9 1.4 4 0.3 1 0.7 3 0.9 4.3 0.2 1.4 0.4 3.3 0.6 5.8h-3.8c-3.8 0-3.9 0-4-0.5-0.1-0.3-0.8-2.5-1.6-4.9-0.8-2.5-1.5-4.7-1.6-4.8-0.1-0.3-0.6 1.1-1.8 4.5-0.9 2.7-1.7 5.1-1.8 5.3-0.1 0.3-0.5 0.4-5.6 0.4l-0.1-1.1c0-0.6-0.2-2.5-0.3-4.2-0.1-1.8-0.3-3.8-0.5-4.5-0.2-0.8-0.7-2-1-2.8-0.4-0.8-1.1-2-1.6-2.6-0.5-0.7-1.3-1.6-1.9-2.1-0.6-0.5-1.7-1.2-2.4-1.5-0.7-0.3-1.9-0.7-2.8-0.9-1.3-0.3-1.9-0.3-3.4-0.2-1.1 0.1-2.4 0.5-3.1 0.7-0.6 0.3-1.6 0.8-2.1 1.2-0.6 0.3-1.5 1-2 1.5-0.5 0.5-1.3 1.5-1.7 2.2-0.5 0.7-1 1.9-1.3 2.6-0.2 0.8-0.5 2-0.5 2.9-0.1 0.8-0.2 1.5-0.3 1.5-0.1 0-0.2-0.2-0.3-0.5 0-0.2-0.2-1-0.3-1.7-0.1-0.7-0.5-1.9-0.8-2.6-0.3-0.8-1-2-1.5-2.7-0.5-0.8-1.4-1.8-2-2.3-0.6-0.5-1.5-1.1-2.1-1.5-0.5-0.3-1.7-0.8-2.7-1-1.3-0.4-2-0.4-3.3-0.3-0.9 0-2.3 0.3-3 0.5-0.8 0.2-2 0.8-2.7 1.2-0.7 0.4-1.9 1.4-2.5 2.1-0.7 0.7-1.6 1.9-2 2.7-0.4 0.8-0.9 2.2-1 3-0.3 1-0.4 2.7-0.4 10.4l-8.8-0.1-1.7-5.1c-0.9-2.7-1.7-5.1-1.8-5.2-0.1-0.1-0.9 2.2-3.5 10.4h-8.5v-1.1c0-0.6 0.1-1.9 0.2-2.9 0.1-1 0.4-2.6 0.6-3.7 0.2-1.1 0.8-3 1.2-4.2 0.4-1.2 1.3-3.4 2-4.9 0.8-1.5 2-3.6 2.8-4.7 0.8-1 2.3-2.9 3.5-4.1 1.1-1.1 2.9-2.7 3.8-3.4 1-0.7 2.4-1.6 3.2-2 0.7-0.4 2.1-1.1 4.9-2.2l7.8-0.1v-1.9c0-1 0-3 0.2-7l-1.2-0.2c-0.7 0-1.7-0.3-2.1-0.4-0.4-0.2-1.1-0.6-1.5-0.9-0.4-0.4-1-1.1-1.3-1.7-0.3-0.7-0.6-1.3-0.7-1.5-0.1-0.4-0.9-0.4-12.7-0.4-11 0.1-12.7 0.1-12.8 0.4-0.1 0.2-1.6 4.5-6.4 19l-28.7-0.1-0.1-11.8c0-11 0-11.8 0.3-12 0.3-0.2 1.1-0.3 3.7-0.3l0.3-32.4 2.5-2.4c1.3-1.3 3.1-3 5.5-5.3h24c21.1-0.1 24.2-0.1 24.8-0.4 0.3-0.2 2.4-1.4 4.6-2.7zm21.9 145.1c0.1 0 0.6 0.4 1 0.9 0.5 0.4 1.4 1.2 2.1 1.7 0.7 0.4 1.8 1.1 2.5 1.4 0.7 0.3 2.1 0.8 3.2 1 1.1 0.2 2.8 0.4 3.8 0.4 1 0 2.4-0.1 3.1-0.2 0.8-0.1 2.1-0.4 2.9-0.7 0.9-0.3 2.2-0.9 2.9-1.3 0.7-0.4 1.8-1.2 3.4-2.6l1.5 1.4c0.8 0.7 2.2 1.7 3 2.1 0.8 0.4 2.1 0.9 3 1 1.1 0.3 2.1 0.3 3.5 0.3 1.1-0.1 2.5-0.3 3.1-0.5 0.7-0.2 1.8-0.6 2.4-1 0.7-0.3 1.8-1 2.4-1.5 0.6-0.4 1.1-0.8 1.1-0.7 0.1 0 0.6 1.2 1.2 2.5 0.7 1.3 2 3.6 3 5.1 0.9 1.5 2.2 3.3 2.9 4 0.6 0.8 2.3 2.7 3.7 4.2 1.5 1.6 3.5 3.9 4.6 5.2 1 1.3 2.5 3.4 3.3 4.6 0.7 1.2 1.8 3.2 2.4 4.5 0.6 1.2 1.4 3.1 1.8 4.1 0.3 1.1 0.7 2.7 0.9 3.7 0.3 1.1 0.4 2.8 0.4 4.4 0 1.4 0 2.7-0.1 2.9-0.2 0.4-2 0.4-70.8 0.4v2.4l1.5 1.2c0.9 0.8 1.9 1.9 2.6 2.9 0.6 0.8 1.3 2.2 1.5 3 0.4 1.2 0.5 1.7 0.4 3.1-0.1 1.1-0.3 2.1-0.6 2.8-0.2 0.6-0.9 1.8-1.3 2.5-0.5 0.7-1.6 2.1-4.1 4.8l-0.1 3.3c-0.1 1.8-0.2 3.3-0.2 3.4-0.1 0.1-2.5 0.2-10.5 0.2v-7l-2-2c-1-1.1-2.2-2.5-2.6-3.1-0.3-0.6-0.8-1.7-1.1-2.4-0.2-0.7-0.5-1.8-0.5-2.4-0.1-0.6 0-1.7 0.1-2.3 0.2-0.6 0.6-1.7 0.9-2.5 0.4-0.7 1.3-1.9 2-2.7 0.7-0.7 1.6-1.6 3-2.6v-1.6c0-1.1-0.2-2.5-0.7-4.3-0.6-2.5-0.7-2.7-3.9-7.7l-3.4-13.9-4-6-0.1-10.1h-2.9l0.1 2.4c0 1.4 0.1 4.4 0.3 11.2l2.1 3.1c1.1 1.7 2.1 3.1 2.1 3.2 0 0.1 0.6 2.9 1.4 6.2 0.8 3.3 1.5 6.4 1.7 6.8 0.1 0.4 0.9 1.8 1.7 3 1.1 1.6 1.7 2.8 1.9 3.6 0.2 0.6 0.3 1.2 0.2 1.3 0 0-13.5 0.1-29.9 0.2-16.4 0-31.5-0.1-37.4-0.3l0.1-3.3c0-2.9 0-3.7 0.5-5.5 0.3-1.1 0.8-2.7 1.1-3.4 0.2-0.7 1-2.3 1.6-3.5 0.6-1.2 1.5-3 2.1-3.9 0.6-0.9 1.9-2.7 2.9-4.1 1-1.3 2.7-3.3 3.9-4.5 1.1-1.2 2.9-3.2 4-4.4 1-1.2 2.6-3.2 3.4-4.5 0.8-1.2 1.9-3 2.4-3.9 0.5-0.9 1-1.6 1.2-1.6 0.1 0 0.9 0.2 1.6 0.4 0.7 0.3 2.1 0.5 3.3 0.6 1.4 0.1 2.4 0 3.5-0.2 0.9-0.2 2.2-0.7 3-1.1 0.8-0.5 1.9-1.2 2.5-1.6 0.6-0.5 1.2-0.8 1.3-0.8 0.1 0 0.3 0.1 0.5 0.3 0.2 0.2 1 0.8 1.8 1.3 0.8 0.6 2 1.2 2.8 1.5 0.9 0.3 2 0.5 3.5 0.6 1.7 0.1 2.6 0 3.7-0.3 0.8-0.2 2.2-0.7 3.1-1.2q1.7-0.8 3.1-2.3c0.8-0.7 1.4-1.4 1.5-1.4 0 0 0.6 0.5 1.3 1.1 0.6 0.6 1.8 1.4 2.5 1.9 0.8 0.4 2 1 2.8 1.3 0.8 0.3 2.2 0.6 3.1 0.7 0.9 0.2 2.5 0.2 3.9 0.2q2.4-0.1 3.9-0.6c0.8-0.2 2-0.7 2.7-1.1 0.7-0.3 1.8-1.1 2.5-1.6 0.7-0.5 1.5-1.2 1.7-1.5 0.3-0.3 0.6-0.6 0.8-0.6z"/>
		<path id="Path 3" class="s1" d="m101.3 92.7c0.1 0 0.6 1.5 2.2 6.6h3.5c1.9 0 3.5 0.1 3.5 0.2 0.1 0.1-1 1-2.3 2-1.4 1-2.6 1.9-2.8 2.1-0.4 0.4-0.3 0.6 0.6 3.5 0.6 1.8 1.1 3.3 1 3.4 0 0.2-1.3-0.7-2.9-1.8-1.7-1.2-3-2-3.1-1.9-0.2 0-1.4 0.9-2.8 1.9-1.4 1.1-2.7 1.9-2.8 1.9-0.1 0-0.1-0.2-0.1-0.4 0.1-0.2 0.6-1.7 1.1-3.3 0.5-1.6 0.9-3 0.9-3.1 0 0-1.2-1-2.7-2.1-1.5-1.1-2.7-2-2.7-2.1 0-0.1 1.5-0.2 7-0.4l0.7-2.4c0.5-1.3 1-2.8 1.1-3.2 0.2-0.5 0.5-0.9 0.6-0.9zm71 0c0.1 0 0.2 0.1 0.3 0.3 0 0.2 0.4 1.5 0.9 2.9 0.4 1.4 0.8 2.7 1 3 0.2 0.4 0.2 0.4 3.7 0.4 3.4 0 3.6 0 3.2 0.4-0.2 0.2-1.4 1.2-2.7 2.1-1.7 1.2-2.4 1.9-2.4 2.2-0.1 0.3 0.4 1.8 0.9 3.4 0.5 1.6 0.9 3 0.9 3.1 0 0 0 0.1-0.1 0.1-0.1 0-1.3-0.8-2.7-1.8-1.4-1-2.7-1.9-2.9-2-0.2-0.1-0.9 0.2-3 1.8-1.5 1.1-2.8 2-2.9 1.9-0.1 0 0.2-1.5 0.8-3.4 0.6-1.8 1-3.3 1-3.3 0-0.1-1.2-1-2.8-2.1-1.5-1.1-2.7-2.1-2.6-2.2 0.1-0.1 1.7-0.2 7-0.3l1-3c0.5-1.6 1-3.1 1.1-3.3 0-0.1 0.2-0.2 0.3-0.2zm-59.1 7.1l0.1 1.3c0.1 0.7 0.2 8.7 0.2 17.7 0 16.1 0 16.5-0.4 17.1-0.2 0.4-0.6 0.9-1 1.1-0.3 0.2-0.9 0.3-1.4 0.3-0.4 0-1.1-0.1-1.4-0.3-0.4-0.2-0.8-0.6-1-0.9-0.4-0.6-0.4-1.2-0.6-19.2l-0.5-1.1c-0.3-0.6-0.9-1.5-1.3-2-0.4-0.4-1.3-1-1.8-1.3-0.9-0.5-1.3-0.6-2.8-0.6-1.5 0-2 0.1-3 0.6-0.6 0.3-1.5 0.9-1.9 1.4-0.5 0.5-1 1.4-1.3 1.9-0.4 0.9-0.4 1.3-0.5 10.3-0.1 8.5-0.2 9.4-0.5 10-0.2 0.3-0.6 0.7-0.9 0.9-0.3 0.2-1 0.3-1.4 0.3-0.5 0-1.2-0.1-1.5-0.3-0.3-0.1-0.7-0.6-1-1-0.4-0.7-0.4-0.8-0.4-12.5 0-6.5 0.1-14.4 0.2-17.6 0-3.6 0.1-5.7 0.3-5.7 0.1 0 1.3 0.8 2.6 1.7 1.4 1 2.7 2 3.5 2.5l-1.6 5c-0.9 2.8-1.7 5.2-1.7 5.3-0.1 0.1 0 0.3 0 0.3 0.1-0.1 2.1-1.4 4.4-3.1 2.3-1.7 4.3-3.1 4.4-3.1 0.2-0.1 0.8 0.2 1.3 0.6 0.5 0.3 2.5 1.7 4.3 3.1 1.9 1.4 3.5 2.4 3.5 2.4 0.1 0-0.6-2.3-1.5-5.1-0.9-2.9-1.6-5.2-1.6-5.4 0.1-0.1 1.5-1.2 3.1-2.4zm69.8 1c0.1 0 0.2 0.7 0.3 1.5 0.1 0.9 0.2 5.6 0.2 10.6 0.1 5 0.2 11.5 0.3 14.6 0.1 3 0.3 5.9 0.4 6.3 0.1 0.5 0.2 1.1 0.2 1.4 0.1 0.4-0.2 0.8-0.6 1.3-0.5 0.4-1 0.7-1.5 0.8-0.5 0.1-1 0-1.7-0.3-0.6-0.2-1.1-0.6-1.3-1-0.3-0.7-0.4-1.7-0.6-19.5l-0.5-1c-0.3-0.6-1-1.4-1.4-1.8-0.5-0.5-1.3-1-1.8-1.3-0.7-0.4-1.2-0.4-2.6-0.4-1.5 0-2 0-2.9 0.5-0.7 0.3-1.5 0.9-2 1.4-0.4 0.5-1 1.3-1.2 1.8-0.4 0.8-0.4 1.3-0.7 16l-0.6 1.2c-0.3 0.6-1 1.6-1.6 2.1-0.6 0.6-1.5 1.2-2 1.5-0.8 0.3-1.4 0.4-2.8 0.4-1.5 0-1.9 0-2.9-0.5-0.6-0.3-1.6-0.9-2.1-1.4-0.5-0.6-1.1-1.5-1.4-2.1-0.4-0.9-0.6-1.5-0.7-4.9l1.3-1.6c0.7-0.8 2-2.5 2.7-3.7 0.8-1.2 2.1-3.4 2.8-4.9 0.7-1.5 1.7-3.8 2.2-5.1 0.4-1.3 1-3.5 1.3-4.8 0.3-1.3 0.7-3.2 0.8-4.1 0.1-0.9 0.3-1.7 0.4-1.8 0-0.1 0.8 0.4 1.8 1.1 0.9 0.7 1.7 1.3 1.7 1.3 0 0-0.7 2.4-1.6 5.3-0.9 2.8-1.6 5.2-1.6 5.3 0.1 0 1.1-0.6 2.2-1.5 1.2-0.9 3.2-2.3 4.4-3.2 1.3-0.9 2.4-1.5 2.5-1.5 0.2 0.1 2.2 1.5 4.5 3.1 2.3 1.7 4.3 3.1 4.3 3 0.1 0-0.6-2.3-1.5-5.1-0.9-2.8-1.6-5.2-1.6-5.3 0.1-0.2 1.2-1 2.5-2 1.2-0.9 2.4-1.7 2.4-1.7zm-44.8 2.7c0.1 0 0.2 4.7 0.2 10.4 0 5.7-0.1 12.4-0.2 14.8-0.1 4.3-0.1 4.5-0.6 5.4-0.3 0.5-1 1.3-1.4 1.6-0.4 0.4-1.3 0.9-1.9 1.1-0.7 0.2-1.3 0.3-2.2 0.2-0.7-0.1-1.6-0.3-2-0.6-0.5-0.2-1.2-0.7-1.6-1.2-0.4-0.4-1-1.2-1.2-1.7-0.3-0.7-0.4-1.6-0.6-5.3l1.4-1.8c0.8-0.9 2-2.6 2.7-3.7 0.7-1.1 1.8-3 2.5-4.3 0.6-1.2 1.3-2.8 1.6-3.5 0.3-0.7 0.8-2.2 1.2-3.3 0.3-1 0.8-3 1.1-4.3 0.3-1.3 0.6-2.7 0.5-3 0-0.3 0.1-0.6 0.2-0.6 0.1-0.1 0.2-0.2 0.3-0.2zm-10.9-13.5c0.1 0 0.4 0.2 0.5 0.6 0.2 0.3 0.2 2.3 0.1 5.9 0 3-0.2 6.2-0.3 7-0.2 0.9-0.4 1.7-0.6 1.9-0.2 0.3-0.3-0.8-0.3-7.1 0-4.1 0.1-7.6 0.2-7.8 0-0.3 0.2-0.5 0.4-0.5zm24.8 0c0.1 0 0.4 0.2 0.5 0.6 0.2 0.3 0.2 2.2 0.1 5.7 0 2.9-0.2 5.9-0.3 6.6-0.1 0.7-0.3 1.5-0.4 1.7 0 0.2-0.1 0.4-0.3 0.4-0.1 0-0.2-2.6-0.2-7.2 0-4 0.1-7.3 0.2-7.5 0-0.2 0.2-0.3 0.4-0.3z"/>
	</g>
</svg>