<svg xmlns="http://www.w3.org/2000/svg" height="228.03" viewBox="0 0 162.76157 228.02858" width="162.76"><g transform="matrix(1.25 0 0 -1.25 -157.25 455.85)"><path d="m223.61 363.74c-6.3281-6.1805-12.527-7.6168-22.34-7.6168l-65.552 0.0923-8.922-22.313c5.3916-2.3245 8.922-7.4396 8.922-13.576v-102.21c0-6.1362-3.5304-11.247-8.922-13.569l8.922-21.628h25.032l8.9286 21.628c-5.3916 2.2317-8.9286 7.5301-8.9286 13.569v40.296l40.52-0.0198c9.8128 0 16.011-2.4185 22.34-8.599 4.1323 12.711 16.545 22.188 31.796 25.968-5.7818 9.9373-8.0519 18.758-8.0519 27.966 0 9.2074 1.2891 19.213 7.073 29.146-15.253 3.7863-27.009 18.16-30.817 30.869zm-62.734-29.07h51.881c8.2181 0 13.365-5.1793 13.365-12.043v-30.896c0-7.2077-4.071-11.14-13.365-11.14h-51.881v54.079z" fill="#fdb827"/></g></svg>
