<?xml version="1.0" encoding="utf-8"?>
<!-- Generator: Adobe Illustrator 23.0.4, SVG Export Plug-In . SVG Version: 6.00 Build 0)  -->
<svg version="1.1" id="Layer_1" xmlns="http://www.w3.org/2000/svg" xmlns:xlink="http://www.w3.org/1999/xlink" x="0px" y="0px"
	 viewBox="0 0 65.913 82.534" style="enable-background:new 0 0 65.913 82.534;" xml:space="preserve">
<g>
	<path style="fill:#2F241D;" d="M50.187,17.565l-33.386,0.003c0,0,1.995,2.87,1.995,8.324v4.222H11.73
		c-1.696,0-3.071-1.375-3.071-3.071V9.877c0-1.689,1.382-3.071,3.071-3.071l22.913,0c1.763,0.024,2.922,1.774,2.681,3.52
		c-0.233,1.691-1.116,2.704-1.116,2.704l9.092,0V9.094C45.3,4.071,41.229,0,36.206,0H9.093C4.071,0,0,4.071,0,9.094v18.899
		c0,5.022,4.071,9.093,9.093,9.093H34.11c1.696,0,3.071,1.375,3.071,3.071V56.53c0,1.688-1.381,3.069-3.069,3.069h-6.657V40.357
		h-8.658v19.242h-7.558c-1.695,0-3.068-1.374-3.068-3.069v-1.635c0-5.439,1.462-6.696,1.462-6.696l-9.092,0v9.279
		c0,5.021,4.071,9.092,9.092,9.092h9.164v7.639c0,5.454-1.995,8.324-1.995,8.324l33.39,0c6.549,0,11.859-5.309,11.859-11.859V29.427
		C62.05,22.875,56.739,17.565,50.187,17.565z M53.392,70.841c0,2.586-2.097,4.683-4.683,4.683H27.455v-8.953h9.293
		c5.021,0,9.092-4.071,9.092-9.092V39.207c0-5.022-4.071-9.094-9.094-9.094h-9.292v-5.538H48.71c2.586,0,4.682,2.096,4.682,4.682
		V70.841z"/>
	<path style="fill:#2F241D;" d="M62.962,79.5v0.549h-0.695v2.484h-0.672V80.05h-0.736V79.5H62.962z M65.241,79.499L65.241,79.499
		l-0.663,1.679l-0.663-1.679h-0.672v3.035h0.672V80.85l0.605,1.499h0.115l0.605-1.499v1.684h0.672v-3.035H65.241z"/>
</g>
</svg>
