<?xml version="1.0" encoding="UTF-8" standalone="no"?>
<svg xmlns:rdf="http://www.w3.org/1999/02/22-rdf-syntax-ns#" xmlns="http://www.w3.org/2000/svg" height="200.88" width="201" version="1.1" xmlns:cc="http://creativecommons.org/ns#" xmlns:dc="http://purl.org/dc/elements/1.1/" viewBox="0 0 201 200.87653">
 <g transform="translate(137.56 -429.34)">
  <g transform="matrix(1.0661 0 0 1.0661 4.0082 -36.558)">
   <path d="m-131.42 531.27c0 51.175 41.658 92.811 92.865 92.811s92.865-41.636 92.865-92.811c0-51.173-41.658-92.804-92.865-92.804s-92.865 41.63-92.865 92.804" fill="#c4ced4"/>
   <path d="m-126.72 531.27c0-48.639 39.546-88.205 88.162-88.205 48.618 0 88.171 39.566 88.171 88.205 0 48.641-39.553 88.211-88.171 88.211-48.616 0-88.162-39.569-88.162-88.211" fill="#fff"/>
   <path d="m-38.558 447.87c-46.008 0-83.444 37.405-83.444 83.404 0 45.994 37.436 83.415 83.444 83.415s83.442-37.421 83.442-83.415c0-45.999-37.434-83.404-83.442-83.404" fill="#005c5c"/>
   <path d="m-38.558 612.06c-44.526 0-80.758-36.236-80.758-80.782 0-44.54 36.232-80.782 80.758-80.782 44.528 0 80.758 36.241 80.758 80.782 0 44.546-36.23 80.782-80.758 80.782" fill="#002c56"/>
   <path d="m104.3 25.885-8.1563 0.0098-0.01172 2.4375 2.5488-0.0098-0.07227 15.9 3.1445 0.01758 0.0664-15.908 2.4668-0.0078 0.0137-2.4395zm19.053 3.6758-0.89648 2.2754 2.3086 0.90234-5.8359 14.803 2.9219 1.1602 5.8438-14.812 2.2266 0.91211 0.89258-2.2676-7.4609-2.9727zm-47.66 0.25391-4.9629 1.9043 4.7598 17.947 2.8223-1.125-1.0488-3.7852 2.5996-1.0508 1.8457 3.4805 2.8262-1.127-8.8418-16.244zm-0.9043 4.2676 3.8789 7.4629-2.0371 0.83789-2.2578-8.0898 0.41602-0.21094zm-23.246 9.6035-4.8457 4.6191 12.723 13.223 4.8516-4.6113-1.6738-1.752-2.5977 2.4414-4.457-4.6406 2.5859-2.4375-1.6758-1.7402-2.5879 2.4355-3.2422-3.3711 2.5859-2.4355-1.666-1.7305zm96.711 0.06445-12.275 13.641 4.9102 4.4688 1.6094-1.791-2.5586-2.3672 10.646-11.846l-2.33-2.106zm-48.25 7.521a48 48.727 0 0 0 -48 48.729 48 48.727 0 0 0 48 48.73 48 48.727 0 0 0 48 -48.73 48 48.727 0 0 0 -48 -48.729zm65.215 13.492-16.414 8.1934 3.0156 5.9297 2.1562-1.084-1.6094-3.1074 5.7598-2.877 1.6211 3.1094 2.1602-1.0801-1.6133-3.1113 4.1816-2.0918 1.6172 3.1094 2.1406-1.0645-3.0156-5.9258zm-130.24 1.122c-0.98473-0.04828-1.5655 0.59894-2.3516 2.2695-0.03438 0.08867-0.69329 1.6628-0.74219 1.7695-1.2921 2.872-0.99901 3.5382 1.8477 4.8086l2.387 1.072c1.1799 0.53205 2.2672 0.25568 3.3711-0.53516l1.9004-1.3574c0.6153-0.43976 1.242-1.4501 1.7812-1.2148l3.5469 1.5938c0.3348 0.15745 0.52493 0.30854 0.56836 0.48047 0.02172 0.08505-0.61014 1.6418-0.64453 1.7305-0.15744 0.3547-0.46112 0.36742-0.93164 0.14844l-3.4199-1.502-1.2949 2.9004 3.0156 1.3203c2.8268 1.2668 3.5268 1.0856 4.8262-1.8027 0.05248-0.09953 0.69666-1.6685 0.73828-1.7734 1.1854-2.729 0.7962-3.2757-1.9727-4.5117l-3.48-1.571c-1.088-0.492-1.992-0.652-3.141 0.195l-2.246 2.344c-0.57911 0.43072-0.978 0.8141-1.5137 0.58789l-2.6016-1.1719c-0.45066-0.20088-0.66387-0.40458-0.51367-0.72852 0.03258-0.07239 0.68738-1.6093 0.73438-1.6582 0.16831-0.16292 0.39455-0.14457 0.78906 0.02734l2.5293 1.1562 1.2734-2.834-2.1133-0.97656c-1.013-0.46-1.75-0.739-2.341-0.768zm119.42 50.915c-0.9856-0.0131-1.5382 0.64848-2.252 2.3496-0.0398 0.0977-0.65369 1.772-0.69531 1.877-1.1817 2.9426-0.86247 3.5766 2.0312 4.7402l2.4277 0.98829c1.2016 0.485 2.135 0.58985 3.1973-0.24805l1.8398-1.4258c0.60082-0.46328 1.363-2.0115 1.9023-1.7871l3.6094 1.4512c0.34023 0.13935 0.54642 0.27844 0.58985 0.46484 0.0217 0.0796-0.55936 1.7265-0.59375 1.8242-0.14659 0.3547-0.44664 0.37543-0.93164 0.1836l-3.0508-1.2578-1.1934 2.9356 2.6602 1.0938c2.872 1.1673 3.5592 0.95321 4.75-1.9785 0.0362-0.10496 0.65884-1.7739 0.69141-1.8789 1.075-2.7616 0.66008-3.3016-2.1504-4.4453l-3.5469-1.4199c-1.1057-0.4488-2.1765-0.0646-3.2949 0.82032l-2.1484 2.4434c-0.57005 0.44157-0.80531 0.43144-1.3555 0.20703l-2.6328-1.0664c-0.46871-0.19182-0.68441-0.37404-0.54687-0.70703 0.0344-0.0778 0.64588-1.7164 0.6875-1.7617 0.15925-0.1683 0.40874-0.15925 0.78515 0l2.4961 1.041 1.1699-2.8945-2.0742-0.875c-1.0315-0.41533-1.7797-0.66594-2.3711-0.67383zm-107.9 1.2734-16.641 7.7558 1.1895 2.541 9.7871-4.6856 0.07422 0.16993-8.8496 6.6934 0.6875 1.502 10.656-2.8027 0.23633 0.51368-9.875 4.4746 1.1836 2.5312 16.639-7.7441-1.7148-3.6562-8.7695 1.9668-0.06445-0.13672 7.0039-5.7988-1.543-3.3242zm98.422 16.25c-0.83088 0.0758-1.6307 0.66704-2.6016 1.7891l-3.2578 3.7695 13.879 12.002 2.0547-2.377-5.7598-4.9746c0.19183-0.2787 1.4408-1.632 1.6309-1.6953 0.20631-0.0633 0.4402 0.0305 0.7207 0.26758l5.1367 4.457 2.041-2.373-4.7188-4.0703c-1.1456-0.9881-1.964-1.3453-3.0625-0.77344 0.39813-1.3555-0.21267-2.0644-1.4668-3.1484l-1.8066-1.5664c-1.0967-0.94196-1.9582-1.3824-2.7891-1.3066zm-0.26953 3.0215c0.24125-0.0283 0.47774 0.17641 0.88086 0.5293l2.6641 2.3066c0.41623 0.35289 0.55513 0.5942 0.4375 0.87109-0.0742 0.1484-1.2771 1.4955-1.4707 1.6856l-4.2324-3.6699c0.15021-0.19364 1.3531-1.5264 1.4707-1.6133 0.0882-0.0642 0.16958-0.0999 0.25-0.10937zm-85.672 0.83203-14.555 11.521 2.1484 2.1367 3.0605-2.4648 1.957 1.9727-2.4512 3.082 2.1582 2.1484 11.355-14.596-3.6738-3.8008zm-0.90234 4.3574 0.31445 0.31446-5.2988 6.543-1.5352-1.5488 6.5195-5.3086zm73.391 3.8008-5.748 3.3418 9.1855 15.879 5.7461-3.3223-1.2109-2.1016-3.0312 1.7715-3.2207-5.5762 3.0293-1.7617-1.2051-2.0957-3.0312 1.7617-2.3398-4.0566 3.0274-1.7559-1.2012-2.084zm-58.857 2.8809-7.6895 16.662 2.8574 1.3184 3.1875-6.916c0.31308 0.10678 2.0552 0.95359 2.1602 1.1074 0.11944 0.19363 0.09733 0.4285-0.05469 0.7832l-2.8457 6.168 2.8281 1.3086 2.6094-5.6699c0.6334-1.3754 0.75024-2.2698-0.10938-3.1602 1.4188 0.0127 1.9263-0.77349 2.623-2.2774l0.99805-2.1699c1.2125-2.6205 1.1504-3.5783-1.5352-4.8125l-5.0293-2.3418zm1.8496 3.4883c0.23345 0.0977 1.9313 0.90591 2.0508 1 0.33479 0.26241 0.20543 0.54186-0.08594 1.1934l-1.4824 3.1953c-0.22621 0.50129-0.4082 0.7071-0.72852 0.6582-0.15202-0.0163-1.8714-0.82101-2.0977-0.95312l2.3438-5.0938zm40.441 1.2402-2.6602 0.53711 1.8262 8.9726-0.13086 0.0176-4.5898-8.4141-2.7461 0.55274 3.5781 17.992 2.6816-0.52929-1.8965-9.207 0.12695-0.0293 4.6602 8.6562 2.7305-0.53516-3.5801-18.014zm-23.261 1.45-2.139 18.22l3.1172 0.36523 2.1465-18.219-3.125-0.36523z" transform="translate(-138.29 431.36)" fill="#fff"/>
   <path d="m117.15 78.65c-0.1303 0.0941-0.24609 0.20312-0.24609 0.20312l-0.16211 0.14062 1.4512 0.55664c-0.34204-0.30946-0.69008-0.60903-1.043-0.90039zm-35.02 0.17383c-0.1303 0.10858-0.25432 0.22345-0.38281 0.33203l-0.36133 1.3203-0.32031-0.26758c-0.04343-0.0109-0.29644 0.0524-0.61133 0.14648-0.3547 0.33479-0.68654 0.69121-1.0195 1.0586 0.47233-0.10859 1.7844-0.50964 2.0215-0.58203 0.13935 0.15744 0.34375 0.32422 0.34375 0.32422 0.21355-0.0561 0.72852-1.8945 0.72852-1.8945-0.03258-0.0977-0.279-0.32349-0.39844-0.4375zm33.613 1.0605c-0.13935 0.0217-0.56055 0.38672-0.56055 0.38672l-0.16015 0.14258 2.0625 0.80274-0.33 0.284c-0.0398 0.14477 0.53711 1.6836 0.53711 1.6836 0.2063 0.0543 0.67578-0.34375 0.67578-0.34375 0.0235-0.12125-0.40886-1.3218-0.51563-1.6113 0.17554-0.11944 0.41016-0.32227 0.41016-0.32227-0.0344-0.22259-2.1172-1.0215-2.1172-1.0215zm-32.057 0.002-0.04492 0.16016-0.47852 1.7383-0.45508-0.27539c-0.11401-0.0127-2.2969 0.65234-2.2969 0.65234-0.03077 0.23527 0.54883 0.58203 0.54883 0.58203 0.10496 0.0109 2.0419-0.58025 2.2754-0.65625 0.17554 0.16106 0.48633 0.34375 0.48633 0.34375 0.19183-0.0833 0.70898-2 0.70898-2-0.05791-0.1484-0.5918-0.46094-0.5918-0.46094l-0.147-0.083zm34.924 0.06445-0.14063 0.13477c-0.0398 0.13211 0.53711 1.6699 0.53711 1.6699 0.20631 0.0543 0.67774-0.33789 0.67774-0.33789 0.0109-0.0507-0.0518-0.2747-0.13867-0.53711-0.30223-0.3167-0.61342-0.62928-0.93555-0.92969zm-4.6211 1.0918c-0.12848 0-0.66796 0.31836-0.66796 0.31836l-0.20704 0.12305 2.0254 1.0195-0.36523 0.2168c-0.0724 0.13029 0.11719 1.7441 0.11719 1.7441 0.19726 0.10497 0.77734-0.23828 0.77734-0.23828 0.0615-0.10858-0.0786-1.4191-0.10937-1.6797 0.20449-0.0941 0.4707-0.25586 0.4707-0.25586 0-0.029-0.0295-0.06395-0.082-0.10742l0.01-0.0098-0.0312-0.01367c-0.40175-0.3529-1.9375-1.1172-1.9375-1.1172zm-28.324 0.08008-0.03125 0.18164-0.29102 1.7402-0.50586-0.24609c-0.10858-0.0109-2.2363 0.78125-2.2363 0.78125-0.009 0.23707 0.61524 0.54883 0.61524 0.54883 0.10858 0.002 2.0634-0.72124 2.2227-0.77734 0.19545 0.14115 0.53906 0.30274 0.53906 0.30274 0.19183-0.0941 0.52344-2.0273 0.52344-2.0273-0.07601-0.13935-0.67578-0.42773-0.67578-0.42773l-0.16016-0.07617zm26.402 0.9082c-0.12849-0.007-0.70899 0.2832-0.70898 0.2832l-0.22461 0.10547 1.9805 1.1426-0.40039 0.21289c-0.0742 0.11583-0.0234 1.752-0.0234 1.752 0.19544 0.11401 0.81836-0.20703 0.81836-0.20703 0.0633-0.10496 0.0206-1.4168 0.01-1.6973 0.22441-0.076 0.52539-0.22461 0.52539-0.22461 0-0.0235-0.0291-0.06062-0.0762-0.11133l0.0137-0.0059-0.043-0.02148c-0.39994-0.38728-1.8711-1.2285-1.8711-1.2285zm-24.061 0.25977-0.0098 0.17578-0.15039 1.748-0.54688-0.21875c-0.10858 0-2.1699 0.87695-2.1699 0.87695 0 0.038 0.01835 0.08096 0.05273 0.11719 0.15926 0.21173 0.62109 0.40625 0.62109 0.40625 0.09772 0 2.0116-0.81557 2.1582-0.87891 0.20631 0.13754 0.57226 0.27734 0.57226 0.27734 0.19183-0.0995 0.35352-2.0508 0.35352-2.0508-0.08687-0.12668-0.70703-0.38477-0.70703-0.38477l-0.17383-0.06836zm22.035 0.63672c-0.12849-0.0145-0.76563 0.23438-0.76563 0.23438l-0.23437 0.09766 1.9102 1.2441-0.45 0.185c-0.0869 0.0977-0.35156 1.7598-0.35156 1.7598 0.17916 0.13935 0.85937-0.12695 0.85937-0.12695 0.0832-0.0941 0.31009-1.4925 0.35352-1.7188 0.22621-0.0651 0.55664-0.19141 0.55664-0.19141 0.002-0.0253-0.027-0.0685-0.0723-0.11914l0.0215-0.01172-0.0527-0.02539c-0.37823-0.40538-1.7715-1.3262-1.7715-1.3262zm-19.91 0.26562 0.01367 0.20117 0.20312 1.7305-0.61328-0.16602c-0.10677 0.0163-1.9727 1.1016-1.9727 1.1016 0.0072 0.0452 0.03969 0.07498 0.07227 0.10938 0.1864 0.19183 0.71289 0.33398 0.71289 0.33398 0.0941-0.0127 1.8415-1.0233 1.9609-1.0957 0.23526 0.10315 0.66602 0.22461 0.66602 0.22461 0.16468-0.14116-0.05664-2.0858-0.05664-2.084-0.0941-0.11763-0.80078-0.30273-0.80078-0.30273l-0.18555-0.05273zm17.93 1.1738c0.0977 0.55377 0.19634 1.0745 0.2832 1.5703 0.0308-0.14116 0.0401-0.26478 0.0527-0.32812 0.24431-0.0308 0.68554-0.15039 0.68554-0.15039 0.009-0.0199-0.0128-0.06475-0.0508-0.11719l0.0176-0.0098-0.0312-0.02148c-0.16287-0.22621-0.58966-0.61399-0.95703-0.94336zm-8.207 2.3105s0.002 0.000813 0.002 0.0078c0-0.007-0.002-0.0058-0.002-0.0078zm8.6816 25.984c-0.0127 0.11582-0.0349 0.22358-0.0566 0.33398 0.13935-0.0905 0.22851-0.15429 0.22851-0.15429-0.004-0.0416-0.0345-0.0767-0.0762-0.10742-0.0308-0.029-0.0559-0.0506-0.0957-0.0723zm2.5664 0.6543c-0.0977 0.009-1.8836 1.0429-1.9668 1.0918-0.22802-0.10496-0.66797-0.2207-0.66797-0.2207-0.17011 0.13754 0.0644 2.093 0.0644 2.084 0.0977 0.11401 0.79688 0.30079 0.79688 0.30079l0.1914 0.0527-0.23242-1.9356 0.62305 0.16993c0.10496-0.0109 1.9746-1.1035 1.9746-1.1035-0.009-0.0344-0.032-0.075-0.0664-0.10938h-0.006c-0.1864-0.19002-0.71093-0.33007-0.71093-0.33007zm-21.816 0.0215c-0.27027 0.0155-0.6582 0.16406-0.6582 0.16406-0.07239 0.0905-0.29779 1.4794-0.33398 1.7129-0.23345 0.0652-0.56641 0.19532-0.56641 0.19532-0.0018 0.0217 0.09766 0.1582 0.09766 0.1582 0.38547 0.40357 1.7734 1.3242 1.7734 1.3242 0.11763 0.009 0.76172-0.23828 0.76172-0.23828l0.23633-0.0937-1.9004-1.248 0.45898-0.16992c0.07782-0.10134 0.34375-1.7656 0.34375-1.7656-0.04524-0.0348-0.1228-0.0442-0.21289-0.0391zm1.9219 0.87109c-0.23888 0.0416-0.64453 0.1504-0.64453 0.1504-0.009 0.029 0.0093 0.0706 0.05273 0.12304l-0.01758 0.002 0.0293 0.0332c0.13935 0.18097 0.4647 0.48584 0.7832 0.77539-0.06515-0.37642-0.13798-0.73291-0.20312-1.084zm-4.4688 0.0723c-0.25729 0.0435-0.59961 0.22266-0.59961 0.22266-0.06696 0.10135-0.03443 1.4199-0.02539 1.6914-0.22259 0.0814-0.51367 0.21485-0.51367 0.21485 0 0.0326 0.10742 0.15039 0.10742 0.15039 0.39995 0.38547 1.8613 1.2344 1.8613 1.2344 0.12849 0 0.7168-0.28906 0.7168-0.28906l0.22461-0.10547-1.9883-1.1445 0.4082-0.21094c0.06515-0.11944 0.02148-1.75 0.02148-1.75-0.05112-0.0276-0.12713-0.0282-0.21289-0.0137zm27.102 0.14844c-0.10497 0-2.0406 0.82779-2.1582 0.87304-0.21173-0.1303-0.58789-0.28125-0.58789-0.28125-0.1864 0.0977-0.3457 2.0508-0.3457 2.0508 0.0851 0.1303 0.71875 0.38867 0.71875 0.38867l0.16992 0.0742 0.16016-1.9414 0.53906 0.23242c0.11039 0 2.1738-0.8789 2.1738-0.8789 0-0.0416-0.0221-0.0831-0.0547-0.1211h0.008l-0.01-0.006c-0.16107-0.20268-0.61328-0.39062-0.61328-0.39062zm-29.293 0.91406c-0.24889 0.056-0.57812 0.25-0.57812 0.25-0.0561 0.10496 0.08447 1.4139 0.11524 1.6836-0.20631 0.0959-0.4707 0.25196-0.4707 0.25196 0.0018 0.0181 0.03093 0.06 0.07617 0.10351l-0.0039 0.002 0.01563 0.01c0.38547 0.34384 1.9512 1.1387 1.9512 1.1387 0.1303-0.009 0.66602-0.33008 0.66602-0.33008l0.20508-0.12304-2.0293-1.0195 0.37305-0.22071v-0.002c0.06515-0.12306-0.11328-1.7422-0.11328-1.7422-0.04977-0.0244-0.12407-0.0206-0.20703-0.002zm31.879 0.35352c-0.10496-0.0109-2.1018 0.72052-2.2285 0.76757-0.19545-0.14116-0.53711-0.30273-0.53711-0.30273-0.1864 0.0941-0.50977 2.0293-0.50977 2.0293 0.0688 0.13935 0.65821 0.42187 0.65821 0.42187l0.16211 0.084 0.32031-1.9219 0.51367 0.24805c0.10677 0.0109 2.2285-0.77539 2.2285-0.77539 0.0217-0.23888-0.60743-0.55078-0.60743-0.55078zm-34.072 0.93554c-0.21354-0.0507-0.67383 0.34766-0.67383 0.34766-0.03076 0.11763 0.40871 1.3198 0.51367 1.6094-0.17192 0.11582-0.4082 0.33204-0.4082 0.33204 0.03258 0.21353 2.1172 1.0137 2.1172 1.0137 0.13935-0.0253 0.56055-0.39844 0.56055-0.39844l0.1582-0.13281-2.0645-0.79688 0.33594-0.28711c0.04162-0.14115-0.53906-1.6875-0.53906-1.6875zm36.33 0.45508c-0.10678-0.0235-2.0291 0.5592-2.2734 0.64063-0.17735-0.15744-0.49414-0.3418-0.49414-0.3418-0.19726 0.0851-0.71289 2.0039-0.71289 2.0039 0.0633 0.14659 0.60156 0.45704 0.60156 0.45704l0.15234 0.0859 0.51368-1.8926 0.46484 0.26953c0.10677 0.0109 2.2969-0.6543 2.2969-0.6543 0.0217-0.23345-0.54883-0.56836-0.54883-0.56836zm-38.047 0.97266c-0.21354-0.0507-0.67578 0.34179-0.67578 0.34179-0.01267 0.0652 0.08369 0.39068 0.20312 0.73633 0.26784 0.26784 0.53699 0.52665 0.80664 0.78906l0.199-0.17c0.03981-0.14659-0.53711-1.6894-0.53711-1.6894zm39.314 0.41015c-0.58091 0.16107-1.5652 0.45172-1.7715 0.50782-0.13935-0.1502-0.33398-0.32227-0.33398-0.32227-0.22441 0.0652-0.73047 1.9004-0.73047 1.9004 0.0217 0.0742 0.17186 0.22431 0.29492 0.34375 0.1864-0.15202 0.36214-0.31145 0.54492-0.4707l0.30078-1.0781 0.31836 0.25782c0.0253 0.009 0.15511-0.0211 0.33789-0.0664 0.3529-0.34927 0.69884-0.7049 1.0391-1.0723zm-38.701 1.7266c0.38728 0.34565 0.78422 0.68264 1.1914 1.0156 0.15202-0.10858 0.30274-0.24023 0.30274-0.24023l0.16016-0.14844-1.6543-0.62695z" transform="translate(-138.29 431.36)" fill="#d50032"/>
   <path d="m99.738 44.986 0.002 54.9c-0.72-0.895-6.834-7.196-9.174-9.357-0.04524 0.0109-0.10782 0.01053-0.16211 0.01953-1.6866 0.14478-8.4217 0.969-17.145 2.0566-0.36556 0.0507-0.74258 0.09415-1.1172 0.14844-6.0607 0.76189-12.98 1.6448-19.779 2.5352-0.9139 0.10677-1.8217 0.22973-2.7266 0.34375-15.287 1.9961-29.291 3.8803-30.668 4.2188-0.0742 0.0163-0.119 0.03628-0.11719 0.05078l80.887-0.01367c-0.72178 0.90271-6.8327 7.2082-9.1719 9.3574-0.04524 0-0.10782-0.0125-0.16211-0.0215 0.20269 2.0721 1.598 9.3223 3.2539 17.455 0.07239 0.36375 0.14079 0.71675 0.2168 1.0859 1.4188 6.9565 2.9964 14.413 4.1582 19.721 0.21174 0.95733 0.40258 1.8481 0.57812 2.6426 0.64426 2.8792 1.0727 4.6712 1.127 4.6621l0.0098-54.881h-0.02148c0.0018-0.004 0.01215-0.01444 0.01758-0.02344 0.0036-0.002 0.01381-0.01218 0.01563-0.01758 0.81617-0.98991 6.8118-7.2044 9.1191-9.3398 0.0543 0 0.12907 0.01172 0.20507 0.01172-0.20449-2.0739-1.5831-9.3232-3.2226-17.443-0.076-0.35652-0.14846-0.71271-0.22266-1.0801-1.4025-6.942-2.9696-14.368-4.1387-19.684-0.20631-0.95552-0.40887-1.841-0.58984-2.6445-0.65512-2.9118-1.0977-4.7248-1.1719-4.7031zm-31.324 19.098 12.547 14.395c1.8568-1.6342 3.9317-3.0316 6.1758-4.1445-4.061-2.4721-18.723-10.25-18.723-10.25zm62.66 0.03516-12.764 14.168c1.8586 1.598 3.5033 3.4255 4.9004 5.4434 2.0269-4.9206 7.3475-18.156 7.8633-19.611zm49.727 35.758c0.0507 0.0199 0.083 0.0296 0.0957 0.0332 0.0199-0.004 0.0371-0.0078 0.0371-0.0078-0.0272-0.005-0.0713-0.01459-0.13281-0.02539zm-81.041 0.0332c0.78541 0.95371 6.8329 7.1878 9.1602 9.3359 0.0434 0 0.0999-0.0117 0.15235-0.0117 1.6631-0.15202 8.4045-0.97782 17.156-2.0781 0.36737-0.0489 0.74091-0.0939 1.1191-0.14453 6.0535-0.7637 12.953-1.6467 19.754-2.5371 0.91028-0.11763 1.8156-0.22793 2.7168-0.34375 14.608-1.902 28.091-3.706 30.666-4.1367 0.16287-0.0326 0.28517-0.05252 0.35937-0.07422l-81.084-0.0098zm-23.548 16.05c-1.9871 4.8301-6.979 17.274-7.6758 19.369l12.588-13.881c-1.8604-1.607-3.515-3.4488-4.9121-5.4883zm42.508 5.1758c-1.8477 1.6541-3.9069 3.0522-6.1328 4.1797 4.0592 2.5119 18.254 10.58 18.254 10.58l-12.121-14.76zm-49.953 14.266c-0.11944 0.0561-0.22087 0.10806-0.29688 0.14063-0.01267 0.0561-0.02272 0.0976-0.01367 0.0976 0 0 0.10786-0.0845 0.31055-0.23828z" transform="translate(-138.29 431.36)" fill="#c4ced4"/>
   <path d="m11.523 526.99c-0.06515-0.7655-0.1502-1.5401-0.24793-2.3019-0.0036-0.029-0.009-0.0525-0.01086-0.0778-0.09772-0.75827-0.21716-1.5002-0.34565-2.2404-0.009-0.0326-0.01991-0.067-0.02172-0.10677-0.13754-0.73293-0.28774-1.464-0.45062-2.1934-0.0072-0.0326-0.0181-0.0652-0.01991-0.0959-0.17011-0.72931-0.35651-1.4604-0.55739-2.1807-0.00181-0.0109-0.010858-0.0235-0.012668-0.0434-2.492-8.8965-7.3782-16.81-13.922-22.989-0.00724 0-0.00905-0.009-0.019907-0.0109-0.53748-0.50491-1.0786-1.0008-1.636-1.484-0.018097-0.0109-0.032575-0.029-0.050672-0.0308-0.55739-0.48682-1.1184-0.95553-1.6975-1.408-0.012668-0.009-0.023526-0.0217-0.039814-0.0308-8.2631-6.5077-18.609-10.475-29.866-10.742 0.18097 0.80351 0.38366 1.6885 0.58996 2.644 11.3 0.41623 21.602 4.7921 29.563 11.783-0.012668-0.0109-14.159 7.6352-18.649 10.259-2.1192-1.0641-4.3958-1.8586-6.7755-2.358 0.0742 0.36737 0.14659 0.72388 0.22259 1.0804 4.2094 0.96457 8.0568 2.8992 11.287 5.5522 0.35289 0.29136 0.70217 0.58996 1.0424 0.89942 0.14297 0.1303 0.28231 0.26784 0.42166 0.40175 0.32213 0.30042 0.63159 0.61349 0.93381 0.92838 3.1236 3.2484 5.4454 7.266 6.6742 11.725-8.6721-1.0876-15.386-1.902-17.138-2.0649-0.07601 0-0.15021-0.0109-0.2045-0.0109-2.3074 2.1354-8.3029 8.35-9.1191 9.3399-0.0018 0.005-0.01086 0.0163-0.01448 0.0181-0.0054 0.009-0.01629 0.0199-0.0181 0.0235h0.02172l-0.01086 54.881c0.05248 0.009 0.48138-1.7844 1.1184-4.6636 11.278-0.24793 21.644-4.2239 29.92-10.739 0.00905-0.0109 0.027146-0.0145 0.038004-0.0272 0.58092-0.45604 1.1419-0.93019 1.7066-1.408 0.010858-0.007 0.023526-0.0199 0.036194-0.029 0.5592-0.48501 1.1148-0.9881 1.6523-1.493 0.00181-0.002 0.00362-0.0109 0.010858-0.0109 7.1013-6.7032 12.248-15.446 14.505-25.287 0.0072-0.0127 0.0072-0.0326 0.009-0.0416 0.17011-0.74198 0.32213-1.4858 0.45967-2.2386 0.0036-0.0272 0.01267-0.0489 0.01267-0.0724 0.1303-0.75103 0.24793-1.5075 0.35289-2.2658 0.0018-0.0199 0.0036-0.0434 0.009-0.0561 0.09953-0.77999 0.18459-1.5527 0.24974-2.3291-0.90123 0.11583-1.8061 0.22622-2.7164 0.34385-2.2531 23.568-21.735 42.161-45.659 43.011 1.1636-5.3079 2.7327-12.764 4.1515-19.72 2.4666-0.51938 4.812-1.3428 6.9927-2.4503 2.2241-1.1274 4.2854-2.5264 6.1313-4.1786l12.121 14.758c0.17011-0.0652-5.3839-15.05-7.4361-20.12 1.7826-2.6404 3.129-5.5938 3.9452-8.7626-0.37823 0.0507-0.75284 0.0959-1.1202 0.14477-1.1727 4.2782-3.3534 8.1437-6.2743 11.314-0.34022 0.36556-0.68769 0.72207-1.0406 1.0732-0.31308 0.30403-0.6334 0.60444-0.95552 0.88494-0.18278 0.16107-0.35832 0.32032-0.54472 0.47234-3.2919 2.7815-7.2533 4.8012-11.597 5.7892 1.6577-8.1455 3.053-15.406 3.2539-17.456-0.05067 0-0.10677 0.0109-0.15021 0.0109-2.3273-2.1481-8.3771-8.3808-9.1607-9.3345l81.082 0.009h0.08506s-0.01086-0.002-0.03076-0.009c-0.01267-0.004-0.04524-0.0145-0.09591-0.0344-0.07601-0.0109-0.18459-0.0326-0.3167-0.0543-2.5426-0.47233-16.036-2.2857-30.675-4.1895v-0.007zm-22.464-2.872c-0.84875-3.2738-2.2639-6.3141-4.1334-9.0214-1.3971-2.0196-3.0421-3.8456-4.9007-5.4436l12.603-14.009 0.15021-0.16288c8.8712 7.7673 14.834 18.776 16.036 31.163-6.7991-0.88314-13.705-1.7645-19.755-2.5264m-77.71 11.354c0.06515 0.7836 0.15021 1.56 0.24793 2.3327 0 0.0127 0.0018 0.0326 0.01086 0.0471 0.09772 0.76913 0.21536 1.5202 0.34565 2.2857 0.0072 0.0127 0.009 0.0326 0.01086 0.0525 0.13754 0.76189 0.28955 1.5075 0.46148 2.2567 0 0.009 0 0.0127 0.009 0.0199 2.2477 9.8593 7.4035 18.615 14.516 25.32 0.54472 0.51576 1.0949 1.0189 1.6613 1.5039 0.009 0.009 0.02172 0.0127 0.03257 0.0217 0.56101 0.48319 1.1293 0.95915 1.712 1.4152 0.01086 0.0127 0.0181 0.0163 0.02896 0.0253 8.283 6.5168 18.66 10.494 29.942 10.741-0.17554-0.79447-0.36737-1.6848-0.58092-2.6422-11.379-0.39813-21.754-4.8229-29.748-11.879 0.01086 0.009 0.06696-0.0109 0.18459-0.0651 0.07601-0.0344 0.17916-0.0851 0.2986-0.14116 2.4721-1.2234 13.882-7.523 18.231-10.031 2.1554 1.0714 4.4591 1.8821 6.8769 2.396-0.07601-0.36737-0.14297-0.72207-0.21536-1.0858-4.1804-0.94648-8.0007-2.8467-11.217-5.4671-0.40718-0.33298-0.80351-0.66959-1.1908-1.0152-0.09591-0.0941-0.1864-0.17916-0.2805-0.26784-0.26965-0.26422-0.53748-0.52119-0.80351-0.79084-3.2466-3.2973-5.6535-7.4108-6.9113-11.991 8.7228 1.1075 15.459 1.9346 17.147 2.0794 0.05429 0.007 0.11763 0.0181 0.16106 0.0181 2.34-2.1499 8.4549-8.4586 9.1752-9.358l-80.888 0.0145c0 0.005 0.0489 0.0163 0.11763 0.029 1.3718 0.29137 15.37 2.1698 30.665 4.1696v0.007zm22.498 2.901c0.84332 3.243 2.2332 6.2634 4.0791 8.9508 1.3971 2.0395 3.0512 3.88 4.9115 5.4888l-12.588 13.882-0.25155 0.27689c-8.8277-7.7872-14.756-18.779-15.931-31.152 6.8009 0.89038 13.718 1.7826 19.78 2.5535m27.605-62.022c-0.05429-0.005-0.48319 1.8025-1.1274 4.7034h-0.01086c-10.464 0.23526-20.149 3.6755-28.101 9.3707-0.01086 0.0109-0.01267 0.0109-0.02172 0.0181-0.60082 0.4289-1.1908 0.86866-1.7717 1.3319-0.01267 0.009-0.03438 0.0217-0.05248 0.0416-0.57187 0.45242-1.1383 0.9139-1.6903 1.3898-0.01991 0.0181-0.03257 0.029-0.05067 0.0489-0.55739 0.47415-1.1094 0.97001-1.645 1.4822-0.0018 0-0.01086 0.002-0.01267 0.004-6.5511 6.1856-11.452 14.094-13.942 23.009-0.0072 0.0199-0.01086 0.0235-0.01086 0.0416-0.2045 0.71664-0.38728 1.4514-0.55739 2.1825-0.01086 0.029-0.01991 0.0633-0.02353 0.0959-0.17011 0.72026-0.31851 1.4604-0.45062 2.1916-0.009 0.0416-0.01086 0.076-0.02172 0.10858-0.12849 0.74017-0.24612 1.4894-0.34565 2.2404-0.0072 0.0253-0.009 0.0579-0.009 0.0796-0.10315 0.76188-0.19002 1.5346-0.25336 2.3074-0.0018 0-0.0018 0.002-0.0018 0.002 0.90304-0.11582 1.8133-0.23707 2.7272-0.34565 1.1944-12.407 7.1682-23.418 16.05-31.194-0.07601 0.26783 5.7259 14.543 7.8415 19.659-1.8622 2.7037-3.2683 5.7368-4.1153 8.9997 0.37461-0.0525 0.75284-0.0977 1.1184-0.1484 1.16-4.2202 3.3045-8.0441 6.1747-11.193 0.33299-0.36556 0.66778-0.72026 1.0207-1.0569 0.41804-0.41804 0.85056-0.81256 1.2921-1.1998 0.12849-0.10677 0.25336-0.2244 0.38366-0.33117 3.2792-2.7544 7.2099-4.7487 11.528-5.7295-1.6541 8.122-3.0512 15.375-3.2557 17.455 0.05429-0.009 0.11763-0.009 0.16287-0.0199 2.34 2.1626 8.4549 8.464 9.1734 9.358l-0.0018-54.901zm-5.8634 27.024c-2.3653 0.50491-4.6292 1.2813-6.7375 2.3237-2.244 1.113-4.318 2.5101-6.1765 4.1442l-12.543-14.393c7.979-6.9855 18.293-11.354 29.612-11.754-1.1636 5.3097-2.7363 12.731-4.1551 19.679" fill="#005c5c"/>
  </g>
 </g>
</svg>
