<?xml version="1.0" encoding="UTF-8" standalone="no"?>
<svg xmlns:rdf="http://www.w3.org/1999/02/22-rdf-syntax-ns#" xmlns="http://www.w3.org/2000/svg" xml:space="preserve" height="143.18" viewBox="0 0 150 143.18028" width="150" version="1.1" xmlns:cc="http://creativecommons.org/ns#" xmlns:xlink="http://www.w3.org/1999/xlink" xmlns:dc="http://purl.org/dc/elements/1.1/"><g transform="matrix(1.25 0 0 -1.25 -18.759 421.63)"><g><path d="m39.739 231.99c-3.8178-0.68795-7.7642-1.396-11.139 0.27425-2.4078 1.19-4.3431 4.467-4.405 7.4574-0.05423 2.71 0.30524 5.5268 1.2845 8.494 0.27735-0.29595 0.61668-0.46328 0.95445-0.58569 0.75303-0.27425 1.8407-0.26185 2.7471 0.0449 1.4038 0.47103 2.7688 0.93276 4.1045 1.3868-0.07747-0.0775-0.15184-0.14875-0.22777-0.23397-2.8463-3.198-4.0316-6.9786-3.3127-10.47-0.4106-0.24946-0.98079-0.56245-1.5897-0.85219 0 0-1.5711-0.74838-1.647-0.78866l-0.42609-0.25566v-0.49737c-0.0015-0.49892-0.0015-0.49892 1.8996-1.6408 0.0062-0.006 0.79021-0.51751 1.221-1.4162l0.50667-1.0598 1.1745 0.0294c1.0738 0.0263 1.9259 0.60893 2.4543 1.0738 1.8159-0.79486 3.7357-0.60893 5.4184 0.52681 1.4239-0.84754 2.9021-1.0149 3.6675-1.0381-0.90487-0.13171-1.8051-0.29285-2.6852-0.44934m66.933 19.748h-4.8048l-0.0403-0.15339c-0.62907 0.10071-1.317 0.0868-2.0313-0.0465-2.6635-0.50047-4.7025-2.1119-6.111-4.7971 0.15804 1.3991-0.0031 2.4884-0.66471 3.3328-0.76697 0.97924-1.8469 1.5262-3.1252 1.582-0.46638 0.0202-0.9529-0.031-1.4503-0.14409l0.03564 0.15184h-7.1537l0.0046 0.0139h-0.95445c1.2953 0.63527 2.1909 1.96 2.1909 3.4971 0 2.1475-1.7478 3.8953-3.8953 3.8953-1.6393 0-3.0415-1.018-3.6164-2.4543l1.08 4.2284-8.3809-3.3049-1.3712-6.001c-2.9083 0.41989-4.873-1.1078-6.111-2.6356 0.22002 0.40285 0.56709 1.0397 0.53765 0.99318l0.85064 1.3635-8.2616 0.003 0.23087 0.87853h-6.6548s-1.2457-5.0016-1.8144-6.7772c0.28974 1.2845 1.4642 6.3078 1.4642 6.3078h-5.7298c12.228 4.2346 20.857 7.4481 25.718 9.5832 2.2715 0.99784 13.692 5.1503 17.515 6.5278 2.885 1.0381 6.3635 2.242 10.336 3.5792 2.6294-4.0037 9.3632-14.188 13.4-19.638-0.251 0.0139-0.61822 0.0139-1.1915 0.0139m-27.118 25.694 0.50976-0.22002-3.7589-3.6195c-1.503 0-2.0158-1.4983-2.0158-1.4983l-2.6898-0.75147c-0.1224 0.1224-0.77472 0.17818-0.77472 0.17818l3.3685 2.9253c2.7611 0.85219 5.361 2.9858 5.361 2.9858m3.2507-1.2396 3.2492-1.0954-4.5089-1.1388s-0.36567 0.24482-0.85219 0.28355l2.1119 1.9507zm48.623-37.081c-0.87079 0.4354-1.8004 0.68176-2.7766 0.73909-0.0883 1.255-0.49582 2.4744-0.84599 3.4955-0.14875 0.44314-0.29285 0.86149-0.38426 1.2101-0.43849 1.6548-0.55625 2.3288-0.16424 3.4026 0.83669 2.287-2.0762 3.6009-3.2275 4.1215 0 0-0.35637 0.16114-0.35482 0.16114-0.33932 0.15494-0.53455 0.0806-1.0505-0.11931-0.41834-0.16269-0.90022-0.48807-1.5355-1.0707 0.52836 0.86769 0.86769 1.9585 0.95601 3.1144 0.34087 0.24791 0.65851 0.63837 0.91571 1.1543 0.86924 1.7307 0.90642 4.6111-1.5851 7.5024-1.0102 1.1745-8.1066 7.3211-14.349 12.67l-0.0232 0.0201c2.194 0.70809 5.5532 1.7896 5.5253 1.7818 0.47103 0.12705 1.2287 0.47722 1.9244-0.15185 0.61668-0.59808 1.8221-0.81655 2.8649-0.0821 1.8082 1.2721 0.80571 4.0688 0.43539 5.1116-0.65076 1.833-1.5696 2.5225-2.2265 2.7797-0.63527 0.24946-1.3108 0.2634-1.8919-0.0465-0.90487-0.48187-1.1249-1.2581-1.2287-1.8903-0.11621-0.6864-1.2132-0.84754-3.164-1.3387 0 0-6.6874-1.8252-7.163-1.96l-0.0356 0.0294-1.6192 1.3759c-0.31454 0.52216-0.93586 1.4534-1.6672 2.0484-0.1286 2.0917-1.7524 4.5817-3.0834 5.5981-0.06972 1.4565-1.2364 3.5637-2.4806 4.3322-5.5857 9.856-10.575 16.182-15.245 19.326l-0.15339 0.10382c-0.8367 0.56089-0.90797 0.63991-0.93896 1.0768-0.2882 3.8829-1.3279 7.6077-2.648 9.6034 0.52216 0.83825 1.3108 2.3304 1.8547 4.4004 0 0 0.59033 2.2327 0.59033 2.2312l-0.67555-0.44624c0.17044 0.56244 0.34242 1.2349 0.50821 2.0499l0.0155 0.10846c0.04958 0.66936-0.40285 0.92037-0.54385 0.98235-0.05733 0.0263-0.11311 0.0387-0.16889 0.0511 0.04958 0.74063-0.02479 1.6331-0.40905 2.6185l-0.51751 1.3325-0.956-1.0629c-1.9554-2.177-4.9303-3.3111-7.555-4.3136-0.60118-0.22932-1.1698-0.44779-1.709-0.66936-4.2811-1.7695-6.9291-3.6644-9.4252-9.0193-0.05888-0.0511-0.12396-0.10536-0.19523-0.16579-1.1342-0.95291-3.4971-2.9377-4.8342-6.8702l-0.22157-0.65231 0.57949-0.37341c1.3774-0.88008 2.868-1.5014 4.749-2.1599-7.0608-15.784 6.3806-25.149 17.628-30.885-0.65076-1.1977-1.1729-2.3195-1.3108-3.6396l-5.0403-5.3115c-0.48342-0.12705-1.3991-0.42764-1.9321-0.99474-0.18128-0.19213-0.35017-0.45398-0.50666-0.77471-0.13945-0.031-0.26186-0.0558-0.36877-0.0775-3.15-0.63217-8.1841-1.7834-21.543-5.4943-1.9321 1.7726-5.1472 2.9083-8.3112 2.9083-5.0109 0-8.2476-2.6929-11.565-6.7354-4.7893-5.8352-10.2-21.811-3.0307-30.267 1.2256-1.4456 5.8352-6.111 13.736-5.5067 2.1134 0.16114 3.697 0.51131 5.093 0.8181 2.758 0.60893 4.0177 0.88628 6.7648-0.9591l1.097-0.73908 1.0381 0.8212c1.5649 1.2364 4.2222 0.8212 6.362 0.32383l4.1463-0.96685-2.1739 3.6598c-2.9005 4.8823-7.0112 5.5826-11.156 5.2216 2.3334 0.65076 3.8829 2.7239 5.0124 5.1798-0.1503-1.6176 0.1286-3.3375 1.6579-4.4236 2.4636-1.7509 5.5516-0.98234 7.8355 0.43075 1.08-0.92192 2.5302-1.4611 3.8658-1.4022 1.1605 0.0217 2.1568 0.25101 3.0896 0.70499 0.61822-0.43694 1.3093-0.69725 2.0654-0.77162 1.2519-0.12086 2.5938 0.28355 3.9929 1.1977 0.72824-0.72823 1.6827-1.128 2.7688-1.1326 0.50666-0.002 1.035 0.0666 1.5696 0.19987l-0.05423-0.19987h7.5427l1.0133 3.7078c0.08987-0.73134 0.30989-1.4332 0.73443-2.0468 0.47103-0.67865 1.3821-1.5154 3.0601-1.6548 1.7973-0.14874 3.9511 0.52681 5.6895 1.7478 1.8888-1.8593 4.2718-2.163 7.1042-0.89248 0.55935-0.48187 1.5246-1.0505 2.9765-0.85064 0.99474 0.0651 1.9957 0.48962 3.0384 1.2767 0.85839-0.85064 1.9647-1.3062 3.2042-1.2876 2.0391 0.031 3.7527 1.2504 5.0992 2.5054 1.4828-1.5169 3.731-3.0632 7.1832-2.4806 0.59498 0.10226 1.083 0.23241 1.5154 0.34862 1.1419 0.30524 1.2876 0.34398 2.1986-0.42609l2.6945-2.2823 0.28045 3.4475c0.0527 0.17354 0.42764 1.2194 2.256 2.4249l2.6278 1.7323-2.8138 1.4053z" fill="#fff"/><path d="m81.687 255.17c0 1.6625-1.3527 3.0168-3.0152 3.0168s-3.0168-1.3542-3.0168-3.0168c0-1.6625 1.3542-3.0152 3.0168-3.0152 1.6625 0 3.0152 1.3527 3.0152 3.0152m49.347-16.85c-1.1838 0.59188-2.3396 0.70344-3.2538 0.64921 0.10846 1.3883-0.38581 2.8448-0.8088 4.0874-0.15495 0.45864-0.30214 0.89093-0.40286 1.2705-0.43384 1.6424-0.63836 2.5612-0.1379 3.9278 0.5547 1.52-1.7323 2.5519-2.7084 2.9951l-0.41525 0.18593c-0.002 0.002-0.36721-0.13945-0.36721-0.13945-1.2736-0.49272-3.8751-3.5885-8.5389-9.5073-0.54695-0.69569-1.1016-1.4007-1.5463-1.9554 0.2882 1.3124 1.2225 5.5594 1.6718 7.5984 1.7974-0.16424 3.1825 0.97459 3.5188 2.6883 1.4921-0.36877 3.1469 1.8252 3.1469 4.6158 0.78557-0.0527 3.0292 3.4289-0.48342 7.5086-1.0707 1.2426-9.6096 8.6009-15.454 13.598l-0.0201 0.0202 7.0639 2.2761c0.43695 0.11775 1.2396 0.30524 1.6331 0.2727 0.25566-0.0217 0.80106-0.39356 1.0676-0.6864 0.25721-0.25101 0.96685-0.56555 1.7989 0.0403 1.1264 0.81965 0.61048 2.7363 0.12396 4.1076-0.53765 1.5184-1.2086 2.1738-1.6935 2.3644-0.39666 0.15495-0.85529 0.19988-1.2969-0.0279-1.0118-0.52371-0.54385-1.6222-1.0986-2.0406 0 0-0.16114-0.48962-3.3096-1.2566l-7.2343-2.0561-0.42454-0.1193-0.0341 0.0294c-1.2876 1.0954-2.0871 1.7726-2.0871 1.7726-0.50821 0.86923-1.2256 1.8159-1.8655 2.1708 0.14565 2.1274-2.0143 5.0837-3.1175 5.5966 0.30214 0.93431-0.96375 3.5838-2.2095 4.1354-3.9774 7.0453-9.371 15.395-15.096 19.25-0.91417 0.61512-1.4084 0.89247-1.4782 1.8454-0.32073 4.3508-1.5541 8.1035-2.8386 9.6452 0.47258 0.66626 1.4441 2.2622 2.0731 4.6452 0 0-0.73133-0.48343-1.2907-0.66161 0.30059 0.34397 1.0397 1.1869 1.7013 4.4484 0.02944 0.39355-0.30524-0.34398-1.0986-0.80106 0.13015 0.57174 0.80416 2.0902 0.03564 4.0673-2.5628-2.8494-6.6657-4.0006-9.5833-5.2061-4.4298-1.8299-6.7462-3.7388-9.0472-8.7512-0.815-0.73443-3.4909-2.603-4.9117-6.7741 1.4162-0.90642 2.9563-1.5262 5.141-2.273 0 0 0.01704-0.70034 0.02944-0.77937-6.6393-14.507 4.3074-23.547 17.944-30.361-0.87853-1.5789-1.599-2.8355-1.678-4.4004l-5.4246-5.719s-1.2364-0.25411-1.7509-0.80261c-0.22622-0.24171-0.40905-0.64147-0.52216-0.93586-0.31918-0.0713-0.59653-0.1317-0.8212-0.17663-3.3034-0.66316-8.6211-1.9027-21.973-5.6136-0.04493 0.0465-0.08832 0.0992-0.1348 0.14565-1.7416 1.7385-4.8497 2.8649-7.9192 2.8649-4.6669 0-7.727-2.5643-10.886-6.4131-4.6313-5.6446-9.9024-21.046-3.04-29.14 1.1574-1.365 5.5144-5.7716 12.997-5.1999 2.053 0.15804 3.604 0.49892 4.9721 0.80106 2.8277 0.62442 4.3849 0.96684 7.445-1.0893l0.56554-0.37961 0.53456 0.423c1.8578 1.4689 4.7754 1.0335 7.1057 0.48962l2.1382-0.49737-1.1218 1.8857c-3.6427 6.1311-9.2749 5.1193-14.723 4.1401-3.9573-0.71119-8.0493-1.4456-11.684 0.35173-2.7208 1.3449-4.8249 4.8838-4.8947 8.229-0.06663 3.2956 0.67865 6.9554 1.8221 10.104 0.89867-1.1574 2.0422-1.7818 3.0756-1.5092 0.13945 0.0372 0.2665 0.0868 0.39046 0.14255 0.09916 0.0139 0.19988 0.0341 0.29594 0.0666 18.523 6.2396 31.093 10.801 37.358 13.551 2.2947 1.0071 13.742 5.1705 17.571 6.5495 3.3917 1.2225 7.239 2.5426 10.998 3.8039 2.2606-3.4522 11.176-16.991 15.05-21.884-0.76387-4.4996-2.0917-9.8575-4.3446-11.243-0.0945-0.0604-0.21072-0.1348-0.31144-0.19678 0.48963 2.6263 2.1057 9.5693 2.3598 10.612l0.28045 1.1574-5.313 0.002-0.0899-0.35017c-0.6895 0.2758-1.5417 0.34397-2.5023 0.16424-4.1122-0.77317-6.6083-4.5631-7.4156-11.264-0.0155-0.1193-0.02944-0.24326-0.04338-0.34087-0.80261-0.92192-1.4332-1.1001-1.6223-1.0288-0.06817 0.0248-0.08057 0.17509-0.07592 0.26186 0.02634 0.79176 0.45863 2.2854 0.87853 3.7279 1.0629 3.6722 1.6842 6.1807 0.65076 7.5024-0.60428 0.77162-1.4596 1.2008-2.4729 1.2442-0.88938 0.0387-1.8035-0.22467-2.634-0.63992l0.1503 0.64767h-5.5113l-0.15494-0.74528c-0.62597-3.0384-2.4528-9.4717-3.7062-10.941-0.24791-0.28975-0.73598-0.46948-1.0753-0.51751 0.34552 1.6625 1.9074 7.4218 2.916 11.03l0.33158 1.1869h-5.5888l-0.16424-0.72978c-0.01859-0.0806-1.8407-8.1702-3.2616-10.649-0.4106-0.71274-0.79176-0.90952-0.93586-0.86458-0.09606 0.0294-0.18748 0.18128-0.17354 0.37651 0.13945 1.895 3.1934 14.134 4.357 18.691l0.45244 1.7726-6.348-2.5039-1.4611-6.4023c-0.18903 0.0635-0.39976 0.1193-0.63837 0.15804-4.0843 0.68795-6.0738-3.0369-6.8222-4.4391-0.9591-1.7942-1.9259-4.7475-2.0158-7.0949-0.59188-0.69724-1.3139-1.2287-1.5572-1.1962-0.20452 0.0263-0.25721 0.0992-0.30369 0.19058-0.77317 1.52 1.6486 7.2854 3.6164 10.894l0.75148 1.3836-7.82-0.002 0.23087 0.87853h-4.8156l-0.16734-0.72358c-0.98234-4.2176-2.741-9.746-4.2873-11.918-0.18593-0.2603-0.34707-0.3982-0.45708-0.46483 0.09607 0.99939 1.3279 6.5727 2.4837 11.489l0.27115 1.1497h-5.5036l-0.23396-0.89402c-1.7834 0.65851-4.1199 0.52991-6.0645-1.6564-2.8355-3.1872-3.9015-6.9058-2.9734-10.28-0.41215-0.30989-1.3201-0.8305-2.2095-1.2519l-1.5696-0.74683 1.4906-0.89712c0.0046-0.005 0.99164-0.62443 1.5432-1.7788l0.26186-0.54695 0.60428 0.0155c1.0087 0.0248 1.7973 0.72049 2.3087 1.255 1.8469-1.0443 3.8705-0.84754 5.5594 0.53765 1.5262-1.1311 3.3204-1.2318 3.8953-1.2318 4.7211 0 6.5278 6.2504 7.8448 10.817 0.17664 0.60738 0.34398 1.1869 0.50667 1.7106h1.8082c-0.11156-0.27115-0.22777-0.5516-0.34707-0.8398-0.52681-1.2628-1.1218-2.696-1.582-4.0905-0.50976-1.5541-1.7075-5.1906 0.5423-6.7881 2.2172-1.5742 5.2278-0.73753 7.428 0.8336 1.0459-1.19 2.5783-1.6935 3.7481-1.6424 1.2272 0.0233 2.2482 0.30059 3.2011 0.87543 0.59188-0.55004 1.2798-0.86923 2.0561-0.94515 1.4503-0.141 2.9036 0.61977 4.0704 1.5107 0.58569-0.91882 1.4875-1.4363 2.6092-1.441 0.92811-0.005 1.9089 0.25876 2.8634 0.73908l-0.20143-0.73908h5.7221l1.8516 6.7788c1.0722 4.3167 2.1444 4.8172 2.3505 4.8761 0.09142 0.0248 0.16579 0.002 0.21692-0.0279-0.0046-0.282-0.24016-1.0025-0.45244-1.6502-0.19213-0.58569-0.43074-1.3139-0.67555-2.1863l-0.07127-0.24945c-0.47878-1.6935-1.2814-4.5274-0.07902-6.2597 0.36257-0.52371 1.0738-1.1683 2.4094-1.2783 1.833-0.15339 4.1122 0.6988 5.7205 2.0546 2.2932-2.8107 5.0481-2.1103 7.1785-1.0195 0.58878-0.65232 1.3821-1.2163 2.7394-1.0304 1.1931 0.079 2.2854 0.79951 3.2073 1.6238 0.73288-1.0691 1.8082-1.6502 3.0803-1.6316 2.0654 0.0294 3.7915 1.5092 5.1503 2.8866 1.6594-1.929 3.7233-3.4274 6.9988-2.8742 0.5547 0.0945 1.0242 0.21847 1.4363 0.32848 1.224 0.32848 1.7307 0.46483 2.9935-0.60273l1.3883-1.176 0.14874 1.8113c-0.002-0.009 0.22157 1.4224 2.6418 3.0183l1.3542 0.89092-1.4487 0.72514zm-54.143 34.686c-0.64766-0.12706-0.9622-0.21847-1.4022-0.62597-0.30989-0.2851-0.51906-0.68486-0.63217-0.98235-1.221-0.31763-2.4806-0.63991-3.7032-0.95135-0.2789 0.16424-0.81345 0.38116-1.6409 0.32228-0.07747 0.006-0.29594 0.0449-0.2789 0.27425 0.01549 0.19988 4.5662 4.3198 4.5662 4.3198 1.2721 0.2603 5.9328 2.9687 5.9328 2.9687l1.4255-0.58259-0.10536-0.23397-0.20298-0.36101-3.6908-3.9185c-0.07902-0.0883-0.15494-0.20762-0.26805-0.22931m4.2702 0.048c-0.32073 0.23706-0.66161 0.37496-0.97614 0.37031-1.1822-0.0201-0.78092 0.41061-0.51131 0.71584l3.1639 2.9548s2.4946-1.0366 5.4896-2.0871c-4.3384-1.19-6.6936-1.8268-7.1661-1.9538m-44.92-34.67c-0.01239 0-0.02944 0-0.07282 0.0542-0.06198 0.079-0.57639 0.8398 0.09452 3.5126 0.49427 1.9709 1.221 3.2926 2.0437 3.7202 0.15804 0.0821 0.38116 0.16734 0.69724 0.15494-0.423-3.6691-1.5897-7.4419-2.7626-7.4419m29.15 3.5699c-0.23706-0.9436-0.48032-1.9198-0.6988-2.9238-0.03099-0.14565-0.40905-0.44469-0.93276-0.49427-0.18903-0.0201-0.52991-0.005-0.60428 0.16889-0.47258 1.0908 0.17818 4.6049 1.7075 6.4193 0.44934 0.53455 0.89402 0.80725 1.3248 0.82275 0.01704-0.74373-0.44779-2.5969-0.79641-3.9929m33.11-3.6009c-0.01239 0-0.03099 0-0.07282 0.0573-0.06198 0.0759-0.57484 0.83825 0.09452 3.511 0.50666 2.0127 1.1776 3.2476 1.9988 3.6706 0.27735 0.14254 0.59343 0.18128 0.94205 0.13945-0.48187-3.6985-1.7168-7.3784-2.9625-7.3784m24.103-0.17817c-0.21692-0.21072-0.63217-0.35172-1.0753-0.36102-0.55005-0.0124-1.0598 0.16424-1.3929 0.48652-1.7013 1.5959-1.7013 1.5959-0.88163 2.6604 0.52991 0.6864 0.99319 1.3263 1.4441 1.9461 0.39511 0.5485 0.77162 1.0598 1.145 1.5417 0.13015-0.9529 0.40285-1.8376 0.66006-2.6666 0.5299-1.709 0.79486-2.727 0.10071-3.6071" fill="#14264b"/><path d="m63.333 317.22c-0.28974-0.46793-0.82585-0.76387-1.4146-0.72359-0.84134 0.0589-1.4751 0.78867-1.4177 1.63 0.06043 0.84444 0.79021 1.4782 1.6331 1.4177 0.55625-0.0387 1.0242-0.37186 1.2581-0.83824-1.0521 0.11311-1.2814-0.90332-1.2814-0.90332-0.68175 0.83514 0.19833 1.317 0.19833 1.317-0.58569 0.0775-1.1419-0.37032-1.19-1.0412-0.04648-0.67401 0.46018-1.2566 1.1326-1.3031 0.45398-0.0325 0.84444 0.11621 1.0815 0.44469" fill="#fff"/><path d="m73.621 5.4336c-2.795 2.9304-7.225 3.8865-11.014 5.4804-5.552 2.338-8.436 5.947-9.873 9.434 0.539 0.922 3.909 1.007 4.414 0.707 0.86-0.512 2.026-0.769 2.957-0.231 0.68 0.393 1.048 0.785 1.358 0.992 0.823 0.351 1.972 0.641 2.824 0.44-3.75 3.761-4.182 8.698-3.83 9.533-4.412 0-8.839 5.973-9.646 7.584-4.718 17.77 22.215 29.481 24.888 30.725-1.555 2.485-2.87 4.474-2.754 5.398 0.093 0.738 0.51 0.758 1.369 0.584 1.968-1.11 5.44-2.699 6.665-4.119 0.743-0.86-0.027-2.111-0.391-2.518-0.391-0.441-0.166-0.827 0.734-0.277 0.854 0.722 1.008 1.123 1.278 1.756 0.385 0.916-0.717 1.892-0.717 1.892 3.031 1.37 13.394 5.447 16.603 6.082l-3.478-5.632c-6.318-2.522-15.203-6.33-20.244-8.832-7.815-3.884-20.751-11.97-14.301-24.358 1.884-3.155 2.6-3.218 2.867-2.48 0.018 0.075-0.038 0.287-0.117 0.328-0.12 0.122-0.97 0.94-1.762 2.621-6.062 11.266 6.482 19.341 13.879 22.928 10.709 5.19 20.622 9.188 27.15 11.379 1 0.335 1.91 0.677 2.62 0.879 1.98 0.582-0.57-6.278-3.07-6.983-13.246-3.893-25.997-9.699-29.528-13.185-2.119-0.252-7.775-1.975-8.695-9.637-0.037-0.207-0.027-0.385 0.232-0.444 0.24-0.054 0.338 0.121 0.359 0.227 1.62 6.955 6.359 8.809 8.362 8.857 1.108 0.026 2.853-1.078 2.396-1.345-3.438-1.995-5.37-6.012-5.506-6.428-0.089-0.271 0.012-0.345 0.182-0.436 0.159-0.083 0.343-0.017 0.516 0.25 0.887 1.376 4.15 6.752 8.982 6.899 1.278 0.039 2.684-0.006 2.969-1.15 0 0-4.087-1.884-6.092-5.198-0.07-0.106-0.127-0.308 0.131-0.465 0.263-0.158 0.466 0.113 0.586 0.225 3.902 4.003 7.035 5.629 8.93 5.428 0.766-0.049 1.302-0.597 1.33-0.983 0.102-1.454-1.369-2.344-1.756-2.607-0.056-0.037-0.086-0.169-0.022-0.254 0.058-0.083 0.207-0.126 0.403-0.031 0.765 0.364 2.262 1.44 2.138 3.136-0.023 0.301-0.062 0.501-0.289 0.749 2.214 1.164 5.982 2.662 7.733 3.205-5.371-9.005-11.308-18.472-19.045-23.188-0.208 0.672 0.439 2.202-0.332 1.832-0.535-0.256-1.002-2.485-1.022-3.49-0.101-5.198-1.526-9.533-3.426-12.027-1.051 0.823-2.959 1.24-2.951 1.252 3.806-3.376 4.295-5.745 4.295-5.745-1.11 0.858-3.775 2.041-5.162 2.282 0 0 4.343-2.537 6.086-7.0629 0-0.0387-2.771 2.7189-6.824 3.6349-0.002-0.006 6.735-3.0755 6.611-7.6134zm9.563 47.242c-0.076 0.49-0.224 0.956-0.996 1.304 7.059 4.196 14.595 6.485 16.248 6.963 0.34-0.244-0.522-3.468-2.887-4.306-3.529-1.255-6.469-2.5-8.555-3.809-0.736 0.405-1.829 0.644-3.81-0.152zm-6.967 1.084c-0.082 0.594-1.639 1.472-2.34 1.595 5.076 4.316 22.955 10.973 28.063 12.17 0.82 0.192-0.37-3.485-2.62-4.992-1.644-1.108-11.975-3.497-18.521-8.209-1.104 0.18-2.479 0.222-4.582-0.564zm30.453 19.301c0.21 0.457 0.32 1.049 0.42 1.599 0.9 4.261-2.32 1.901-10.541-0.867 6.591 10.408 16.631 25.779 22.311 32.967 0.32-2.12 0.55-3.98 0.69-5.19l0.12-1.03 1.19-0.46-15.48-19.851h1.38s8.82 11.399 15.22 19.416l4.43-1.733c-6.49-6.866-17.29-18.021-17.29-18.021l1.41 0.037c-0.01-0.113 20.92 21.622 20.92 21.622 1.15 1.29 3.1-3.079-0.04-6.575-1.74-2.778-24.74-21.914-24.74-21.914zm-83.045 17.109c-5.01 0-8.553 2.533-12.703 7.592-5.9713 7.278-11.724 25.598-3.8107 34.928 2.6515 3.13 8.0067 6.64 15.264 6.09 7.935-0.61 10.089-3.59 16.26 0.55 2.905-2.29 7.334-1.42 9.873-0.83-7.257-12.22-21.143 0.46-32.522-5.16-3.943-1.95-6.6762-6.84-6.7692-11.31-0.0949-4.52 0.9942-9.55 2.6522-13.85-0.362-0.67-0.662-1.42-0.875-2.22-0.875-3.32 0.226-6.646 2.174-7.396 0.106-0.05 0.22-0.094 0.344-0.126 1.969-0.57 3.851-1.056 5.658-1.571 0.633-0.563 1.273-1.044 1.912-1.42 2.276-1.33 6.627-1.386 9.168 0.465-1.18 1.387-2.197 3.275-0.527 4.828 1.305 1.26 3.454 0.74 4.338-0.756 1.361-2.316 0.25-4.92-1.362-6.574-1.937-1.935-5.516-3.24-9.074-3.24zm103.68 8.691l-1.26 5.819c1.31 1.56 2.19 2.56 2.4 2.65 2.02 0.9 3.47-3.1 2.69-4.24-0.26-0.39-1.75-2.01-3.83-4.229zm-54.197 0.453l-5.234 2.066-2.111 9.25s-0.019-0.87-1.711-1.16c-3.721-0.62-5.785 2.11-7.301 4.95-1.133 2.12-2.393 5.95-2.393 8.75 0 0-1.834 2.41-3.256 2.23-4.882-0.64 3.264-15.58 3.264-15.58h-9.326l0.291-1.1h-3.576c-0.988 4.25-3.25 12.09-5.545 15.32-1.244 1.75-2.657 1.26-2.697 0.05-0.041-1.24 3.142-14.78 3.142-14.78h-4.5l-0.426 1.63c-1.262-0.81-4.554-2.12-7.476 1.17-3.821 4.29-4.457 8.85-3.311 12.28 0.159 0.65-3.541 2.41-3.541 2.41s1.521 0.91 2.383 2.72c1.418-0.04 2.613-1.99 2.766-1.89 2.184 1.65 4.858 1.63 7.076-0.75 1.352 1.42 3.372 1.94 4.892 1.94 6.063 0 7.888-10.67 9.588-15.66h4.825c-0.705 1.93-2.094 4.9-3.016 7.7-0.967 2.93-1.555 5.88 0.244 7.16 2.762 1.96 6.663 0.17 8.859-1.78 0.922 1.78 2.844 2.64 4.385 2.58 1.699-0.03 2.98-0.47 4.24-1.47 2.35 3.24 5.937 0.77 7.913-1.07 0.344 1.36 1.197 2.53 2.824 2.54 1.925 0.01 3.96-1.06 5.549-2.58l-0.698 2.58h4.729l2.08-7.61c2.291-9.23 5.123-6.78 5.348-6.41 0.524 0.81-0.342 2.36-1.293 5.76-0.661 2.37-2.422 7.91 1.795 8.26 2.415 0.2 5.58-1.29 7.21-3.19 2.405 3.87 5.295 3.76 9.105 1.57 0.83 1.07 1.45 1.83 2.99 1.62 1.77-0.08 3.52-1.82 4.48-2.82 0.54 1.54 1.66 2.85 3.51 2.82 2.57-0.04 4.85-2.44 6.53-4.2 2.26 2.93 4.55 4.86 8.48 4.2 2.75-0.47 3.82-1.65 6.48 0.6 0 0 0.19-2.25 3.83-4.65-2-1-4.02-0.74-5.15-0.39 1.27-2.33-0.43-5.58-1.04-7.86-0.54-2.06-0.9-3.52-0.14-5.61 0.34-0.93-2.39-2.11-2.84-2.31-2.33 0.9-12.31 14.52-13.35 15.39-0.48 0.41-1.62 1.07-0.93-1.93 0 0 5.01-22.722 4.98-22.746l-5.29 2.066c-0.6 5.02-2.17 19.18-6.98 22.14-0.44 0.27-1.9 1.35-2.33 0.5-0.24-0.46 3.11-14.64 3.14-14.79h-4.25l-0.33 1.29c-0.7-1.29-2.47-1.29-3.6-1.08-8.057 1.51-8.185 13.48-8.455 13.89-2.335 2.88-4.437 2.15-4.375 0.38 0.107-3.05 3.783-11.19 2.159-13.27-1.788-2.29-5.471-0.65-7.315 1.33l0.568-2.45h-4.464c-0.642 3.1-2.968 11.95-4.891 14.2-1.013 1.18-3.591 1.53-3.479 0.27 0.128-1.46 3.768-14.49 3.768-14.49h-4.512s-2.318 10.35-4.205 13.64c-1.615 2.82-3.686 1.58-3.566-0.06 0.223-2.99 5.48-23.566 5.48-23.566zm6.467 0.746c-1.437 0-2.601 1.17-2.601 2.6 0 1.44 1.164 2.6 2.601 2.6 1.435 0 2.602-1.16 2.602-2.6 0-1.43-1.167-2.6-2.602-2.6zm46.13 6.24l-1.03 4.74c1.69-0.05 3.39-1.52 2.55-2.78l-1.52-1.96zm9.12 6.58c-1.2 4.83 3.07 8.7 0.54 11.81-1.01 1.05-3.41 1.2-4.77-0.1-2.76-2.59-2.71-2.96-1.22-4.88 2.14-2.78 3.53-5.11 5.45-6.83zm-70.951 0.13c0.238-0.01 0.482 0.01 0.73 0.07 1.383 0.34-0.303 5.1-1.365 10-0.329 1.53-3.428 2.26-4.135 0.62-1.109-2.56 1.202-10.5 4.77-10.69zm-33.809 0.16c0.37 0.02 0.765 0.11 1.186 0.27 0 0-0.967 11.37-4.719 11.37-1.176 0-2.192-1.58-1.103-5.91 0.684-2.74 2.048-5.86 4.636-5.73zm77.98 0.1c0.4 0.03 0.83 0.13 1.3 0.31 0 0-1.14 11.27-4.99 11.27-1.17 0-2.19-1.58-1.1-5.91 0.68-2.74 1.98-5.9 4.79-5.67z" transform="matrix(.8 0 0 -.8 15.008 337.3)" fill="#b72126"/><path d="m51.596 22.049c-3.647 2.237-5.287 6.385-5.287 6.385 3.209-0.686 3.712-1.606 6.154-1.395 0.871 0.076 1.283 0.473 1.976 0.984-1.061-0.24-1.88-0.293-2.773-0.314-1.241-0.029-3.696 0.843-4.943 0.967 0 0 4.09 1.761 5.347 1.947 0 0 2.64 1.038 3.403-2.305 0.414-1.814-0.955-4.439-2.715-3.705-0.018 0.008 0.315-1.911-1.162-2.564zm73.034 45.025c-0.09-0.005-0.18 0.002-0.26 0.018-0.85 0.159-0.88 1.127-0.88 1.127s0.14 0.861-0.83 1.584c-0.48 0.366-1.94 1.008-4.29 1.474l-9.04 2.571 2.75 2.31 9.28-2.992s3.43-0.857 3.43-2.473c0-2.488 1.3 2.247 0.77 3.186 0 0 0.44 0.421 1.2-0.129 0.75-0.55 0.61-2.061-0.14-4.189-0.67-1.865-1.37-2.453-1.99-2.487zm-31.519 11.293l-9.463 2.586c-0.067 0.023-0.143 0.047-0.224 0.074 1.065 1.308 1.613 3.412 0.183 4.807 0.868-0.312 2.008-0.727 2.008-0.727 3.798-1.367 8.38-2.952 13.619-4.714 0 0 0.024-0.007 0.057-0.016-0.114-0.174-0.18-0.275-0.18-0.275-1.845-0.411-3.964-1.055-6-1.735zm-11.756 3.278c-0.36 0.089-0.663 0.148-0.841 0.146-0.57 0.147-7.811 2.025-9.418 2.443 1.679 1.47 1.96 4.476-0.022 6.194 4.064-1.515 8.676-3.195 11.203-4.112l0.51-0.185c0.581-1.062 0.55-3.175-0.523-4.051-0.24-0.196-0.581-0.335-0.909-0.435zm-13.074 3.347c-0.058 0.003-0.121 0.004-0.193 0.004-0.726 0.184-1.317 0.33-1.317 0.33-2.684 0.668-4.557 1.109-5.564 1.311-5.475 1.1-13.784 3.22-26.91 6.867 1.394 1.882 2.245 4.562 0.769 7.076-0.637 1.08-1.768 1.83-3.025 2-1.164 0.16-2.304-0.2-3.113-0.98-0.928-0.86-2.078-2.632-0.399-5.321-0.672-0.288-1.42-0.459-2.185-0.545l-12.717 3.627c-0.064 0.02-0.128 0.034-0.191 0.051-1.631 0.588-2.367 3.498-1.637 6.268 0.751 2.85 2.671 5.03 4.412 4.57 1.737-0.46 2.412-3.32 1.66-6.16-0.288-1.1-0.524-1.84-1.082-2.63 0 0 1.192 0.99 1.754 3.42 0.48 2.08 0.405 3.75-0.178 4.88 22.364-7.55 37.584-13.085 45.233-16.442 0.898-0.395 2.934-1.189 6.05-2.357 0 0 0.313-0.116 0.553-0.205 0.713-1.238 0.853-4.21-0.623-5.252-0.345-0.246-0.865-0.409-1.297-0.512z" transform="matrix(.8 0 0 -.8 15.008 337.3)" fill="#fee60e"/></g></g></svg>
