<svg xmlns="http://www.w3.org/2000/svg" height="127.03" width="250" viewBox="0 0 250.00001 127.02646">
 <g transform="matrix(.93233 0 0 .93233 .98775 -.40209)">
  <g fill="#8fbce6">
   <path d="m143.8 41.617c-0.8-1.4-1.4-2.3-1.5-2.6-1.2-0.2-5-1-7.7-1.5v2.3c-0.1 0 6.1 1.2 9.2 1.8zm15.7 63.4h-40.7v2.9h61.5c2.1-0.9 4.3-1.8 6.5-2.9h-27.3zm10.3-66.6c2.2 4.2 7.1 13.6 10 19.1 0.5-0.8 1-1.7 1.5-2.6-2.8-5.5-6-11.9-7.6-15 2-0.5 6.3-1.5 6.3-1.5v-8.1h-2.9v6.6c-0.1 0-4.9 1-7.3 1.5zm16-0.9v2.3s1.8 0.3 3.7 0.7c0.4-0.8 0.8-1.5 1.2-2.1-1.3-0.2-3.3-0.6-4.9-0.9z"/>
   <path d="m195.8 105.02 2.9 3.4-1.9 1.9c-3.4 3.5-36.7 26.5-73.3 22-16.1-2-30.4-9-42.6-20.7 12.8 13.4 27.9 21.3 45.1 23.4 36.9 4.6 69.6-18.6 73.3-22.3l1.9-1.9-2.5-2.9h4.8v-9.5s-1.2-0.2-2.9-0.4v7.1h-4.8v-0.1zm10.5-62.7c-5 8.4-17.7 29.6-18.3 30.7v20.6c0.7 0.1 1.7 0.3 2.9 0.4v-19.5c0.5-0.8 8.2-13.8 14-23.4 0-3.2 0.5-6.1 1.4-8.8zm32.6 41.2c-2.5-2-5.7-3.4-9.1-4.9l-5.2-2.4c-4.8-2.4-8.6-4.8-11.5-7.3 3.2 3.7 7.9 7 14.4 10.2l5.2 2.4c2.9 1.3 5.7 2.5 8 4.1-0.5-0.8-1.1-1.5-1.8-2.1zm-16.3 8.8c-1.9-2.6-3.2-6.1-3.9-10.6l-0.4-2.5h-2.4c1 6.2 3.2 10.6 6.7 13.1zm27.9-37.5c0 0.2 0.1 0.3 0.1 0.5l0.5 2.4h10.9l-1-24.4-1.9-0.7-0.9-0.3 0.9 22.5h-8.6zm-14.9-17.4c-4.5 0-9.2 2.1-9.2 6.1 0 2.5 0.9 4.1 3.3 5.8-0.5-0.9-0.8-1.9-0.8-3.2 0-4 4.8-6.1 9.2-6.1 5.7 0 9.8 2.4 12.3 13.9l-0.3-1.6c-2-10-6.7-14.9-14.5-14.9z"/>
   <path d="m259.9 68.017c2.5 3.8 3.8 8.3 3.8 13.9 0 15.3-11.7 24.9-30.7 24.9-8.7 0-16.4-1.6-23.5-4.9v1.5l1.6 0.8c7.5 3.7 15.3 5.5 24.2 5.5 18.9 0 30.7-9.5 30.7-24.9 0-7.1-2-12.6-6.1-16.8zm-104.6 26.6c-3.4-8.8-16.8-42.8-22.6-57.5l-1.1-2.6v-0.1l-1.6-4h-2.7c4.9 12.4 24 61.1 24.9 63.3 0.6 0.1 1.9 0.5 3.1 0.9zm-49.9-6.3h17.7c-0.4-1.1-0.7-2.1-1-2.9h-19.1c-0.7 1.8-1.7 4.7-2.6 7.1 1.5 1.6 3.1 3.3 4.9 5-0.8-0.8-1.6-1.7-2.3-2.5 0.8-2.4 1.9-5.3 2.4-6.7zm1.7-14.5h3.9c0.3-0.7 0.5-1.3 0.5-1.3h-0.4c1-2.8 2.1-5.6 3.5-9.5-0.5-1.6-1.1-3.3-1.7-5.1-2.5 6.9-5.8 15.9-5.8 15.9zm-15.4-28.8-4.6 0.5c-2.3 3.8-5.4 7.2-9.3 9.7l2.3 3.2c5.3-3.3 9.2-8 11.6-13.4zm-46-28.8c0.6 0 1.1-0.1 1.7-0.1 5.1 0 9.1 1.1 12.1 3.4-3-4.2-8-6.2-15-6.2-0.5 0-1.1 0-1.7 0.1v11.2l2.9 1.8v-10.2zm3 47.1-0.6-1.1-0.1-0.1c-1.4-0.5-4.3-1.5-5.2-1.8v30.9c0.7 0.1 1.7 0.3 2.9 0.5v-28.6c0.6 0.2 2.2 0.7 3.6 1.2l-0.4-0.7-0.2-0.3zm-45.8 41.8v2.9h57v-11.4s-1.2-0.2-2.9-0.5v8.9h-54.1v0.1zm86.5-64.3 3.6 0.6c0.9-2.9 1.3-6 1.3-9.3 0-9.4-3.3-15.7-8.3-19.8 3.3 4 5.4 9.5 5.4 16.9 0.1 4.1-0.7 8-2 11.6zm-45.5 8.1 1.8-0.8v-18.9l-2.9-3v24.2h2.9v-1.9l-1.8 0.4zm44.1 27.8c0-0.1-6.4-9.4-6.4-9.4s-2.8-4.1-4.8-7c0.1-0.1 0.5-0.2 0.5-0.2 0.4-0.2 0.8-0.4 1.2-0.7l-3.3-2.6c-0.3 0.1-0.5 0.3-0.8 0.4 0 0-0.3 0.2-0.5 0.2 2 2.9 4.8 7 4.8 7l6.4 9.4c0.1 0.1 0.5 0.7 0.5 0.7l3 3.9 0.2-0.6c-0.1-0.1-0.2-0.3-0.3-0.4 0.1 0-0.4-0.7-0.5-0.7zm-74-61.4c-2.3-0.4-7.7-1.5-11.1-2.1v3.3s6.6 1.3 11.1 2.1v-3.3z"/>
  </g>
  <g fill="#fff">
   <path d="m263.6 81.817c0-5.5-1.3-10.1-3.8-13.9-0.9-1.4-2-2.7-3.3-3.8-4.8-4.5-10.4-6.9-15.4-9.1l-3-1.3-0.5-0.2c-3.7-1.7-6.3-3-8-4.2-2.4-1.6-3.3-3.3-3.3-5.8 0-4 4.8-6.1 9.2-6.1 7.8 0 12.5 4.9 14.5 14.9l0.3 1.6 0.2 0.8h8.6l-0.8-22.5-0.1-1.9-1.9-0.7c-7.9-2.8-14.2-4-20.4-4-4.8 0-9.1 0.6-12.9 1.8h-40.1v9.5s1.3 0.2 2.9 0.6c1.6 0.3 3.6 0.7 4.9 1-0.3 0.6-0.7 1.3-1.2 2.1-2.3 4-5.6 9.8-8.3 14.4-0.5 0.9-1 1.8-1.5 2.6-2.9-5.5-7.8-14.9-10-19.1l7.2-1.5v-9.4h-45.4v9.5l1.1 0.2c0.5 0.1 1.1 0.2 1.8 0.3 2.7 0.5 6.5 1.3 7.7 1.5 0.2 0.3 0.7 1.2 1.5 2.6 4.7 7.9 18 30.3 18.6 31.4v20.7c-1.4 0.3-4 0.8-6.2 1.2l-0.9-0.3c-1.3-0.4-2.5-0.7-3.1-0.9-0.9-2.3-20-50.9-24.9-63.3-0.7-1.8-1.1-2.9-1.1-2.9h-16.6l-6.4 15.7 2.7 0.5-3 0.3-13.8 33.7-0.2 0.6-3-3.9s-0.4-0.6-0.5-0.7-6.4-9.4-6.4-9.4-2.8-4.1-4.8-7c0.1 0 0.5-0.2 0.5-0.2 0.3-0.1 0.5-0.3 0.8-0.4l-2.6-2c-0.9 0.4-1.8 0.8-2.6 1.1l-0.5 0.3c5 7.3 9.3 13.8 13.2 19.4 2.1 2.8 4.4 5.8 6.7 8.8l22.1-53.9h12.6l25.8 65.7 6.1 1.8 9.3-1.8v-24l-21.3-35.8-9.5-1.9v-4h39.5v4l-8.7 1.9 14.3 27.4 15.7-27.4-9.5-1.9v-4h37.6c3.6-1.1 7.7-1.8 12.4-1.8 6.5 0 12.7 1.4 19.4 3.8l0.8 19.3h-3.1c-2.3-11.6-8.3-17.3-17.4-17.3-6.7 0-12.2 3.6-12.2 9.1 0 6.8 5.3 9.1 13.5 12.9 5.4 2.5 12.2 4.9 17.7 9.9 4.2 3.8 6.1 8.9 6.1 15.5 0 13.2-9.7 21.9-27.7 21.9-8.6 0-16.3-1.6-23.4-5.2l-0.5-19.2h3.9c1.9 12.4 8.5 18.7 19.2 18.7 7.6 0 12.1-4 12.1-9.6 0-2.9-1.3-5.5-3.5-7.2-4.1-3.3-9.5-5-14.8-7.6-12.1-6-18.1-12.2-18.1-22.4 0-6.7 2.4-12.2 6.9-16l-8.3 1.2-21.4 35.8v24l12.7 2v4h-78.8v-4l9.9-2-4.7-13.6h-23.3l-4 10.7c0.2 0.2 0.3 0.4 0.5 0.6 19 20.8 44.6 37.4 95 11.9l2.3 2.7c-6.2 6.2-83.2 56.7-129.7-21.9l-2.1-3.3-0.3 1.9-0.3-3.2c-4-6.7-7.4-13.8-10.9-19.9 0 0-0.2-0.5-0.8-1.5-0.2-0.4-0.4-0.8-0.6-1.1l-7-2.3v-3.8h3.4c3.9 0 7.1-0.6 9.8-1.7 0 0 1.2-0.4 2.6-1.3 0.7-0.5 1.3-1 2-1.7l2.1 17.3 3.2-19.2 6.3 4.6-4.1-6.6 16.4-1.7-16.4-3.6 2.4-6.2-4.8 3.2c0.1-1.1 0.1-2.2 0.1-3.1v-0.2-0.8-0.4c-0.4-14.3-7.6-21.8-21.5-21.8-1.5 0-3 0.1-4.6 0.3v12l3 1.9v-11.2c0.6 0 1.1-0.1 1.7-0.1 7 0 12 2.1 15 6.2 2.1 2.9 3.3 6.8 3.5 11.7l1.4 2.6c-5.1 4.7-5.9 10.4-5.9 13.8l-0.8 0.1c-2.6 1.9-6.4 2.9-11.3 2.9h-3.7v-24.2l-3-3.1v70.5l14.2 2.5v5.8h-51v-5.8l13.9-2.5v-80.9l-13.9-2.6v-5.7h48.4c25.2 0 37.1 7.1 37.1 24.8 0 3.9-0.7 7.6-2.1 11.1l3 0.5c1.4-3.6 2.1-7.5 2.1-11.5 0-7.5-2.1-12.9-5.4-16.9-7.8-9.6-22.6-11-34.7-11h-51.4v11.1s1.2 0.2 2.9 0.5c3.4 0.6 8.8 1.7 11.1 2.1v75.9c-3.3 0.6-13.9 2.5-13.9 2.5v11.3h57v-11.3s-6.8-1.2-11.3-2c-1.2-0.2-2.2-0.4-2.9-0.5v-30.9c0.9 0.3 3.9 1.3 5.2 1.8l0.1 0.1c0 0.1 0.6 1.1 0.6 1.1l0.2 0.3 0.4 0.7 4 7.4c2.8 5.4 5.8 10.9 9.2 16.2 5.5 9.3 11.7 17.2 18.4 23.7 12.3 11.8 26.6 18.7 42.6 20.7 36.6 4.6 69.8-18.5 73.3-22l1.9-1.9-2.9-3.4h4.9v-9.4s-5.8-0.9-9.8-1.5c-1.1-0.2-2.2-0.3-2.9-0.4v-20.6c0.6-1.1 13.2-22.4 18.2-30.7-1 2.7-1.5 5.6-1.5 8.9v0.1c0 7.2 2.5 12.8 8.2 17.7 3 2.6 6.7 5 11.5 7.3l5.2 2.4c3.4 1.5 6.6 2.9 9.1 4.9 0.8 0.6 1.3 1.3 1.8 2.1 0.5 0.9 0.7 1.8 0.7 2.8 0 4.1-3.5 6.6-9.2 6.6-3.8 0-7-0.9-9.5-2.8-3.5-2.5-5.7-6.9-6.7-13.1 0-0.1 0-0.2-0.1-0.4l-0.4-2.5h-9.5l0.7 24 1.6 0.8 1.2 0.6c7.1 3.3 14.8 4.9 23.5 4.9 19 0.1 30.7-9.4 30.7-24.8zm-129.8 32.4c-12.1-2.9-21.4-9.7-28.6-16.6-1.8-1.7-3.4-3.4-4.9-5 0.9-2.4 1.9-5.2 2.6-7.1h19.1c0.3 0.8 0.6 1.8 1 2.9 0.6 1.7 1.3 3.7 1.9 5.5-2.9 0.6-8.9 1.8-8.9 1.8v9.4h70.8c-2.2 1-4.4 2-6.5 2.9-17.8 7.3-33.1 9.3-46.5 6.2z"/>
   <path d="m113.2 48.917-8.8 23.7-1.6 4.2 19.5-0.1-9.1-27.8zm1.5 14.1c1.4 4.3 2.6 8 3.5 10.8h-11.1s3.4-9 5.9-15.9c0.6 1.8 1.1 3.5 1.7 5.1zm-27.6-17.6-3.7 0.4c-1.9 2.7-4.3 5-7.3 7l1.7 2.4c3.9-2.6 7-5.9 9.3-9.8z"/>
  </g>
  <g fill="#092c5c">
   <path d="m67.9 50.917-5 32.3 2.1 3.3c46.6 78.6 123.5 28.1 129.7 21.9l-2.3-2.7c-50.5 25.6-76.1 9-95-11.9-0.2-0.2-0.3-0.4-0.5-0.6l4-10.7h23.3l4.7 13.6-9.9 2v4h78.7v-4l-12.7-2v-24l21.4-35.8 8.3-1.2c-4.5 3.9-6.9 9.3-6.9 16 0 10.2 5.9 16.4 18.1 22.4 5.4 2.7 10.7 4.3 14.8 7.6 2.3 1.8 3.5 4.3 3.5 7.2 0 5.6-4.5 9.6-12.1 9.6-10.8 0-17.3-6.3-19.2-18.7h-3.9l0.5 19.2c7.1 3.5 14.8 5.2 23.4 5.2 18 0 27.7-8.7 27.7-21.9 0-6.6-1.9-11.7-6.1-15.5-5.5-5.1-12.3-7.4-17.7-9.9-8.3-3.8-13.5-6.1-13.5-12.9 0-5.5 5.5-9.1 12.2-9.1 9.1 0 15.2 5.8 17.4 17.3h3.1l-0.7-19.1c-6.8-2.4-13-3.8-19.4-3.8-4.7 0-8.8 0.6-12.4 1.8h-37.6v4l9.5 1.9-15.7 27.4-14.3-27.4 8.7-1.9v-4h-39.5v4l9.5 1.9 21.3 35.8v24l-9.3 1.8-6.1-1.8-25.8-65.7h-12.6l-22.2 53.8c-2.3-3-4.6-5.9-6.7-8.8-3.9-5.6-8.2-12.1-13.2-19.4l0.5-0.3c0.8-0.3 1.7-0.7 2.6-1.1l-4.7-3.8zm54.4 25.8-19.5 0.1 1.6-4.2 8.8-23.7 9.1 27.8z"/>
   <path d="m83.4 45.817-11.5 1.1 4.2 5.8c2.9-1.9 5.4-4.2 7.3-6.9z"/>
   <path d="m78.6 20.317-6.3 17.7 14.1 2.4c1.4-3.4 2.1-7.2 2.1-11.1 0-17.7-11.9-24.8-37.1-24.8h-48.4v5.7l13.9 2.6v80.9l-13.9 2.5v5.8h51v-5.8l-14.2-2.5v-70.5l-1.4-1.5 1.4 0.9v-12c1.6-0.1 3.2-0.3 4.6-0.3 13.9 0 21.1 7.5 21.5 21.8v1.4l12.7-13.2z"/>
   <path d="m58.9 50.517c-1.4 1-2.6 1.4-2.6 1.4-2.7 1.1-6 1.7-9.8 1.7h-3.4v3.8l7 2.3c0.2 0.3 0.4 0.7 0.6 1.1 0.6 0.9 0.8 1.5 0.8 1.5 3.4 6 6.8 13.1 10.8 19.8l-3.4-31.6z"/>
  </g>
  <g fill="#f5d130">
   <path d="m89.4 40.817-3-0.5-14.1-2.3 6.3-17.7-12.5 13.1c0 0.9 0 2-0.1 3.1l4.8-3.2-2.5 6.3 16.4 3.6-16.4 1.7 4.1 6.5-6.3-4.6-3.2 19.2-2.1-17.3c-0.6 0.7-1.3 1.3-2 1.7l3.5 31.7 0.3 2.9 0.3-1.9 5-32.3 4.8 3.8 2.6 2 3.3 2.6 5.3 4.2-3.7-5.2-2.3-3.2-1.7-2.4-4.3-5.7 11.4-1.1 3.7-0.4 4.6-0.5 11.1-1.1 3-0.3-2.7-0.5-10.2-1.7-3.4-0.5zm-51-19.1 1.4 1.5 3 3.1 2.9 3 12.9 13.3-12.9 5.5-1.8 0.8 1.8-0.2 12.1-1 0.8-0.1c0-3.4 0.8-9 5.9-13.8l-1.4-2.6-3.8-6.9 2.6 12.4-16.2-10.3-2.9-1.8-3-1.9-1.4-1z"/>
  </g>
 </g>
</svg>
