<?xml version="1.0" encoding="UTF-8" standalone="no"?>
<svg xmlns:rdf="http://www.w3.org/1999/02/22-rdf-syntax-ns#" xmlns="http://www.w3.org/2000/svg" version="1.1" xmlns:cc="http://creativecommons.org/ns#" xmlns:dc="http://purl.org/dc/elements/1.1/" viewBox="0 0 200 200" height="200" width="200">
 <g transform="translate(138.29 -431.36)">
  <g>
   <ellipse rx="99" ry="99.001" cy="531.63" cx="-37.831" fill="#003278"/>
   <path d="m100.18 34.182a64.545 65.273 0 0 0 -64.543 65.273 64.545 65.273 0 0 0 64.543 65.275 64.545 65.273 0 0 0 64.47 -63.64h29.53v-2.908h-29.5a64.545 65.273 0 0 0 -64.5 -64zm-64.543 65.273v-1.273h-29.819l0.0004 2.908h29.819v-1.635z" transform="translate(-138.29 431.36)" fill="#fff"/>
   <g>
    <path d="m-38.192 436.77c-51.556 0-93.566 41.507-94.457 92.852v0.004l30.056 0.0263c0.42803-15.985 6.6874-31.845 18.889-44.05 5.2717-5.2737 11.249-9.3785 17.601-12.449-0.09692 0.0104-0.1719 0.0142-0.21228 0.0142l2.2865-1.0391c0.03634 0.008 0.08698-0.002 0.12534 0 1.0378-0.45226 2.0817-0.88399 3.1397-1.2797-0.02827-0.008-0.0728-0.0202-0.08896-0.0202 0.66225-0.24834 1.319-0.48549 1.9833-0.70758 0.03432 0.006 0.0708 0.0222 0.10109 0.0263 1.0297-0.34729 2.0534-0.71404 3.0992-1.0129-0.01211 0-0.03237-0.004-0.04448-0.004 0.77128-0.22007 1.5334-0.42682 2.3067-0.61863 0.04643 0.006 0.0789 0.0304 0.12332 0.0404 1.2276-0.30083 2.458-0.60679 3.6976-0.83293-0.01014-0.004-0.02024-0.0102-0.03033-0.0102 0.57139-0.10499 1.1369-0.21846 1.7124-0.30729 0.03634 0.0202 0.06273 0.0425 0.10109 0.0586 0.78339-0.1151 1.5698-0.24678 2.3593-0.33965-0.02221-0.008-0.0627-0.0223-0.07682-0.0283 0.39977-0.0444 0.81121-0.0971 1.211-0.13344 18.642-1.8434 37.931 4.3652 52.208 18.646 6.7921 6.788 11.675 14.739 14.803 23.189 0.06262 0.0767 0.13756 0.15981 0.19611 0.2325 0.38564 1.0681 0.75653 2.1424 1.0897 3.2367-0.04037-0.0949-0.08695-0.17197-0.13141-0.26282 0.212 0.68445 0.35808 1.3837 0.54585 2.0722l0.14758 0.1678c0.1898 0.68244 0.36412 1.3736 0.52563 2.0621-0.04441-0.0707-0.08498-0.10925-0.13141-0.17588 1.058 4.3995 1.7024 8.879 1.8357 13.379h29.472c0.01211 0.58552 0.03644 1.1713 0.04451 1.7609 0 0.004 0.0062 0.004 0.0062 0.006 0-52.106-42.388-94.501-94.493-94.501zm-34.478 58.042v23.941h7.4378l0.08491-0.97646-0.14556 0.48115c0-10.212 5.2576-14.762 17.053-14.762h1.8741v19.362c0 3.3193-2.404 5.2071-4.1303 6.1964 1.7424 0.89444 4.1303 2.6466 4.1303 5.9619v20.736c0 2.6894-1.8478 4.3001-4.9612 4.3001h-3.8169v9.3199h30.827v-9.3199h-3.6127c-3.4344 0-5.1694-1.3823-5.1694-4.108v-20.928c0-3.285 2.7904-5.0877 4.7307-5.9943-1.9161-1.0721-4.7307-3.1072-4.7307-6.1641v-19.321l0.9138 0.006h0.78442c11.432 0 17.987 5.167 17.987 14.186 0 0-0.0062 0.51215-0.0083 1.025h5.5515v-23.941h-64.799z" fill="#c0111f"/>
    <path d="m-41.194 443.43-5.6284 0.0162 1.7952 2.052c0 0.002 3.1282 4.7621 3.6653 5.5758-0.15345 0.2544-0.76824 1.2474-0.76824 1.2474s0.89798 0.86562 1.1706 1.1301c-0.3069 0.41189-4.3547 5.7618-4.3547 5.7618-0.0081 0-1.5526 1.4596-1.5526 1.4596l-0.58629 0.55799 5.3878-0.0607s-0.32151-1.3993-0.37199-1.6315c0.16152-0.20595 3.0836-3.9875 3.5319-4.569 0.42198 0.62187 3.1397 4.6721 3.1498 4.6883-0.0021 0.002-0.0021 0.008-0.0021 0.0283 0 0.20191 0.1213 1.2818 0.1213 1.2818l0.03437 0.27899 6.0226-0.006-2.1955-2.1571c0-0.008-3.3587-4.9866-3.918-5.8224 0.15749-0.25037 0.76622-1.213 0.76622-1.213s-0.77866-0.87169-1.0169-1.1342c0.28268-0.38766 4.0636-5.4504 4.0636-5.4504l1.7488-2.0176-5.4262-0.0162 0.18802 0.4387s0.43278 1.0051 0.54383 1.2656c-0.1918 0.25642-2.8511 3.7833-3.2974 4.3769-0.41794-0.63802-2.9112-4.4639-2.9233-4.48 0.004 0 0.004-0.008 0.004-0.0303 0-0.20594-0.11726-1.2878-0.11726-1.2878l-0.03436-0.28303zm-30.604 6.2348-0.28101 0.15365-10.765 5.6607 1.9388 1.2029c0 0.0868 2.0726 4.0907 2.3916 4.7146-0.08682 0.22613-0.80463 2.0965-0.80463 2.0965s1.9937 0.57424 2.2218 0.64087c0.12114 0.24027 2.426 4.9147 2.4361 4.9329-0.03029 0.002-0.04246 1.5446-0.04246 1.5446l-0.0021 0.52766 10.907-5.7314-1.6497-3.3095s-1.8134 2.4321-1.8134 2.4402c-0.01818-0.0263-3.4944 1.814-4.2253 2.1996-0.25238-0.49266-2.4041-4.699-2.6464-5.1755 0.46236-0.24026 2.9759-1.5587 2.984-1.5607 0 0.0182 1.5547-0.18802 1.5547-0.18802l0.43668-0.0566-1.6072-3.2407s-1.4516 1.5425-1.4556 1.5446c-0.0081-0.0121-2.2874 1.1771-2.9516 1.5183-0.24229-0.46034-1.9108-3.6821-2.1531-4.1444 0.49265-0.26045 4.4093-2.2926 4.4153-2.2966 0.004 0.0303 2.3856-0.0162 2.3856-0.0162l0.50542-0.0101-1.7791-3.447zm70.716 1.589-0.15769 0.14758s-5.499 5.0805-5.5172 5.0946c-0.00828-0.0424-2.0864 0.27697-2.0864 0.27697l-0.26888 0.0425s0.010351 1.8704 0.014181 2.1147c-0.20191 0.17969-4.3385 3.8998-4.3385 3.8998 0.04244-0.0344-1.4859 0.91784-1.4859 0.91784l-0.48723 0.3073 4.3385 2.0378s0.05051-1.751 0.06066-1.9671c0.14942-0.15143 1.7491-1.7471 2.0096-2.0096 0.35939 0.16758 4.897 2.311 5.2665 2.4846-0.042439 0.36545-0.28912 2.5557-0.31134 2.7737-0.16355 0.1373-1.5001 1.2737-1.5001 1.2737l5.7214 2.6787s-0.44882-2.3856-0.44882-2.3896c0.014181 0 0.7723-5.4809 0.78441-5.5657 0.048443 0.0444 1.5992-1.3485 1.5992-1.3485l0.22036-0.19408s-1.5749-2.0055-1.583-2.0096c0.072664-0.006 0.40433-7.276 0.40433-7.276l0.014181-0.21026-2.2481-1.0796zm-1.8134 5.0845c-0.14133 1.2195-0.5783 5.0207-0.653 5.689-0.59158-0.27661-2.9868-1.4115-3.6046-1.7002 0.5189-0.48659 3.3652-3.1488 4.2577-3.9888zm-97.376 13.088-0.19003 0.23451-9.1602 10.929 2.9031 2.3937s0.70355-2.792 0.70759-2.8c0.0162 0.0141 1.345-1.5655 1.7993-2.1046 0.40987 0.34122 3.3016 2.7193 3.4732 2.8566 0.0263 0.22613 0.2426 2.1207 0.2426 2.1207s1.9067-0.0849 2.1228-0.095c0.17768 0.14941 4.2112 3.5379 4.2112 3.5379 0 0.0646 0.69344 1.5607 0.69344 1.5607l0.21025 0.4569 3.9099-4.6782s-2.2481-0.34571-2.2582-0.34772c0-0.0606-4.1405-3.5461-4.2031-3.6046 0.004 0 0.0061-0.0122 0.0061-0.0364 0-0.27459-0.27697-1.8175-0.27697-1.8175l-0.05054-0.2891s-1.8623 0.19816-2.0864 0.21632c-0.18575-0.15344-3.0634-2.572-3.4652-2.9112 0.31295-0.38968 1.7103-2.0722 1.7144-2.0823 0.01413 0.0223 2.234-0.96838 2.234-0.96838l0.47712-0.2143-3.0143-2.3573zm125.84 3.0911c-0.52889 0.01-1.0666 0.11832-1.6012 0.34773-0.44217 0.18575-1.0518 0.5223-1.4253 1.0634-0.45227 0.66426-0.75219 1.5559-0.84305 2.5109l-0.04047 0.66715c0-0.0323-0.0324 0.3033-0.0384 0.34166-0.05248-0.0303-0.96636 0.84507-0.96636 0.84507l-0.17993 0.16982s1.1301 2.05 1.1301 2.0621v0.0647c0 0.38968 0.09906 2.329 0.09906 2.329-0.02422 0.87628-0.42319 1.7653-0.93199 2.0884-0.65417 0.42198-1.4951 0.54154-2.3128 0.33357-0.77531-0.1918-1.8854-0.76833-2.7717-2.3937-0.99539-2.1503-0.37918-3.7413 0.30729-4.6923l0.23452-0.31942-1.6659-0.7278-0.15364 0.18599c-0.953 1.169-1.2476 3.8446 0.10113 6.5098 1.1872 2.3401 2.7538 3.8702 4.5306 4.4214 1.375 0.43207 2.8159 0.27803 4.1707-0.45488 0.64812-0.3392 1.2154-0.97705 1.4637-1.4192 0.49467-0.83791 0.62672-1.8482 0.62875-2.1652l0.02629-1.5385c0-0.0283-0.05258-0.6371-0.06873-0.84708 0.16153-0.16556 1.0816-1.1038 1.0816-1.1038s-1.0392-1.7731-1.0654-1.8236c0.0062-0.004 0.01035-0.0506 0.01035-0.11321 0-0.0869-0.0041-0.29928-0.0041-0.35582 0-1.3689 0.36682-2.2849 1.0472-2.5776 0.82176-0.36343 2.6959-0.31716 3.5036 1.4253 0.68446 1.484 0.82039 2.4578 0.5034 3.6026l-0.07277 0.27293 1.581 0.61863 0.10917-0.31942c0.53504-1.6839-0.33229-3.875-0.89358-5.034-1.0663-2.1736-3.201-4.0162-5.4929-3.9746zm-140.3 27.236-2.3148 7.1345h-7.5004l6.0691 4.4073-2.3168 7.1365 6.063-4.4133 6.0772 4.4133-2.3229-7.1365 6.065-4.4073h-7.5004l-2.3189-7.1345zm152.45 0-2.3168 7.1325h-7.5065l6.0691 4.4133-2.3169 7.1325 6.0711-4.4113 6.0691 4.4113-2.3229-7.1325 6.0772-4.4133h-7.5085l-2.3148-7.1325zm-144.55 46.389-0.34975 0.3356s-1.2555 1.209-1.2636 1.217c-0.0222-0.0141-1.5264 0.52968-1.5264 0.52968s-3.0224 1.0856-3.0487 1.0957c0-0.0727-1.8215-0.83899-1.8215-0.83899l-0.28303-0.11523s-0.9018 1.9896-1.0028 2.2158c-0.22613 0.0848-5.0542 1.8498-5.0643 1.8519-0.008-0.0182-1.6497-0.1112-1.6497-0.1112l-0.47712-0.0303 2.0439 5.7072s1.5992-1.678 1.6052-1.6841c0.0222 0.0202 4.0893-1.4946 5.2139-1.9125 0.0424 0.12518 0.2973 0.83325 0.37604 1.0715-0.23622 0.26045-5.8022 6.4026-5.8022 6.4026l1.6234 4.6256s1.4395-2.1996 1.4799-2.2542c0.0949-0.10299 4.7089-4.9354 5.0481-5.2928 1.4315 1.6496 3.433 2.401 5.127 1.7952 1.1266-0.41997 1.903-1.2105 2.3532-2.3674 0.61379-1.595 0.49629-3.8562-0.30932-6.0549l-2.2724-6.1863zm139.03 2.8202-0.41444 0.2143c-1.1912 0.62388-2.2389 2.1437-2.9516 4.2758-0.95501 2.8711-0.38636 6.5416 2.5534 7.7006 0.46035 0.17566 1.1512 0.39203 1.8175 0.25877 0.81166-0.16151 1.6608-0.60122 2.4018-1.211 0.0083-0.008 0.48925-0.44679 0.48925-0.44679-0.01408 0.0142 0.19209-0.15164 0.2143-0.16982 0.01615 0.0545 1.3404 0.0768 1.3404 0.0768l0.24261 0.002s0.65098-2.3088 0.65098-2.3168c0.02629 0.008 1.583-1.7467 1.583-1.7467 0.59562-0.56332 1.4341-0.89342 1.9711-0.76621 0.90251 0.25843 1.5289 0.80152 1.9004 1.5243 0.4664 0.91058 0.52112 2.0536 0.15769 3.3095-0.76118 2.116-2.2435 2.7841-3.356 2.9638l-0.39018 0.0647-0.03644 0.39826 0.62672 1.5931 0.32752-0.0303c1.3144-0.13123 3.61-1.6941 4.5831-4.7772 0.75311-2.3441 0.7673-4.4518 0.04451-6.0772-0.64812-1.4557-1.8822-2.5196-3.4833-2.9921-0.70667-0.21806-1.5594-0.17168-2.0945-0.0364h-0.0041c-0.89444 0.24632-1.6885 0.82322-2.0176 1.1281-0.01211 0.006-1.0897 1.0695-1.0897 1.0695-0.02826 0.0263-0.37822 0.44901-0.5034 0.60246-0.22411 0.004-1.583 0.0222-1.583 0.0222s-0.5095 2.0319-0.53373 2.1207c-0.02629 0.002-0.19408 0.18397-0.19408 0.18397-1.2215 1.2902-2.0343 1.2958-2.4058 1.1827-0.78945-0.30689-2.134-1.5206-1.4859-3.3095 0.529-1.484 1.091-2.2428 2.0662-2.7899l0.24664-0.13747 0.01418-0.3356-0.6873-1.5486zm-139.37 2.8425c0.14538 0.38362 0.4569 1.2716 0.4569 1.2716 0.14941 0.40382 0.22037 0.78285 0.22037 1.1301 0 0.28671-0.0486 0.55224-0.14354 0.79856-0.23623 0.62389-0.76113 1.1002-1.5122 1.3808-0.81973 0.29276-1.689 0.24414-2.3633-0.12736-0.51889-0.2746-0.90194-0.72048-1.116-1.2959 0 0-0.36616-0.98519-0.54181-1.4718 0.51283-0.17566 4.5049-1.5165 4.9996-1.6861zm128.08 23.11c-0.28696-0.0141-0.58516 0.002-0.89156 0.0485-1.6899 0.24634-3.6026 1.4579-5.1108 3.2428l-4.2657 5.0198s2.1915 0.65098 2.2016 0.65098v0.002c0 0.0465 3.5724 3.164 3.6107 3.1983-0.01035 0-0.01615 0.0385-0.01615 0.10714 0 0.41189 0.16982 1.8923 0.16982 1.8923l0.03644 0.30325s2.1857-0.18805 2.4179-0.21228c0.19988 0.16759 4.106 3.5238 4.106 3.5238 0 0.0565 0.70355 1.496 0.70355 1.496l0.20823 0.42454 3.9564-4.5831-2.2299-0.57416c0-0.0263-3.3228-2.8496-4.2435-3.6228 0.15749-0.18172 0.60467-0.68961 0.75206-0.85921 0.34929 0.0828 8.4041 1.9388 8.4041 1.9388l3.2205-3.6936s-2.6302-0.18398-2.6666-0.18599c-0.04844-0.0104-6.5651-1.6782-7.088-1.8114 0.24633-0.69051 0.43062-1.3877 0.43062-2.0439 0-1.3306-0.47628-2.5302-1.3869-3.3196-0.68598-0.58753-1.458-0.89997-2.3189-0.94209zm-112.34 1.7002-0.29112 0.0991s-6.6898 2.335-6.714 2.3411c-0.0021-0.0424-1.9994-0.53171-1.9994-0.53171l-0.25473-0.0626s-0.79465 1.6884-0.8956 1.8943c-0.2544 0.0848-5.6 1.8822-5.6 1.8822s0.0364 0.0141 0.0404 0.0182c-0.25239 0.0121-0.71497 0.0791-1.7225 0.23249-0.004 0-0.79856 0.13141-0.79856 0.13141l3.4207 3.9261s0.79867-1.6884 0.88751-1.8842c0.19181-0.0767 2.1495-0.85736 2.4664-0.98254 0.25036 0.28469 3.3947 3.8517 3.639 4.1343-0.17364 0.29882-1.1909 2.0826-1.2817 2.2501-0.21402 0.0646-2.0136 0.61055-2.0136 0.61055l4.4578 5.0966s0.57214-2.6039 0.57618-2.614c0.0081 0.0465 1.1544-1.8721 1.1544-1.8721s1.8114-3.0083 1.8256-3.0305c0.0202 0.0546 1.7811-0.63683 1.7811-0.63683l0.23856-0.0889s-0.35986-2.428-0.3639-2.4361c0.05452 0.008 3.1073-6.2793 3.1073-6.2793l0.09098-0.18802-1.7508-2.0096zm110.18 2.0803c0.49697 0.0446 0.98565 0.26687 1.4415 0.65907 0.66426 0.57138 1.0452 1.3555 1.0614 2.1268v0.0465c0 0.56937-0.20267 1.1085-0.58831 1.5587 0 0.002-0.6696 0.80717-1.0028 1.209-0.4139-0.37756-3.5324-3.2068-3.916-3.5561 0.25642-0.30487 0.8774-1.023 0.8774-1.023 0.50073-0.58553 1.054-0.93008 1.6275-1.0068 0.16657-0.0247 0.3337-0.0291 0.49935-0.0142zm-114.19 2.2623c-0.58552 1.0156-2.1798 3.7873-2.4988 4.3446-0.41592-0.47044-1.8767-2.1335-2.3108-2.6322 0.6461-0.22612 3.7031-1.3166 4.8096-1.7124zm33.62 9.7425c-0.61177 0.1272-1.1673 0.16775-1.7488 0.13343 1.2215 0.52899 2.46 0.99323 3.7037 1.4435-0.65215-0.37756-1.2523-0.80966-1.955-1.5769zm-12.557 0.746 0.03437 0.53978s0.13747 2.0338 0.13747 2.046c-0.02827-0.0404-1.1948 2.3431-1.1948 2.3431s-0.734 1.4963-0.83293 1.7043c-0.21806 0.0807-2.0965 0.79857-2.0965 0.79857s0.60449 2.2906 0.61257 2.3108c-0.07269-0.0121-1.5951 3.0669-1.5951 3.0669s-0.88551 1.7892-0.8956 1.8054c-0.02221-0.0263-1.3889 0.97849-1.3889 0.97849l-0.41647 0.3073 4.9814 2.4705s-0.29719-2.515-0.30325-2.521c0.0424 0 3.1593-6.2722 4.29-8.5396 0.28872 1.6718 2.4725 14.289 2.4725 14.289l2.0459 1.0331s3.3216-6.7888 3.3337-6.8232c0.0323 0.0606 1.7164-0.72175 1.7164-0.72175l0.23654-0.11119s-0.51553-2.0904-0.51957-2.1147c0.07268 0 1.3323-2.5878 1.3323-2.5878s0.83092-1.7043 0.83698-1.7144c0.03432 0.006 1.3363-1.021 1.3363-1.021l0.38816-0.30729-4.8177-2.4402s0.21834 2.4685 0.21834 2.4725c-0.03634-0.0263-2.2865 4.5568-2.2865 4.5568s-0.64954 1.3355-1.0917 2.236c-0.29276-1.6173-2.1652-11.916-2.1652-11.916l-4.3688-2.141zm72.552 1.2069-0.42456 0.186-11.241 4.8824 1.9752 1.4475c0 0.0828 1.8258 4.341 1.9853 4.7186-0.098956 0.2221-0.97041 2.0844-0.97041 2.0844s1.9856 0.73196 2.2137 0.81473c0.092848 0.2322 2.0075 4.9208 2.0116 4.9369-0.026291 0.004-0.16173 1.7103-0.16173 1.7103l-0.042439 0.52362 11.503-5.0117-1.4819-3.4753s-2.0965 2.4199-2.1066 2.43c-0.012111-0.0283-2.6727 1.1362-2.6727 1.1362s-1.0376 0.45511-1.4415 0.63481c-0.12517-0.30286-1.9856-4.7395-2.1955-5.2503 0.46841-0.20392 2.8667-1.2352 2.8728-1.2373 0.00414 0.0104 1.7427-0.0889 1.7427-0.0889l0.44477-0.0202-1.5304-3.6875-1.6719 1.5506c-0.00414-0.0121-2.7798 1.1888-2.7798 1.1888s-0.038402 0.0161-0.050513 0.0202c-0.20796-0.48054-1.6277-3.7731-1.8316-4.2556 0.43612-0.18575 4.1082-1.763 4.2455-1.8276 0.1696 0.0141 3.1174 0.17589 3.1174 0.17589l-1.5099-3.59zm-33.572 8.9742c-4.3834-0.0424-8.3755 2.6474-9.7101 6.5381-0.004 0.0182-0.21431 0.80668-0.22441 0.82485-0.01211-0.0323-1.2656 1.2696-1.2656 1.2696l-0.18195 0.1961 1.3889 1.8256c0.74907 4.3894 4.9756 7.7168 9.791 7.7592 3.3839 0.0344 4.3703-0.45563 5.5252-1.031l0.67119-0.3356s0.02836-6.1601 0.02836-6.1884c0.04441 0 0.88347-1.492 0.88347-1.492l0.26282-0.46296-6.3946-0.0465s1.0857 2.0884 1.0958 2.1086c-0.03437 0-0.04244 1.5688-0.04244 1.5688l-0.0083 3.0649c-0.35131 0.10299-0.75974 0.43263-1.9994 0.42051-3.0447-0.0222-4.8364-2.753-5.2624-5.4424 0.02625-0.0202 1.3687-1.3565 1.3687-1.3565l0.20217-0.2042s-1.2395-1.468-1.4091-1.6719c0.01413-0.0626 0.09299-0.53373 0.09299-0.53373 0.62187-2.1523 2.3186-4.4658 5.1998-4.3971 2.0736 0.0444 3.6198 0.55104 4.3527 1.4253-0.0041-0.004 0.25474 0.3174 0.25474 0.3174l0.53776 0.66109 0.10113-3.2974-0.21026-0.1395c-1.486-1.0095-2.7666-1.3586-5.0481-1.3808z" fill="#fff"/>
    <path d="m-44.091 466.93c-0.0747 0.008-0.14364 0.0181-0.21834 0.0263-0.39977 0.0363-0.81121 0.089-1.211 0.13343 0.01616 0.006 0.05462 0.0202 0.07682 0.0283 0.4987 0.19182 1.9694 0.77679 2.1794 1.1321l0.75004-0.11321s-0.92072-0.74459-1.5769-1.207zm-3.8129 0.47105c-0.57745 0.0888-1.141 0.20028-1.7103 0.30527 0.01014 0 0.02024 0.006 0.03033 0.0102 1.0499 0.28266 2.0271 0.89829 3.0851 1.4152l1.0209-0.091s-0.95198-0.81372-2.3249-1.583c-0.03836-0.0161-0.06676-0.0385-0.10109-0.0566zm-5.503 1.1079c-0.77532 0.1918-1.5355 0.40057-2.3067 0.61863 0.01211 0 0.03439 0.004 0.04448 0.004 0.5088 0.0848 1.4965 0.29168 1.868 0.71567 1.1509-0.20594 1.9478 0.37248 2.6787 0.74802l1.7225-0.55191s-2.235-1.1018-3.0548-1.12c-0.3493-0.16759-0.57045-0.30133-0.82889-0.37401-0.0424-0.0104-0.07891-0.0344-0.12332-0.0404zm-5.4626 1.6092c-0.66427 0.22412-1.321 0.45925-1.9833 0.70759 0.01616 0 0.06069 0.0141 0.08896 0.0202 0.31901 0.0747 1.3916 0.34227 1.9408 0.81473 1.2034-0.20392 2.3887 0.3909 3.2509 0.94008l1.7386-0.61256c-0.19181-0.31901-2.4357-1.2939-3.6916-1.3181-0.41794-0.3291-0.85365-0.44084-1.2433-0.52563-0.03029-0.004-0.06676-0.0202-0.10109-0.0263zm-4.0494 1.9792c-0.33289-0.0172-0.68877 0.0404-0.98456 0.0283-0.03836-0.002-0.08901 0.008-0.12534 0l-2.2865 1.0391c0.0424 0 0.11738-0.006 0.21228-0.0162 0.636-0.0667 2.305-0.28645 2.517 0.19611 1.2942-0.12721 2.6879 0.66179 3.5298 1.1968l1.8478-0.47712c-0.99741-0.89847-2.8176-1.6051-3.8634-1.5486-0.20392-0.30892-0.51419-0.40133-0.84708-0.41849zm-5.2665 2.6626-2.2238 1.2049c0.28469 0.0181 2.1635 0.0553 2.4098 0.6065 1.2841-0.10903 2.702 0.33829 3.5218 0.85113l1.6153-1.2292c-1.268-0.68243-3.2502-1.0633-4.2819-1.0129-0.52092-0.17969-0.44554-0.3458-1.0412-0.4205zm-5.5879 3.4631-1.5425 1.306c0.73493 0.23018 0.98312 0.84792 1.4334 1.4819 1.5062-0.28266 3.7207-0.8788 5.8811-0.39422l1.6234-1.4394c-2.439-0.43005-5.0256-0.30886-6.34 0.0364-0.31497-0.4886-1.0553-0.99062-1.0553-0.99062zm-4.6054 4.7894-1.2817 1.1786c0.74099 0.22613 0.97505 1.0662 1.4374 1.6841 1.2458-0.61782 3.9964-1.0589 6.7706-0.68131l1.4334-1.8478c-4.2077-0.29882-5.9414 0.23333-7.2497 0.87134-0.45025-0.76118-1.1099-1.2049-1.1099-1.2049zm-3.9443 4.8925-1.0129 1.5992c0.92674 0.50879 0.83958 1.1107 1.2858 1.7407 1.2579-0.62994 3.8185-1.8291 6.6048-1.4435l1.4253-1.8418c-4.3591 0.0949-6.7589 0.47439-7.0759 1.4859-0.43813-0.7632-1.2272-1.5405-1.2272-1.5405zm-3.4591 4.7691-0.76015 1.8094c0.67436 0.50678 1.0883 1.7496 1.5547 2.3815 1.2478-0.6461 2.8602-1.8736 5.6344-1.4698l1.3141-2.145c-3.5354 0-5.8127 0.72104-6.1317 1.7407-0.44015-1.056-1.6113-2.3168-1.6113-2.3168zm79.65 0.50542v27.313h-8.9196l5.1613 4.8844h8.4324v-27.828l-4.6741-4.3688zm-82.448 4.567-0.75206 2.0136c0.93684 0.5088 1.0883 1.7496 1.5425 2.3633 1.2478-0.62187 3.1271-1.7786 5.9296-1.4051l1.1524-2.1248c-3.4001 0-5.7541 0.73318-6.0569 1.7508-0.55928-1.3972-1.8155-2.5978-1.8155-2.5978zm-2.7616 6.2207-0.62066 2.0864c0.92674 0.52293 1.3612 1.7617 1.8114 2.3997 1.2538-0.63802 2.7895-1.6734 5.5758-1.2898l0.89358-2.0136c-4.236 0.26046-5.3376 0.61792-5.6506 1.6234-0.63398-1.2498-2.0095-2.8061-2.0095-2.8061zm43.102 1.2716c-10.877 0-15.316 3.7705-15.326 13.123l-0.01213 2.1308h-10.747l4.9005 4.5932h10.22l0.01014-1.7164c0-9.5764 0.93511-15.613 11.093-16.624v-1.5062h-0.13747zm16.879 0.0505v17.568c0 3.2971 5.3009 5.4121 5.3595 5.4343l2.1814 0.85315c-1.3608-1.058-2.6342-2.5052-2.6342-4.3264v-17.781l0.84102 0.0505c3.2628 0.28065 5.6123 1.1439 7.2841 2.4058-2.7075-2.7055-7.0755-4.1869-13.032-4.2051zm53.18 2.5655-0.25878 0.88145c0.82983 0.90251 1.6303 1.8638 2.2946 3.263 0.04441 0.0909 0.09098 0.16792 0.13141 0.26281-0.33314-1.0943-0.70404-2.1706-1.0877-3.2387-0.05859-0.0707-0.13554-0.15577-0.20015-0.23048-0.22614-0.26449-0.49379-0.55644-0.87943-0.93805zm-115.71 2.0156-0.41647 2.0884c0.94088 0.51688 1.3592 1.7556 1.8215 2.3916 1.2417-0.636 3.3273-1.7786 6.1075-1.4071l0.69748-2.0763c-4.0866 0.24632-5.8754 0.64624-6.1985 1.6679-0.45227-0.75916-2.0116-2.6646-2.0116-2.6646zm114.64 0.52361-0.3174 0.94211c1.1791 1.0136 1.9721 1.8542 2.7171 3.6471l0.44477-0.92188c-0.75916-1.5466-1.1566-1.9592-2.8445-3.6673zm-1.2676 2.7515-0.58224 0.93805c1.589 1.4174 2.2895 2.2003 3.0285 4.2718l0.37199-0.79048-0.04451 0.1213c0.89241 0.73898 1.9032 1.9188 2.5109 5.1755l0.46097-1.8478c-0.17969-2.3461-2.3617-4.95-2.6747-4.1424l-0.13343 0.36794c-0.74907-1.5062-1.2415-2.5433-2.9375-4.0939zm4.4376 0.38209-0.4387 0.99467c0.48255 0.34526 0.96499 0.85614 1.4617 1.6032 0.04648 0.0667 0.08695 0.10119 0.13141 0.17184-0.1595-0.68648-0.33584-1.3776-0.52563-2.0601l-0.14758-0.1678-0.48116-0.54181zm-6.1884 2.5008-0.79047 1.0513c1.1953 0.73897 2.4371 2.5254 3.1963 4.3304l0.38816-0.63885c0.65821 0.56937 1.8367 1.4311 2.608 5.8912l0.59639-1.5526c-0.65619-4.242-2.6344-5.8394-2.7939-4.8904l-0.27697 0.34166 0.21228-0.34166c-0.76119-1.5264-1.6839-3.1834-3.1397-4.1909zm-113.49 0.0283-0.43668 2.2279c0.92472 0.85809 1.6159 2.4511 2.0682 3.0952 1.2518-0.63801 3.212-2.383 5.9761-1.9873l0.43466-1.864c-4.0442 0.30689-4.6896 0.75565-5.6748 1.961-0.44217-0.76725-2.3674-3.4328-2.3674-3.4328zm111.1 3.1356-0.99467 1.0533c1.1953 0.73292 3.0032 2.6972 3.7583 4.5063l0.71366-1.0715c-0.75311-1.5345-2.0175-3.4766-3.4773-4.4881zm-3.1114 3.3075-1.1402 0.92391c0.83185 0.54918 3.7168 2.9783 4.4659 4.7894l0.87135-1.2029c-0.75512-1.5365-2.6807-3.4847-4.197-4.5104zm-109.79 0.46499-0.32347 2.1571c1.6435 1.4133 2.3235 2.7684 2.802 3.358 0.53909-1.0762 2.5833-2.084 5.3797-1.8518l0.34773-2.0318c-3.3173 0.19382-4.8101 0.73915-5.2483 1.6922-0.48457-0.75917-2.9577-3.3236-2.9577-3.3236zm116.89 0.10715c-0.05289 0.008-0.1032 0.032-0.14758 0.0728l-0.50744 0.87942c1.4234 1.8232 1.9693 3.8751 2.1329 6.625l1.0088-1.5466c-0.03033-2.6898-1.6933-6.1465-2.4867-6.0307zm-1.8963 2.7576-1.0108 1.3161c0.66024 2.2048 1.069 5.9567 0.70759 8.1292l1.308-1.7204c0.22007-2.4632-0.55049-5.5301-1.0048-7.7248zm-8.8368 0.1314-1.2049 1.0695c1.2034 0.71677 3.6865 3.0187 4.4295 4.8237l0.99062-1.0493c-0.75714-1.5284-2.7514-3.8384-4.2152-4.8439zm-32.274 3.3014-2.4058 0.67726c-0.05248 0.0141-5.2725 1.5269-5.2725 5.0724v20.93c0 1.4194 0.57989 2.3654 3.4288 2.3654h1.4738c0.0021-0.13326 0.01211-0.27312 0.0021-0.41647v-6.3359c1.4779 1.2982 3.03 2.3615 4.2071 2.4948l0.5135-0.30326c0.02019 2.5501-0.19531 4.0598 0.41242 5.8406l-1.2555-1.1685v12.692h-34.203l5.3736 5.0825h2.327c0.34728 0.56129 0.74664 0.99687 1.2373 1.1342l1.1119-1.1342h28.295v-13.917l-2.0459-1.9004 1.6315-0.68332c-1.2175-1.276-1.1663-5.0326-1.0412-7.0658l-0.56608 0.33357c-2.2674-0.37555-4.7221-2.6403-5.8568-4.1788l-0.14152 0.0586v-11.863c0-4.2764 5.9255-5.9174 5.9255-5.9174s-1.6113-0.63834-3.1518-1.7973zm28.859 0.0707-1.209 1.0695c1.2074 0.7208 3.6865 3.0248 4.4335 4.8257l0.80059-0.85516c0.24027 2.8751 0.22397 6.1054-0.10512 7.6136l1.4859-1.1867c0.24229-2.5924 0.08229-5.5908-0.3821-7.7834l-1.0472 0.76622c-0.86617-1.5062-2.634-3.521-3.9766-4.4497zm8.8287 0.42658-1.1261 1.118c0.37352 0.9651 0.66272 2.1404 0.36996 7.9634l1.4212-1.3242c0.04037-4.3672-0.19469-5.5604-0.66512-7.7572zm-112.68 0.52766-0.14354 2.0742c0.81973 0.36949 2.3336 2.906 2.7879 3.5278 0.10701-0.11509 0.24094-0.49575 0.51957-0.83697 0.49669-0.59764 1.9286-1.4494 5.0057-1.3202l0.17589-1.9024c-3.5495 0.0424-4.6846 0.90818-4.9855 1.2575-0.28267 0.24834-0.3923 0.72005-0.46903 0.98455-0.54716-1.4477-2.891-3.7846-2.891-3.7846zm99.853 2.3027-1.2514 0.93604c0.52697 0.14739 1.9394 1.5586 3.9443 4.5407l1.1989-0.9886c0.16555 3.3112 0.42813 6.4491 0.068731 7.9634l1.4435-1.1241c0.29075-2.4188 0.21587-5.2314-0.13141-7.8016l-1.3424 0.86933c-1.7499-2.57-2.918-3.72-3.9315-4.41zm-5.3008 4.0555-1.7063 1.0391c0.77127 0.57946 4.2537 4.6026 5.8811 3.9948 0 0-0.73572 4.9747-0.60448 7.549l1.868-1.1968c-0.060553-1.3528 0.028776-7.0614 0.36593-8.392 0.068627-0.0727-1.0498 1.0812-1.5102 0.75813-0.73292-0.51082-1.9863-1.2203-4.294-3.7522zm-95.039 0.1577 0.04448 2.2885c0.91867 0.5512 2.3518 1.9983 2.7737 2.6464 0.57543-0.96915 1.2285-1.4706 5.3777-0.59436l0.02223-1.9812c-4.8942-0.23825-4.8239 0.20501-4.9794 0.83091-0.41996-0.77734-3.2387-3.1902-3.2387-3.1902zm88.687 3.2023-2.3229 1.2676c1.3447 1.3891 5.7508 4.8884 6.6533 4.9167l0.12332-0.095c0.016148 2.9478-0.35435 4.4789 0.77431 6.7382l2.1066-0.87943c-1.2135-1.2619-1.1583-5.0306-1.0391-7.0617l-0.072767-0.12737c-0.75109 0.26247-1.7054 0.0355-2.5574-0.69141-0.84799-0.72484-3.6653-4.0676-3.6653-4.0676zm-88.689 3.5784 0.12332 2.05c1.0862 0.25642 2.4165 0.92675 2.8789 1.5547 1.2458-0.63801 3.0172-0.58071 5.224 0.59841l-0.05863-2.0338c-2.6732-1.1993-4.0507-0.98582-5.032-0.40433-0.45025-0.78138-3.1356-1.7649-3.1356-1.7649zm80.62 1.3808-2.1167 0.87539c1.9181 2.0009 4.46 4.1952 6.1823 4.3911l0.51755-0.29719c0.02629 3.0064-0.36243 4.5295 0.77026 6.8171l2.1167-0.88145c-1.2195-1.2659-1.1663-5.0366-1.0452-7.0617l-0.55798 0.32953c-2.2775-0.36545-4.7261-2.6282-5.8669-4.1727zm-80.149 4.0858 0.52766 2.2784c1.2155 0.31296 2.0081 0.88835 2.4644 1.5244 0.24027-0.63802 1.0162-0.28649 2.0318 0.16376 0.89444 0.4139 1.5621 0.88824 2.5958 1.4536l-0.05256-2.05c-2.2573-1.4497-4.4623-2.5541-4.7813-1.5466-0.44015-0.76118-2.7859-1.8236-2.7859-1.8236zm1.0472 5.2462 0.28303 2.0641c0.98328 0.40381 1.7392 0.96321 2.2016 1.6517 1.064-0.13326 2.0065 0.2791 4.292 1.9166l-0.16982-1.9388c-2.334-1.9544-3.4723-1.8418-4.3042-1.8418-0.45429-0.83184-2.3027-1.8518-2.3027-1.8518zm40.755 15.543-0.66513 0.71568c0.20392 0.0969 0.43496 0.2023 0.66513 0.30325v-1.0189zm-3.0568 3.9807-0.92593 1.3909c2.2634 1.1892 4.4745 1.2777 6.4633 1.2777l0.11726-0.1678c0.82781 1.8293 1.628 3.7269 3.635 4.4841l1.1382-1.3202c-1.4739-0.5936-3.409-3.1174-3.7684-4.6337l-0.12534 0.18397c-2.2553 0.42804-4.9249-0.74054-6.5341-1.215zm-2.6969 4.0353-0.83091 1.4698c2.2613 0.69859 4.2286 0.81235 6.7463 0.52968l0.12939-0.23047c0.91059 1.6758 1.1453 2.6724 3.5036 4.0575l1.1422-1.3181c-1.484-0.59763-3.2857-2.99-3.6431-4.5083l-0.24664 0.39221c-2.3401 0.60167-5.1837 0.0802-6.8009-0.39221zm-2.0459 4.2071-0.67726 1.5425c2.4511 0.83992 4.7268 1.0144 6.3845 0.66917 0.84396 1.3931 1.7615 2.71 3.7846 3.4652l0.73993-1.3181c-1.6718-0.6885-3.2334-1.5735-3.7805-3.6208-2.3542 0.59562-4.8279-0.26545-6.4512-0.73791zm-1.3121 3.5541-0.44679 1.3707c2.2674 1.1731 4.4498 0.9942 6.1034 0.63885 0.91059 1.2942 1.6766 2.0206 3.6896 2.7717l0.72174-1.0432c-2.1462-0.26046-2.9873-1.3584-3.9564-2.8081-2.3381 0.59561-4.5023-0.45348-6.1115-0.92998z" fill="#003278"/>
   </g>
  </g>
 </g>
</svg>
